%TF.GenerationSoftware,KiCad,Pcbnew,9.0.6*%
%TF.CreationDate,2026-01-15T19:42:32+05:30*%
%TF.ProjectId,GPS TRACKER USING STM32,47505320-5452-4414-934b-455220555349,rev?*%
%TF.SameCoordinates,Original*%
%TF.FileFunction,Soldermask,Top*%
%TF.FilePolarity,Negative*%
%FSLAX46Y46*%
G04 Gerber Fmt 4.6, Leading zero omitted, Abs format (unit mm)*
G04 Created by KiCad (PCBNEW 9.0.6) date 2026-01-15 19:42:32*
%MOMM*%
%LPD*%
G01*
G04 APERTURE LIST*
G04 Aperture macros list*
%AMRoundRect*
0 Rectangle with rounded corners*
0 $1 Rounding radius*
0 $2 $3 $4 $5 $6 $7 $8 $9 X,Y pos of 4 corners*
0 Add a 4 corners polygon primitive as box body*
4,1,4,$2,$3,$4,$5,$6,$7,$8,$9,$2,$3,0*
0 Add four circle primitives for the rounded corners*
1,1,$1+$1,$2,$3*
1,1,$1+$1,$4,$5*
1,1,$1+$1,$6,$7*
1,1,$1+$1,$8,$9*
0 Add four rect primitives between the rounded corners*
20,1,$1+$1,$2,$3,$4,$5,0*
20,1,$1+$1,$4,$5,$6,$7,0*
20,1,$1+$1,$6,$7,$8,$9,0*
20,1,$1+$1,$8,$9,$2,$3,0*%
G04 Aperture macros list end*
%ADD10C,0.800000*%
%ADD11C,5.000000*%
%ADD12RoundRect,0.250000X-1.400000X-1.000000X1.400000X-1.000000X1.400000X1.000000X-1.400000X1.000000X0*%
%ADD13RoundRect,0.250000X-1.150000X-0.250000X1.150000X-0.250000X1.150000X0.250000X-1.150000X0.250000X0*%
%ADD14RoundRect,0.237500X0.237500X-0.300000X0.237500X0.300000X-0.237500X0.300000X-0.237500X-0.300000X0*%
%ADD15RoundRect,0.100000X0.100000X-0.217500X0.100000X0.217500X-0.100000X0.217500X-0.100000X-0.217500X0*%
%ADD16RoundRect,0.147500X0.172500X-0.147500X0.172500X0.147500X-0.172500X0.147500X-0.172500X-0.147500X0*%
%ADD17R,1.550000X0.600000*%
%ADD18R,2.600000X3.100000*%
%ADD19R,1.700000X1.700000*%
%ADD20C,1.700000*%
%ADD21RoundRect,0.100000X0.130000X0.100000X-0.130000X0.100000X-0.130000X-0.100000X0.130000X-0.100000X0*%
%ADD22RoundRect,0.250000X-0.950000X0.750000X-0.950000X-0.750000X0.950000X-0.750000X0.950000X0.750000X0*%
%ADD23RoundRect,0.237500X-0.300000X-0.237500X0.300000X-0.237500X0.300000X0.237500X-0.300000X0.237500X0*%
%ADD24RoundRect,0.100000X0.217500X0.100000X-0.217500X0.100000X-0.217500X-0.100000X0.217500X-0.100000X0*%
%ADD25RoundRect,0.075000X-0.415425X-0.521491X0.521491X0.415425X0.415425X0.521491X-0.521491X-0.415425X0*%
%ADD26RoundRect,0.075000X0.415425X-0.521491X0.521491X-0.415425X-0.415425X0.521491X-0.521491X0.415425X0*%
%ADD27RoundRect,0.102000X-0.825000X-0.825000X0.825000X-0.825000X0.825000X0.825000X-0.825000X0.825000X0*%
%ADD28C,1.854000*%
%ADD29RoundRect,0.100000X0.100000X-0.130000X0.100000X0.130000X-0.100000X0.130000X-0.100000X-0.130000X0*%
%ADD30RoundRect,0.237500X-0.237500X0.300000X-0.237500X-0.300000X0.237500X-0.300000X0.237500X0.300000X0*%
%ADD31RoundRect,0.148500X0.148500X-0.483500X0.148500X0.483500X-0.148500X0.483500X-0.148500X-0.483500X0*%
%ADD32RoundRect,0.100000X-0.100000X0.217500X-0.100000X-0.217500X0.100000X-0.217500X0.100000X0.217500X0*%
%ADD33R,2.700000X3.600000*%
G04 APERTURE END LIST*
D10*
%TO.C,H4*%
X97020825Y-125844175D03*
X97570000Y-124518350D03*
X97570000Y-127170000D03*
X98895825Y-123969175D03*
D11*
X98895825Y-125844175D03*
D10*
X98895825Y-127719175D03*
X100221650Y-124518350D03*
X100221650Y-127170000D03*
X100770825Y-125844175D03*
%TD*%
%TO.C,H3*%
X132230000Y-72010000D03*
X132779175Y-70684175D03*
X132779175Y-73335825D03*
X134105000Y-70135000D03*
D11*
X134105000Y-72010000D03*
D10*
X134105000Y-73885000D03*
X135430825Y-70684175D03*
X135430825Y-73335825D03*
X135980000Y-72010000D03*
%TD*%
%TO.C,H2*%
X97155000Y-72070000D03*
X97704175Y-70744175D03*
X97704175Y-73395825D03*
X99030000Y-70195000D03*
D11*
X99030000Y-72070000D03*
D10*
X99030000Y-73945000D03*
X100355825Y-70744175D03*
X100355825Y-73395825D03*
X100905000Y-72070000D03*
%TD*%
%TO.C,H1*%
X132215000Y-125800000D03*
X132764175Y-124474175D03*
X132764175Y-127125825D03*
X134090000Y-123925000D03*
D11*
X134090000Y-125800000D03*
D10*
X134090000Y-127675000D03*
X135415825Y-124474175D03*
X135415825Y-127125825D03*
X135965000Y-125800000D03*
%TD*%
D12*
%TO.C,D2*%
X126200000Y-82400000D03*
X126200000Y-75600000D03*
%TD*%
D13*
%TO.C,SW2*%
X104270000Y-120320000D03*
X110070000Y-120320000D03*
X104270000Y-124320000D03*
X110070000Y-124320000D03*
%TD*%
D14*
%TO.C,C19*%
X120640000Y-92477500D03*
X120640000Y-90752500D03*
%TD*%
D15*
%TO.C,R13*%
X121260000Y-116580000D03*
X121260000Y-115765000D03*
%TD*%
%TO.C,R12*%
X118208571Y-116757500D03*
X118208571Y-115942500D03*
%TD*%
%TO.C,R6*%
X118766667Y-89267500D03*
X118766667Y-88452500D03*
%TD*%
D16*
%TO.C,F1*%
X111811627Y-76263978D03*
X111811627Y-75293978D03*
%TD*%
D17*
%TO.C,U2*%
X119540000Y-85825000D03*
X119540000Y-84555000D03*
X119540000Y-83285000D03*
X119540000Y-82015000D03*
X114140000Y-82015000D03*
X114140000Y-83285000D03*
X114140000Y-84555000D03*
X114140000Y-85825000D03*
D18*
X116840000Y-83920000D03*
%TD*%
D15*
%TO.C,R9*%
X107220000Y-116757500D03*
X107220000Y-115942500D03*
%TD*%
D19*
%TO.C,J2*%
X98320000Y-114430000D03*
D20*
X98320000Y-111890000D03*
X98320000Y-109350000D03*
X98320000Y-106810000D03*
X98320000Y-104270000D03*
X98320000Y-101730000D03*
X98320000Y-99190000D03*
X98320000Y-96650000D03*
%TD*%
D21*
%TO.C,D3*%
X125445000Y-83560000D03*
X126085000Y-83560000D03*
%TD*%
D14*
%TO.C,C12*%
X108680000Y-117932500D03*
X108680000Y-116207500D03*
%TD*%
D15*
%TO.C,R11*%
X110585714Y-116757500D03*
X110585714Y-115942500D03*
%TD*%
D14*
%TO.C,C15*%
X114890000Y-92477500D03*
X114890000Y-90752500D03*
%TD*%
%TO.C,C14*%
X114777143Y-117932500D03*
X114777143Y-116207500D03*
%TD*%
D22*
%TO.C,Y1*%
X106560000Y-104360000D03*
X106560000Y-108060000D03*
%TD*%
D14*
%TO.C,C4*%
X111565436Y-79214167D03*
X111565436Y-77489167D03*
%TD*%
D23*
%TO.C,C6*%
X113857500Y-88840000D03*
X115582500Y-88840000D03*
%TD*%
D24*
%TO.C,R8*%
X123277500Y-83680000D03*
X124092500Y-83680000D03*
%TD*%
D14*
%TO.C,C18*%
X119350000Y-92477500D03*
X119350000Y-90752500D03*
%TD*%
D23*
%TO.C,C10*%
X106742500Y-100070000D03*
X108467500Y-100070000D03*
%TD*%
D14*
%TO.C,C17*%
X117750000Y-92477500D03*
X117750000Y-90752500D03*
%TD*%
D25*
%TO.C,U4*%
X112722124Y-104558788D03*
X113075678Y-104912342D03*
X113429231Y-105265895D03*
X113782785Y-105619449D03*
X114136338Y-105973002D03*
X114489891Y-106326555D03*
X114843445Y-106680109D03*
X115196998Y-107033662D03*
X115550551Y-107387215D03*
X115904105Y-107740769D03*
X116257658Y-108094322D03*
X116611212Y-108447876D03*
D26*
X118608788Y-108447876D03*
X118962342Y-108094322D03*
X119315895Y-107740769D03*
X119669449Y-107387215D03*
X120023002Y-107033662D03*
X120376555Y-106680109D03*
X120730109Y-106326555D03*
X121083662Y-105973002D03*
X121437215Y-105619449D03*
X121790769Y-105265895D03*
X122144322Y-104912342D03*
X122497876Y-104558788D03*
D25*
X122497876Y-102561212D03*
X122144322Y-102207658D03*
X121790769Y-101854105D03*
X121437215Y-101500551D03*
X121083662Y-101146998D03*
X120730109Y-100793445D03*
X120376555Y-100439891D03*
X120023002Y-100086338D03*
X119669449Y-99732785D03*
X119315895Y-99379231D03*
X118962342Y-99025678D03*
X118608788Y-98672124D03*
D26*
X116611212Y-98672124D03*
X116257658Y-99025678D03*
X115904105Y-99379231D03*
X115550551Y-99732785D03*
X115196998Y-100086338D03*
X114843445Y-100439891D03*
X114489891Y-100793445D03*
X114136338Y-101146998D03*
X113782785Y-101500551D03*
X113429231Y-101854105D03*
X113075678Y-102207658D03*
X112722124Y-102561212D03*
%TD*%
D23*
%TO.C,C13*%
X104757500Y-112290000D03*
X106482500Y-112290000D03*
%TD*%
D27*
%TO.C,P1*%
X102580000Y-79080000D03*
D28*
X107660000Y-79080000D03*
%TD*%
D14*
%TO.C,C16*%
X116440000Y-92477500D03*
X116440000Y-90752500D03*
%TD*%
D15*
%TO.C,R7*%
X116990000Y-89287500D03*
X116990000Y-88472500D03*
%TD*%
D29*
%TO.C,D5*%
X119734286Y-116460000D03*
X119734286Y-115820000D03*
%TD*%
D14*
%TO.C,C11*%
X112491429Y-117932500D03*
X112491429Y-116207500D03*
%TD*%
D30*
%TO.C,C1*%
X112070000Y-87992500D03*
X112070000Y-89717500D03*
%TD*%
D19*
%TO.C,J3*%
X134170000Y-114190000D03*
D20*
X134170000Y-111650000D03*
X134170000Y-109110000D03*
X134170000Y-106570000D03*
X134170000Y-104030000D03*
X134170000Y-101490000D03*
X134170000Y-98950000D03*
X134170000Y-96410000D03*
%TD*%
D31*
%TO.C,Q1*%
X114438819Y-77017994D03*
X115088819Y-77017994D03*
X115738819Y-77017994D03*
X115738819Y-75147994D03*
X115088819Y-75147994D03*
X114438819Y-75147994D03*
%TD*%
D32*
%TO.C,R5*%
X120790000Y-88502500D03*
X120790000Y-89317500D03*
%TD*%
D13*
%TO.C,SW1*%
X123510000Y-120320000D03*
X129310000Y-120320000D03*
X123510000Y-124320000D03*
X129310000Y-124320000D03*
%TD*%
D29*
%TO.C,D4*%
X116682857Y-116500000D03*
X116682857Y-115860000D03*
%TD*%
D33*
%TO.C,L1*%
X101090000Y-89170000D03*
X109390000Y-89170000D03*
%TD*%
M02*
