%TF.GenerationSoftware,KiCad,Pcbnew,9.0.6*%
%TF.CreationDate,2026-01-15T19:42:32+05:30*%
%TF.ProjectId,GPS TRACKER USING STM32,47505320-5452-4414-934b-455220555349,rev?*%
%TF.SameCoordinates,Original*%
%TF.FileFunction,Paste,Bot*%
%TF.FilePolarity,Positive*%
%FSLAX46Y46*%
G04 Gerber Fmt 4.6, Leading zero omitted, Abs format (unit mm)*
G04 Created by KiCad (PCBNEW 9.0.6) date 2026-01-15 19:42:32*
%MOMM*%
%LPD*%
G01*
G04 APERTURE LIST*
G04 Aperture macros list*
%AMRoundRect*
0 Rectangle with rounded corners*
0 $1 Rounding radius*
0 $2 $3 $4 $5 $6 $7 $8 $9 X,Y pos of 4 corners*
0 Add a 4 corners polygon primitive as box body*
4,1,4,$2,$3,$4,$5,$6,$7,$8,$9,$2,$3,0*
0 Add four circle primitives for the rounded corners*
1,1,$1+$1,$2,$3*
1,1,$1+$1,$4,$5*
1,1,$1+$1,$6,$7*
1,1,$1+$1,$8,$9*
0 Add four rect primitives between the rounded corners*
20,1,$1+$1,$2,$3,$4,$5,0*
20,1,$1+$1,$4,$5,$6,$7,0*
20,1,$1+$1,$6,$7,$8,$9,0*
20,1,$1+$1,$8,$9,$2,$3,0*%
G04 Aperture macros list end*
%ADD10O,0.600000X1.600000*%
%ADD11O,1.600000X0.600000*%
%ADD12RoundRect,0.090000X-0.139000X-0.090000X0.139000X-0.090000X0.139000X0.090000X-0.139000X0.090000X0*%
%ADD13RoundRect,0.243750X0.243750X0.456250X-0.243750X0.456250X-0.243750X-0.456250X0.243750X-0.456250X0*%
%ADD14R,1.050000X1.000000*%
%ADD15R,1.050000X2.200000*%
%ADD16RoundRect,0.097500X0.432500X0.097500X-0.432500X0.097500X-0.432500X-0.097500X0.432500X-0.097500X0*%
%ADD17RoundRect,0.237500X-0.237500X0.300000X-0.237500X-0.300000X0.237500X-0.300000X0.237500X0.300000X0*%
%ADD18R,1.500000X1.000000*%
%ADD19R,1.600000X1.500000*%
%ADD20RoundRect,0.090000X-0.090000X0.139000X-0.090000X-0.139000X0.090000X-0.139000X0.090000X0.139000X0*%
%ADD21RoundRect,0.237500X0.300000X0.237500X-0.300000X0.237500X-0.300000X-0.237500X0.300000X-0.237500X0*%
%ADD22RoundRect,0.250000X1.045000X-0.785000X1.045000X0.785000X-1.045000X0.785000X-1.045000X-0.785000X0*%
%ADD23R,2.200000X1.050000*%
%ADD24R,1.000000X1.050000*%
G04 APERTURE END LIST*
D10*
%TO.C,U1*%
X122064000Y-81414000D03*
X121064000Y-81414000D03*
X120064000Y-81414000D03*
X119064000Y-81414000D03*
X118064000Y-81414000D03*
X117064000Y-81414000D03*
X116064000Y-81414000D03*
X115064000Y-81414000D03*
X114064000Y-81414000D03*
X113064000Y-81414000D03*
X112064000Y-81414000D03*
X111064000Y-81414000D03*
X110064000Y-81414000D03*
X109064000Y-81414000D03*
X108064000Y-81414000D03*
X107064000Y-81414000D03*
X106064000Y-81414000D03*
D11*
X102064000Y-85414000D03*
X102064000Y-86414000D03*
X102064000Y-87414000D03*
X102064000Y-88414000D03*
X102064000Y-89414000D03*
X102064000Y-90414000D03*
X102064000Y-91414000D03*
X102064000Y-92414000D03*
X102064000Y-93414000D03*
X102064000Y-94414000D03*
X102064000Y-95414000D03*
X102064000Y-96414000D03*
X102064000Y-97414000D03*
X102064000Y-98414000D03*
X102064000Y-99414000D03*
X102064000Y-100414000D03*
X102064000Y-101414000D03*
D10*
X106064000Y-105414000D03*
X107064000Y-105414000D03*
X108064000Y-105414000D03*
X109064000Y-105414000D03*
X110064000Y-105414000D03*
X111064000Y-105414000D03*
X112064000Y-105414000D03*
X113064000Y-105414000D03*
X114064000Y-105414000D03*
X115064000Y-105414000D03*
X116064000Y-105414000D03*
X117064000Y-105414000D03*
X118064000Y-105414000D03*
X119064000Y-105414000D03*
X120064000Y-105414000D03*
X121064000Y-105414000D03*
X122064000Y-105414000D03*
D11*
X126064000Y-101414000D03*
X126064000Y-100414000D03*
X126064000Y-99414000D03*
X126064000Y-98414000D03*
X126064000Y-97414000D03*
X126064000Y-96414000D03*
X126064000Y-95414000D03*
X126064000Y-94414000D03*
X126064000Y-93414000D03*
X126064000Y-92414000D03*
X126064000Y-91414000D03*
X126064000Y-90414000D03*
X126064000Y-89414000D03*
X126064000Y-88414000D03*
X126064000Y-87414000D03*
X126064000Y-86414000D03*
X126064000Y-85414000D03*
%TD*%
D12*
%TO.C,R1*%
X124520000Y-104450000D03*
X123655000Y-104450000D03*
%TD*%
D13*
%TO.C,D1*%
X128525000Y-98420000D03*
X130400000Y-98420000D03*
%TD*%
D14*
%TO.C,GSM1*%
X124815000Y-77168500D03*
D15*
X123340000Y-75643500D03*
X126290000Y-75643500D03*
%TD*%
D16*
%TO.C,U3*%
X106830000Y-115660000D03*
X106830000Y-116310000D03*
X106830000Y-116960000D03*
X104960000Y-116960000D03*
X104960000Y-116310000D03*
X104960000Y-115660000D03*
%TD*%
D17*
%TO.C,C7*%
X116490000Y-107147500D03*
X116490000Y-108872500D03*
%TD*%
%TO.C,C8*%
X103690000Y-113477500D03*
X103690000Y-115202500D03*
%TD*%
D18*
%TO.C,J4*%
X122280000Y-123110000D03*
X122280000Y-120570000D03*
X122280000Y-118030000D03*
X109680000Y-123110000D03*
X109680000Y-120570000D03*
X109680000Y-118030000D03*
D19*
X115230000Y-111760000D03*
X117930000Y-111760000D03*
X115230000Y-126660000D03*
X117930000Y-126660000D03*
%TD*%
D20*
%TO.C,R10*%
X107120000Y-107607500D03*
X107120000Y-108472500D03*
%TD*%
%TO.C,R2*%
X114237500Y-107557500D03*
X114237500Y-108422500D03*
%TD*%
D21*
%TO.C,C5*%
X126735000Y-103600000D03*
X128460000Y-103600000D03*
%TD*%
D20*
%TO.C,R4*%
X111865000Y-107487500D03*
X111865000Y-108352500D03*
%TD*%
D21*
%TO.C,C2*%
X128570000Y-94790000D03*
X130295000Y-94790000D03*
%TD*%
D22*
%TO.C,C9*%
X129322500Y-86200000D03*
X129322500Y-92440000D03*
%TD*%
D21*
%TO.C,C3*%
X128570000Y-96420000D03*
X130295000Y-96420000D03*
%TD*%
D20*
%TO.C,R3*%
X109492500Y-107487500D03*
X109492500Y-108352500D03*
%TD*%
D23*
%TO.C,GPS1*%
X102780000Y-100130000D03*
X102780000Y-103080000D03*
D24*
X104305000Y-101605000D03*
%TD*%
M02*
