%TF.GenerationSoftware,KiCad,Pcbnew,9.0.6*%
%TF.CreationDate,2026-01-15T19:42:32+05:30*%
%TF.ProjectId,GPS TRACKER USING STM32,47505320-5452-4414-934b-455220555349,rev?*%
%TF.SameCoordinates,Original*%
%TF.FileFunction,Soldermask,Bot*%
%TF.FilePolarity,Negative*%
%FSLAX46Y46*%
G04 Gerber Fmt 4.6, Leading zero omitted, Abs format (unit mm)*
G04 Created by KiCad (PCBNEW 9.0.6) date 2026-01-15 19:42:32*
%MOMM*%
%LPD*%
G01*
G04 APERTURE LIST*
G04 Aperture macros list*
%AMRoundRect*
0 Rectangle with rounded corners*
0 $1 Rounding radius*
0 $2 $3 $4 $5 $6 $7 $8 $9 X,Y pos of 4 corners*
0 Add a 4 corners polygon primitive as box body*
4,1,4,$2,$3,$4,$5,$6,$7,$8,$9,$2,$3,0*
0 Add four circle primitives for the rounded corners*
1,1,$1+$1,$2,$3*
1,1,$1+$1,$4,$5*
1,1,$1+$1,$6,$7*
1,1,$1+$1,$8,$9*
0 Add four rect primitives between the rounded corners*
20,1,$1+$1,$2,$3,$4,$5,0*
20,1,$1+$1,$4,$5,$6,$7,0*
20,1,$1+$1,$6,$7,$8,$9,0*
20,1,$1+$1,$8,$9,$2,$3,0*%
G04 Aperture macros list end*
%ADD10C,0.800000*%
%ADD11C,5.000000*%
%ADD12R,1.700000X1.700000*%
%ADD13C,1.700000*%
%ADD14RoundRect,0.102000X-0.825000X-0.825000X0.825000X-0.825000X0.825000X0.825000X-0.825000X0.825000X0*%
%ADD15C,1.854000*%
%ADD16O,0.804000X1.804000*%
%ADD17O,1.804000X0.804000*%
%ADD18RoundRect,0.100000X-0.217500X-0.100000X0.217500X-0.100000X0.217500X0.100000X-0.217500X0.100000X0*%
%ADD19RoundRect,0.243750X0.243750X0.456250X-0.243750X0.456250X-0.243750X-0.456250X0.243750X-0.456250X0*%
%ADD20RoundRect,0.102000X0.525000X0.500000X-0.525000X0.500000X-0.525000X-0.500000X0.525000X-0.500000X0*%
%ADD21RoundRect,0.102000X0.525000X1.100000X-0.525000X1.100000X-0.525000X-1.100000X0.525000X-1.100000X0*%
%ADD22RoundRect,0.148500X0.483500X0.148500X-0.483500X0.148500X-0.483500X-0.148500X0.483500X-0.148500X0*%
%ADD23RoundRect,0.237500X-0.237500X0.300000X-0.237500X-0.300000X0.237500X-0.300000X0.237500X0.300000X0*%
%ADD24RoundRect,0.102000X0.750000X-0.500000X0.750000X0.500000X-0.750000X0.500000X-0.750000X-0.500000X0*%
%ADD25RoundRect,0.102000X0.800000X-0.750000X0.800000X0.750000X-0.800000X0.750000X-0.800000X-0.750000X0*%
%ADD26RoundRect,0.100000X-0.100000X0.217500X-0.100000X-0.217500X0.100000X-0.217500X0.100000X0.217500X0*%
%ADD27RoundRect,0.237500X0.300000X0.237500X-0.300000X0.237500X-0.300000X-0.237500X0.300000X-0.237500X0*%
%ADD28RoundRect,0.250000X1.045000X-0.785000X1.045000X0.785000X-1.045000X0.785000X-1.045000X-0.785000X0*%
%ADD29RoundRect,0.102000X-1.100000X0.525000X-1.100000X-0.525000X1.100000X-0.525000X1.100000X0.525000X0*%
%ADD30RoundRect,0.102000X-0.500000X0.525000X-0.500000X-0.525000X0.500000X-0.525000X0.500000X0.525000X0*%
G04 APERTURE END LIST*
D10*
%TO.C,H4*%
X97020825Y-125844175D03*
X97570000Y-124518350D03*
X97570000Y-127170000D03*
X98895825Y-123969175D03*
D11*
X98895825Y-125844175D03*
D10*
X98895825Y-127719175D03*
X100221650Y-124518350D03*
X100221650Y-127170000D03*
X100770825Y-125844175D03*
%TD*%
%TO.C,H3*%
X132230000Y-72010000D03*
X132779175Y-70684175D03*
X132779175Y-73335825D03*
X134105000Y-70135000D03*
D11*
X134105000Y-72010000D03*
D10*
X134105000Y-73885000D03*
X135430825Y-70684175D03*
X135430825Y-73335825D03*
X135980000Y-72010000D03*
%TD*%
%TO.C,H2*%
X97155000Y-72070000D03*
X97704175Y-70744175D03*
X97704175Y-73395825D03*
X99030000Y-70195000D03*
D11*
X99030000Y-72070000D03*
D10*
X99030000Y-73945000D03*
X100355825Y-70744175D03*
X100355825Y-73395825D03*
X100905000Y-72070000D03*
%TD*%
%TO.C,H1*%
X132215000Y-125800000D03*
X132764175Y-124474175D03*
X132764175Y-127125825D03*
X134090000Y-123925000D03*
D11*
X134090000Y-125800000D03*
D10*
X134090000Y-127675000D03*
X135415825Y-124474175D03*
X135415825Y-127125825D03*
X135965000Y-125800000D03*
%TD*%
D12*
%TO.C,J2*%
X98320000Y-114430000D03*
D13*
X98320000Y-111890000D03*
X98320000Y-109350000D03*
X98320000Y-106810000D03*
X98320000Y-104270000D03*
X98320000Y-101730000D03*
X98320000Y-99190000D03*
X98320000Y-96650000D03*
%TD*%
D14*
%TO.C,P1*%
X102580000Y-79080000D03*
D15*
X107660000Y-79080000D03*
%TD*%
D12*
%TO.C,J3*%
X134170000Y-114190000D03*
D13*
X134170000Y-111650000D03*
X134170000Y-109110000D03*
X134170000Y-106570000D03*
X134170000Y-104030000D03*
X134170000Y-101490000D03*
X134170000Y-98950000D03*
X134170000Y-96410000D03*
%TD*%
D16*
%TO.C,U1*%
X122064000Y-81414000D03*
X121064000Y-81414000D03*
X120064000Y-81414000D03*
X119064000Y-81414000D03*
X118064000Y-81414000D03*
X117064000Y-81414000D03*
X116064000Y-81414000D03*
X115064000Y-81414000D03*
X114064000Y-81414000D03*
X113064000Y-81414000D03*
X112064000Y-81414000D03*
X111064000Y-81414000D03*
X110064000Y-81414000D03*
X109064000Y-81414000D03*
X108064000Y-81414000D03*
X107064000Y-81414000D03*
X106064000Y-81414000D03*
D17*
X102064000Y-85414000D03*
X102064000Y-86414000D03*
X102064000Y-87414000D03*
X102064000Y-88414000D03*
X102064000Y-89414000D03*
X102064000Y-90414000D03*
X102064000Y-91414000D03*
X102064000Y-92414000D03*
X102064000Y-93414000D03*
X102064000Y-94414000D03*
X102064000Y-95414000D03*
X102064000Y-96414000D03*
X102064000Y-97414000D03*
X102064000Y-98414000D03*
X102064000Y-99414000D03*
X102064000Y-100414000D03*
X102064000Y-101414000D03*
D16*
X106064000Y-105414000D03*
X107064000Y-105414000D03*
X108064000Y-105414000D03*
X109064000Y-105414000D03*
X110064000Y-105414000D03*
X111064000Y-105414000D03*
X112064000Y-105414000D03*
X113064000Y-105414000D03*
X114064000Y-105414000D03*
X115064000Y-105414000D03*
X116064000Y-105414000D03*
X117064000Y-105414000D03*
X118064000Y-105414000D03*
X119064000Y-105414000D03*
X120064000Y-105414000D03*
X121064000Y-105414000D03*
X122064000Y-105414000D03*
D17*
X126064000Y-101414000D03*
X126064000Y-100414000D03*
X126064000Y-99414000D03*
X126064000Y-98414000D03*
X126064000Y-97414000D03*
X126064000Y-96414000D03*
X126064000Y-95414000D03*
X126064000Y-94414000D03*
X126064000Y-93414000D03*
X126064000Y-92414000D03*
X126064000Y-91414000D03*
X126064000Y-90414000D03*
X126064000Y-89414000D03*
X126064000Y-88414000D03*
X126064000Y-87414000D03*
X126064000Y-86414000D03*
X126064000Y-85414000D03*
%TD*%
D18*
%TO.C,R1*%
X124495000Y-104450000D03*
X123680000Y-104450000D03*
%TD*%
D19*
%TO.C,D1*%
X128525000Y-98420000D03*
X130400000Y-98420000D03*
%TD*%
D20*
%TO.C,GSM1*%
X124815000Y-77168500D03*
D21*
X123340000Y-75643500D03*
X126290000Y-75643500D03*
%TD*%
D22*
%TO.C,U3*%
X106830000Y-115660000D03*
X106830000Y-116310000D03*
X106830000Y-116960000D03*
X104960000Y-116960000D03*
X104960000Y-116310000D03*
X104960000Y-115660000D03*
%TD*%
D23*
%TO.C,C7*%
X116490000Y-107147500D03*
X116490000Y-108872500D03*
%TD*%
%TO.C,C8*%
X103690000Y-113477500D03*
X103690000Y-115202500D03*
%TD*%
D24*
%TO.C,J4*%
X122280000Y-123110000D03*
X122280000Y-120570000D03*
X122280000Y-118030000D03*
X109680000Y-123110000D03*
X109680000Y-120570000D03*
X109680000Y-118030000D03*
D25*
X115230000Y-111760000D03*
X117930000Y-111760000D03*
X115230000Y-126660000D03*
X117930000Y-126660000D03*
%TD*%
D26*
%TO.C,R10*%
X107120000Y-107632500D03*
X107120000Y-108447500D03*
%TD*%
%TO.C,R2*%
X114237500Y-107582500D03*
X114237500Y-108397500D03*
%TD*%
D27*
%TO.C,C5*%
X126735000Y-103600000D03*
X128460000Y-103600000D03*
%TD*%
D26*
%TO.C,R4*%
X111865000Y-107512500D03*
X111865000Y-108327500D03*
%TD*%
D27*
%TO.C,C2*%
X128570000Y-94790000D03*
X130295000Y-94790000D03*
%TD*%
D28*
%TO.C,C9*%
X129322500Y-86200000D03*
X129322500Y-92440000D03*
%TD*%
D27*
%TO.C,C3*%
X128570000Y-96420000D03*
X130295000Y-96420000D03*
%TD*%
D26*
%TO.C,R3*%
X109492500Y-107512500D03*
X109492500Y-108327500D03*
%TD*%
D29*
%TO.C,GPS1*%
X102780000Y-100130000D03*
X102780000Y-103080000D03*
D30*
X104305000Y-101605000D03*
%TD*%
M02*
