%TF.GenerationSoftware,KiCad,Pcbnew,9.0.6*%
%TF.CreationDate,2026-01-15T19:42:32+05:30*%
%TF.ProjectId,GPS TRACKER USING STM32,47505320-5452-4414-934b-455220555349,rev?*%
%TF.SameCoordinates,Original*%
%TF.FileFunction,Paste,Top*%
%TF.FilePolarity,Positive*%
%FSLAX46Y46*%
G04 Gerber Fmt 4.6, Leading zero omitted, Abs format (unit mm)*
G04 Created by KiCad (PCBNEW 9.0.6) date 2026-01-15 19:42:32*
%MOMM*%
%LPD*%
G01*
G04 APERTURE LIST*
G04 Aperture macros list*
%AMRoundRect*
0 Rectangle with rounded corners*
0 $1 Rounding radius*
0 $2 $3 $4 $5 $6 $7 $8 $9 X,Y pos of 4 corners*
0 Add a 4 corners polygon primitive as box body*
4,1,4,$2,$3,$4,$5,$6,$7,$8,$9,$2,$3,0*
0 Add four circle primitives for the rounded corners*
1,1,$1+$1,$2,$3*
1,1,$1+$1,$4,$5*
1,1,$1+$1,$6,$7*
1,1,$1+$1,$8,$9*
0 Add four rect primitives between the rounded corners*
20,1,$1+$1,$2,$3,$4,$5,0*
20,1,$1+$1,$4,$5,$6,$7,0*
20,1,$1+$1,$6,$7,$8,$9,0*
20,1,$1+$1,$8,$9,$2,$3,0*%
G04 Aperture macros list end*
%ADD10RoundRect,0.250000X-1.400000X-1.000000X1.400000X-1.000000X1.400000X1.000000X-1.400000X1.000000X0*%
%ADD11RoundRect,0.250000X-1.150000X-0.250000X1.150000X-0.250000X1.150000X0.250000X-1.150000X0.250000X0*%
%ADD12RoundRect,0.237500X0.237500X-0.300000X0.237500X0.300000X-0.237500X0.300000X-0.237500X-0.300000X0*%
%ADD13RoundRect,0.090000X0.090000X-0.139000X0.090000X0.139000X-0.090000X0.139000X-0.090000X-0.139000X0*%
%ADD14RoundRect,0.147500X0.172500X-0.147500X0.172500X0.147500X-0.172500X0.147500X-0.172500X-0.147500X0*%
%ADD15R,1.550000X0.600000*%
%ADD16R,2.600000X3.100000*%
%ADD17RoundRect,0.079500X0.079500X0.100500X-0.079500X0.100500X-0.079500X-0.100500X0.079500X-0.100500X0*%
%ADD18RoundRect,0.250000X-0.950000X0.750000X-0.950000X-0.750000X0.950000X-0.750000X0.950000X0.750000X0*%
%ADD19RoundRect,0.237500X-0.300000X-0.237500X0.300000X-0.237500X0.300000X0.237500X-0.300000X0.237500X0*%
%ADD20RoundRect,0.090000X0.139000X0.090000X-0.139000X0.090000X-0.139000X-0.090000X0.139000X-0.090000X0*%
%ADD21RoundRect,0.075000X-0.415425X-0.521491X0.521491X0.415425X0.415425X0.521491X-0.521491X-0.415425X0*%
%ADD22RoundRect,0.075000X0.415425X-0.521491X0.521491X-0.415425X-0.415425X0.521491X-0.521491X0.415425X0*%
%ADD23RoundRect,0.079500X0.100500X-0.079500X0.100500X0.079500X-0.100500X0.079500X-0.100500X-0.079500X0*%
%ADD24RoundRect,0.237500X-0.237500X0.300000X-0.237500X-0.300000X0.237500X-0.300000X0.237500X0.300000X0*%
%ADD25RoundRect,0.097500X0.097500X-0.432500X0.097500X0.432500X-0.097500X0.432500X-0.097500X-0.432500X0*%
%ADD26RoundRect,0.090000X-0.090000X0.139000X-0.090000X-0.139000X0.090000X-0.139000X0.090000X0.139000X0*%
%ADD27R,2.700000X3.600000*%
G04 APERTURE END LIST*
D10*
%TO.C,D2*%
X126200000Y-82400000D03*
X126200000Y-75600000D03*
%TD*%
D11*
%TO.C,SW2*%
X104270000Y-120320000D03*
X110070000Y-120320000D03*
X104270000Y-124320000D03*
X110070000Y-124320000D03*
%TD*%
D12*
%TO.C,C19*%
X120640000Y-92477500D03*
X120640000Y-90752500D03*
%TD*%
D13*
%TO.C,R13*%
X121260000Y-116605000D03*
X121260000Y-115740000D03*
%TD*%
%TO.C,R12*%
X118208571Y-116782500D03*
X118208571Y-115917500D03*
%TD*%
%TO.C,R6*%
X118766667Y-89292500D03*
X118766667Y-88427500D03*
%TD*%
D14*
%TO.C,F1*%
X111811627Y-76263978D03*
X111811627Y-75293978D03*
%TD*%
D15*
%TO.C,U2*%
X119540000Y-85825000D03*
X119540000Y-84555000D03*
X119540000Y-83285000D03*
X119540000Y-82015000D03*
X114140000Y-82015000D03*
X114140000Y-83285000D03*
X114140000Y-84555000D03*
X114140000Y-85825000D03*
D16*
X116840000Y-83920000D03*
%TD*%
D13*
%TO.C,R9*%
X107220000Y-116782500D03*
X107220000Y-115917500D03*
%TD*%
D17*
%TO.C,D3*%
X125420000Y-83560000D03*
X126110000Y-83560000D03*
%TD*%
D12*
%TO.C,C12*%
X108680000Y-117932500D03*
X108680000Y-116207500D03*
%TD*%
D13*
%TO.C,R11*%
X110585714Y-116782500D03*
X110585714Y-115917500D03*
%TD*%
D12*
%TO.C,C15*%
X114890000Y-92477500D03*
X114890000Y-90752500D03*
%TD*%
%TO.C,C14*%
X114777143Y-117932500D03*
X114777143Y-116207500D03*
%TD*%
D18*
%TO.C,Y1*%
X106560000Y-104360000D03*
X106560000Y-108060000D03*
%TD*%
D12*
%TO.C,C4*%
X111565436Y-79214167D03*
X111565436Y-77489167D03*
%TD*%
D19*
%TO.C,C6*%
X113857500Y-88840000D03*
X115582500Y-88840000D03*
%TD*%
D20*
%TO.C,R8*%
X123252500Y-83680000D03*
X124117500Y-83680000D03*
%TD*%
D12*
%TO.C,C18*%
X119350000Y-92477500D03*
X119350000Y-90752500D03*
%TD*%
D19*
%TO.C,C10*%
X106742500Y-100070000D03*
X108467500Y-100070000D03*
%TD*%
D12*
%TO.C,C17*%
X117750000Y-92477500D03*
X117750000Y-90752500D03*
%TD*%
D21*
%TO.C,U4*%
X112722124Y-104558788D03*
X113075678Y-104912342D03*
X113429231Y-105265895D03*
X113782785Y-105619449D03*
X114136338Y-105973002D03*
X114489891Y-106326555D03*
X114843445Y-106680109D03*
X115196998Y-107033662D03*
X115550551Y-107387215D03*
X115904105Y-107740769D03*
X116257658Y-108094322D03*
X116611212Y-108447876D03*
D22*
X118608788Y-108447876D03*
X118962342Y-108094322D03*
X119315895Y-107740769D03*
X119669449Y-107387215D03*
X120023002Y-107033662D03*
X120376555Y-106680109D03*
X120730109Y-106326555D03*
X121083662Y-105973002D03*
X121437215Y-105619449D03*
X121790769Y-105265895D03*
X122144322Y-104912342D03*
X122497876Y-104558788D03*
D21*
X122497876Y-102561212D03*
X122144322Y-102207658D03*
X121790769Y-101854105D03*
X121437215Y-101500551D03*
X121083662Y-101146998D03*
X120730109Y-100793445D03*
X120376555Y-100439891D03*
X120023002Y-100086338D03*
X119669449Y-99732785D03*
X119315895Y-99379231D03*
X118962342Y-99025678D03*
X118608788Y-98672124D03*
D22*
X116611212Y-98672124D03*
X116257658Y-99025678D03*
X115904105Y-99379231D03*
X115550551Y-99732785D03*
X115196998Y-100086338D03*
X114843445Y-100439891D03*
X114489891Y-100793445D03*
X114136338Y-101146998D03*
X113782785Y-101500551D03*
X113429231Y-101854105D03*
X113075678Y-102207658D03*
X112722124Y-102561212D03*
%TD*%
D19*
%TO.C,C13*%
X104757500Y-112290000D03*
X106482500Y-112290000D03*
%TD*%
D12*
%TO.C,C16*%
X116440000Y-92477500D03*
X116440000Y-90752500D03*
%TD*%
D13*
%TO.C,R7*%
X116990000Y-89312500D03*
X116990000Y-88447500D03*
%TD*%
D23*
%TO.C,D5*%
X119734286Y-116485000D03*
X119734286Y-115795000D03*
%TD*%
D12*
%TO.C,C11*%
X112491429Y-117932500D03*
X112491429Y-116207500D03*
%TD*%
D24*
%TO.C,C1*%
X112070000Y-87992500D03*
X112070000Y-89717500D03*
%TD*%
D25*
%TO.C,Q1*%
X114438819Y-77017994D03*
X115088819Y-77017994D03*
X115738819Y-77017994D03*
X115738819Y-75147994D03*
X115088819Y-75147994D03*
X114438819Y-75147994D03*
%TD*%
D26*
%TO.C,R5*%
X120790000Y-88477500D03*
X120790000Y-89342500D03*
%TD*%
D11*
%TO.C,SW1*%
X123510000Y-120320000D03*
X129310000Y-120320000D03*
X123510000Y-124320000D03*
X129310000Y-124320000D03*
%TD*%
D23*
%TO.C,D4*%
X116682857Y-116525000D03*
X116682857Y-115835000D03*
%TD*%
D27*
%TO.C,L1*%
X101090000Y-89170000D03*
X109390000Y-89170000D03*
%TD*%
M02*
