%TF.GenerationSoftware,KiCad,Pcbnew,9.0.6*%
%TF.CreationDate,2026-01-15T19:42:32+05:30*%
%TF.ProjectId,GPS TRACKER USING STM32,47505320-5452-4414-934b-455220555349,rev?*%
%TF.SameCoordinates,Original*%
%TF.FileFunction,Copper,L1,Top*%
%TF.FilePolarity,Positive*%
%FSLAX46Y46*%
G04 Gerber Fmt 4.6, Leading zero omitted, Abs format (unit mm)*
G04 Created by KiCad (PCBNEW 9.0.6) date 2026-01-15 19:42:32*
%MOMM*%
%LPD*%
G01*
G04 APERTURE LIST*
G04 Aperture macros list*
%AMRoundRect*
0 Rectangle with rounded corners*
0 $1 Rounding radius*
0 $2 $3 $4 $5 $6 $7 $8 $9 X,Y pos of 4 corners*
0 Add a 4 corners polygon primitive as box body*
4,1,4,$2,$3,$4,$5,$6,$7,$8,$9,$2,$3,0*
0 Add four circle primitives for the rounded corners*
1,1,$1+$1,$2,$3*
1,1,$1+$1,$4,$5*
1,1,$1+$1,$6,$7*
1,1,$1+$1,$8,$9*
0 Add four rect primitives between the rounded corners*
20,1,$1+$1,$2,$3,$4,$5,0*
20,1,$1+$1,$4,$5,$6,$7,0*
20,1,$1+$1,$6,$7,$8,$9,0*
20,1,$1+$1,$8,$9,$2,$3,0*%
G04 Aperture macros list end*
%TA.AperFunction,ComponentPad*%
%ADD10C,0.800000*%
%TD*%
%TA.AperFunction,ComponentPad*%
%ADD11C,5.000000*%
%TD*%
%TA.AperFunction,SMDPad,CuDef*%
%ADD12RoundRect,0.250000X-1.400000X-1.000000X1.400000X-1.000000X1.400000X1.000000X-1.400000X1.000000X0*%
%TD*%
%TA.AperFunction,SMDPad,CuDef*%
%ADD13RoundRect,0.250000X-1.150000X-0.250000X1.150000X-0.250000X1.150000X0.250000X-1.150000X0.250000X0*%
%TD*%
%TA.AperFunction,SMDPad,CuDef*%
%ADD14RoundRect,0.237500X0.237500X-0.300000X0.237500X0.300000X-0.237500X0.300000X-0.237500X-0.300000X0*%
%TD*%
%TA.AperFunction,SMDPad,CuDef*%
%ADD15RoundRect,0.100000X0.100000X-0.217500X0.100000X0.217500X-0.100000X0.217500X-0.100000X-0.217500X0*%
%TD*%
%TA.AperFunction,SMDPad,CuDef*%
%ADD16RoundRect,0.147500X0.172500X-0.147500X0.172500X0.147500X-0.172500X0.147500X-0.172500X-0.147500X0*%
%TD*%
%TA.AperFunction,SMDPad,CuDef*%
%ADD17R,1.550000X0.600000*%
%TD*%
%TA.AperFunction,ComponentPad*%
%ADD18C,0.600000*%
%TD*%
%TA.AperFunction,SMDPad,CuDef*%
%ADD19R,2.600000X3.100000*%
%TD*%
%TA.AperFunction,SMDPad,CuDef*%
%ADD20R,2.950000X4.500000*%
%TD*%
%TA.AperFunction,ComponentPad*%
%ADD21R,1.700000X1.700000*%
%TD*%
%TA.AperFunction,ComponentPad*%
%ADD22C,1.700000*%
%TD*%
%TA.AperFunction,SMDPad,CuDef*%
%ADD23RoundRect,0.100000X0.130000X0.100000X-0.130000X0.100000X-0.130000X-0.100000X0.130000X-0.100000X0*%
%TD*%
%TA.AperFunction,SMDPad,CuDef*%
%ADD24RoundRect,0.250000X-0.950000X0.750000X-0.950000X-0.750000X0.950000X-0.750000X0.950000X0.750000X0*%
%TD*%
%TA.AperFunction,SMDPad,CuDef*%
%ADD25RoundRect,0.237500X-0.300000X-0.237500X0.300000X-0.237500X0.300000X0.237500X-0.300000X0.237500X0*%
%TD*%
%TA.AperFunction,SMDPad,CuDef*%
%ADD26RoundRect,0.100000X0.217500X0.100000X-0.217500X0.100000X-0.217500X-0.100000X0.217500X-0.100000X0*%
%TD*%
%TA.AperFunction,SMDPad,CuDef*%
%ADD27RoundRect,0.075000X-0.415425X-0.521491X0.521491X0.415425X0.415425X0.521491X-0.521491X-0.415425X0*%
%TD*%
%TA.AperFunction,SMDPad,CuDef*%
%ADD28RoundRect,0.075000X0.415425X-0.521491X0.521491X-0.415425X-0.415425X0.521491X-0.521491X0.415425X0*%
%TD*%
%TA.AperFunction,ComponentPad*%
%ADD29R,1.650000X1.650000*%
%TD*%
%TA.AperFunction,ComponentPad*%
%ADD30C,1.650000*%
%TD*%
%TA.AperFunction,SMDPad,CuDef*%
%ADD31RoundRect,0.100000X0.100000X-0.130000X0.100000X0.130000X-0.100000X0.130000X-0.100000X-0.130000X0*%
%TD*%
%TA.AperFunction,SMDPad,CuDef*%
%ADD32RoundRect,0.237500X-0.237500X0.300000X-0.237500X-0.300000X0.237500X-0.300000X0.237500X0.300000X0*%
%TD*%
%TA.AperFunction,SMDPad,CuDef*%
%ADD33RoundRect,0.097500X0.097500X-0.432500X0.097500X0.432500X-0.097500X0.432500X-0.097500X-0.432500X0*%
%TD*%
%TA.AperFunction,SMDPad,CuDef*%
%ADD34RoundRect,0.100000X-0.100000X0.217500X-0.100000X-0.217500X0.100000X-0.217500X0.100000X0.217500X0*%
%TD*%
%TA.AperFunction,SMDPad,CuDef*%
%ADD35R,2.700000X3.600000*%
%TD*%
%TA.AperFunction,ViaPad*%
%ADD36C,0.600000*%
%TD*%
%TA.AperFunction,Conductor*%
%ADD37C,0.200000*%
%TD*%
%TA.AperFunction,Conductor*%
%ADD38C,0.250000*%
%TD*%
G04 APERTURE END LIST*
D10*
%TO.P,H4,1,1*%
%TO.N,GND*%
X97020825Y-125844175D03*
X97570000Y-124518350D03*
X97570000Y-127170000D03*
X98895825Y-123969175D03*
D11*
X98895825Y-125844175D03*
D10*
X98895825Y-127719175D03*
X100221650Y-124518350D03*
X100221650Y-127170000D03*
X100770825Y-125844175D03*
%TD*%
%TO.P,H3,1,1*%
%TO.N,GND*%
X132230000Y-72010000D03*
X132779175Y-70684175D03*
X132779175Y-73335825D03*
X134105000Y-70135000D03*
D11*
X134105000Y-72010000D03*
D10*
X134105000Y-73885000D03*
X135430825Y-70684175D03*
X135430825Y-73335825D03*
X135980000Y-72010000D03*
%TD*%
%TO.P,H2,1,1*%
%TO.N,GND*%
X97155000Y-72070000D03*
X97704175Y-70744175D03*
X97704175Y-73395825D03*
X99030000Y-70195000D03*
D11*
X99030000Y-72070000D03*
D10*
X99030000Y-73945000D03*
X100355825Y-70744175D03*
X100355825Y-73395825D03*
X100905000Y-72070000D03*
%TD*%
%TO.P,H1,1,1*%
%TO.N,GND*%
X132215000Y-125800000D03*
X132764175Y-124474175D03*
X132764175Y-127125825D03*
X134090000Y-123925000D03*
D11*
X134090000Y-125800000D03*
D10*
X134090000Y-127675000D03*
X135415825Y-124474175D03*
X135415825Y-127125825D03*
X135965000Y-125800000D03*
%TD*%
D12*
%TO.P,D2,2,A*%
%TO.N,GND*%
X126200000Y-82400000D03*
%TO.P,D2,1,K*%
%TO.N,Net-(D2-K)*%
X126200000Y-75600000D03*
%TD*%
D13*
%TO.P,SW2,1,1*%
%TO.N,NRST*%
X104270000Y-120320000D03*
X110070000Y-120320000D03*
%TO.P,SW2,2,2*%
%TO.N,GND*%
X104270000Y-124320000D03*
X110070000Y-124320000D03*
%TD*%
D14*
%TO.P,C19,1*%
%TO.N,+3.3V*%
X120640000Y-92477500D03*
%TO.P,C19,2*%
%TO.N,GND*%
X120640000Y-90752500D03*
%TD*%
D15*
%TO.P,R13,1*%
%TO.N,LED2*%
X121260000Y-116580000D03*
%TO.P,R13,2*%
%TO.N,Net-(D5-A)*%
X121260000Y-115765000D03*
%TD*%
%TO.P,R12,1*%
%TO.N,LED1*%
X118208571Y-116757500D03*
%TO.P,R12,2*%
%TO.N,Net-(D4-A)*%
X118208571Y-115942500D03*
%TD*%
%TO.P,R6,1*%
%TO.N,Net-(R6-Pad1)*%
X118766667Y-89267500D03*
%TO.P,R6,2*%
%TO.N,FEEDBACK*%
X118766667Y-88452500D03*
%TD*%
D16*
%TO.P,F1,1*%
%TO.N,+12V*%
X111811627Y-76263978D03*
%TO.P,F1,2*%
%TO.N,Net-(C4-Pad1)*%
X111811627Y-75293978D03*
%TD*%
D17*
%TO.P,U2,1,BOOT*%
%TO.N,Net-(U2-BOOT)*%
X119540000Y-85825000D03*
%TO.P,U2,2,NC*%
%TO.N,unconnected-(U2-NC-Pad2)*%
X119540000Y-84555000D03*
%TO.P,U2,3,NC*%
%TO.N,unconnected-(U2-NC-Pad3)*%
X119540000Y-83285000D03*
%TO.P,U2,4,VSENSE*%
%TO.N,FEEDBACK*%
X119540000Y-82015000D03*
%TO.P,U2,5,EN*%
%TO.N,unconnected-(U2-EN-Pad5)*%
X114140000Y-82015000D03*
%TO.P,U2,6,GND*%
%TO.N,GND*%
X114140000Y-83285000D03*
%TO.P,U2,7,VIN*%
%TO.N,Net-(U2-VIN)*%
X114140000Y-84555000D03*
%TO.P,U2,8,PH*%
%TO.N,Net-(D2-K)*%
X114140000Y-85825000D03*
D18*
%TO.P,U2,9,GNDPAD*%
%TO.N,GND*%
X117440000Y-85720000D03*
X117440000Y-84520000D03*
X117440000Y-83220000D03*
X117440000Y-82120000D03*
D19*
X116840000Y-83920000D03*
D20*
X116840000Y-83920000D03*
D18*
X116240000Y-85720000D03*
X116240000Y-84520000D03*
X116240000Y-83220000D03*
X116240000Y-82120000D03*
%TD*%
D15*
%TO.P,R9,1*%
%TO.N,Net-(U4-BOOT0)*%
X107220000Y-116757500D03*
%TO.P,R9,2*%
%TO.N,GND*%
X107220000Y-115942500D03*
%TD*%
D21*
%TO.P,J2,1,Pin_1*%
%TO.N,GND*%
X98320000Y-114430000D03*
D22*
%TO.P,J2,2,Pin_2*%
%TO.N,USART2_TX*%
X98320000Y-111890000D03*
%TO.P,J2,3,Pin_3*%
%TO.N,USART2_RX*%
X98320000Y-109350000D03*
%TO.P,J2,4,Pin_4*%
%TO.N,PA4*%
X98320000Y-106810000D03*
%TO.P,J2,5,Pin_5*%
%TO.N,PA5{slash}SPI1_CLK*%
X98320000Y-104270000D03*
%TO.P,J2,6,Pin_6*%
%TO.N,PA5{slash}SPI1_MISO*%
X98320000Y-101730000D03*
%TO.P,J2,7,Pin_7*%
%TO.N,PA7{slash}SPI1_CLK*%
X98320000Y-99190000D03*
%TO.P,J2,8,Pin_8*%
%TO.N,+3.3V*%
X98320000Y-96650000D03*
%TD*%
D23*
%TO.P,D3,2,A*%
%TO.N,Net-(D3-A)*%
X125445000Y-83560000D03*
%TO.P,D3,1,K*%
%TO.N,GND*%
X126085000Y-83560000D03*
%TD*%
D14*
%TO.P,C12,1*%
%TO.N,Net-(U4-PF1)*%
X108680000Y-117932500D03*
%TO.P,C12,2*%
%TO.N,GND*%
X108680000Y-116207500D03*
%TD*%
D15*
%TO.P,R11,1*%
%TO.N,Net-(C11-Pad1)*%
X110585714Y-116757500D03*
%TO.P,R11,2*%
%TO.N,Net-(U4-PB11)*%
X110585714Y-115942500D03*
%TD*%
D14*
%TO.P,C15,1*%
%TO.N,+3.3V*%
X114890000Y-92477500D03*
%TO.P,C15,2*%
%TO.N,GND*%
X114890000Y-90752500D03*
%TD*%
%TO.P,C14,1*%
%TO.N,GND*%
X114777143Y-117932500D03*
%TO.P,C14,2*%
%TO.N,NRST*%
X114777143Y-116207500D03*
%TD*%
D24*
%TO.P,Y1,1,1*%
%TO.N,Net-(U4-PF0)*%
X106560000Y-104360000D03*
%TO.P,Y1,2,2*%
%TO.N,Net-(U4-PF1)*%
X106560000Y-108060000D03*
%TD*%
D14*
%TO.P,C4,1*%
%TO.N,Net-(C4-Pad1)*%
X111565436Y-79214167D03*
%TO.P,C4,2*%
%TO.N,GND*%
X111565436Y-77489167D03*
%TD*%
D25*
%TO.P,C6,1*%
%TO.N,Net-(D2-K)*%
X113857500Y-88840000D03*
%TO.P,C6,2*%
%TO.N,Net-(U2-BOOT)*%
X115582500Y-88840000D03*
%TD*%
D26*
%TO.P,R8,2*%
%TO.N,+3.3V*%
X123277500Y-83680000D03*
%TO.P,R8,1*%
%TO.N,Net-(D3-A)*%
X124092500Y-83680000D03*
%TD*%
D14*
%TO.P,C18,1*%
%TO.N,+3.3V*%
X119350000Y-92477500D03*
%TO.P,C18,2*%
%TO.N,GND*%
X119350000Y-90752500D03*
%TD*%
D25*
%TO.P,C10,1*%
%TO.N,Net-(U4-PF0)*%
X106742500Y-100070000D03*
%TO.P,C10,2*%
%TO.N,GND*%
X108467500Y-100070000D03*
%TD*%
D14*
%TO.P,C17,1*%
%TO.N,+3.3V*%
X117750000Y-92477500D03*
%TO.P,C17,2*%
%TO.N,GND*%
X117750000Y-90752500D03*
%TD*%
D27*
%TO.P,U4,1,VDD*%
%TO.N,+3.3V*%
X112722124Y-104558788D03*
%TO.P,U4,2,PC13*%
%TO.N,unconnected-(U4-PC13-Pad2)*%
X113075678Y-104912342D03*
%TO.P,U4,3,PC14*%
%TO.N,STATUS*%
X113429231Y-105265895D03*
%TO.P,U4,4,PC15*%
%TO.N,unconnected-(U4-PC15-Pad4)*%
X113782785Y-105619449D03*
%TO.P,U4,5,PF0*%
%TO.N,Net-(U4-PF0)*%
X114136338Y-105973002D03*
%TO.P,U4,6,PF1*%
%TO.N,Net-(U4-PF1)*%
X114489891Y-106326555D03*
%TO.P,U4,7,NRST*%
%TO.N,NRST*%
X114843445Y-106680109D03*
%TO.P,U4,8,VSSA*%
%TO.N,GND*%
X115196998Y-107033662D03*
%TO.P,U4,9,VDDA*%
%TO.N,+3.3V*%
X115550551Y-107387215D03*
%TO.P,U4,10,PA0*%
%TO.N,unconnected-(U4-PA0-Pad10)*%
X115904105Y-107740769D03*
%TO.P,U4,11,PA1*%
%TO.N,unconnected-(U4-PA1-Pad11)*%
X116257658Y-108094322D03*
%TO.P,U4,12,PA2*%
%TO.N,USART2_TX*%
X116611212Y-108447876D03*
D28*
%TO.P,U4,13,PA3*%
%TO.N,USART2_RX*%
X118608788Y-108447876D03*
%TO.P,U4,14,PA4*%
%TO.N,PA4*%
X118962342Y-108094322D03*
%TO.P,U4,15,PA5*%
%TO.N,PA5{slash}SPI1_CLK*%
X119315895Y-107740769D03*
%TO.P,U4,16,PA6*%
%TO.N,PA5{slash}SPI1_MISO*%
X119669449Y-107387215D03*
%TO.P,U4,17,PA7*%
%TO.N,PA7{slash}SPI1_CLK*%
X120023002Y-107033662D03*
%TO.P,U4,18,PB0*%
%TO.N,unconnected-(U4-PB0-Pad18)*%
X120376555Y-106680109D03*
%TO.P,U4,19,PB1*%
%TO.N,unconnected-(U4-PB1-Pad19)*%
X120730109Y-106326555D03*
%TO.P,U4,20,PB2*%
%TO.N,unconnected-(U4-PB2-Pad20)*%
X121083662Y-105973002D03*
%TO.P,U4,21,PB10*%
%TO.N,unconnected-(U4-PB10-Pad21)*%
X121437215Y-105619449D03*
%TO.P,U4,22,PB11*%
%TO.N,Net-(U4-PB11)*%
X121790769Y-105265895D03*
%TO.P,U4,23,VSS*%
%TO.N,GND*%
X122144322Y-104912342D03*
%TO.P,U4,24,VDD*%
%TO.N,+3.3V*%
X122497876Y-104558788D03*
D27*
%TO.P,U4,25,PB12*%
%TO.N,LED1*%
X122497876Y-102561212D03*
%TO.P,U4,26,PB13*%
%TO.N,LED2*%
X122144322Y-102207658D03*
%TO.P,U4,27,PB14*%
%TO.N,unconnected-(U4-PB14-Pad27)*%
X121790769Y-101854105D03*
%TO.P,U4,28,PB15*%
%TO.N,unconnected-(U4-PB15-Pad28)*%
X121437215Y-101500551D03*
%TO.P,U4,29,PA8*%
%TO.N,unconnected-(U4-PA8-Pad29)*%
X121083662Y-101146998D03*
%TO.P,U4,30,PA9*%
%TO.N,SIM_RX*%
X120730109Y-100793445D03*
%TO.P,U4,31,PA10*%
%TO.N,SIM_TX*%
X120376555Y-100439891D03*
%TO.P,U4,32,PA11*%
%TO.N,unconnected-(U4-PA11-Pad32)*%
X120023002Y-100086338D03*
%TO.P,U4,33,PA12*%
%TO.N,unconnected-(U4-PA12-Pad33)*%
X119669449Y-99732785D03*
%TO.P,U4,34,PA13*%
%TO.N,SWDIO*%
X119315895Y-99379231D03*
%TO.P,U4,35,PF6*%
%TO.N,unconnected-(U4-PF6-Pad35)*%
X118962342Y-99025678D03*
%TO.P,U4,36,PF7*%
%TO.N,SIM_RESET*%
X118608788Y-98672124D03*
D28*
%TO.P,U4,37,PA14*%
%TO.N,SWDCLK*%
X116611212Y-98672124D03*
%TO.P,U4,38,PA15*%
%TO.N,unconnected-(U4-PA15-Pad38)*%
X116257658Y-99025678D03*
%TO.P,U4,39,PB3*%
%TO.N,unconnected-(U4-PB3-Pad39)*%
X115904105Y-99379231D03*
%TO.P,U4,40,PB4*%
%TO.N,unconnected-(U4-PB4-Pad40)*%
X115550551Y-99732785D03*
%TO.P,U4,41,PB5*%
%TO.N,unconnected-(U4-PB5-Pad41)*%
X115196998Y-100086338D03*
%TO.P,U4,42,PB6*%
%TO.N,unconnected-(U4-PB6-Pad42)*%
X114843445Y-100439891D03*
%TO.P,U4,43,PB7*%
%TO.N,unconnected-(U4-PB7-Pad43)*%
X114489891Y-100793445D03*
%TO.P,U4,44,BOOT0*%
%TO.N,Net-(U4-BOOT0)*%
X114136338Y-101146998D03*
%TO.P,U4,45,PB8*%
%TO.N,unconnected-(U4-PB8-Pad45)*%
X113782785Y-101500551D03*
%TO.P,U4,46,PB9*%
%TO.N,SIM_PWRKEY*%
X113429231Y-101854105D03*
%TO.P,U4,47,VSS*%
%TO.N,GND*%
X113075678Y-102207658D03*
%TO.P,U4,48,VDD*%
%TO.N,+3.3V*%
X112722124Y-102561212D03*
%TD*%
D25*
%TO.P,C13,1*%
%TO.N,Net-(U4-PB11)*%
X104757500Y-112290000D03*
%TO.P,C13,2*%
%TO.N,GND*%
X106482500Y-112290000D03*
%TD*%
D29*
%TO.P,P1,1,1*%
%TO.N,GND*%
X102580000Y-79080000D03*
D30*
%TO.P,P1,2,2*%
%TO.N,+12V*%
X107660000Y-79080000D03*
%TD*%
D14*
%TO.P,C16,1*%
%TO.N,+3.3V*%
X116440000Y-92477500D03*
%TO.P,C16,2*%
%TO.N,GND*%
X116440000Y-90752500D03*
%TD*%
D15*
%TO.P,R7,1*%
%TO.N,GND*%
X116990000Y-89287500D03*
%TO.P,R7,2*%
%TO.N,Net-(R6-Pad1)*%
X116990000Y-88472500D03*
%TD*%
D31*
%TO.P,D5,1,K*%
%TO.N,GND*%
X119734286Y-116460000D03*
%TO.P,D5,2,A*%
%TO.N,Net-(D5-A)*%
X119734286Y-115820000D03*
%TD*%
D14*
%TO.P,C11,1*%
%TO.N,Net-(C11-Pad1)*%
X112491429Y-117932500D03*
%TO.P,C11,2*%
%TO.N,GND*%
X112491429Y-116207500D03*
%TD*%
D32*
%TO.P,C1,1*%
%TO.N,+3.3V*%
X112070000Y-87992500D03*
%TO.P,C1,2*%
%TO.N,GND*%
X112070000Y-89717500D03*
%TD*%
D21*
%TO.P,J3,1,Pin_1*%
%TO.N,GND*%
X134170000Y-114190000D03*
D22*
%TO.P,J3,2,Pin_2*%
%TO.N,SWDIO*%
X134170000Y-111650000D03*
%TO.P,J3,3,Pin_3*%
%TO.N,NRST*%
X134170000Y-109110000D03*
%TO.P,J3,4,Pin_4*%
%TO.N,SWDCLK*%
X134170000Y-106570000D03*
%TO.P,J3,5,Pin_5*%
%TO.N,SIM_RESET*%
X134170000Y-104030000D03*
%TO.P,J3,6,Pin_6*%
%TO.N,SIM_RX*%
X134170000Y-101490000D03*
%TO.P,J3,7,Pin_7*%
%TO.N,SIM_TX*%
X134170000Y-98950000D03*
%TO.P,J3,8,Pin_8*%
%TO.N,SIM_PWRKEY*%
X134170000Y-96410000D03*
%TD*%
D33*
%TO.P,Q1,1*%
%TO.N,GND*%
X114438819Y-77017994D03*
%TO.P,Q1,2*%
%TO.N,Net-(U2-VIN)*%
X115088819Y-77017994D03*
%TO.P,Q1,3*%
%TO.N,Net-(C4-Pad1)*%
X115738819Y-77017994D03*
%TO.P,Q1,4*%
%TO.N,N/C*%
X115738819Y-75147994D03*
%TO.P,Q1,5*%
X115088819Y-75147994D03*
%TO.P,Q1,6*%
X114438819Y-75147994D03*
%TD*%
D34*
%TO.P,R5,1*%
%TO.N,+3.3V*%
X120790000Y-88502500D03*
%TO.P,R5,2*%
%TO.N,FEEDBACK*%
X120790000Y-89317500D03*
%TD*%
D13*
%TO.P,SW1,1,1*%
%TO.N,Net-(C11-Pad1)*%
X123510000Y-120320000D03*
X129310000Y-120320000D03*
%TO.P,SW1,2,2*%
%TO.N,+3.3V*%
X123510000Y-124320000D03*
X129310000Y-124320000D03*
%TD*%
D31*
%TO.P,D4,1,K*%
%TO.N,GND*%
X116682857Y-116500000D03*
%TO.P,D4,2,A*%
%TO.N,Net-(D4-A)*%
X116682857Y-115860000D03*
%TD*%
D35*
%TO.P,L1,1,1*%
%TO.N,Net-(D2-K)*%
X101090000Y-89170000D03*
%TO.P,L1,2,2*%
%TO.N,+3.3V*%
X109390000Y-89170000D03*
%TD*%
D36*
%TO.N,SIM_TX*%
X127550000Y-97590000D03*
X131910000Y-97090000D03*
%TO.N,SIM_DATA*%
X110760000Y-104740000D03*
X112860735Y-107670735D03*
%TO.N,SIM_CLK*%
X110192500Y-107476000D03*
X108873635Y-104960000D03*
%TO.N,SIM_RST*%
X109040998Y-107470000D03*
X108172909Y-105467001D03*
%TO.N,SIM_DET*%
X105870000Y-114950000D03*
X102570000Y-108900000D03*
X102580000Y-105660000D03*
X104090000Y-104780000D03*
%TO.N,Net-(D2-K)*%
X119320000Y-74790000D03*
X114290000Y-78040000D03*
%TO.N,Net-(U4-PF1)*%
X108490000Y-108050000D03*
X111316140Y-108945805D03*
%TO.N,Net-(U4-PF0)*%
X109874054Y-106276000D03*
%TO.N,STATUS*%
X115281746Y-101780000D03*
%TO.N,USART2_TX*%
X115330000Y-109111000D03*
%TO.N,USART2_RX*%
X118390000Y-109200000D03*
%TO.N,PA4*%
X117465000Y-106879823D03*
X103300000Y-106390000D03*
%TO.N,PA5{slash}SPI1_CLK*%
X117020000Y-105670000D03*
%TO.N,PA5{slash}SPI1_MISO*%
X115850000Y-105060000D03*
%TO.N,PA7{slash}SPI1_CLK*%
X116100000Y-101840000D03*
%TO.N,Net-(U4-PB11)*%
X111600000Y-115190000D03*
X120350000Y-109290000D03*
%TO.N,LED1*%
X119020000Y-116550000D03*
X123060000Y-110930000D03*
%TO.N,LED2*%
X122580000Y-116700000D03*
X123450000Y-112020000D03*
%TO.N,SIM_RX*%
X121624098Y-100037133D03*
%TO.N,SIM_TX*%
X121075222Y-99445879D03*
%TO.N,SIM_PWRKEY*%
X123320000Y-91540000D03*
%TO.N,SIM_RESET*%
X123500000Y-97980000D03*
%TO.N,Net-(U4-PF0)*%
X111530000Y-106276000D03*
%TD*%
D37*
%TO.N,Net-(D2-K)*%
X113857500Y-88840000D02*
X113857500Y-86107500D01*
D38*
X104435000Y-85825000D02*
X114140000Y-85825000D01*
X101090000Y-89170000D02*
X104435000Y-85825000D01*
%TO.N,SIM_TX*%
X128050000Y-97090000D02*
X127550000Y-97590000D01*
X131910000Y-97090000D02*
X128050000Y-97090000D01*
D37*
%TO.N,Net-(U4-PF0)*%
X113590930Y-106518410D02*
X114136338Y-105973002D01*
X112782410Y-106518410D02*
X113590930Y-106518410D01*
X111530000Y-106276000D02*
X112540000Y-106276000D01*
X112540000Y-106276000D02*
X112782410Y-106518410D01*
X109123578Y-104360000D02*
X106560000Y-104360000D01*
X109474635Y-104711057D02*
X109123578Y-104360000D01*
X109474635Y-105814635D02*
X109474635Y-104711057D01*
X109874054Y-106214054D02*
X109474635Y-105814635D01*
X109874054Y-106276000D02*
X109874054Y-106214054D01*
%TO.N,SIM_CLK*%
X109896941Y-107476000D02*
X110192500Y-107476000D01*
X109031000Y-106610059D02*
X109896941Y-107476000D01*
X109031000Y-105117365D02*
X109031000Y-106610059D01*
X108873635Y-104960000D02*
X109031000Y-105117365D01*
%TO.N,Net-(U4-BOOT0)*%
X107419999Y-116757500D02*
X107220000Y-116757500D01*
X107721000Y-116456499D02*
X107419999Y-116757500D01*
X107721000Y-115860866D02*
X107721000Y-116456499D01*
X108061000Y-115520866D02*
X107721000Y-115860866D01*
X108061000Y-110679000D02*
X108061000Y-115520866D01*
X110929000Y-107811000D02*
X108061000Y-110679000D01*
X112560173Y-103659827D02*
X111820000Y-104400000D01*
X113291823Y-103659827D02*
X112560173Y-103659827D01*
X111820000Y-104400000D02*
X111820000Y-105136057D01*
X114681746Y-102269904D02*
X113291823Y-103659827D01*
X114681746Y-101692406D02*
X114681746Y-102269904D01*
X114136338Y-101146998D02*
X114681746Y-101692406D01*
%TO.N,Net-(U4-PF1)*%
X113944484Y-106871962D02*
X114489891Y-106326555D01*
X111681945Y-108580000D02*
X112800000Y-108580000D01*
X113944484Y-107435516D02*
X113944484Y-106871962D01*
X111316140Y-108945805D02*
X111681945Y-108580000D01*
X112800000Y-108580000D02*
X113944484Y-107435516D01*
%TO.N,SIM_RST*%
X108630000Y-107059002D02*
X109040998Y-107470000D01*
X108630000Y-105924092D02*
X108630000Y-107059002D01*
X108172909Y-105467001D02*
X108630000Y-105924092D01*
%TO.N,PA4*%
X103300000Y-106390000D02*
X98740000Y-106390000D01*
X98740000Y-106390000D02*
X98320000Y-106810000D01*
%TO.N,SIM_DET*%
X102570000Y-111650000D02*
X105870000Y-114950000D01*
X102570000Y-108900000D02*
X102570000Y-111650000D01*
X103460000Y-104780000D02*
X102580000Y-105660000D01*
X104090000Y-104780000D02*
X103460000Y-104780000D01*
%TO.N,GND*%
X113105000Y-90752500D02*
X112070000Y-89717500D01*
X114890000Y-90752500D02*
X113105000Y-90752500D01*
%TO.N,+3.3V*%
X114890000Y-92477500D02*
X120640000Y-92477500D01*
%TO.N,GND*%
X114890000Y-90752500D02*
X120640000Y-90752500D01*
%TO.N,Net-(U2-BOOT)*%
X117535000Y-87830000D02*
X119540000Y-85825000D01*
X116592500Y-87830000D02*
X117535000Y-87830000D01*
X115582500Y-88840000D02*
X116592500Y-87830000D01*
%TO.N,Net-(R6-Pad1)*%
X117062370Y-88472500D02*
X116990000Y-88472500D01*
X117857370Y-89267500D02*
X117062370Y-88472500D01*
X118766667Y-89267500D02*
X117857370Y-89267500D01*
%TO.N,FEEDBACK*%
X119787500Y-89317500D02*
X120790000Y-89317500D01*
X118922500Y-88452500D02*
X119787500Y-89317500D01*
X118766667Y-88452500D02*
X118922500Y-88452500D01*
X120616000Y-86603167D02*
X118766667Y-88452500D01*
X120616000Y-82616000D02*
X120616000Y-86603167D01*
X120015000Y-82015000D02*
X120616000Y-82616000D01*
X119540000Y-82015000D02*
X120015000Y-82015000D01*
%TO.N,Net-(D2-K)*%
X119688000Y-74790000D02*
X120153000Y-74325000D01*
X119320000Y-74790000D02*
X119688000Y-74790000D01*
X112663000Y-79667000D02*
X114290000Y-78040000D01*
X112663000Y-84755000D02*
X112663000Y-79667000D01*
X113733000Y-85825000D02*
X112663000Y-84755000D01*
X114140000Y-85825000D02*
X113733000Y-85825000D01*
%TO.N,Net-(U2-VIN)*%
X113665000Y-84555000D02*
X114140000Y-84555000D01*
X113064000Y-83954000D02*
X113665000Y-84555000D01*
X113064000Y-81414000D02*
X113064000Y-83954000D01*
X114990000Y-75595000D02*
X114990000Y-79488000D01*
X114990000Y-79488000D02*
X113064000Y-81414000D01*
%TO.N,*%
X114340000Y-73725000D02*
X115640000Y-73725000D01*
%TO.N,GND*%
X112531000Y-72894000D02*
X111490000Y-73935000D01*
X115905266Y-72894000D02*
X112531000Y-72894000D01*
X116136000Y-73124734D02*
X115905266Y-72894000D01*
X116136000Y-75099000D02*
X116136000Y-73124734D01*
X115640000Y-75595000D02*
X116136000Y-75099000D01*
X110794000Y-77521500D02*
X111570000Y-78297500D01*
X110794000Y-74631000D02*
X110794000Y-77521500D01*
X111490000Y-73935000D02*
X110794000Y-74631000D01*
%TO.N,Net-(D2-K)*%
X125965000Y-74325000D02*
X120153000Y-74325000D01*
X113857500Y-86107500D02*
X114140000Y-85825000D01*
%TO.N,Net-(U4-PF0)*%
X106742500Y-104177500D02*
X106560000Y-104360000D01*
X106742500Y-100070000D02*
X106742500Y-104177500D01*
%TO.N,Net-(D4-A)*%
X116765357Y-115942500D02*
X116682857Y-115860000D01*
X118208571Y-115942500D02*
X116765357Y-115942500D01*
%TO.N,Net-(D5-A)*%
X121205000Y-115820000D02*
X121260000Y-115765000D01*
X119734286Y-115820000D02*
X121205000Y-115820000D01*
%TO.N,+3.3V*%
X123510000Y-124320000D02*
X129310000Y-124320000D01*
%TO.N,GND*%
X104270000Y-124320000D02*
X110070000Y-124320000D01*
%TO.N,Net-(C11-Pad1)*%
X111760714Y-117932500D02*
X112491429Y-117932500D01*
X110585714Y-116757500D02*
X111760714Y-117932500D01*
X115244277Y-115369000D02*
X114310009Y-115369000D01*
X115553143Y-115677866D02*
X115244277Y-115369000D01*
X113267429Y-116411580D02*
X113267429Y-117156500D01*
X113267429Y-117156500D02*
X112491429Y-117932500D01*
X119136009Y-120320000D02*
X115553143Y-116737134D01*
X115553143Y-116737134D02*
X115553143Y-115677866D01*
X123510000Y-120320000D02*
X119136009Y-120320000D01*
X114310009Y-115369000D02*
X113267429Y-116411580D01*
X123510000Y-120320000D02*
X129310000Y-120320000D01*
%TO.N,NRST*%
X114001143Y-117798857D02*
X114001143Y-116983500D01*
X111480000Y-120320000D02*
X114001143Y-117798857D01*
X114001143Y-116983500D02*
X114777143Y-116207500D01*
X110070000Y-120320000D02*
X111480000Y-120320000D01*
X104270000Y-120320000D02*
X110070000Y-120320000D01*
%TO.N,Net-(U4-PF1)*%
X108480000Y-108060000D02*
X108490000Y-108050000D01*
X106560000Y-108060000D02*
X108480000Y-108060000D01*
%TO.N,STATUS*%
X115281746Y-103413380D02*
X113429231Y-105265895D01*
X115281746Y-101780000D02*
X115281746Y-103413380D01*
%TO.N,USART2_TX*%
X115948088Y-109111000D02*
X116611212Y-108447876D01*
X115330000Y-109111000D02*
X115948088Y-109111000D01*
%TO.N,USART2_RX*%
X118608788Y-108981212D02*
X118390000Y-109200000D01*
X118608788Y-108447876D02*
X118608788Y-108981212D01*
%TO.N,NRST*%
X115388853Y-106134701D02*
X114843445Y-106680109D01*
X117510173Y-107878177D02*
X115766697Y-106134701D01*
X117510173Y-109350173D02*
X117510173Y-107878177D01*
X120961000Y-112801000D02*
X117510173Y-109350173D01*
X135321000Y-112126760D02*
X134646760Y-112801000D01*
X115766697Y-106134701D02*
X115388853Y-106134701D01*
X135321000Y-110261000D02*
X135321000Y-112126760D01*
X134646760Y-112801000D02*
X120961000Y-112801000D01*
X134170000Y-109110000D02*
X135321000Y-110261000D01*
%TO.N,PA4*%
X118464381Y-107596361D02*
X118962342Y-108094322D01*
X118462965Y-107596361D02*
X118464381Y-107596361D01*
X117746427Y-106879823D02*
X118462965Y-107596361D01*
X117465000Y-106879823D02*
X117746427Y-106879823D01*
%TO.N,PA5{slash}SPI1_CLK*%
X117020000Y-105670000D02*
X117103704Y-105670000D01*
X117103704Y-105670000D02*
X118629065Y-107195361D01*
X118629065Y-107195361D02*
X118770487Y-107195361D01*
X118770487Y-107195361D02*
X119315895Y-107740769D01*
%TO.N,PA5{slash}SPI1_MISO*%
X117342234Y-105060000D02*
X115850000Y-105060000D01*
X119669449Y-107387215D02*
X117342234Y-105060000D01*
%TO.N,PA7{slash}SPI1_CLK*%
X116100000Y-103110660D02*
X116100000Y-101840000D01*
X120023002Y-107033662D02*
X116100000Y-103110660D01*
%TO.N,Net-(U4-PB11)*%
X111338214Y-115190000D02*
X110585714Y-115942500D01*
X111600000Y-115190000D02*
X111338214Y-115190000D01*
X122336176Y-105811302D02*
X122336176Y-107303824D01*
X122336176Y-107303824D02*
X120350000Y-109290000D01*
X121790769Y-105265895D02*
X122336176Y-105811302D01*
%TO.N,LED1*%
X118416071Y-116550000D02*
X118208571Y-116757500D01*
X119020000Y-116550000D02*
X118416071Y-116550000D01*
X123396837Y-110593163D02*
X123060000Y-110930000D01*
X123396837Y-103460173D02*
X123396837Y-110593163D01*
X122497876Y-102561212D02*
X123396837Y-103460173D01*
%TO.N,LED2*%
X124270000Y-102864676D02*
X124270000Y-111200000D01*
X123067575Y-101662251D02*
X124270000Y-102864676D01*
X122689729Y-101662251D02*
X123067575Y-101662251D01*
X124270000Y-111200000D02*
X123450000Y-112020000D01*
X122144322Y-102207658D02*
X122689729Y-101662251D01*
X121380000Y-116700000D02*
X121260000Y-116580000D01*
X122580000Y-116700000D02*
X121380000Y-116700000D01*
%TO.N,SIM_RX*%
X121486421Y-100037133D02*
X121624098Y-100037133D01*
X120730109Y-100793445D02*
X121486421Y-100037133D01*
%TO.N,SIM_TX*%
X121075222Y-99445879D02*
X121075222Y-99794778D01*
X120430109Y-100439891D02*
X120376555Y-100439891D01*
X121075222Y-99794778D02*
X120430109Y-100439891D01*
%TO.N,SIM_PWRKEY*%
X121544000Y-93316000D02*
X123320000Y-91540000D01*
X120498676Y-93316000D02*
X121544000Y-93316000D01*
X112883824Y-100930852D02*
X120498676Y-93316000D01*
X112883824Y-101308698D02*
X112883824Y-100930852D01*
X113429231Y-101854105D02*
X112883824Y-101308698D01*
%TO.N,SWDCLK*%
X117904336Y-97379000D02*
X116611212Y-98672124D01*
X124979000Y-97379000D02*
X117904336Y-97379000D01*
X134170000Y-106570000D02*
X124979000Y-97379000D01*
%TO.N,SWDIO*%
X121353824Y-98833824D02*
X134170000Y-111650000D01*
X119315895Y-99379231D02*
X119861302Y-98833824D01*
X119861302Y-98833824D02*
X121353824Y-98833824D01*
%TO.N,SIM_RESET*%
X119300912Y-97980000D02*
X123500000Y-97980000D01*
X118608788Y-98672124D02*
X119300912Y-97980000D01*
%TO.N,Net-(U4-BOOT0)*%
X111820000Y-105136057D02*
X110929000Y-106027057D01*
X110929000Y-106027057D02*
X110929000Y-107811000D01*
%TD*%
M02*
