%TF.GenerationSoftware,KiCad,Pcbnew,9.0.6*%
%TF.CreationDate,2026-01-15T19:42:32+05:30*%
%TF.ProjectId,GPS TRACKER USING STM32,47505320-5452-4414-934b-455220555349,rev?*%
%TF.SameCoordinates,Original*%
%TF.FileFunction,Copper,L3,Inr*%
%TF.FilePolarity,Positive*%
%FSLAX46Y46*%
G04 Gerber Fmt 4.6, Leading zero omitted, Abs format (unit mm)*
G04 Created by KiCad (PCBNEW 9.0.6) date 2026-01-15 19:42:32*
%MOMM*%
%LPD*%
G01*
G04 APERTURE LIST*
%TA.AperFunction,ComponentPad*%
%ADD10C,0.800000*%
%TD*%
%TA.AperFunction,ComponentPad*%
%ADD11C,5.000000*%
%TD*%
%TA.AperFunction,ComponentPad*%
%ADD12C,0.600000*%
%TD*%
%TA.AperFunction,ComponentPad*%
%ADD13R,1.700000X1.700000*%
%TD*%
%TA.AperFunction,ComponentPad*%
%ADD14C,1.700000*%
%TD*%
%TA.AperFunction,ComponentPad*%
%ADD15R,1.650000X1.650000*%
%TD*%
%TA.AperFunction,ComponentPad*%
%ADD16C,1.650000*%
%TD*%
%TA.AperFunction,ViaPad*%
%ADD17C,0.600000*%
%TD*%
G04 APERTURE END LIST*
D10*
%TO.N,GND*%
%TO.C,H4*%
X97020825Y-125844175D03*
X97570000Y-124518350D03*
X97570000Y-127170000D03*
X98895825Y-123969175D03*
D11*
X98895825Y-125844175D03*
D10*
X98895825Y-127719175D03*
X100221650Y-124518350D03*
X100221650Y-127170000D03*
X100770825Y-125844175D03*
%TD*%
%TO.N,GND*%
%TO.C,H3*%
X132230000Y-72010000D03*
X132779175Y-70684175D03*
X132779175Y-73335825D03*
X134105000Y-70135000D03*
D11*
X134105000Y-72010000D03*
D10*
X134105000Y-73885000D03*
X135430825Y-70684175D03*
X135430825Y-73335825D03*
X135980000Y-72010000D03*
%TD*%
%TO.N,GND*%
%TO.C,H2*%
X97155000Y-72070000D03*
X97704175Y-70744175D03*
X97704175Y-73395825D03*
X99030000Y-70195000D03*
D11*
X99030000Y-72070000D03*
D10*
X99030000Y-73945000D03*
X100355825Y-70744175D03*
X100355825Y-73395825D03*
X100905000Y-72070000D03*
%TD*%
%TO.N,GND*%
%TO.C,H1*%
X132215000Y-125800000D03*
X132764175Y-124474175D03*
X132764175Y-127125825D03*
X134090000Y-123925000D03*
D11*
X134090000Y-125800000D03*
D10*
X134090000Y-127675000D03*
X135415825Y-124474175D03*
X135415825Y-127125825D03*
X135965000Y-125800000D03*
%TD*%
D12*
%TO.N,GND*%
%TO.C,U2*%
X117440000Y-85720000D03*
X117440000Y-84520000D03*
X117440000Y-83220000D03*
X117440000Y-82120000D03*
X116240000Y-85720000D03*
X116240000Y-84520000D03*
X116240000Y-83220000D03*
X116240000Y-82120000D03*
%TD*%
D13*
%TO.N,GND*%
%TO.C,J2*%
X98320000Y-114430000D03*
D14*
%TO.N,USART2_TX*%
X98320000Y-111890000D03*
%TO.N,USART2_RX*%
X98320000Y-109350000D03*
%TO.N,PA4*%
X98320000Y-106810000D03*
%TO.N,PA5{slash}SPI1_CLK*%
X98320000Y-104270000D03*
%TO.N,PA5{slash}SPI1_MISO*%
X98320000Y-101730000D03*
%TO.N,PA7{slash}SPI1_CLK*%
X98320000Y-99190000D03*
%TO.N,+3.3V*%
X98320000Y-96650000D03*
%TD*%
D15*
%TO.N,GND*%
%TO.C,P1*%
X102580000Y-79080000D03*
D16*
%TO.N,+12V*%
X107660000Y-79080000D03*
%TD*%
D13*
%TO.N,GND*%
%TO.C,J3*%
X134170000Y-114190000D03*
D14*
%TO.N,SWDIO*%
X134170000Y-111650000D03*
%TO.N,NRST*%
X134170000Y-109110000D03*
%TO.N,SWDCLK*%
X134170000Y-106570000D03*
%TO.N,SIM_RESET*%
X134170000Y-104030000D03*
%TO.N,SIM_RX*%
X134170000Y-101490000D03*
%TO.N,SIM_TX*%
X134170000Y-98950000D03*
%TO.N,SIM_PWRKEY*%
X134170000Y-96410000D03*
%TD*%
D17*
%TO.N,SIM_TX*%
X127550000Y-97590000D03*
X131910000Y-97090000D03*
%TO.N,SIM_DATA*%
X110760000Y-104740000D03*
X112860735Y-107670735D03*
%TO.N,SIM_CLK*%
X110192500Y-107476000D03*
X108873635Y-104960000D03*
%TO.N,SIM_RST*%
X109040998Y-107470000D03*
X108172909Y-105467001D03*
%TO.N,SIM_DET*%
X105870000Y-114950000D03*
X102570000Y-108900000D03*
X102580000Y-105660000D03*
X104090000Y-104780000D03*
%TO.N,Net-(D2-K)*%
X119320000Y-74790000D03*
X114290000Y-78040000D03*
%TO.N,Net-(U4-PF1)*%
X108490000Y-108050000D03*
X111316140Y-108945805D03*
%TO.N,Net-(U4-PF0)*%
X109874054Y-106276000D03*
%TO.N,STATUS*%
X115281746Y-101780000D03*
%TO.N,USART2_TX*%
X115330000Y-109111000D03*
%TO.N,USART2_RX*%
X118390000Y-109200000D03*
%TO.N,PA4*%
X117465000Y-106879823D03*
X103300000Y-106390000D03*
%TO.N,PA5{slash}SPI1_CLK*%
X117020000Y-105670000D03*
%TO.N,PA5{slash}SPI1_MISO*%
X115850000Y-105060000D03*
%TO.N,PA7{slash}SPI1_CLK*%
X116100000Y-101840000D03*
%TO.N,Net-(U4-PB11)*%
X111600000Y-115190000D03*
X120350000Y-109290000D03*
%TO.N,LED1*%
X119020000Y-116550000D03*
X123060000Y-110930000D03*
%TO.N,LED2*%
X122580000Y-116700000D03*
X123450000Y-112020000D03*
%TO.N,SIM_RX*%
X121624098Y-100037133D03*
%TO.N,SIM_TX*%
X121075222Y-99445879D03*
%TO.N,SIM_PWRKEY*%
X123320000Y-91540000D03*
%TO.N,SIM_RESET*%
X123500000Y-97980000D03*
%TO.N,Net-(U4-PF0)*%
X111530000Y-106276000D03*
%TD*%
%TA.AperFunction,Conductor*%
%TO.N,+3.3V*%
G36*
X132028829Y-69630185D02*
G01*
X132074584Y-69682989D01*
X132084528Y-69752147D01*
X132055503Y-69815703D01*
X132049471Y-69822181D01*
X131864174Y-70007477D01*
X131654053Y-70270962D01*
X131474752Y-70556316D01*
X131328532Y-70859945D01*
X131217227Y-71178034D01*
X131217223Y-71178046D01*
X131142233Y-71506602D01*
X131142231Y-71506618D01*
X131104500Y-71841491D01*
X131104500Y-72178508D01*
X131142231Y-72513381D01*
X131142233Y-72513397D01*
X131217223Y-72841953D01*
X131217227Y-72841965D01*
X131328532Y-73160054D01*
X131474752Y-73463683D01*
X131474754Y-73463686D01*
X131654054Y-73749039D01*
X131864175Y-74012523D01*
X132102477Y-74250825D01*
X132365961Y-74460946D01*
X132651314Y-74640246D01*
X132954949Y-74786469D01*
X133190357Y-74868842D01*
X133273034Y-74897772D01*
X133273046Y-74897776D01*
X133601606Y-74972767D01*
X133936492Y-75010499D01*
X133936493Y-75010500D01*
X133936496Y-75010500D01*
X134273507Y-75010500D01*
X134273507Y-75010499D01*
X134608394Y-74972767D01*
X134936954Y-74897776D01*
X135255051Y-74786469D01*
X135558686Y-74640246D01*
X135844039Y-74460946D01*
X136107523Y-74250825D01*
X136291994Y-74066354D01*
X136353317Y-74032869D01*
X136423009Y-74037853D01*
X136478942Y-74079725D01*
X136503359Y-74145189D01*
X136503675Y-74154035D01*
X136503675Y-123670965D01*
X136483990Y-123738004D01*
X136431186Y-123783759D01*
X136362028Y-123793703D01*
X136298472Y-123764678D01*
X136291994Y-123758646D01*
X136092522Y-123559174D01*
X136025606Y-123505811D01*
X135829039Y-123349054D01*
X135543686Y-123169754D01*
X135543683Y-123169752D01*
X135240054Y-123023532D01*
X134921965Y-122912227D01*
X134921953Y-122912223D01*
X134593397Y-122837233D01*
X134593381Y-122837231D01*
X134258508Y-122799500D01*
X134258504Y-122799500D01*
X133921496Y-122799500D01*
X133921491Y-122799500D01*
X133586618Y-122837231D01*
X133586602Y-122837233D01*
X133258046Y-122912223D01*
X133258034Y-122912227D01*
X132939945Y-123023532D01*
X132636316Y-123169752D01*
X132350962Y-123349053D01*
X132087477Y-123559174D01*
X131849174Y-123797477D01*
X131639053Y-124060962D01*
X131459752Y-124346316D01*
X131313532Y-124649945D01*
X131202227Y-124968034D01*
X131202223Y-124968046D01*
X131127233Y-125296602D01*
X131127231Y-125296618D01*
X131089500Y-125631491D01*
X131089500Y-125968508D01*
X131127231Y-126303381D01*
X131127233Y-126303397D01*
X131202223Y-126631953D01*
X131202227Y-126631965D01*
X131313532Y-126950054D01*
X131459752Y-127253683D01*
X131459754Y-127253686D01*
X131639054Y-127539039D01*
X131795811Y-127735606D01*
X131849174Y-127802522D01*
X132087476Y-128040824D01*
X132089961Y-128043045D01*
X132126828Y-128102396D01*
X132125756Y-128172257D01*
X132087083Y-128230449D01*
X132023090Y-128258494D01*
X132007329Y-128259500D01*
X101023210Y-128259500D01*
X100956171Y-128239815D01*
X100910416Y-128187011D01*
X100900472Y-128117853D01*
X100929497Y-128054297D01*
X100935529Y-128047819D01*
X100942524Y-128040824D01*
X101136650Y-127846698D01*
X101346771Y-127583214D01*
X101526071Y-127297861D01*
X101672294Y-126994226D01*
X101783601Y-126676129D01*
X101858592Y-126347569D01*
X101896325Y-126012679D01*
X101896325Y-125675671D01*
X101858592Y-125340781D01*
X101783601Y-125012221D01*
X101768143Y-124968046D01*
X101755888Y-124933023D01*
X101672294Y-124694124D01*
X101526071Y-124390489D01*
X101346771Y-124105136D01*
X101136650Y-123841652D01*
X100898348Y-123603350D01*
X100634864Y-123393229D01*
X100349511Y-123213929D01*
X100349508Y-123213927D01*
X100045879Y-123067707D01*
X99727790Y-122956402D01*
X99727778Y-122956398D01*
X99399222Y-122881408D01*
X99399206Y-122881406D01*
X99064333Y-122843675D01*
X99064329Y-122843675D01*
X98727321Y-122843675D01*
X98727316Y-122843675D01*
X98392443Y-122881406D01*
X98392427Y-122881408D01*
X98063871Y-122956398D01*
X98063859Y-122956402D01*
X97745770Y-123067707D01*
X97442141Y-123213927D01*
X97156787Y-123393228D01*
X96893302Y-123603349D01*
X96672181Y-123824471D01*
X96610858Y-123857956D01*
X96541166Y-123852972D01*
X96485233Y-123811100D01*
X96460816Y-123745636D01*
X96460500Y-123736790D01*
X96460500Y-116471153D01*
X118219500Y-116471153D01*
X118219500Y-116628846D01*
X118250261Y-116783489D01*
X118250264Y-116783501D01*
X118310602Y-116929172D01*
X118310609Y-116929185D01*
X118398210Y-117060288D01*
X118398213Y-117060292D01*
X118509707Y-117171786D01*
X118509711Y-117171789D01*
X118640814Y-117259390D01*
X118640827Y-117259397D01*
X118786498Y-117319735D01*
X118786503Y-117319737D01*
X118941153Y-117350499D01*
X118941156Y-117350500D01*
X118941158Y-117350500D01*
X119098844Y-117350500D01*
X119098845Y-117350499D01*
X119253497Y-117319737D01*
X119399179Y-117259394D01*
X119530289Y-117171789D01*
X119641789Y-117060289D01*
X119729394Y-116929179D01*
X119789737Y-116783497D01*
X119820500Y-116628842D01*
X119820500Y-116621153D01*
X121779500Y-116621153D01*
X121779500Y-116778846D01*
X121810261Y-116933489D01*
X121810264Y-116933501D01*
X121870602Y-117079172D01*
X121870609Y-117079185D01*
X121958210Y-117210288D01*
X121958213Y-117210292D01*
X122069707Y-117321786D01*
X122069711Y-117321789D01*
X122200814Y-117409390D01*
X122200827Y-117409397D01*
X122346498Y-117469735D01*
X122346503Y-117469737D01*
X122501153Y-117500499D01*
X122501156Y-117500500D01*
X122501158Y-117500500D01*
X122658844Y-117500500D01*
X122658845Y-117500499D01*
X122813497Y-117469737D01*
X122959179Y-117409394D01*
X123090289Y-117321789D01*
X123201789Y-117210289D01*
X123289394Y-117079179D01*
X123349737Y-116933497D01*
X123380500Y-116778842D01*
X123380500Y-116621158D01*
X123380500Y-116621155D01*
X123380499Y-116621153D01*
X123349738Y-116466510D01*
X123349737Y-116466503D01*
X123349735Y-116466498D01*
X123289397Y-116320827D01*
X123289390Y-116320814D01*
X123201789Y-116189711D01*
X123201786Y-116189707D01*
X123090292Y-116078213D01*
X123090288Y-116078210D01*
X122959185Y-115990609D01*
X122959172Y-115990602D01*
X122813501Y-115930264D01*
X122813489Y-115930261D01*
X122658845Y-115899500D01*
X122658842Y-115899500D01*
X122501158Y-115899500D01*
X122501155Y-115899500D01*
X122346510Y-115930261D01*
X122346498Y-115930264D01*
X122200827Y-115990602D01*
X122200814Y-115990609D01*
X122069711Y-116078210D01*
X122069707Y-116078213D01*
X121958213Y-116189707D01*
X121958210Y-116189711D01*
X121870609Y-116320814D01*
X121870602Y-116320827D01*
X121810264Y-116466498D01*
X121810261Y-116466510D01*
X121779500Y-116621153D01*
X119820500Y-116621153D01*
X119820500Y-116471158D01*
X119820500Y-116471155D01*
X119820499Y-116471153D01*
X119790596Y-116320821D01*
X119789737Y-116316503D01*
X119789735Y-116316498D01*
X119729397Y-116170827D01*
X119729390Y-116170814D01*
X119641789Y-116039711D01*
X119641786Y-116039707D01*
X119530292Y-115928213D01*
X119530288Y-115928210D01*
X119399185Y-115840609D01*
X119399172Y-115840602D01*
X119253501Y-115780264D01*
X119253489Y-115780261D01*
X119098845Y-115749500D01*
X119098842Y-115749500D01*
X118941158Y-115749500D01*
X118941155Y-115749500D01*
X118786510Y-115780261D01*
X118786498Y-115780264D01*
X118640827Y-115840602D01*
X118640814Y-115840609D01*
X118509711Y-115928210D01*
X118509707Y-115928213D01*
X118398213Y-116039707D01*
X118398210Y-116039711D01*
X118310609Y-116170814D01*
X118310602Y-116170827D01*
X118250264Y-116316498D01*
X118250261Y-116316510D01*
X118219500Y-116471153D01*
X96460500Y-116471153D01*
X96460500Y-99083713D01*
X96969500Y-99083713D01*
X96969500Y-99296286D01*
X97002753Y-99506239D01*
X97002753Y-99506241D01*
X97002754Y-99506243D01*
X97052003Y-99657816D01*
X97068444Y-99708414D01*
X97164951Y-99897820D01*
X97289890Y-100069786D01*
X97440213Y-100220109D01*
X97612182Y-100345050D01*
X97620946Y-100349516D01*
X97671742Y-100397491D01*
X97688536Y-100465312D01*
X97665998Y-100531447D01*
X97620946Y-100570484D01*
X97612182Y-100574949D01*
X97440213Y-100699890D01*
X97289890Y-100850213D01*
X97164951Y-101022179D01*
X97068444Y-101211585D01*
X97002753Y-101413760D01*
X96969500Y-101623713D01*
X96969500Y-101836286D01*
X96997567Y-102013497D01*
X97002754Y-102046243D01*
X97058942Y-102219172D01*
X97068444Y-102248414D01*
X97164951Y-102437820D01*
X97289890Y-102609786D01*
X97440213Y-102760109D01*
X97612182Y-102885050D01*
X97620946Y-102889516D01*
X97671742Y-102937491D01*
X97688536Y-103005312D01*
X97665998Y-103071447D01*
X97620946Y-103110484D01*
X97612182Y-103114949D01*
X97440213Y-103239890D01*
X97289890Y-103390213D01*
X97164951Y-103562179D01*
X97068444Y-103751585D01*
X97002753Y-103953760D01*
X96969500Y-104163713D01*
X96969500Y-104376286D01*
X96996459Y-104546503D01*
X97002754Y-104586243D01*
X97052003Y-104737816D01*
X97068444Y-104788414D01*
X97164951Y-104977820D01*
X97289890Y-105149786D01*
X97440213Y-105300109D01*
X97612182Y-105425050D01*
X97620946Y-105429516D01*
X97671742Y-105477491D01*
X97688536Y-105545312D01*
X97665998Y-105611447D01*
X97620946Y-105650484D01*
X97612182Y-105654949D01*
X97440213Y-105779890D01*
X97289890Y-105930213D01*
X97164951Y-106102179D01*
X97068444Y-106291585D01*
X97002753Y-106493760D01*
X96969500Y-106703713D01*
X96969500Y-106916286D01*
X97000707Y-107113324D01*
X97002754Y-107126243D01*
X97056465Y-107291549D01*
X97068444Y-107328414D01*
X97164951Y-107517820D01*
X97289890Y-107689786D01*
X97440213Y-107840109D01*
X97612182Y-107965050D01*
X97620946Y-107969516D01*
X97671742Y-108017491D01*
X97688536Y-108085312D01*
X97665998Y-108151447D01*
X97620946Y-108190484D01*
X97612182Y-108194949D01*
X97440213Y-108319890D01*
X97289890Y-108470213D01*
X97164951Y-108642179D01*
X97068444Y-108831585D01*
X97002753Y-109033760D01*
X96969500Y-109243713D01*
X96969500Y-109456286D01*
X97001004Y-109655199D01*
X97002754Y-109666243D01*
X97053294Y-109821789D01*
X97068444Y-109868414D01*
X97164951Y-110057820D01*
X97289890Y-110229786D01*
X97440213Y-110380109D01*
X97612182Y-110505050D01*
X97620946Y-110509516D01*
X97671742Y-110557491D01*
X97688536Y-110625312D01*
X97665998Y-110691447D01*
X97620946Y-110730484D01*
X97612182Y-110734949D01*
X97440213Y-110859890D01*
X97289890Y-111010213D01*
X97164951Y-111182179D01*
X97068444Y-111371585D01*
X97002753Y-111573760D01*
X96969500Y-111783713D01*
X96969500Y-111996286D01*
X96985743Y-112098844D01*
X97002754Y-112206243D01*
X97052003Y-112357816D01*
X97068444Y-112408414D01*
X97164951Y-112597820D01*
X97289890Y-112769786D01*
X97403430Y-112883326D01*
X97436915Y-112944649D01*
X97431931Y-113014341D01*
X97390059Y-113070274D01*
X97359083Y-113087189D01*
X97227669Y-113136203D01*
X97227664Y-113136206D01*
X97112455Y-113222452D01*
X97112452Y-113222455D01*
X97026206Y-113337664D01*
X97026202Y-113337671D01*
X96975908Y-113472517D01*
X96969501Y-113532116D01*
X96969501Y-113532123D01*
X96969500Y-113532135D01*
X96969500Y-115327870D01*
X96969501Y-115327876D01*
X96975908Y-115387483D01*
X97026202Y-115522328D01*
X97026206Y-115522335D01*
X97112452Y-115637544D01*
X97112455Y-115637547D01*
X97227664Y-115723793D01*
X97227671Y-115723797D01*
X97362517Y-115774091D01*
X97362516Y-115774091D01*
X97369444Y-115774835D01*
X97422127Y-115780500D01*
X99217872Y-115780499D01*
X99277483Y-115774091D01*
X99412331Y-115723796D01*
X99527546Y-115637546D01*
X99613796Y-115522331D01*
X99664091Y-115387483D01*
X99670500Y-115327873D01*
X99670499Y-114871153D01*
X105069500Y-114871153D01*
X105069500Y-115028846D01*
X105100261Y-115183489D01*
X105100264Y-115183501D01*
X105160602Y-115329172D01*
X105160609Y-115329185D01*
X105248210Y-115460288D01*
X105248213Y-115460292D01*
X105359707Y-115571786D01*
X105359711Y-115571789D01*
X105490814Y-115659390D01*
X105490827Y-115659397D01*
X105589558Y-115700292D01*
X105636503Y-115719737D01*
X105786131Y-115749500D01*
X105791153Y-115750499D01*
X105791156Y-115750500D01*
X105791158Y-115750500D01*
X105948844Y-115750500D01*
X105948845Y-115750499D01*
X106103497Y-115719737D01*
X106249179Y-115659394D01*
X106380289Y-115571789D01*
X106491789Y-115460289D01*
X106579394Y-115329179D01*
X106639737Y-115183497D01*
X106646901Y-115147482D01*
X106654128Y-115111153D01*
X110799500Y-115111153D01*
X110799500Y-115268846D01*
X110830261Y-115423489D01*
X110830264Y-115423501D01*
X110890602Y-115569172D01*
X110890609Y-115569185D01*
X110978210Y-115700288D01*
X110978213Y-115700292D01*
X111089707Y-115811786D01*
X111089711Y-115811789D01*
X111220814Y-115899390D01*
X111220827Y-115899397D01*
X111295348Y-115930264D01*
X111366503Y-115959737D01*
X111521153Y-115990499D01*
X111521156Y-115990500D01*
X111521158Y-115990500D01*
X111678844Y-115990500D01*
X111678845Y-115990499D01*
X111833497Y-115959737D01*
X111979179Y-115899394D01*
X112110289Y-115811789D01*
X112221789Y-115700289D01*
X112309394Y-115569179D01*
X112369737Y-115423497D01*
X112400500Y-115268842D01*
X112400500Y-115111158D01*
X112400500Y-115111155D01*
X112400499Y-115111153D01*
X112395868Y-115087870D01*
X112369737Y-114956503D01*
X112369735Y-114956498D01*
X112309397Y-114810827D01*
X112309390Y-114810814D01*
X112221789Y-114679711D01*
X112221786Y-114679707D01*
X112110292Y-114568213D01*
X112110288Y-114568210D01*
X111979185Y-114480609D01*
X111979172Y-114480602D01*
X111833501Y-114420264D01*
X111833489Y-114420261D01*
X111678845Y-114389500D01*
X111678842Y-114389500D01*
X111521158Y-114389500D01*
X111521155Y-114389500D01*
X111366510Y-114420261D01*
X111366498Y-114420264D01*
X111220827Y-114480602D01*
X111220814Y-114480609D01*
X111089711Y-114568210D01*
X111089707Y-114568213D01*
X110978213Y-114679707D01*
X110978210Y-114679711D01*
X110890609Y-114810814D01*
X110890602Y-114810827D01*
X110830264Y-114956498D01*
X110830261Y-114956510D01*
X110799500Y-115111153D01*
X106654128Y-115111153D01*
X106660151Y-115080874D01*
X106660151Y-115080873D01*
X106670499Y-115028846D01*
X106670500Y-115028844D01*
X106670500Y-114871155D01*
X106670499Y-114871153D01*
X106639738Y-114716510D01*
X106639737Y-114716503D01*
X106639735Y-114716498D01*
X106579397Y-114570827D01*
X106579390Y-114570814D01*
X106491789Y-114439711D01*
X106491786Y-114439707D01*
X106380292Y-114328213D01*
X106380288Y-114328210D01*
X106249185Y-114240609D01*
X106249172Y-114240602D01*
X106103501Y-114180264D01*
X106103489Y-114180261D01*
X105948845Y-114149500D01*
X105948842Y-114149500D01*
X105791158Y-114149500D01*
X105791155Y-114149500D01*
X105636510Y-114180261D01*
X105636498Y-114180264D01*
X105490827Y-114240602D01*
X105490814Y-114240609D01*
X105359711Y-114328210D01*
X105359707Y-114328213D01*
X105248213Y-114439707D01*
X105248210Y-114439711D01*
X105160609Y-114570814D01*
X105160602Y-114570827D01*
X105100264Y-114716498D01*
X105100261Y-114716510D01*
X105069500Y-114871153D01*
X99670499Y-114871153D01*
X99670499Y-114420264D01*
X99670499Y-113532129D01*
X99670498Y-113532123D01*
X99670497Y-113532116D01*
X99664091Y-113472517D01*
X99613796Y-113337669D01*
X99613795Y-113337668D01*
X99613793Y-113337664D01*
X99527547Y-113222455D01*
X99527544Y-113222452D01*
X99412335Y-113136206D01*
X99412328Y-113136202D01*
X99280917Y-113087189D01*
X99224983Y-113045318D01*
X99200566Y-112979853D01*
X99215418Y-112911580D01*
X99236563Y-112883332D01*
X99350104Y-112769792D01*
X99379453Y-112729397D01*
X99475048Y-112597820D01*
X99475047Y-112597820D01*
X99475051Y-112597816D01*
X99571557Y-112408412D01*
X99637246Y-112206243D01*
X99670500Y-111996287D01*
X99670500Y-111783713D01*
X99637246Y-111573757D01*
X99571557Y-111371588D01*
X99475051Y-111182184D01*
X99475049Y-111182181D01*
X99475048Y-111182179D01*
X99350109Y-111010213D01*
X99199786Y-110859890D01*
X99187760Y-110851153D01*
X122259500Y-110851153D01*
X122259500Y-111008846D01*
X122290261Y-111163489D01*
X122290264Y-111163501D01*
X122350602Y-111309172D01*
X122350609Y-111309185D01*
X122438210Y-111440288D01*
X122438213Y-111440292D01*
X122549707Y-111551786D01*
X122549715Y-111551792D01*
X122643495Y-111614454D01*
X122688301Y-111668066D01*
X122697008Y-111737391D01*
X122689167Y-111765006D01*
X122680263Y-111786502D01*
X122680260Y-111786511D01*
X122649500Y-111941153D01*
X122649500Y-112098846D01*
X122680261Y-112253489D01*
X122680264Y-112253501D01*
X122740602Y-112399172D01*
X122740609Y-112399185D01*
X122828210Y-112530288D01*
X122828213Y-112530292D01*
X122939707Y-112641786D01*
X122939711Y-112641789D01*
X123070814Y-112729390D01*
X123070827Y-112729397D01*
X123168351Y-112769792D01*
X123216503Y-112789737D01*
X123371153Y-112820499D01*
X123371156Y-112820500D01*
X123371158Y-112820500D01*
X123528844Y-112820500D01*
X123528845Y-112820499D01*
X123683497Y-112789737D01*
X123829179Y-112729394D01*
X123960289Y-112641789D01*
X124071789Y-112530289D01*
X124159394Y-112399179D01*
X124219737Y-112253497D01*
X124250500Y-112098842D01*
X124250500Y-111941158D01*
X124250500Y-111941155D01*
X124250499Y-111941153D01*
X124219737Y-111786503D01*
X124207221Y-111756286D01*
X124159397Y-111640827D01*
X124159390Y-111640814D01*
X124071789Y-111509711D01*
X124071786Y-111509707D01*
X123960289Y-111398210D01*
X123866503Y-111335545D01*
X123821698Y-111281933D01*
X123812991Y-111212608D01*
X123820833Y-111184992D01*
X123829737Y-111163497D01*
X123860500Y-111008842D01*
X123860500Y-110851158D01*
X123860500Y-110851155D01*
X123860499Y-110851153D01*
X123837384Y-110734949D01*
X123829737Y-110696503D01*
X123795850Y-110614692D01*
X123769397Y-110550827D01*
X123769390Y-110550814D01*
X123681789Y-110419711D01*
X123681786Y-110419707D01*
X123570292Y-110308213D01*
X123570288Y-110308210D01*
X123439185Y-110220609D01*
X123439172Y-110220602D01*
X123293501Y-110160264D01*
X123293489Y-110160261D01*
X123138845Y-110129500D01*
X123138842Y-110129500D01*
X122981158Y-110129500D01*
X122981155Y-110129500D01*
X122826510Y-110160261D01*
X122826498Y-110160264D01*
X122680827Y-110220602D01*
X122680814Y-110220609D01*
X122549711Y-110308210D01*
X122549707Y-110308213D01*
X122438213Y-110419707D01*
X122438210Y-110419711D01*
X122350609Y-110550814D01*
X122350602Y-110550827D01*
X122290264Y-110696498D01*
X122290261Y-110696510D01*
X122259500Y-110851153D01*
X99187760Y-110851153D01*
X99027820Y-110734951D01*
X99027115Y-110734591D01*
X99019054Y-110730485D01*
X98968259Y-110682512D01*
X98951463Y-110614692D01*
X98973999Y-110548556D01*
X99019054Y-110509515D01*
X99027816Y-110505051D01*
X99101596Y-110451447D01*
X99199786Y-110380109D01*
X99199788Y-110380106D01*
X99199792Y-110380104D01*
X99350104Y-110229792D01*
X99350106Y-110229788D01*
X99350109Y-110229786D01*
X99475048Y-110057820D01*
X99475047Y-110057820D01*
X99475051Y-110057816D01*
X99571557Y-109868412D01*
X99637246Y-109666243D01*
X99670500Y-109456287D01*
X99670500Y-109243713D01*
X99637246Y-109033757D01*
X99571557Y-108831588D01*
X99566240Y-108821153D01*
X101769500Y-108821153D01*
X101769500Y-108978846D01*
X101800261Y-109133489D01*
X101800264Y-109133501D01*
X101860602Y-109279172D01*
X101860609Y-109279185D01*
X101948210Y-109410288D01*
X101948213Y-109410292D01*
X102059707Y-109521786D01*
X102059711Y-109521789D01*
X102190814Y-109609390D01*
X102190827Y-109609397D01*
X102335139Y-109669172D01*
X102336503Y-109669737D01*
X102491153Y-109700499D01*
X102491156Y-109700500D01*
X102491158Y-109700500D01*
X102648844Y-109700500D01*
X102648845Y-109700499D01*
X102803497Y-109669737D01*
X102949179Y-109609394D01*
X103080289Y-109521789D01*
X103191789Y-109410289D01*
X103279394Y-109279179D01*
X103339737Y-109133497D01*
X103370500Y-108978842D01*
X103370500Y-108866958D01*
X110515640Y-108866958D01*
X110515640Y-109024651D01*
X110546401Y-109179294D01*
X110546404Y-109179306D01*
X110606742Y-109324977D01*
X110606749Y-109324990D01*
X110694350Y-109456093D01*
X110694353Y-109456097D01*
X110805847Y-109567591D01*
X110805851Y-109567594D01*
X110936954Y-109655195D01*
X110936967Y-109655202D01*
X111069961Y-109710289D01*
X111082643Y-109715542D01*
X111237293Y-109746304D01*
X111237296Y-109746305D01*
X111237298Y-109746305D01*
X111394984Y-109746305D01*
X111394985Y-109746304D01*
X111549637Y-109715542D01*
X111695319Y-109655199D01*
X111826429Y-109567594D01*
X111937929Y-109456094D01*
X112025534Y-109324984D01*
X112085877Y-109179302D01*
X112115147Y-109032153D01*
X114529500Y-109032153D01*
X114529500Y-109189846D01*
X114560261Y-109344489D01*
X114560264Y-109344501D01*
X114620602Y-109490172D01*
X114620609Y-109490185D01*
X114708210Y-109621288D01*
X114708213Y-109621292D01*
X114819707Y-109732786D01*
X114819711Y-109732789D01*
X114950814Y-109820390D01*
X114950827Y-109820397D01*
X115066752Y-109868414D01*
X115096503Y-109880737D01*
X115240586Y-109909397D01*
X115251153Y-109911499D01*
X115251156Y-109911500D01*
X115251158Y-109911500D01*
X115408844Y-109911500D01*
X115408845Y-109911499D01*
X115563497Y-109880737D01*
X115705811Y-109821789D01*
X115709172Y-109820397D01*
X115709172Y-109820396D01*
X115709179Y-109820394D01*
X115840289Y-109732789D01*
X115951789Y-109621289D01*
X116039394Y-109490179D01*
X116099737Y-109344497D01*
X116130500Y-109189842D01*
X116130500Y-109121153D01*
X117589500Y-109121153D01*
X117589500Y-109278846D01*
X117620261Y-109433489D01*
X117620264Y-109433501D01*
X117680602Y-109579172D01*
X117680609Y-109579185D01*
X117768210Y-109710288D01*
X117768213Y-109710292D01*
X117879707Y-109821786D01*
X117879711Y-109821789D01*
X118010814Y-109909390D01*
X118010827Y-109909397D01*
X118156498Y-109969735D01*
X118156503Y-109969737D01*
X118257326Y-109989792D01*
X118311153Y-110000499D01*
X118311156Y-110000500D01*
X118311158Y-110000500D01*
X118468844Y-110000500D01*
X118468845Y-110000499D01*
X118623497Y-109969737D01*
X118769179Y-109909394D01*
X118900289Y-109821789D01*
X119011789Y-109710289D01*
X119099394Y-109579179D01*
X119159737Y-109433497D01*
X119190500Y-109278842D01*
X119190500Y-109211153D01*
X119549500Y-109211153D01*
X119549500Y-109368846D01*
X119580261Y-109523489D01*
X119580264Y-109523501D01*
X119640602Y-109669172D01*
X119640609Y-109669185D01*
X119728210Y-109800288D01*
X119728213Y-109800292D01*
X119839707Y-109911786D01*
X119839711Y-109911789D01*
X119970814Y-109999390D01*
X119970827Y-109999397D01*
X120111865Y-110057816D01*
X120116503Y-110059737D01*
X120271153Y-110090499D01*
X120271156Y-110090500D01*
X120271158Y-110090500D01*
X120428844Y-110090500D01*
X120428845Y-110090499D01*
X120583497Y-110059737D01*
X120729179Y-109999394D01*
X120860289Y-109911789D01*
X120971789Y-109800289D01*
X121059394Y-109669179D01*
X121119737Y-109523497D01*
X121150500Y-109368842D01*
X121150500Y-109211158D01*
X121150500Y-109211155D01*
X121150499Y-109211153D01*
X121135052Y-109133497D01*
X121119737Y-109056503D01*
X121110316Y-109033759D01*
X121059397Y-108910827D01*
X121059390Y-108910814D01*
X120971789Y-108779711D01*
X120971786Y-108779707D01*
X120860292Y-108668213D01*
X120860288Y-108668210D01*
X120729185Y-108580609D01*
X120729172Y-108580602D01*
X120583501Y-108520264D01*
X120583489Y-108520261D01*
X120428845Y-108489500D01*
X120428842Y-108489500D01*
X120271158Y-108489500D01*
X120271155Y-108489500D01*
X120116510Y-108520261D01*
X120116498Y-108520264D01*
X119970827Y-108580602D01*
X119970814Y-108580609D01*
X119839711Y-108668210D01*
X119839707Y-108668213D01*
X119728213Y-108779707D01*
X119728210Y-108779711D01*
X119640609Y-108910814D01*
X119640602Y-108910827D01*
X119580264Y-109056498D01*
X119580261Y-109056510D01*
X119549500Y-109211153D01*
X119190500Y-109211153D01*
X119190500Y-109121158D01*
X119190500Y-109121155D01*
X119190499Y-109121153D01*
X119159737Y-108966503D01*
X119159735Y-108966498D01*
X119099397Y-108820827D01*
X119099390Y-108820814D01*
X119011789Y-108689711D01*
X119011786Y-108689707D01*
X118900292Y-108578213D01*
X118900288Y-108578210D01*
X118769185Y-108490609D01*
X118769172Y-108490602D01*
X118623501Y-108430264D01*
X118623489Y-108430261D01*
X118468845Y-108399500D01*
X118468842Y-108399500D01*
X118311158Y-108399500D01*
X118311155Y-108399500D01*
X118156510Y-108430261D01*
X118156498Y-108430264D01*
X118010827Y-108490602D01*
X118010814Y-108490609D01*
X117879711Y-108578210D01*
X117879707Y-108578213D01*
X117768213Y-108689707D01*
X117768210Y-108689711D01*
X117680609Y-108820814D01*
X117680602Y-108820827D01*
X117620264Y-108966498D01*
X117620261Y-108966510D01*
X117589500Y-109121153D01*
X116130500Y-109121153D01*
X116130500Y-109032158D01*
X116130500Y-109032155D01*
X116130499Y-109032153D01*
X116124842Y-109003713D01*
X116099737Y-108877503D01*
X116089752Y-108853396D01*
X116039397Y-108731827D01*
X116039390Y-108731814D01*
X115951789Y-108600711D01*
X115951786Y-108600707D01*
X115840292Y-108489213D01*
X115840288Y-108489210D01*
X115709185Y-108401609D01*
X115709172Y-108401602D01*
X115563501Y-108341264D01*
X115563489Y-108341261D01*
X115408845Y-108310500D01*
X115408842Y-108310500D01*
X115251158Y-108310500D01*
X115251155Y-108310500D01*
X115096510Y-108341261D01*
X115096498Y-108341264D01*
X114950827Y-108401602D01*
X114950814Y-108401609D01*
X114819711Y-108489210D01*
X114819707Y-108489213D01*
X114708213Y-108600707D01*
X114708210Y-108600711D01*
X114620609Y-108731814D01*
X114620602Y-108731827D01*
X114560264Y-108877498D01*
X114560261Y-108877510D01*
X114529500Y-109032153D01*
X112115147Y-109032153D01*
X112116640Y-109024647D01*
X112116640Y-108866963D01*
X112116640Y-108866960D01*
X112116639Y-108866958D01*
X112099284Y-108779711D01*
X112085877Y-108712308D01*
X112076517Y-108689711D01*
X112025537Y-108566632D01*
X112025530Y-108566619D01*
X111937929Y-108435516D01*
X111937926Y-108435512D01*
X111826432Y-108324018D01*
X111826428Y-108324015D01*
X111695325Y-108236414D01*
X111695312Y-108236407D01*
X111549641Y-108176069D01*
X111549629Y-108176066D01*
X111394985Y-108145305D01*
X111394982Y-108145305D01*
X111237298Y-108145305D01*
X111237295Y-108145305D01*
X111082650Y-108176066D01*
X111082638Y-108176069D01*
X110936967Y-108236407D01*
X110936956Y-108236413D01*
X110861779Y-108286644D01*
X110861730Y-108286678D01*
X110805851Y-108324016D01*
X110797565Y-108332301D01*
X110797562Y-108332304D01*
X110694350Y-108435516D01*
X110606749Y-108566619D01*
X110606742Y-108566632D01*
X110546404Y-108712303D01*
X110546401Y-108712315D01*
X110515640Y-108866958D01*
X103370500Y-108866958D01*
X103370500Y-108821158D01*
X103370500Y-108821155D01*
X103370499Y-108821153D01*
X103365050Y-108793760D01*
X103339737Y-108666503D01*
X103329662Y-108642179D01*
X103279397Y-108520827D01*
X103279390Y-108520814D01*
X103191789Y-108389711D01*
X103191786Y-108389707D01*
X103080292Y-108278213D01*
X103080288Y-108278210D01*
X102949185Y-108190609D01*
X102949172Y-108190602D01*
X102803501Y-108130264D01*
X102803489Y-108130261D01*
X102648845Y-108099500D01*
X102648842Y-108099500D01*
X102491158Y-108099500D01*
X102491155Y-108099500D01*
X102336510Y-108130261D01*
X102336498Y-108130264D01*
X102190827Y-108190602D01*
X102190814Y-108190609D01*
X102059711Y-108278210D01*
X102059707Y-108278213D01*
X101948213Y-108389707D01*
X101948210Y-108389711D01*
X101860609Y-108520814D01*
X101860602Y-108520827D01*
X101800264Y-108666498D01*
X101800261Y-108666510D01*
X101769500Y-108821153D01*
X99566240Y-108821153D01*
X99475051Y-108642184D01*
X99475049Y-108642181D01*
X99475048Y-108642179D01*
X99350109Y-108470213D01*
X99199786Y-108319890D01*
X99027820Y-108194951D01*
X99027115Y-108194591D01*
X99019054Y-108190485D01*
X98968259Y-108142512D01*
X98951463Y-108074692D01*
X98973999Y-108008556D01*
X99019054Y-107969515D01*
X99027816Y-107965051D01*
X99101596Y-107911447D01*
X99199786Y-107840109D01*
X99199788Y-107840106D01*
X99199792Y-107840104D01*
X99350104Y-107689792D01*
X99350106Y-107689788D01*
X99350109Y-107689786D01*
X99475048Y-107517820D01*
X99475047Y-107517820D01*
X99475051Y-107517816D01*
X99571557Y-107328412D01*
X99637246Y-107126243D01*
X99670500Y-106916287D01*
X99670500Y-106703713D01*
X99637246Y-106493757D01*
X99571557Y-106291588D01*
X99475051Y-106102184D01*
X99475049Y-106102181D01*
X99475048Y-106102179D01*
X99350109Y-105930213D01*
X99199790Y-105779894D01*
X99199785Y-105779890D01*
X99058353Y-105677134D01*
X99058335Y-105677122D01*
X99027816Y-105654949D01*
X99013019Y-105647409D01*
X99007357Y-105643697D01*
X98988932Y-105622036D01*
X98968259Y-105602512D01*
X98966588Y-105595768D01*
X98962087Y-105590476D01*
X98960834Y-105581153D01*
X101779500Y-105581153D01*
X101779500Y-105738846D01*
X101810261Y-105893489D01*
X101810264Y-105893501D01*
X101870602Y-106039172D01*
X101870609Y-106039185D01*
X101958210Y-106170288D01*
X101958213Y-106170292D01*
X102069707Y-106281786D01*
X102069711Y-106281789D01*
X102200814Y-106369390D01*
X102200827Y-106369397D01*
X102251242Y-106390279D01*
X102346503Y-106429737D01*
X102416444Y-106443649D01*
X102478351Y-106476032D01*
X102512926Y-106536747D01*
X102513867Y-106541073D01*
X102530261Y-106623491D01*
X102530264Y-106623501D01*
X102590602Y-106769172D01*
X102590609Y-106769185D01*
X102678210Y-106900288D01*
X102678213Y-106900292D01*
X102789707Y-107011786D01*
X102789711Y-107011789D01*
X102920814Y-107099390D01*
X102920827Y-107099397D01*
X103066498Y-107159735D01*
X103066503Y-107159737D01*
X103221153Y-107190499D01*
X103221156Y-107190500D01*
X103221158Y-107190500D01*
X103378844Y-107190500D01*
X103378845Y-107190499D01*
X103533497Y-107159737D01*
X103679179Y-107099394D01*
X103810289Y-107011789D01*
X103921789Y-106900289D01*
X104009394Y-106769179D01*
X104069737Y-106623497D01*
X104100500Y-106468842D01*
X104100500Y-106311158D01*
X104100500Y-106311155D01*
X104100499Y-106311153D01*
X104094658Y-106281789D01*
X104069737Y-106156503D01*
X104069735Y-106156498D01*
X104009397Y-106010827D01*
X104009390Y-106010814D01*
X103921789Y-105879711D01*
X103921786Y-105879707D01*
X103815139Y-105773060D01*
X103781654Y-105711737D01*
X103786638Y-105642045D01*
X103828510Y-105586112D01*
X103893974Y-105561695D01*
X103927010Y-105563761D01*
X103941289Y-105566602D01*
X104011156Y-105580500D01*
X104011158Y-105580500D01*
X104168844Y-105580500D01*
X104168845Y-105580499D01*
X104323497Y-105549737D01*
X104469179Y-105489394D01*
X104600289Y-105401789D01*
X104613924Y-105388154D01*
X107372409Y-105388154D01*
X107372409Y-105545847D01*
X107403170Y-105700490D01*
X107403173Y-105700502D01*
X107463511Y-105846173D01*
X107463518Y-105846186D01*
X107551119Y-105977289D01*
X107551122Y-105977293D01*
X107662616Y-106088787D01*
X107662620Y-106088790D01*
X107793723Y-106176391D01*
X107793736Y-106176398D01*
X107939407Y-106236736D01*
X107939412Y-106236738D01*
X108046484Y-106258036D01*
X108094062Y-106267500D01*
X108094065Y-106267501D01*
X108094067Y-106267501D01*
X108251753Y-106267501D01*
X108251754Y-106267500D01*
X108406406Y-106236738D01*
X108542687Y-106180289D01*
X108552081Y-106176398D01*
X108552081Y-106176397D01*
X108552088Y-106176395D01*
X108683198Y-106088790D01*
X108794698Y-105977290D01*
X108882303Y-105846180D01*
X108889313Y-105829255D01*
X108894294Y-105823073D01*
X108896121Y-105815344D01*
X108915905Y-105796254D01*
X108933151Y-105774852D01*
X108941966Y-105771107D01*
X108946401Y-105766829D01*
X108979678Y-105755089D01*
X109017720Y-105747522D01*
X109087309Y-105753750D01*
X109142486Y-105796614D01*
X109165730Y-105862504D01*
X109156470Y-105916591D01*
X109104317Y-106042503D01*
X109104315Y-106042510D01*
X109073554Y-106197153D01*
X109073554Y-106354846D01*
X109104314Y-106509485D01*
X109104315Y-106509489D01*
X109104317Y-106509497D01*
X109104318Y-106509499D01*
X109104318Y-106509504D01*
X109105505Y-106515472D01*
X109104373Y-106515697D01*
X109104945Y-106579365D01*
X109067700Y-106638480D01*
X109004408Y-106668074D01*
X108985659Y-106669500D01*
X108962153Y-106669500D01*
X108807508Y-106700261D01*
X108807496Y-106700264D01*
X108661825Y-106760602D01*
X108661812Y-106760609D01*
X108530709Y-106848210D01*
X108530705Y-106848213D01*
X108419211Y-106959707D01*
X108419208Y-106959711D01*
X108331607Y-107090814D01*
X108331602Y-107090823D01*
X108272093Y-107234493D01*
X108228252Y-107288896D01*
X108204986Y-107301601D01*
X108110820Y-107340606D01*
X108110814Y-107340609D01*
X107979711Y-107428210D01*
X107979707Y-107428213D01*
X107868213Y-107539707D01*
X107868210Y-107539711D01*
X107780609Y-107670814D01*
X107780602Y-107670827D01*
X107720264Y-107816498D01*
X107720261Y-107816510D01*
X107689500Y-107971153D01*
X107689500Y-108128846D01*
X107720261Y-108283489D01*
X107720264Y-108283501D01*
X107780602Y-108429172D01*
X107780609Y-108429185D01*
X107868210Y-108560288D01*
X107868213Y-108560292D01*
X107979707Y-108671786D01*
X107979711Y-108671789D01*
X108110814Y-108759390D01*
X108110827Y-108759397D01*
X108193781Y-108793757D01*
X108256503Y-108819737D01*
X108411153Y-108850499D01*
X108411156Y-108850500D01*
X108411158Y-108850500D01*
X108568844Y-108850500D01*
X108568845Y-108850499D01*
X108723497Y-108819737D01*
X108869179Y-108759394D01*
X109000289Y-108671789D01*
X109111789Y-108560289D01*
X109199394Y-108429179D01*
X109199395Y-108429176D01*
X109199397Y-108429173D01*
X109235810Y-108341263D01*
X109258904Y-108285505D01*
X109302744Y-108231103D01*
X109326013Y-108218398D01*
X109420170Y-108179397D01*
X109420170Y-108179396D01*
X109420177Y-108179394D01*
X109543368Y-108097079D01*
X109610045Y-108076202D01*
X109677425Y-108094686D01*
X109681150Y-108097080D01*
X109813314Y-108185390D01*
X109813327Y-108185397D01*
X109958998Y-108245735D01*
X109959003Y-108245737D01*
X110113653Y-108276499D01*
X110113656Y-108276500D01*
X110113658Y-108276500D01*
X110271344Y-108276500D01*
X110271345Y-108276499D01*
X110425997Y-108245737D01*
X110571679Y-108185394D01*
X110702789Y-108097789D01*
X110814289Y-107986289D01*
X110901894Y-107855179D01*
X110962237Y-107709497D01*
X110985631Y-107591888D01*
X112060235Y-107591888D01*
X112060235Y-107749581D01*
X112090996Y-107904224D01*
X112090999Y-107904236D01*
X112151337Y-108049907D01*
X112151344Y-108049920D01*
X112238945Y-108181023D01*
X112238948Y-108181027D01*
X112350442Y-108292521D01*
X112350446Y-108292524D01*
X112481549Y-108380125D01*
X112481562Y-108380132D01*
X112615263Y-108435512D01*
X112627238Y-108440472D01*
X112776730Y-108470208D01*
X112781888Y-108471234D01*
X112781891Y-108471235D01*
X112781893Y-108471235D01*
X112939579Y-108471235D01*
X112939580Y-108471234D01*
X113094232Y-108440472D01*
X113216781Y-108389711D01*
X113239907Y-108380132D01*
X113239907Y-108380131D01*
X113239914Y-108380129D01*
X113371024Y-108292524D01*
X113482524Y-108181024D01*
X113570129Y-108049914D01*
X113630472Y-107904232D01*
X113661235Y-107749577D01*
X113661235Y-107591893D01*
X113661235Y-107591890D01*
X113661234Y-107591888D01*
X113655216Y-107561634D01*
X113630472Y-107437238D01*
X113626733Y-107428210D01*
X113570132Y-107291562D01*
X113570125Y-107291549D01*
X113482524Y-107160446D01*
X113482521Y-107160442D01*
X113371027Y-107048948D01*
X113371023Y-107048945D01*
X113239920Y-106961344D01*
X113239907Y-106961337D01*
X113094236Y-106900999D01*
X113094224Y-106900996D01*
X112939580Y-106870235D01*
X112939577Y-106870235D01*
X112781893Y-106870235D01*
X112781890Y-106870235D01*
X112627245Y-106900996D01*
X112627233Y-106900999D01*
X112481562Y-106961337D01*
X112481549Y-106961344D01*
X112350446Y-107048945D01*
X112350442Y-107048948D01*
X112238948Y-107160442D01*
X112238945Y-107160446D01*
X112151344Y-107291549D01*
X112151337Y-107291562D01*
X112090999Y-107437233D01*
X112090996Y-107437245D01*
X112060235Y-107591888D01*
X110985631Y-107591888D01*
X110993000Y-107554842D01*
X110993000Y-107397158D01*
X110993000Y-107397155D01*
X110992999Y-107397153D01*
X110991598Y-107390111D01*
X110962237Y-107242503D01*
X110940697Y-107190500D01*
X110899563Y-107091192D01*
X110901995Y-107090184D01*
X110890062Y-107032986D01*
X110915035Y-106967732D01*
X110971323Y-106926338D01*
X111041054Y-106921946D01*
X111082557Y-106939782D01*
X111150814Y-106985390D01*
X111150827Y-106985397D01*
X111265719Y-107032986D01*
X111296503Y-107045737D01*
X111451153Y-107076499D01*
X111451156Y-107076500D01*
X111451158Y-107076500D01*
X111608844Y-107076500D01*
X111608845Y-107076499D01*
X111763497Y-107045737D01*
X111909179Y-106985394D01*
X112040289Y-106897789D01*
X112151789Y-106786289D01*
X112239394Y-106655179D01*
X112252520Y-106623491D01*
X112299735Y-106509501D01*
X112299737Y-106509497D01*
X112330500Y-106354842D01*
X112330500Y-106197158D01*
X112330500Y-106197155D01*
X112330499Y-106197153D01*
X112327145Y-106180292D01*
X112299737Y-106042503D01*
X112298357Y-106039172D01*
X112239397Y-105896827D01*
X112239390Y-105896814D01*
X112151789Y-105765711D01*
X112151786Y-105765707D01*
X112040292Y-105654213D01*
X112040288Y-105654210D01*
X111909185Y-105566609D01*
X111909172Y-105566602D01*
X111763501Y-105506264D01*
X111763489Y-105506261D01*
X111608845Y-105475500D01*
X111608842Y-105475500D01*
X111455941Y-105475500D01*
X111388902Y-105455815D01*
X111343147Y-105403011D01*
X111333203Y-105333853D01*
X111362228Y-105270297D01*
X111368260Y-105263819D01*
X111381786Y-105250292D01*
X111381789Y-105250289D01*
X111469394Y-105119179D01*
X111526566Y-104981153D01*
X115049500Y-104981153D01*
X115049500Y-105138846D01*
X115080261Y-105293489D01*
X115080264Y-105293501D01*
X115140602Y-105439172D01*
X115140609Y-105439185D01*
X115228210Y-105570288D01*
X115228213Y-105570292D01*
X115339707Y-105681786D01*
X115339711Y-105681789D01*
X115470814Y-105769390D01*
X115470827Y-105769397D01*
X115613562Y-105828519D01*
X115616503Y-105829737D01*
X115732252Y-105852761D01*
X115771153Y-105860499D01*
X115771156Y-105860500D01*
X115771158Y-105860500D01*
X115928844Y-105860500D01*
X115928845Y-105860499D01*
X116083497Y-105829737D01*
X116085366Y-105828962D01*
X116086422Y-105828849D01*
X116089324Y-105827969D01*
X116089490Y-105828519D01*
X116154833Y-105821490D01*
X116217314Y-105852761D01*
X116245976Y-105898680D01*
X116247932Y-105897870D01*
X116310602Y-106049172D01*
X116310609Y-106049185D01*
X116398210Y-106180288D01*
X116398213Y-106180292D01*
X116509707Y-106291786D01*
X116509711Y-106291789D01*
X116640814Y-106379390D01*
X116640821Y-106379394D01*
X116667102Y-106390279D01*
X116721505Y-106434119D01*
X116743571Y-106500413D01*
X116734212Y-106552292D01*
X116695263Y-106646326D01*
X116695261Y-106646333D01*
X116664500Y-106800976D01*
X116664500Y-106958669D01*
X116695261Y-107113312D01*
X116695264Y-107113324D01*
X116755602Y-107258995D01*
X116755609Y-107259008D01*
X116843210Y-107390111D01*
X116843213Y-107390115D01*
X116954707Y-107501609D01*
X116954711Y-107501612D01*
X117085814Y-107589213D01*
X117085827Y-107589220D01*
X117231498Y-107649558D01*
X117231503Y-107649560D01*
X117338389Y-107670821D01*
X117386153Y-107680322D01*
X117386156Y-107680323D01*
X117386158Y-107680323D01*
X117543844Y-107680323D01*
X117543845Y-107680322D01*
X117698497Y-107649560D01*
X117844179Y-107589217D01*
X117975289Y-107501612D01*
X118086789Y-107390112D01*
X118174394Y-107259002D01*
X118234737Y-107113320D01*
X118265500Y-106958665D01*
X118265500Y-106800981D01*
X118265500Y-106800978D01*
X118265499Y-106800976D01*
X118241828Y-106681977D01*
X118234737Y-106646326D01*
X118195787Y-106552292D01*
X118174397Y-106500650D01*
X118174390Y-106500637D01*
X118086789Y-106369534D01*
X118086786Y-106369530D01*
X117975292Y-106258036D01*
X117975288Y-106258033D01*
X117844185Y-106170432D01*
X117844175Y-106170427D01*
X117817896Y-106159542D01*
X117763493Y-106115701D01*
X117741428Y-106049407D01*
X117750788Y-105997528D01*
X117789737Y-105903497D01*
X117820500Y-105748842D01*
X117820500Y-105591158D01*
X117820500Y-105591155D01*
X117820499Y-105591153D01*
X117815615Y-105566602D01*
X117789737Y-105436503D01*
X117785593Y-105426498D01*
X117729397Y-105290827D01*
X117729390Y-105290814D01*
X117641789Y-105159711D01*
X117641786Y-105159707D01*
X117530292Y-105048213D01*
X117530288Y-105048210D01*
X117399185Y-104960609D01*
X117399172Y-104960602D01*
X117253501Y-104900264D01*
X117253489Y-104900261D01*
X117098845Y-104869500D01*
X117098842Y-104869500D01*
X116941158Y-104869500D01*
X116941155Y-104869500D01*
X116786511Y-104900260D01*
X116786497Y-104900264D01*
X116784624Y-104901041D01*
X116783564Y-104901154D01*
X116780680Y-104902030D01*
X116780513Y-104901482D01*
X116715155Y-104908508D01*
X116652677Y-104877231D01*
X116624031Y-104831317D01*
X116622068Y-104832131D01*
X116616564Y-104818844D01*
X116567816Y-104701153D01*
X116559397Y-104680827D01*
X116559390Y-104680814D01*
X116471789Y-104549711D01*
X116471786Y-104549707D01*
X116360292Y-104438213D01*
X116360288Y-104438210D01*
X116229185Y-104350609D01*
X116229172Y-104350602D01*
X116083501Y-104290264D01*
X116083489Y-104290261D01*
X115928845Y-104259500D01*
X115928842Y-104259500D01*
X115771158Y-104259500D01*
X115771155Y-104259500D01*
X115616510Y-104290261D01*
X115616498Y-104290264D01*
X115470827Y-104350602D01*
X115470814Y-104350609D01*
X115339711Y-104438210D01*
X115339707Y-104438213D01*
X115228213Y-104549707D01*
X115228210Y-104549711D01*
X115140609Y-104680814D01*
X115140602Y-104680827D01*
X115080264Y-104826498D01*
X115080261Y-104826510D01*
X115049500Y-104981153D01*
X111526566Y-104981153D01*
X111529737Y-104973497D01*
X111558977Y-104826498D01*
X111560500Y-104818844D01*
X111560500Y-104661155D01*
X111560499Y-104661153D01*
X111545598Y-104586243D01*
X111529737Y-104506503D01*
X111501450Y-104438211D01*
X111469397Y-104360827D01*
X111469390Y-104360814D01*
X111381789Y-104229711D01*
X111381786Y-104229707D01*
X111270292Y-104118213D01*
X111270288Y-104118210D01*
X111139185Y-104030609D01*
X111139172Y-104030602D01*
X110993501Y-103970264D01*
X110993489Y-103970261D01*
X110838845Y-103939500D01*
X110838842Y-103939500D01*
X110681158Y-103939500D01*
X110681155Y-103939500D01*
X110526510Y-103970261D01*
X110526498Y-103970264D01*
X110380827Y-104030602D01*
X110380814Y-104030609D01*
X110249711Y-104118210D01*
X110249707Y-104118213D01*
X110138213Y-104229707D01*
X110138210Y-104229711D01*
X110050609Y-104360814D01*
X110050602Y-104360827D01*
X109990264Y-104506498D01*
X109990261Y-104506510D01*
X109959500Y-104661153D01*
X109959500Y-104818846D01*
X109990261Y-104973489D01*
X109990264Y-104973501D01*
X110050602Y-105119172D01*
X110050609Y-105119185D01*
X110138210Y-105250288D01*
X110138213Y-105250292D01*
X110176309Y-105288388D01*
X110209794Y-105349711D01*
X110204810Y-105419403D01*
X110162938Y-105475336D01*
X110097474Y-105499753D01*
X110064437Y-105497686D01*
X109952900Y-105475500D01*
X109952896Y-105475500D01*
X109795212Y-105475500D01*
X109729970Y-105488477D01*
X109660379Y-105482248D01*
X109605202Y-105439385D01*
X109581958Y-105373495D01*
X109591219Y-105319407D01*
X109619848Y-105250289D01*
X109643372Y-105193497D01*
X109674135Y-105038842D01*
X109674135Y-104881158D01*
X109674135Y-104881155D01*
X109674134Y-104881153D01*
X109655687Y-104788414D01*
X109643372Y-104726503D01*
X109618519Y-104666501D01*
X109583032Y-104580827D01*
X109583025Y-104580814D01*
X109495424Y-104449711D01*
X109495421Y-104449707D01*
X109383927Y-104338213D01*
X109383923Y-104338210D01*
X109252820Y-104250609D01*
X109252807Y-104250602D01*
X109107136Y-104190264D01*
X109107124Y-104190261D01*
X108952480Y-104159500D01*
X108952477Y-104159500D01*
X108794793Y-104159500D01*
X108794790Y-104159500D01*
X108640145Y-104190261D01*
X108640133Y-104190264D01*
X108494462Y-104250602D01*
X108494449Y-104250609D01*
X108363346Y-104338210D01*
X108363342Y-104338213D01*
X108251848Y-104449707D01*
X108251845Y-104449711D01*
X108164244Y-104580814D01*
X108164238Y-104580826D01*
X108157228Y-104597750D01*
X108113386Y-104652152D01*
X108066860Y-104671912D01*
X107939417Y-104697262D01*
X107939407Y-104697265D01*
X107793736Y-104757603D01*
X107793723Y-104757610D01*
X107662620Y-104845211D01*
X107662616Y-104845214D01*
X107551122Y-104956708D01*
X107551119Y-104956712D01*
X107463518Y-105087815D01*
X107463511Y-105087828D01*
X107403173Y-105233499D01*
X107403170Y-105233511D01*
X107372409Y-105388154D01*
X104613924Y-105388154D01*
X104652367Y-105349711D01*
X104707693Y-105294386D01*
X104711786Y-105290292D01*
X104711789Y-105290289D01*
X104799394Y-105159179D01*
X104859737Y-105013497D01*
X104890500Y-104858842D01*
X104890500Y-104701158D01*
X104890500Y-104701155D01*
X104890499Y-104701153D01*
X104886453Y-104680814D01*
X104859737Y-104546503D01*
X104859735Y-104546498D01*
X104799397Y-104400827D01*
X104799390Y-104400814D01*
X104711789Y-104269711D01*
X104711786Y-104269707D01*
X104600292Y-104158213D01*
X104600288Y-104158210D01*
X104469185Y-104070609D01*
X104469172Y-104070602D01*
X104323501Y-104010264D01*
X104323489Y-104010261D01*
X104168845Y-103979500D01*
X104168842Y-103979500D01*
X104011158Y-103979500D01*
X104011155Y-103979500D01*
X103856510Y-104010261D01*
X103856498Y-104010264D01*
X103710827Y-104070602D01*
X103710814Y-104070609D01*
X103579711Y-104158210D01*
X103579707Y-104158213D01*
X103468213Y-104269707D01*
X103468210Y-104269711D01*
X103380609Y-104400814D01*
X103380602Y-104400827D01*
X103320264Y-104546498D01*
X103320261Y-104546510D01*
X103289500Y-104701153D01*
X103289500Y-104858846D01*
X103303754Y-104930505D01*
X103297527Y-105000096D01*
X103254664Y-105055274D01*
X103188774Y-105078518D01*
X103120777Y-105062450D01*
X103094456Y-105042377D01*
X103090292Y-105038213D01*
X103090288Y-105038210D01*
X102959185Y-104950609D01*
X102959172Y-104950602D01*
X102813501Y-104890264D01*
X102813489Y-104890261D01*
X102658845Y-104859500D01*
X102658842Y-104859500D01*
X102501158Y-104859500D01*
X102501155Y-104859500D01*
X102346510Y-104890261D01*
X102346498Y-104890264D01*
X102200827Y-104950602D01*
X102200814Y-104950609D01*
X102069711Y-105038210D01*
X102069707Y-105038213D01*
X101958213Y-105149707D01*
X101958210Y-105149711D01*
X101870609Y-105280814D01*
X101870602Y-105280827D01*
X101810264Y-105426498D01*
X101810261Y-105426510D01*
X101779500Y-105581153D01*
X98960834Y-105581153D01*
X98958298Y-105562290D01*
X98951463Y-105534692D01*
X98953703Y-105528115D01*
X98952778Y-105521229D01*
X98964827Y-105495471D01*
X98973999Y-105468556D01*
X98979749Y-105463572D01*
X98982384Y-105457942D01*
X98996528Y-105449033D01*
X99019054Y-105429515D01*
X99027816Y-105425051D01*
X99078601Y-105388154D01*
X99199786Y-105300109D01*
X99199788Y-105300106D01*
X99199792Y-105300104D01*
X99350104Y-105149792D01*
X99350106Y-105149788D01*
X99350109Y-105149786D01*
X99472623Y-104981158D01*
X99475051Y-104977816D01*
X99571557Y-104788412D01*
X99637246Y-104586243D01*
X99670500Y-104376287D01*
X99670500Y-104163713D01*
X99637246Y-103953757D01*
X99571557Y-103751588D01*
X99475051Y-103562184D01*
X99475049Y-103562181D01*
X99475048Y-103562179D01*
X99350109Y-103390213D01*
X99199786Y-103239890D01*
X99027820Y-103114951D01*
X99027115Y-103114591D01*
X99019054Y-103110485D01*
X98968259Y-103062512D01*
X98951463Y-102994692D01*
X98973999Y-102928556D01*
X99019054Y-102889515D01*
X99027816Y-102885051D01*
X99101596Y-102831447D01*
X99199786Y-102760109D01*
X99199788Y-102760106D01*
X99199792Y-102760104D01*
X99350104Y-102609792D01*
X99350106Y-102609788D01*
X99350109Y-102609786D01*
X99475048Y-102437820D01*
X99475047Y-102437820D01*
X99475051Y-102437816D01*
X99571557Y-102248412D01*
X99637246Y-102046243D01*
X99670500Y-101836287D01*
X99670500Y-101701153D01*
X114481246Y-101701153D01*
X114481246Y-101858846D01*
X114512007Y-102013489D01*
X114512010Y-102013501D01*
X114572348Y-102159172D01*
X114572355Y-102159185D01*
X114659956Y-102290288D01*
X114659959Y-102290292D01*
X114771453Y-102401786D01*
X114771457Y-102401789D01*
X114902560Y-102489390D01*
X114902573Y-102489397D01*
X114982258Y-102522403D01*
X115048249Y-102549737D01*
X115202899Y-102580499D01*
X115202902Y-102580500D01*
X115202904Y-102580500D01*
X115360590Y-102580500D01*
X115360591Y-102580499D01*
X115515243Y-102549737D01*
X115581233Y-102522402D01*
X115650701Y-102514934D01*
X115697575Y-102533862D01*
X115720818Y-102549392D01*
X115720825Y-102549396D01*
X115795918Y-102580500D01*
X115866503Y-102609737D01*
X116021153Y-102640499D01*
X116021156Y-102640500D01*
X116021158Y-102640500D01*
X116178844Y-102640500D01*
X116178845Y-102640499D01*
X116333497Y-102609737D01*
X116478351Y-102549737D01*
X116479172Y-102549397D01*
X116479172Y-102549396D01*
X116479179Y-102549394D01*
X116610289Y-102461789D01*
X116721789Y-102350289D01*
X116809394Y-102219179D01*
X116869737Y-102073497D01*
X116900500Y-101918842D01*
X116900500Y-101761158D01*
X116900500Y-101761155D01*
X116900499Y-101761153D01*
X116869738Y-101606510D01*
X116869737Y-101606503D01*
X116869735Y-101606498D01*
X116809397Y-101460827D01*
X116809390Y-101460814D01*
X116721789Y-101329711D01*
X116721786Y-101329707D01*
X116610292Y-101218213D01*
X116610288Y-101218210D01*
X116479185Y-101130609D01*
X116479172Y-101130602D01*
X116333501Y-101070264D01*
X116333489Y-101070261D01*
X116178845Y-101039500D01*
X116178842Y-101039500D01*
X116021158Y-101039500D01*
X116021155Y-101039500D01*
X115866505Y-101070261D01*
X115866497Y-101070264D01*
X115800512Y-101097596D01*
X115731043Y-101105065D01*
X115684168Y-101086136D01*
X115660933Y-101070610D01*
X115660918Y-101070602D01*
X115515247Y-101010264D01*
X115515235Y-101010261D01*
X115360591Y-100979500D01*
X115360588Y-100979500D01*
X115202904Y-100979500D01*
X115202901Y-100979500D01*
X115048256Y-101010261D01*
X115048244Y-101010264D01*
X114902573Y-101070602D01*
X114902560Y-101070609D01*
X114771457Y-101158210D01*
X114771453Y-101158213D01*
X114659959Y-101269707D01*
X114659956Y-101269711D01*
X114572355Y-101400814D01*
X114572348Y-101400827D01*
X114512010Y-101546498D01*
X114512007Y-101546510D01*
X114481246Y-101701153D01*
X99670500Y-101701153D01*
X99670500Y-101623713D01*
X99637246Y-101413757D01*
X99571557Y-101211588D01*
X99475051Y-101022184D01*
X99475049Y-101022181D01*
X99475048Y-101022179D01*
X99350109Y-100850213D01*
X99199786Y-100699890D01*
X99027820Y-100574951D01*
X99027115Y-100574591D01*
X99019054Y-100570485D01*
X98968259Y-100522512D01*
X98951463Y-100454692D01*
X98973999Y-100388556D01*
X99019054Y-100349515D01*
X99027816Y-100345051D01*
X99101596Y-100291447D01*
X99199786Y-100220109D01*
X99199788Y-100220106D01*
X99199792Y-100220104D01*
X99350104Y-100069792D01*
X99350106Y-100069788D01*
X99350109Y-100069786D01*
X99475048Y-99897820D01*
X99475047Y-99897820D01*
X99475051Y-99897816D01*
X99571557Y-99708412D01*
X99637246Y-99506243D01*
X99659295Y-99367032D01*
X120274722Y-99367032D01*
X120274722Y-99524725D01*
X120305483Y-99679368D01*
X120305486Y-99679380D01*
X120365824Y-99825051D01*
X120365831Y-99825064D01*
X120453432Y-99956167D01*
X120453435Y-99956171D01*
X120564929Y-100067665D01*
X120564933Y-100067668D01*
X120696036Y-100155269D01*
X120696043Y-100155273D01*
X120782907Y-100191253D01*
X120837309Y-100235092D01*
X120851826Y-100265087D01*
X120852030Y-100265003D01*
X120853483Y-100268513D01*
X120854114Y-100269815D01*
X120854362Y-100270634D01*
X120914700Y-100416305D01*
X120914707Y-100416318D01*
X121002308Y-100547421D01*
X121002311Y-100547425D01*
X121113805Y-100658919D01*
X121113809Y-100658922D01*
X121244912Y-100746523D01*
X121244925Y-100746530D01*
X121330991Y-100782179D01*
X121390601Y-100806870D01*
X121545251Y-100837632D01*
X121545254Y-100837633D01*
X121545256Y-100837633D01*
X121702942Y-100837633D01*
X121702943Y-100837632D01*
X121857595Y-100806870D01*
X122003277Y-100746527D01*
X122134387Y-100658922D01*
X122245887Y-100547422D01*
X122333492Y-100416312D01*
X122393835Y-100270630D01*
X122424598Y-100115975D01*
X122424598Y-99958291D01*
X122424598Y-99958288D01*
X122424597Y-99958286D01*
X122424176Y-99956168D01*
X122393835Y-99803636D01*
X122354393Y-99708414D01*
X122333495Y-99657960D01*
X122333488Y-99657947D01*
X122245887Y-99526844D01*
X122245884Y-99526840D01*
X122134390Y-99415346D01*
X122134386Y-99415343D01*
X122003283Y-99327742D01*
X122003271Y-99327735D01*
X121916413Y-99291759D01*
X121862009Y-99247919D01*
X121847494Y-99217925D01*
X121847290Y-99218010D01*
X121845831Y-99214488D01*
X121845203Y-99213190D01*
X121844960Y-99212389D01*
X121844959Y-99212382D01*
X121791663Y-99083713D01*
X121784619Y-99066706D01*
X121784612Y-99066693D01*
X121697011Y-98935590D01*
X121697008Y-98935586D01*
X121585514Y-98824092D01*
X121585510Y-98824089D01*
X121454407Y-98736488D01*
X121454394Y-98736481D01*
X121308723Y-98676143D01*
X121308711Y-98676140D01*
X121154067Y-98645379D01*
X121154064Y-98645379D01*
X120996380Y-98645379D01*
X120996377Y-98645379D01*
X120841732Y-98676140D01*
X120841720Y-98676143D01*
X120696049Y-98736481D01*
X120696036Y-98736488D01*
X120564933Y-98824089D01*
X120564929Y-98824092D01*
X120453435Y-98935586D01*
X120453432Y-98935590D01*
X120365831Y-99066693D01*
X120365824Y-99066706D01*
X120305486Y-99212377D01*
X120305483Y-99212389D01*
X120274722Y-99367032D01*
X99659295Y-99367032D01*
X99670500Y-99296287D01*
X99670500Y-99083713D01*
X99637246Y-98873757D01*
X99571557Y-98671588D01*
X99475051Y-98482184D01*
X99475049Y-98482181D01*
X99475048Y-98482179D01*
X99350109Y-98310213D01*
X99199786Y-98159890D01*
X99027817Y-98034949D01*
X99018504Y-98030204D01*
X99013406Y-98025390D01*
X99006699Y-98023346D01*
X98988336Y-98001713D01*
X98967707Y-97982230D01*
X98966021Y-97975423D01*
X98961485Y-97970079D01*
X98957732Y-97941953D01*
X98950912Y-97914409D01*
X98953173Y-97907773D01*
X98952290Y-97901153D01*
X122699500Y-97901153D01*
X122699500Y-98058846D01*
X122730261Y-98213489D01*
X122730264Y-98213501D01*
X122790602Y-98359172D01*
X122790609Y-98359185D01*
X122878210Y-98490288D01*
X122878213Y-98490292D01*
X122989707Y-98601786D01*
X122989711Y-98601789D01*
X123120814Y-98689390D01*
X123120827Y-98689397D01*
X123266498Y-98749735D01*
X123266503Y-98749737D01*
X123421153Y-98780499D01*
X123421156Y-98780500D01*
X123421158Y-98780500D01*
X123578844Y-98780500D01*
X123578845Y-98780499D01*
X123733497Y-98749737D01*
X123879179Y-98689394D01*
X124010289Y-98601789D01*
X124121789Y-98490289D01*
X124209394Y-98359179D01*
X124269737Y-98213497D01*
X124300500Y-98058842D01*
X124300500Y-97901158D01*
X124300500Y-97901155D01*
X124300499Y-97901153D01*
X124285052Y-97823497D01*
X124269737Y-97746503D01*
X124237569Y-97668842D01*
X124209397Y-97600827D01*
X124209391Y-97600816D01*
X124191444Y-97573956D01*
X124191443Y-97573955D01*
X124149480Y-97511153D01*
X126749500Y-97511153D01*
X126749500Y-97668846D01*
X126780261Y-97823489D01*
X126780264Y-97823501D01*
X126840602Y-97969172D01*
X126840609Y-97969185D01*
X126928210Y-98100288D01*
X126928213Y-98100292D01*
X127039707Y-98211786D01*
X127039711Y-98211789D01*
X127170814Y-98299390D01*
X127170827Y-98299397D01*
X127315139Y-98359172D01*
X127316503Y-98359737D01*
X127471153Y-98390499D01*
X127471156Y-98390500D01*
X127471158Y-98390500D01*
X127628844Y-98390500D01*
X127628845Y-98390499D01*
X127783497Y-98359737D01*
X127903059Y-98310213D01*
X127929172Y-98299397D01*
X127929172Y-98299396D01*
X127929179Y-98299394D01*
X128060289Y-98211789D01*
X128171789Y-98100289D01*
X128259394Y-97969179D01*
X128319737Y-97823497D01*
X128350500Y-97668842D01*
X128350500Y-97511158D01*
X128350500Y-97511155D01*
X128350499Y-97511153D01*
X128330720Y-97411717D01*
X128319737Y-97356503D01*
X128284156Y-97270602D01*
X128259397Y-97210827D01*
X128259390Y-97210814D01*
X128171790Y-97079712D01*
X128171784Y-97079705D01*
X128103232Y-97011153D01*
X131109500Y-97011153D01*
X131109500Y-97168846D01*
X131140261Y-97323489D01*
X131140264Y-97323501D01*
X131200602Y-97469172D01*
X131200609Y-97469185D01*
X131288210Y-97600288D01*
X131288213Y-97600292D01*
X131399707Y-97711786D01*
X131399711Y-97711789D01*
X131530814Y-97799390D01*
X131530827Y-97799397D01*
X131670397Y-97857208D01*
X131676503Y-97859737D01*
X131831153Y-97890499D01*
X131831156Y-97890500D01*
X131831158Y-97890500D01*
X131988844Y-97890500D01*
X131988845Y-97890499D01*
X132143497Y-97859737D01*
X132289179Y-97799394D01*
X132420289Y-97711789D01*
X132531789Y-97600289D01*
X132619394Y-97469179D01*
X132679737Y-97323497D01*
X132710500Y-97168842D01*
X132710500Y-97036798D01*
X132730185Y-96969759D01*
X132782989Y-96924004D01*
X132852147Y-96914060D01*
X132915703Y-96943085D01*
X132944983Y-96980501D01*
X132980446Y-97050099D01*
X133014951Y-97117820D01*
X133139890Y-97289786D01*
X133290213Y-97440109D01*
X133462182Y-97565050D01*
X133470946Y-97569516D01*
X133521742Y-97617491D01*
X133538536Y-97685312D01*
X133515998Y-97751447D01*
X133470946Y-97790484D01*
X133462182Y-97794949D01*
X133290213Y-97919890D01*
X133139890Y-98070213D01*
X133014951Y-98242179D01*
X132918444Y-98431585D01*
X132852753Y-98633760D01*
X132819500Y-98843713D01*
X132819500Y-99056286D01*
X132849851Y-99247919D01*
X132852754Y-99266243D01*
X132885502Y-99367032D01*
X132918444Y-99468414D01*
X133014951Y-99657820D01*
X133139890Y-99829786D01*
X133290213Y-99980109D01*
X133462182Y-100105050D01*
X133470946Y-100109516D01*
X133521742Y-100157491D01*
X133538536Y-100225312D01*
X133515998Y-100291447D01*
X133470946Y-100330484D01*
X133462182Y-100334949D01*
X133290213Y-100459890D01*
X133139890Y-100610213D01*
X133014951Y-100782179D01*
X132918444Y-100971585D01*
X132852753Y-101173760D01*
X132819500Y-101383713D01*
X132819500Y-101596286D01*
X132845612Y-101761155D01*
X132852754Y-101806243D01*
X132889340Y-101918844D01*
X132918444Y-102008414D01*
X133014951Y-102197820D01*
X133139890Y-102369786D01*
X133290213Y-102520109D01*
X133462182Y-102645050D01*
X133470946Y-102649516D01*
X133521742Y-102697491D01*
X133538536Y-102765312D01*
X133515998Y-102831447D01*
X133470946Y-102870484D01*
X133462182Y-102874949D01*
X133290213Y-102999890D01*
X133139890Y-103150213D01*
X133014951Y-103322179D01*
X132918444Y-103511585D01*
X132852753Y-103713760D01*
X132846762Y-103751588D01*
X132819500Y-103923713D01*
X132819500Y-104136287D01*
X132822973Y-104158213D01*
X132851481Y-104338210D01*
X132852754Y-104346243D01*
X132904824Y-104506498D01*
X132918444Y-104548414D01*
X133014951Y-104737820D01*
X133139890Y-104909786D01*
X133290213Y-105060109D01*
X133462182Y-105185050D01*
X133470946Y-105189516D01*
X133521742Y-105237491D01*
X133538536Y-105305312D01*
X133515998Y-105371447D01*
X133470946Y-105410484D01*
X133462182Y-105414949D01*
X133290213Y-105539890D01*
X133139890Y-105690213D01*
X133014951Y-105862179D01*
X132918444Y-106051585D01*
X132852753Y-106253760D01*
X132832855Y-106379394D01*
X132819500Y-106463713D01*
X132819500Y-106676287D01*
X132823298Y-106700264D01*
X132850218Y-106870235D01*
X132852754Y-106886243D01*
X132914572Y-107076499D01*
X132918444Y-107088414D01*
X133014951Y-107277820D01*
X133139890Y-107449786D01*
X133290213Y-107600109D01*
X133462182Y-107725050D01*
X133470946Y-107729516D01*
X133521742Y-107777491D01*
X133538536Y-107845312D01*
X133515998Y-107911447D01*
X133470946Y-107950484D01*
X133462182Y-107954949D01*
X133290213Y-108079890D01*
X133139890Y-108230213D01*
X133014951Y-108402179D01*
X132918444Y-108591585D01*
X132852753Y-108793760D01*
X132819500Y-109003713D01*
X132819500Y-109216286D01*
X132850227Y-109410292D01*
X132852754Y-109426243D01*
X132916128Y-109621288D01*
X132918444Y-109628414D01*
X133014951Y-109817820D01*
X133139890Y-109989786D01*
X133290213Y-110140109D01*
X133462182Y-110265050D01*
X133470946Y-110269516D01*
X133521742Y-110317491D01*
X133538536Y-110385312D01*
X133515998Y-110451447D01*
X133470946Y-110490484D01*
X133462182Y-110494949D01*
X133290213Y-110619890D01*
X133139890Y-110770213D01*
X133014951Y-110942179D01*
X132918444Y-111131585D01*
X132852753Y-111333760D01*
X132842545Y-111398211D01*
X132819500Y-111543713D01*
X132819500Y-111756287D01*
X132852754Y-111966243D01*
X132895838Y-112098842D01*
X132918444Y-112168414D01*
X133014951Y-112357820D01*
X133139890Y-112529786D01*
X133253430Y-112643326D01*
X133286915Y-112704649D01*
X133281931Y-112774341D01*
X133240059Y-112830274D01*
X133209083Y-112847189D01*
X133077669Y-112896203D01*
X133077664Y-112896206D01*
X132962455Y-112982452D01*
X132962452Y-112982455D01*
X132876206Y-113097664D01*
X132876202Y-113097671D01*
X132825908Y-113232517D01*
X132819501Y-113292116D01*
X132819501Y-113292123D01*
X132819500Y-113292135D01*
X132819500Y-115087870D01*
X132819501Y-115087876D01*
X132825908Y-115147483D01*
X132876202Y-115282328D01*
X132876206Y-115282335D01*
X132962452Y-115397544D01*
X132962455Y-115397547D01*
X133077664Y-115483793D01*
X133077671Y-115483797D01*
X133212517Y-115534091D01*
X133212516Y-115534091D01*
X133219444Y-115534835D01*
X133272127Y-115540500D01*
X135067872Y-115540499D01*
X135127483Y-115534091D01*
X135262331Y-115483796D01*
X135377546Y-115397546D01*
X135463796Y-115282331D01*
X135514091Y-115147483D01*
X135520500Y-115087873D01*
X135520499Y-113292128D01*
X135514091Y-113232517D01*
X135478169Y-113136206D01*
X135463797Y-113097671D01*
X135463793Y-113097664D01*
X135377547Y-112982455D01*
X135377544Y-112982452D01*
X135262335Y-112896206D01*
X135262328Y-112896202D01*
X135130917Y-112847189D01*
X135074983Y-112805318D01*
X135050566Y-112739853D01*
X135065418Y-112671580D01*
X135086563Y-112643332D01*
X135200104Y-112529792D01*
X135325051Y-112357816D01*
X135421557Y-112168412D01*
X135487246Y-111966243D01*
X135520500Y-111756287D01*
X135520500Y-111543713D01*
X135487246Y-111333757D01*
X135421557Y-111131588D01*
X135325051Y-110942184D01*
X135325049Y-110942181D01*
X135325048Y-110942179D01*
X135200109Y-110770213D01*
X135049786Y-110619890D01*
X134877820Y-110494951D01*
X134877115Y-110494591D01*
X134869054Y-110490485D01*
X134818259Y-110442512D01*
X134801463Y-110374692D01*
X134823999Y-110308556D01*
X134869054Y-110269515D01*
X134877816Y-110265051D01*
X134926346Y-110229792D01*
X135049786Y-110140109D01*
X135049788Y-110140106D01*
X135049792Y-110140104D01*
X135200104Y-109989792D01*
X135200106Y-109989788D01*
X135200109Y-109989786D01*
X135325048Y-109817820D01*
X135325047Y-109817820D01*
X135325051Y-109817816D01*
X135421557Y-109628412D01*
X135487246Y-109426243D01*
X135520500Y-109216287D01*
X135520500Y-109003713D01*
X135487246Y-108793757D01*
X135421557Y-108591588D01*
X135325051Y-108402184D01*
X135325049Y-108402181D01*
X135325048Y-108402179D01*
X135200109Y-108230213D01*
X135049786Y-108079890D01*
X134877820Y-107954951D01*
X134877115Y-107954591D01*
X134869054Y-107950485D01*
X134818259Y-107902512D01*
X134801463Y-107834692D01*
X134823999Y-107768556D01*
X134869054Y-107729515D01*
X134877816Y-107725051D01*
X134926346Y-107689792D01*
X135049786Y-107600109D01*
X135049788Y-107600106D01*
X135049792Y-107600104D01*
X135200104Y-107449792D01*
X135200106Y-107449788D01*
X135200109Y-107449786D01*
X135325048Y-107277820D01*
X135325047Y-107277820D01*
X135325051Y-107277816D01*
X135421557Y-107088412D01*
X135487246Y-106886243D01*
X135520500Y-106676287D01*
X135520500Y-106463713D01*
X135487246Y-106253757D01*
X135421557Y-106051588D01*
X135325051Y-105862184D01*
X135325049Y-105862181D01*
X135325048Y-105862179D01*
X135200109Y-105690213D01*
X135049786Y-105539890D01*
X134877820Y-105414951D01*
X134877115Y-105414591D01*
X134869054Y-105410485D01*
X134818259Y-105362512D01*
X134801463Y-105294692D01*
X134823999Y-105228556D01*
X134869054Y-105189515D01*
X134877816Y-105185051D01*
X134926346Y-105149792D01*
X135049786Y-105060109D01*
X135049788Y-105060106D01*
X135049792Y-105060104D01*
X135200104Y-104909792D01*
X135200106Y-104909788D01*
X135200109Y-104909786D01*
X135325048Y-104737820D01*
X135325047Y-104737820D01*
X135325051Y-104737816D01*
X135421557Y-104548412D01*
X135487246Y-104346243D01*
X135520500Y-104136287D01*
X135520500Y-103923713D01*
X135487246Y-103713757D01*
X135421557Y-103511588D01*
X135325051Y-103322184D01*
X135325049Y-103322181D01*
X135325048Y-103322179D01*
X135200109Y-103150213D01*
X135049786Y-102999890D01*
X134877820Y-102874951D01*
X134877115Y-102874591D01*
X134869054Y-102870485D01*
X134818259Y-102822512D01*
X134801463Y-102754692D01*
X134823999Y-102688556D01*
X134869054Y-102649515D01*
X134877816Y-102645051D01*
X134926346Y-102609792D01*
X135049786Y-102520109D01*
X135049788Y-102520106D01*
X135049792Y-102520104D01*
X135200104Y-102369792D01*
X135200106Y-102369788D01*
X135200109Y-102369786D01*
X135325048Y-102197820D01*
X135325047Y-102197820D01*
X135325051Y-102197816D01*
X135421557Y-102008412D01*
X135487246Y-101806243D01*
X135520500Y-101596287D01*
X135520500Y-101383713D01*
X135487246Y-101173757D01*
X135421557Y-100971588D01*
X135325051Y-100782184D01*
X135325049Y-100782181D01*
X135325048Y-100782179D01*
X135200109Y-100610213D01*
X135049786Y-100459890D01*
X134877820Y-100334951D01*
X134877115Y-100334591D01*
X134869054Y-100330485D01*
X134818259Y-100282512D01*
X134801463Y-100214692D01*
X134823999Y-100148556D01*
X134869054Y-100109515D01*
X134877816Y-100105051D01*
X134926346Y-100069792D01*
X135049786Y-99980109D01*
X135049788Y-99980106D01*
X135049792Y-99980104D01*
X135200104Y-99829792D01*
X135200106Y-99829788D01*
X135200109Y-99829786D01*
X135325048Y-99657820D01*
X135325047Y-99657820D01*
X135325051Y-99657816D01*
X135421557Y-99468412D01*
X135487246Y-99266243D01*
X135520500Y-99056287D01*
X135520500Y-98843713D01*
X135487246Y-98633757D01*
X135421557Y-98431588D01*
X135325051Y-98242184D01*
X135325049Y-98242181D01*
X135325048Y-98242179D01*
X135200109Y-98070213D01*
X135049786Y-97919890D01*
X134877820Y-97794951D01*
X134872611Y-97792297D01*
X134869054Y-97790485D01*
X134818259Y-97742512D01*
X134801463Y-97674692D01*
X134823999Y-97608556D01*
X134869054Y-97569515D01*
X134877816Y-97565051D01*
X134952001Y-97511153D01*
X135049786Y-97440109D01*
X135049788Y-97440106D01*
X135049792Y-97440104D01*
X135200104Y-97289792D01*
X135200106Y-97289788D01*
X135200109Y-97289786D01*
X135325048Y-97117820D01*
X135325047Y-97117820D01*
X135325051Y-97117816D01*
X135421557Y-96928412D01*
X135487246Y-96726243D01*
X135520500Y-96516287D01*
X135520500Y-96303713D01*
X135487246Y-96093757D01*
X135421557Y-95891588D01*
X135325051Y-95702184D01*
X135325049Y-95702181D01*
X135325048Y-95702179D01*
X135200109Y-95530213D01*
X135049786Y-95379890D01*
X134877820Y-95254951D01*
X134688414Y-95158444D01*
X134688413Y-95158443D01*
X134688412Y-95158443D01*
X134486243Y-95092754D01*
X134486241Y-95092753D01*
X134486240Y-95092753D01*
X134324957Y-95067208D01*
X134276287Y-95059500D01*
X134063713Y-95059500D01*
X134015042Y-95067208D01*
X133853760Y-95092753D01*
X133651585Y-95158444D01*
X133462179Y-95254951D01*
X133290213Y-95379890D01*
X133139890Y-95530213D01*
X133014951Y-95702179D01*
X132918444Y-95891585D01*
X132852753Y-96093760D01*
X132846731Y-96131782D01*
X132819500Y-96303713D01*
X132819500Y-96516287D01*
X132833643Y-96605581D01*
X132824687Y-96674874D01*
X132779690Y-96728326D01*
X132712939Y-96748965D01*
X132645625Y-96730240D01*
X132608067Y-96693869D01*
X132531789Y-96579710D01*
X132420292Y-96468213D01*
X132420288Y-96468210D01*
X132289185Y-96380609D01*
X132289172Y-96380602D01*
X132143501Y-96320264D01*
X132143489Y-96320261D01*
X131988845Y-96289500D01*
X131988842Y-96289500D01*
X131831158Y-96289500D01*
X131831155Y-96289500D01*
X131676510Y-96320261D01*
X131676498Y-96320264D01*
X131530827Y-96380602D01*
X131530814Y-96380609D01*
X131399711Y-96468210D01*
X131399707Y-96468213D01*
X131288213Y-96579707D01*
X131288210Y-96579711D01*
X131200609Y-96710814D01*
X131200602Y-96710827D01*
X131140264Y-96856498D01*
X131140261Y-96856510D01*
X131109500Y-97011153D01*
X128103232Y-97011153D01*
X128060292Y-96968213D01*
X128060288Y-96968210D01*
X127929185Y-96880609D01*
X127929172Y-96880602D01*
X127783501Y-96820264D01*
X127783489Y-96820261D01*
X127628845Y-96789500D01*
X127628842Y-96789500D01*
X127471158Y-96789500D01*
X127471155Y-96789500D01*
X127316510Y-96820261D01*
X127316498Y-96820264D01*
X127170827Y-96880602D01*
X127170814Y-96880609D01*
X127039711Y-96968210D01*
X127039707Y-96968213D01*
X126928213Y-97079707D01*
X126928210Y-97079711D01*
X126840609Y-97210814D01*
X126840602Y-97210827D01*
X126780264Y-97356498D01*
X126780261Y-97356510D01*
X126749500Y-97511153D01*
X124149480Y-97511153D01*
X124121789Y-97469711D01*
X124121786Y-97469707D01*
X124010292Y-97358213D01*
X124010288Y-97358210D01*
X123879185Y-97270609D01*
X123879172Y-97270602D01*
X123733501Y-97210264D01*
X123733489Y-97210261D01*
X123578845Y-97179500D01*
X123578842Y-97179500D01*
X123421158Y-97179500D01*
X123421155Y-97179500D01*
X123266510Y-97210261D01*
X123266498Y-97210264D01*
X123120827Y-97270602D01*
X123120814Y-97270609D01*
X122989711Y-97358210D01*
X122989707Y-97358213D01*
X122878213Y-97469707D01*
X122878210Y-97469711D01*
X122790609Y-97600814D01*
X122790602Y-97600827D01*
X122730264Y-97746498D01*
X122730261Y-97746510D01*
X122699500Y-97901153D01*
X98952290Y-97901153D01*
X98952246Y-97900822D01*
X98964297Y-97875129D01*
X98973449Y-97848274D01*
X98979654Y-97842388D01*
X98981917Y-97837566D01*
X98997308Y-97825647D01*
X99008825Y-97814726D01*
X99044518Y-97792297D01*
X99081716Y-97765270D01*
X99081717Y-97765270D01*
X98449408Y-97132962D01*
X98512993Y-97115925D01*
X98627007Y-97050099D01*
X98720099Y-96957007D01*
X98785925Y-96842993D01*
X98802962Y-96779409D01*
X99435270Y-97411717D01*
X99435270Y-97411716D01*
X99474622Y-97357554D01*
X99571095Y-97168217D01*
X99636757Y-96966130D01*
X99636757Y-96966127D01*
X99670000Y-96756246D01*
X99670000Y-96543753D01*
X99636757Y-96333872D01*
X99636757Y-96333869D01*
X99571095Y-96131782D01*
X99474624Y-95942449D01*
X99435270Y-95888282D01*
X99435269Y-95888282D01*
X98802962Y-96520590D01*
X98785925Y-96457007D01*
X98720099Y-96342993D01*
X98627007Y-96249901D01*
X98512993Y-96184075D01*
X98449409Y-96167037D01*
X99081716Y-95534728D01*
X99027550Y-95495375D01*
X98838217Y-95398904D01*
X98636129Y-95333242D01*
X98426246Y-95300000D01*
X98213754Y-95300000D01*
X98003872Y-95333242D01*
X98003869Y-95333242D01*
X97801782Y-95398904D01*
X97612439Y-95495380D01*
X97558282Y-95534727D01*
X97558282Y-95534728D01*
X98190591Y-96167037D01*
X98127007Y-96184075D01*
X98012993Y-96249901D01*
X97919901Y-96342993D01*
X97854075Y-96457007D01*
X97837037Y-96520591D01*
X97204728Y-95888282D01*
X97204727Y-95888282D01*
X97165380Y-95942439D01*
X97068904Y-96131782D01*
X97003242Y-96333869D01*
X97003242Y-96333872D01*
X96970000Y-96543753D01*
X96970000Y-96756246D01*
X97003242Y-96966127D01*
X97003242Y-96966130D01*
X97068904Y-97168217D01*
X97165375Y-97357550D01*
X97204728Y-97411716D01*
X97837037Y-96779408D01*
X97854075Y-96842993D01*
X97919901Y-96957007D01*
X98012993Y-97050099D01*
X98127007Y-97115925D01*
X98190590Y-97132962D01*
X97558282Y-97765269D01*
X97558282Y-97765270D01*
X97612452Y-97804626D01*
X97612451Y-97804626D01*
X97621495Y-97809234D01*
X97672292Y-97857208D01*
X97689087Y-97925029D01*
X97666550Y-97991164D01*
X97621499Y-98030202D01*
X97612182Y-98034949D01*
X97440213Y-98159890D01*
X97289890Y-98310213D01*
X97164951Y-98482179D01*
X97068444Y-98671585D01*
X97002753Y-98873760D01*
X96969500Y-99083713D01*
X96460500Y-99083713D01*
X96460500Y-91461153D01*
X122519500Y-91461153D01*
X122519500Y-91618846D01*
X122550261Y-91773489D01*
X122550264Y-91773501D01*
X122610602Y-91919172D01*
X122610609Y-91919185D01*
X122698210Y-92050288D01*
X122698213Y-92050292D01*
X122809707Y-92161786D01*
X122809711Y-92161789D01*
X122940814Y-92249390D01*
X122940827Y-92249397D01*
X123086498Y-92309735D01*
X123086503Y-92309737D01*
X123241153Y-92340499D01*
X123241156Y-92340500D01*
X123241158Y-92340500D01*
X123398844Y-92340500D01*
X123398845Y-92340499D01*
X123553497Y-92309737D01*
X123699179Y-92249394D01*
X123830289Y-92161789D01*
X123941789Y-92050289D01*
X124029394Y-91919179D01*
X124089737Y-91773497D01*
X124120500Y-91618842D01*
X124120500Y-91461158D01*
X124120500Y-91461155D01*
X124120499Y-91461153D01*
X124089738Y-91306510D01*
X124089737Y-91306503D01*
X124089735Y-91306498D01*
X124029397Y-91160827D01*
X124029390Y-91160814D01*
X123941789Y-91029711D01*
X123941786Y-91029707D01*
X123830292Y-90918213D01*
X123830288Y-90918210D01*
X123699185Y-90830609D01*
X123699172Y-90830602D01*
X123553501Y-90770264D01*
X123553489Y-90770261D01*
X123398845Y-90739500D01*
X123398842Y-90739500D01*
X123241158Y-90739500D01*
X123241155Y-90739500D01*
X123086510Y-90770261D01*
X123086498Y-90770264D01*
X122940827Y-90830602D01*
X122940814Y-90830609D01*
X122809711Y-90918210D01*
X122809707Y-90918213D01*
X122698213Y-91029707D01*
X122698210Y-91029711D01*
X122610609Y-91160814D01*
X122610602Y-91160827D01*
X122550264Y-91306498D01*
X122550261Y-91306510D01*
X122519500Y-91461153D01*
X96460500Y-91461153D01*
X96460500Y-82041153D01*
X115439500Y-82041153D01*
X115439500Y-82198846D01*
X115470261Y-82353489D01*
X115470264Y-82353501D01*
X115530602Y-82499172D01*
X115530609Y-82499185D01*
X115598713Y-82601109D01*
X115619591Y-82667787D01*
X115601107Y-82735167D01*
X115598713Y-82738891D01*
X115530609Y-82840814D01*
X115530602Y-82840827D01*
X115470264Y-82986498D01*
X115470261Y-82986510D01*
X115439500Y-83141153D01*
X115439500Y-83298846D01*
X115470261Y-83453489D01*
X115470264Y-83453501D01*
X115530602Y-83599172D01*
X115530609Y-83599185D01*
X115618210Y-83730288D01*
X115618213Y-83730292D01*
X115670240Y-83782319D01*
X115703725Y-83843642D01*
X115698741Y-83913334D01*
X115670240Y-83957681D01*
X115618213Y-84009707D01*
X115618210Y-84009711D01*
X115530609Y-84140814D01*
X115530602Y-84140827D01*
X115470264Y-84286498D01*
X115470261Y-84286510D01*
X115439500Y-84441153D01*
X115439500Y-84598846D01*
X115470261Y-84753489D01*
X115470264Y-84753501D01*
X115530602Y-84899172D01*
X115530609Y-84899185D01*
X115618210Y-85030288D01*
X115618213Y-85030292D01*
X115620240Y-85032319D01*
X115620962Y-85033642D01*
X115622076Y-85034999D01*
X115621818Y-85035210D01*
X115653725Y-85093642D01*
X115648741Y-85163334D01*
X115622001Y-85204939D01*
X115622076Y-85205001D01*
X115621552Y-85205639D01*
X115620240Y-85207681D01*
X115618213Y-85209707D01*
X115618210Y-85209711D01*
X115530609Y-85340814D01*
X115530602Y-85340827D01*
X115470264Y-85486498D01*
X115470261Y-85486510D01*
X115439500Y-85641153D01*
X115439500Y-85798846D01*
X115470261Y-85953489D01*
X115470264Y-85953501D01*
X115530602Y-86099172D01*
X115530609Y-86099185D01*
X115618210Y-86230288D01*
X115618213Y-86230292D01*
X115729707Y-86341786D01*
X115729711Y-86341789D01*
X115860814Y-86429390D01*
X115860827Y-86429397D01*
X116006498Y-86489735D01*
X116006503Y-86489737D01*
X116161153Y-86520499D01*
X116161156Y-86520500D01*
X116161158Y-86520500D01*
X116318844Y-86520500D01*
X116318845Y-86520499D01*
X116473497Y-86489737D01*
X116619179Y-86429394D01*
X116750289Y-86341789D01*
X116752312Y-86339766D01*
X116753634Y-86339043D01*
X116754999Y-86337924D01*
X116755211Y-86338182D01*
X116813632Y-86306276D01*
X116883324Y-86311255D01*
X116924939Y-86337999D01*
X116925001Y-86337924D01*
X116925648Y-86338454D01*
X116927688Y-86339766D01*
X116929711Y-86341789D01*
X117060814Y-86429390D01*
X117060827Y-86429397D01*
X117206498Y-86489735D01*
X117206503Y-86489737D01*
X117361153Y-86520499D01*
X117361156Y-86520500D01*
X117361158Y-86520500D01*
X117518844Y-86520500D01*
X117518845Y-86520499D01*
X117673497Y-86489737D01*
X117819179Y-86429394D01*
X117950289Y-86341789D01*
X118061789Y-86230289D01*
X118149394Y-86099179D01*
X118209737Y-85953497D01*
X118240500Y-85798842D01*
X118240500Y-85641158D01*
X118240500Y-85641155D01*
X118240499Y-85641153D01*
X118209738Y-85486510D01*
X118209737Y-85486503D01*
X118209735Y-85486498D01*
X118149397Y-85340827D01*
X118149390Y-85340814D01*
X118061789Y-85209711D01*
X118059766Y-85207688D01*
X118059043Y-85206365D01*
X118057924Y-85205001D01*
X118058182Y-85204788D01*
X118026276Y-85146368D01*
X118031255Y-85076676D01*
X118057999Y-85035060D01*
X118057924Y-85034999D01*
X118058454Y-85034351D01*
X118059766Y-85032312D01*
X118061789Y-85030289D01*
X118149394Y-84899179D01*
X118209737Y-84753497D01*
X118240500Y-84598842D01*
X118240500Y-84441158D01*
X118240500Y-84441155D01*
X118240499Y-84441153D01*
X118209738Y-84286510D01*
X118209737Y-84286503D01*
X118209735Y-84286498D01*
X118149397Y-84140827D01*
X118149390Y-84140814D01*
X118061789Y-84009711D01*
X118061786Y-84009707D01*
X118009760Y-83957681D01*
X117976275Y-83896358D01*
X117981259Y-83826666D01*
X118009760Y-83782319D01*
X118061786Y-83730292D01*
X118061789Y-83730289D01*
X118149394Y-83599179D01*
X118209737Y-83453497D01*
X118240500Y-83298842D01*
X118240500Y-83141158D01*
X118240500Y-83141155D01*
X118240499Y-83141153D01*
X118209738Y-82986510D01*
X118209737Y-82986503D01*
X118209735Y-82986498D01*
X118149397Y-82840827D01*
X118149393Y-82840820D01*
X118149389Y-82840814D01*
X118081284Y-82738888D01*
X118060408Y-82672214D01*
X118078892Y-82604834D01*
X118081257Y-82601152D01*
X118149394Y-82499179D01*
X118209737Y-82353497D01*
X118240500Y-82198842D01*
X118240500Y-82041158D01*
X118240500Y-82041155D01*
X118240499Y-82041153D01*
X118209738Y-81886510D01*
X118209737Y-81886503D01*
X118209735Y-81886498D01*
X118149397Y-81740827D01*
X118149390Y-81740814D01*
X118061789Y-81609711D01*
X118061786Y-81609707D01*
X117950292Y-81498213D01*
X117950288Y-81498210D01*
X117819185Y-81410609D01*
X117819172Y-81410602D01*
X117673501Y-81350264D01*
X117673489Y-81350261D01*
X117518845Y-81319500D01*
X117518842Y-81319500D01*
X117361158Y-81319500D01*
X117361155Y-81319500D01*
X117206510Y-81350261D01*
X117206498Y-81350264D01*
X117060827Y-81410602D01*
X117060814Y-81410609D01*
X116929711Y-81498210D01*
X116929707Y-81498213D01*
X116927681Y-81500240D01*
X116926357Y-81500962D01*
X116925001Y-81502076D01*
X116924789Y-81501818D01*
X116866358Y-81533725D01*
X116796666Y-81528741D01*
X116755060Y-81502001D01*
X116754999Y-81502076D01*
X116754360Y-81501552D01*
X116752319Y-81500240D01*
X116750292Y-81498213D01*
X116750288Y-81498210D01*
X116619185Y-81410609D01*
X116619172Y-81410602D01*
X116473501Y-81350264D01*
X116473489Y-81350261D01*
X116318845Y-81319500D01*
X116318842Y-81319500D01*
X116161158Y-81319500D01*
X116161155Y-81319500D01*
X116006510Y-81350261D01*
X116006498Y-81350264D01*
X115860827Y-81410602D01*
X115860814Y-81410609D01*
X115729711Y-81498210D01*
X115729707Y-81498213D01*
X115618213Y-81609707D01*
X115618210Y-81609711D01*
X115530609Y-81740814D01*
X115530602Y-81740827D01*
X115470264Y-81886498D01*
X115470261Y-81886510D01*
X115439500Y-82041153D01*
X96460500Y-82041153D01*
X96460500Y-78207135D01*
X101254500Y-78207135D01*
X101254500Y-79952870D01*
X101254501Y-79952876D01*
X101260908Y-80012483D01*
X101311202Y-80147328D01*
X101311206Y-80147335D01*
X101397452Y-80262544D01*
X101397455Y-80262547D01*
X101512664Y-80348793D01*
X101512671Y-80348797D01*
X101647517Y-80399091D01*
X101647516Y-80399091D01*
X101654444Y-80399835D01*
X101707127Y-80405500D01*
X103452872Y-80405499D01*
X103512483Y-80399091D01*
X103647331Y-80348796D01*
X103762546Y-80262546D01*
X103848796Y-80147331D01*
X103899091Y-80012483D01*
X103905500Y-79952873D01*
X103905499Y-78975675D01*
X106334500Y-78975675D01*
X106334500Y-79184324D01*
X106367137Y-79390389D01*
X106431612Y-79588820D01*
X106526330Y-79774714D01*
X106648965Y-79943505D01*
X106796495Y-80091035D01*
X106965286Y-80213670D01*
X107053116Y-80258421D01*
X107151179Y-80308387D01*
X107151181Y-80308387D01*
X107151184Y-80308389D01*
X107257545Y-80342948D01*
X107349610Y-80372862D01*
X107555676Y-80405500D01*
X107555681Y-80405500D01*
X107764324Y-80405500D01*
X107970389Y-80372862D01*
X108168816Y-80308389D01*
X108354714Y-80213670D01*
X108523505Y-80091035D01*
X108671035Y-79943505D01*
X108793670Y-79774714D01*
X108888389Y-79588816D01*
X108952862Y-79390389D01*
X108985500Y-79184324D01*
X108985500Y-78975675D01*
X108952862Y-78769610D01*
X108888387Y-78571179D01*
X108810939Y-78419179D01*
X108793670Y-78385286D01*
X108671035Y-78216495D01*
X108523505Y-78068965D01*
X108375116Y-77961153D01*
X113489500Y-77961153D01*
X113489500Y-78118846D01*
X113520261Y-78273489D01*
X113520264Y-78273501D01*
X113580602Y-78419172D01*
X113580609Y-78419185D01*
X113668210Y-78550288D01*
X113668213Y-78550292D01*
X113779707Y-78661786D01*
X113779711Y-78661789D01*
X113910814Y-78749390D01*
X113910827Y-78749397D01*
X114056498Y-78809735D01*
X114056503Y-78809737D01*
X114211153Y-78840499D01*
X114211156Y-78840500D01*
X114211158Y-78840500D01*
X114368844Y-78840500D01*
X114368845Y-78840499D01*
X114523497Y-78809737D01*
X114669179Y-78749394D01*
X114800289Y-78661789D01*
X114911789Y-78550289D01*
X114999394Y-78419179D01*
X115059737Y-78273497D01*
X115090500Y-78118842D01*
X115090500Y-77961158D01*
X115090500Y-77961155D01*
X115090499Y-77961153D01*
X115059737Y-77806503D01*
X115051716Y-77787138D01*
X114999397Y-77660827D01*
X114999390Y-77660814D01*
X114911789Y-77529711D01*
X114911786Y-77529707D01*
X114800292Y-77418213D01*
X114800288Y-77418210D01*
X114669185Y-77330609D01*
X114669172Y-77330602D01*
X114523501Y-77270264D01*
X114523489Y-77270261D01*
X114368845Y-77239500D01*
X114368842Y-77239500D01*
X114211158Y-77239500D01*
X114211155Y-77239500D01*
X114056510Y-77270261D01*
X114056498Y-77270264D01*
X113910827Y-77330602D01*
X113910814Y-77330609D01*
X113779711Y-77418210D01*
X113779707Y-77418213D01*
X113668213Y-77529707D01*
X113668210Y-77529711D01*
X113580609Y-77660814D01*
X113580602Y-77660827D01*
X113520264Y-77806498D01*
X113520261Y-77806510D01*
X113489500Y-77961153D01*
X108375116Y-77961153D01*
X108354714Y-77946330D01*
X108168820Y-77851612D01*
X107970389Y-77787137D01*
X107764324Y-77754500D01*
X107764319Y-77754500D01*
X107555681Y-77754500D01*
X107555676Y-77754500D01*
X107349610Y-77787137D01*
X107151179Y-77851612D01*
X106965285Y-77946330D01*
X106796493Y-78068966D01*
X106648966Y-78216493D01*
X106526330Y-78385285D01*
X106431612Y-78571179D01*
X106367137Y-78769610D01*
X106334500Y-78975675D01*
X103905499Y-78975675D01*
X103905499Y-78207128D01*
X103899091Y-78147517D01*
X103888397Y-78118846D01*
X103848797Y-78012671D01*
X103848793Y-78012664D01*
X103762547Y-77897455D01*
X103762544Y-77897452D01*
X103647335Y-77811206D01*
X103647328Y-77811202D01*
X103512482Y-77760908D01*
X103512483Y-77760908D01*
X103452883Y-77754501D01*
X103452881Y-77754500D01*
X103452873Y-77754500D01*
X103452864Y-77754500D01*
X101707129Y-77754500D01*
X101707123Y-77754501D01*
X101647516Y-77760908D01*
X101512671Y-77811202D01*
X101512664Y-77811206D01*
X101397455Y-77897452D01*
X101397452Y-77897455D01*
X101311206Y-78012664D01*
X101311202Y-78012671D01*
X101260908Y-78147517D01*
X101254501Y-78207116D01*
X101254501Y-78207123D01*
X101254500Y-78207135D01*
X96460500Y-78207135D01*
X96460500Y-74014749D01*
X96480185Y-73947710D01*
X96532989Y-73901955D01*
X96602147Y-73892011D01*
X96665703Y-73921036D01*
X96681447Y-73937436D01*
X96747497Y-74020261D01*
X96789175Y-74072523D01*
X97027477Y-74310825D01*
X97290961Y-74520946D01*
X97576314Y-74700246D01*
X97879949Y-74846469D01*
X98118848Y-74930063D01*
X98198034Y-74957772D01*
X98198046Y-74957776D01*
X98526606Y-75032767D01*
X98861492Y-75070499D01*
X98861493Y-75070500D01*
X98861496Y-75070500D01*
X99198507Y-75070500D01*
X99198507Y-75070499D01*
X99533394Y-75032767D01*
X99861954Y-74957776D01*
X100180051Y-74846469D01*
X100461037Y-74711153D01*
X118519500Y-74711153D01*
X118519500Y-74868846D01*
X118550261Y-75023489D01*
X118550264Y-75023501D01*
X118610602Y-75169172D01*
X118610609Y-75169185D01*
X118698210Y-75300288D01*
X118698213Y-75300292D01*
X118809707Y-75411786D01*
X118809711Y-75411789D01*
X118940814Y-75499390D01*
X118940827Y-75499397D01*
X119086498Y-75559735D01*
X119086503Y-75559737D01*
X119241153Y-75590499D01*
X119241156Y-75590500D01*
X119241158Y-75590500D01*
X119398844Y-75590500D01*
X119398845Y-75590499D01*
X119553497Y-75559737D01*
X119699179Y-75499394D01*
X119830289Y-75411789D01*
X119941789Y-75300289D01*
X120029394Y-75169179D01*
X120089737Y-75023497D01*
X120120500Y-74868842D01*
X120120500Y-74711158D01*
X120120500Y-74711155D01*
X120120499Y-74711153D01*
X120106395Y-74640247D01*
X120089737Y-74556503D01*
X120075009Y-74520946D01*
X120029397Y-74410827D01*
X120029390Y-74410814D01*
X119941789Y-74279711D01*
X119941786Y-74279707D01*
X119830292Y-74168213D01*
X119830288Y-74168210D01*
X119699185Y-74080609D01*
X119699172Y-74080602D01*
X119553501Y-74020264D01*
X119553489Y-74020261D01*
X119398845Y-73989500D01*
X119398842Y-73989500D01*
X119241158Y-73989500D01*
X119241155Y-73989500D01*
X119086510Y-74020261D01*
X119086498Y-74020264D01*
X118940827Y-74080602D01*
X118940814Y-74080609D01*
X118809711Y-74168210D01*
X118809707Y-74168213D01*
X118698213Y-74279707D01*
X118698210Y-74279711D01*
X118610609Y-74410814D01*
X118610602Y-74410827D01*
X118550264Y-74556498D01*
X118550261Y-74556510D01*
X118519500Y-74711153D01*
X100461037Y-74711153D01*
X100483686Y-74700246D01*
X100769039Y-74520946D01*
X101032523Y-74310825D01*
X101270825Y-74072523D01*
X101480946Y-73809039D01*
X101660246Y-73523686D01*
X101806469Y-73220051D01*
X101917776Y-72901954D01*
X101992767Y-72573394D01*
X102030500Y-72238504D01*
X102030500Y-71901496D01*
X101992767Y-71566606D01*
X101917776Y-71238046D01*
X101806469Y-70919949D01*
X101660246Y-70616314D01*
X101480946Y-70330961D01*
X101270825Y-70067477D01*
X101032523Y-69829175D01*
X101030039Y-69826955D01*
X100993172Y-69767604D01*
X100994244Y-69697743D01*
X101032917Y-69639551D01*
X101096910Y-69611506D01*
X101112671Y-69610500D01*
X131961790Y-69610500D01*
X132028829Y-69630185D01*
G37*
%TD.AperFunction*%
%TD*%
M02*
