%TF.GenerationSoftware,KiCad,Pcbnew,9.0.6*%
%TF.CreationDate,2026-01-15T19:42:43+05:30*%
%TF.ProjectId,GPS TRACKER USING STM32,47505320-5452-4414-934b-455220555349,rev?*%
%TF.SameCoordinates,Original*%
%TF.FileFunction,Drillmap*%
%TF.FilePolarity,Positive*%
%FSLAX45Y45*%
G04 Gerber Fmt 4.5, Leading zero omitted, Abs format (unit mm)*
G04 Created by KiCad (PCBNEW 9.0.6) date 2026-01-15 19:42:43*
%MOMM*%
%LPD*%
G01*
G04 APERTURE LIST*
%ADD10C,0.050000*%
%ADD11C,0.200000*%
G04 APERTURE END LIST*
D10*
X9596000Y-7211000D02*
G75*
G02*
X9896000Y-6911000I300000J0D01*
G01*
X13400417Y-6911000D02*
G75*
G02*
X13700420Y-7211000I3J-300000D01*
G01*
X9896000Y-12876000D02*
G75*
G02*
X9596000Y-12576000I0J300000D01*
G01*
X13700417Y-12576000D02*
G75*
G02*
X13400417Y-12875997I-299998J0D01*
G01*
X9596000Y-12576000D02*
X9596000Y-7211000D01*
X13700417Y-7211000D02*
X13700417Y-12576000D01*
X9896000Y-6911000D02*
X13400417Y-6911000D01*
X13400417Y-12876000D02*
X9896000Y-12876000D01*
D11*
X9854277Y-13189984D02*
X9854277Y-12989984D01*
X9854277Y-12989984D02*
X9901896Y-12989984D01*
X9901896Y-12989984D02*
X9930467Y-12999508D01*
X9930467Y-12999508D02*
X9949515Y-13018555D01*
X9949515Y-13018555D02*
X9959039Y-13037603D01*
X9959039Y-13037603D02*
X9968563Y-13075698D01*
X9968563Y-13075698D02*
X9968563Y-13104269D01*
X9968563Y-13104269D02*
X9959039Y-13142365D01*
X9959039Y-13142365D02*
X9949515Y-13161412D01*
X9949515Y-13161412D02*
X9930467Y-13180460D01*
X9930467Y-13180460D02*
X9901896Y-13189984D01*
X9901896Y-13189984D02*
X9854277Y-13189984D01*
X10054277Y-13189984D02*
X10054277Y-13056650D01*
X10054277Y-13094746D02*
X10063801Y-13075698D01*
X10063801Y-13075698D02*
X10073324Y-13066174D01*
X10073324Y-13066174D02*
X10092372Y-13056650D01*
X10092372Y-13056650D02*
X10111420Y-13056650D01*
X10178086Y-13189984D02*
X10178086Y-13056650D01*
X10178086Y-12989984D02*
X10168563Y-12999508D01*
X10168563Y-12999508D02*
X10178086Y-13009031D01*
X10178086Y-13009031D02*
X10187610Y-12999508D01*
X10187610Y-12999508D02*
X10178086Y-12989984D01*
X10178086Y-12989984D02*
X10178086Y-13009031D01*
X10301896Y-13189984D02*
X10282848Y-13180460D01*
X10282848Y-13180460D02*
X10273324Y-13161412D01*
X10273324Y-13161412D02*
X10273324Y-12989984D01*
X10406658Y-13189984D02*
X10387610Y-13180460D01*
X10387610Y-13180460D02*
X10378086Y-13161412D01*
X10378086Y-13161412D02*
X10378086Y-12989984D01*
X10635229Y-13189984D02*
X10635229Y-12989984D01*
X10635229Y-12989984D02*
X10701896Y-13132841D01*
X10701896Y-13132841D02*
X10768563Y-12989984D01*
X10768563Y-12989984D02*
X10768563Y-13189984D01*
X10949515Y-13189984D02*
X10949515Y-13085222D01*
X10949515Y-13085222D02*
X10939991Y-13066174D01*
X10939991Y-13066174D02*
X10920944Y-13056650D01*
X10920944Y-13056650D02*
X10882848Y-13056650D01*
X10882848Y-13056650D02*
X10863801Y-13066174D01*
X10949515Y-13180460D02*
X10930467Y-13189984D01*
X10930467Y-13189984D02*
X10882848Y-13189984D01*
X10882848Y-13189984D02*
X10863801Y-13180460D01*
X10863801Y-13180460D02*
X10854277Y-13161412D01*
X10854277Y-13161412D02*
X10854277Y-13142365D01*
X10854277Y-13142365D02*
X10863801Y-13123317D01*
X10863801Y-13123317D02*
X10882848Y-13113793D01*
X10882848Y-13113793D02*
X10930467Y-13113793D01*
X10930467Y-13113793D02*
X10949515Y-13104269D01*
X11044753Y-13056650D02*
X11044753Y-13256650D01*
X11044753Y-13066174D02*
X11063801Y-13056650D01*
X11063801Y-13056650D02*
X11101896Y-13056650D01*
X11101896Y-13056650D02*
X11120944Y-13066174D01*
X11120944Y-13066174D02*
X11130467Y-13075698D01*
X11130467Y-13075698D02*
X11139991Y-13094746D01*
X11139991Y-13094746D02*
X11139991Y-13151888D01*
X11139991Y-13151888D02*
X11130467Y-13170936D01*
X11130467Y-13170936D02*
X11120944Y-13180460D01*
X11120944Y-13180460D02*
X11101896Y-13189984D01*
X11101896Y-13189984D02*
X11063801Y-13189984D01*
X11063801Y-13189984D02*
X11044753Y-13180460D01*
X11225705Y-13170936D02*
X11235229Y-13180460D01*
X11235229Y-13180460D02*
X11225705Y-13189984D01*
X11225705Y-13189984D02*
X11216182Y-13180460D01*
X11216182Y-13180460D02*
X11225705Y-13170936D01*
X11225705Y-13170936D02*
X11225705Y-13189984D01*
X11225705Y-13066174D02*
X11235229Y-13075698D01*
X11235229Y-13075698D02*
X11225705Y-13085222D01*
X11225705Y-13085222D02*
X11216182Y-13075698D01*
X11216182Y-13075698D02*
X11225705Y-13066174D01*
X11225705Y-13066174D02*
X11225705Y-13085222D01*
M02*
