%TF.GenerationSoftware,KiCad,Pcbnew,9.0.6*%
%TF.CreationDate,2026-01-15T19:42:32+05:30*%
%TF.ProjectId,GPS TRACKER USING STM32,47505320-5452-4414-934b-455220555349,rev?*%
%TF.SameCoordinates,Original*%
%TF.FileFunction,Copper,L2,Inr*%
%TF.FilePolarity,Positive*%
%FSLAX46Y46*%
G04 Gerber Fmt 4.6, Leading zero omitted, Abs format (unit mm)*
G04 Created by KiCad (PCBNEW 9.0.6) date 2026-01-15 19:42:32*
%MOMM*%
%LPD*%
G01*
G04 APERTURE LIST*
%TA.AperFunction,ComponentPad*%
%ADD10C,0.800000*%
%TD*%
%TA.AperFunction,ComponentPad*%
%ADD11C,5.000000*%
%TD*%
%TA.AperFunction,ComponentPad*%
%ADD12C,0.600000*%
%TD*%
%TA.AperFunction,ComponentPad*%
%ADD13R,1.700000X1.700000*%
%TD*%
%TA.AperFunction,ComponentPad*%
%ADD14C,1.700000*%
%TD*%
%TA.AperFunction,ComponentPad*%
%ADD15R,1.650000X1.650000*%
%TD*%
%TA.AperFunction,ComponentPad*%
%ADD16C,1.650000*%
%TD*%
%TA.AperFunction,ViaPad*%
%ADD17C,0.600000*%
%TD*%
G04 APERTURE END LIST*
D10*
%TO.N,GND*%
%TO.C,H4*%
X97020825Y-125844175D03*
X97570000Y-124518350D03*
X97570000Y-127170000D03*
X98895825Y-123969175D03*
D11*
X98895825Y-125844175D03*
D10*
X98895825Y-127719175D03*
X100221650Y-124518350D03*
X100221650Y-127170000D03*
X100770825Y-125844175D03*
%TD*%
%TO.N,GND*%
%TO.C,H3*%
X132230000Y-72010000D03*
X132779175Y-70684175D03*
X132779175Y-73335825D03*
X134105000Y-70135000D03*
D11*
X134105000Y-72010000D03*
D10*
X134105000Y-73885000D03*
X135430825Y-70684175D03*
X135430825Y-73335825D03*
X135980000Y-72010000D03*
%TD*%
%TO.N,GND*%
%TO.C,H2*%
X97155000Y-72070000D03*
X97704175Y-70744175D03*
X97704175Y-73395825D03*
X99030000Y-70195000D03*
D11*
X99030000Y-72070000D03*
D10*
X99030000Y-73945000D03*
X100355825Y-70744175D03*
X100355825Y-73395825D03*
X100905000Y-72070000D03*
%TD*%
%TO.N,GND*%
%TO.C,H1*%
X132215000Y-125800000D03*
X132764175Y-124474175D03*
X132764175Y-127125825D03*
X134090000Y-123925000D03*
D11*
X134090000Y-125800000D03*
D10*
X134090000Y-127675000D03*
X135415825Y-124474175D03*
X135415825Y-127125825D03*
X135965000Y-125800000D03*
%TD*%
D12*
%TO.N,GND*%
%TO.C,U2*%
X117440000Y-85720000D03*
X117440000Y-84520000D03*
X117440000Y-83220000D03*
X117440000Y-82120000D03*
X116240000Y-85720000D03*
X116240000Y-84520000D03*
X116240000Y-83220000D03*
X116240000Y-82120000D03*
%TD*%
D13*
%TO.N,GND*%
%TO.C,J2*%
X98320000Y-114430000D03*
D14*
%TO.N,USART2_TX*%
X98320000Y-111890000D03*
%TO.N,USART2_RX*%
X98320000Y-109350000D03*
%TO.N,PA4*%
X98320000Y-106810000D03*
%TO.N,PA5{slash}SPI1_CLK*%
X98320000Y-104270000D03*
%TO.N,PA5{slash}SPI1_MISO*%
X98320000Y-101730000D03*
%TO.N,PA7{slash}SPI1_CLK*%
X98320000Y-99190000D03*
%TO.N,+3.3V*%
X98320000Y-96650000D03*
%TD*%
D15*
%TO.N,GND*%
%TO.C,P1*%
X102580000Y-79080000D03*
D16*
%TO.N,+12V*%
X107660000Y-79080000D03*
%TD*%
D13*
%TO.N,GND*%
%TO.C,J3*%
X134170000Y-114190000D03*
D14*
%TO.N,SWDIO*%
X134170000Y-111650000D03*
%TO.N,NRST*%
X134170000Y-109110000D03*
%TO.N,SWDCLK*%
X134170000Y-106570000D03*
%TO.N,SIM_RESET*%
X134170000Y-104030000D03*
%TO.N,SIM_RX*%
X134170000Y-101490000D03*
%TO.N,SIM_TX*%
X134170000Y-98950000D03*
%TO.N,SIM_PWRKEY*%
X134170000Y-96410000D03*
%TD*%
D17*
%TO.N,SIM_TX*%
X127550000Y-97590000D03*
X131910000Y-97090000D03*
%TO.N,SIM_DATA*%
X110760000Y-104740000D03*
X112860735Y-107670735D03*
%TO.N,SIM_CLK*%
X110192500Y-107476000D03*
X108873635Y-104960000D03*
%TO.N,SIM_RST*%
X109040998Y-107470000D03*
X108172909Y-105467001D03*
%TO.N,SIM_DET*%
X105870000Y-114950000D03*
X102570000Y-108900000D03*
X102580000Y-105660000D03*
X104090000Y-104780000D03*
%TO.N,Net-(D2-K)*%
X119320000Y-74790000D03*
X114290000Y-78040000D03*
%TO.N,Net-(U4-PF1)*%
X108490000Y-108050000D03*
X111316140Y-108945805D03*
%TO.N,Net-(U4-PF0)*%
X109874054Y-106276000D03*
%TO.N,STATUS*%
X115281746Y-101780000D03*
%TO.N,USART2_TX*%
X115330000Y-109111000D03*
%TO.N,USART2_RX*%
X118390000Y-109200000D03*
%TO.N,PA4*%
X117465000Y-106879823D03*
X103300000Y-106390000D03*
%TO.N,PA5{slash}SPI1_CLK*%
X117020000Y-105670000D03*
%TO.N,PA5{slash}SPI1_MISO*%
X115850000Y-105060000D03*
%TO.N,PA7{slash}SPI1_CLK*%
X116100000Y-101840000D03*
%TO.N,Net-(U4-PB11)*%
X111600000Y-115190000D03*
X120350000Y-109290000D03*
%TO.N,LED1*%
X119020000Y-116550000D03*
X123060000Y-110930000D03*
%TO.N,LED2*%
X122580000Y-116700000D03*
X123450000Y-112020000D03*
%TO.N,SIM_RX*%
X121624098Y-100037133D03*
%TO.N,SIM_TX*%
X121075222Y-99445879D03*
%TO.N,SIM_PWRKEY*%
X123320000Y-91540000D03*
%TO.N,SIM_RESET*%
X123500000Y-97980000D03*
%TO.N,Net-(U4-PF0)*%
X111530000Y-106276000D03*
%TD*%
%TA.AperFunction,Conductor*%
%TO.N,GND*%
G36*
X133938287Y-69610501D02*
G01*
X134000429Y-69610500D01*
X134007915Y-69610725D01*
X134297979Y-69628269D01*
X134312837Y-69630073D01*
X134594985Y-69681777D01*
X134609495Y-69685352D01*
X134883362Y-69770690D01*
X134897359Y-69775999D01*
X135158924Y-69893718D01*
X135172182Y-69900677D01*
X135417652Y-70049067D01*
X135429961Y-70057563D01*
X135655769Y-70234469D01*
X135666970Y-70244393D01*
X135869790Y-70447212D01*
X135879719Y-70458419D01*
X136056616Y-70684209D01*
X136065123Y-70696533D01*
X136205829Y-70929289D01*
X136213517Y-70942005D01*
X136220466Y-70955246D01*
X136338196Y-71216829D01*
X136343501Y-71230818D01*
X136428835Y-71504662D01*
X136432419Y-71519201D01*
X136484123Y-71801338D01*
X136485928Y-71816203D01*
X136503449Y-72105849D01*
X136503675Y-72113336D01*
X136503675Y-125756249D01*
X136503449Y-125763736D01*
X136485903Y-126053793D01*
X136484098Y-126068658D01*
X136432395Y-126350792D01*
X136428811Y-126365331D01*
X136343479Y-126639170D01*
X136338169Y-126653170D01*
X136220451Y-126914727D01*
X136213493Y-126927986D01*
X136065103Y-127173451D01*
X136056597Y-127185774D01*
X135879705Y-127411559D01*
X135869775Y-127422768D01*
X135666952Y-127625588D01*
X135655744Y-127635517D01*
X135429954Y-127812411D01*
X135417630Y-127820917D01*
X135172171Y-127969300D01*
X135158912Y-127976259D01*
X134897354Y-128093974D01*
X134883354Y-128099284D01*
X134609503Y-128184618D01*
X134594964Y-128188201D01*
X134312838Y-128239900D01*
X134297973Y-128241705D01*
X134007500Y-128259273D01*
X134000016Y-128259499D01*
X133968365Y-128259499D01*
X133938287Y-128259499D01*
X133938283Y-128259499D01*
X133930679Y-128259500D01*
X133930678Y-128259499D01*
X133930677Y-128259500D01*
X98963751Y-128259500D01*
X98956264Y-128259274D01*
X98666205Y-128241728D01*
X98651340Y-128239923D01*
X98369201Y-128188219D01*
X98354663Y-128184635D01*
X98080832Y-128099306D01*
X98066831Y-128093997D01*
X97805263Y-127976275D01*
X97792004Y-127969316D01*
X97590926Y-127847760D01*
X97546537Y-127820926D01*
X97534217Y-127812422D01*
X97308426Y-127635526D01*
X97297218Y-127625596D01*
X97094403Y-127422781D01*
X97084473Y-127411573D01*
X97084462Y-127411559D01*
X96907571Y-127185774D01*
X96899075Y-127173465D01*
X96750678Y-126927986D01*
X96743727Y-126914743D01*
X96626000Y-126653163D01*
X96620693Y-126639167D01*
X96612095Y-126611576D01*
X96535363Y-126365335D01*
X96531780Y-126350798D01*
X96480076Y-126068659D01*
X96478271Y-126053794D01*
X96460726Y-125763736D01*
X96460500Y-125756249D01*
X96460500Y-116471153D01*
X118219500Y-116471153D01*
X118219500Y-116628846D01*
X118250261Y-116783489D01*
X118250264Y-116783501D01*
X118310602Y-116929172D01*
X118310609Y-116929185D01*
X118398210Y-117060288D01*
X118398213Y-117060292D01*
X118509707Y-117171786D01*
X118509711Y-117171789D01*
X118640814Y-117259390D01*
X118640827Y-117259397D01*
X118786498Y-117319735D01*
X118786503Y-117319737D01*
X118941153Y-117350499D01*
X118941156Y-117350500D01*
X118941158Y-117350500D01*
X119098844Y-117350500D01*
X119098845Y-117350499D01*
X119253497Y-117319737D01*
X119399179Y-117259394D01*
X119530289Y-117171789D01*
X119641789Y-117060289D01*
X119729394Y-116929179D01*
X119789737Y-116783497D01*
X119820500Y-116628842D01*
X119820500Y-116621153D01*
X121779500Y-116621153D01*
X121779500Y-116778846D01*
X121810261Y-116933489D01*
X121810264Y-116933501D01*
X121870602Y-117079172D01*
X121870609Y-117079185D01*
X121958210Y-117210288D01*
X121958213Y-117210292D01*
X122069707Y-117321786D01*
X122069711Y-117321789D01*
X122200814Y-117409390D01*
X122200827Y-117409397D01*
X122346498Y-117469735D01*
X122346503Y-117469737D01*
X122501153Y-117500499D01*
X122501156Y-117500500D01*
X122501158Y-117500500D01*
X122658844Y-117500500D01*
X122658845Y-117500499D01*
X122813497Y-117469737D01*
X122959179Y-117409394D01*
X123090289Y-117321789D01*
X123201789Y-117210289D01*
X123289394Y-117079179D01*
X123349737Y-116933497D01*
X123380500Y-116778842D01*
X123380500Y-116621158D01*
X123380500Y-116621155D01*
X123380499Y-116621153D01*
X123349738Y-116466510D01*
X123349737Y-116466503D01*
X123349735Y-116466498D01*
X123289397Y-116320827D01*
X123289390Y-116320814D01*
X123201789Y-116189711D01*
X123201786Y-116189707D01*
X123090292Y-116078213D01*
X123090288Y-116078210D01*
X122959185Y-115990609D01*
X122959172Y-115990602D01*
X122813501Y-115930264D01*
X122813489Y-115930261D01*
X122658845Y-115899500D01*
X122658842Y-115899500D01*
X122501158Y-115899500D01*
X122501155Y-115899500D01*
X122346510Y-115930261D01*
X122346498Y-115930264D01*
X122200827Y-115990602D01*
X122200814Y-115990609D01*
X122069711Y-116078210D01*
X122069707Y-116078213D01*
X121958213Y-116189707D01*
X121958210Y-116189711D01*
X121870609Y-116320814D01*
X121870602Y-116320827D01*
X121810264Y-116466498D01*
X121810261Y-116466510D01*
X121779500Y-116621153D01*
X119820500Y-116621153D01*
X119820500Y-116471158D01*
X119820500Y-116471155D01*
X119820499Y-116471153D01*
X119790596Y-116320821D01*
X119789737Y-116316503D01*
X119789735Y-116316498D01*
X119729397Y-116170827D01*
X119729390Y-116170814D01*
X119641789Y-116039711D01*
X119641786Y-116039707D01*
X119530292Y-115928213D01*
X119530288Y-115928210D01*
X119399185Y-115840609D01*
X119399172Y-115840602D01*
X119253501Y-115780264D01*
X119253489Y-115780261D01*
X119098845Y-115749500D01*
X119098842Y-115749500D01*
X118941158Y-115749500D01*
X118941155Y-115749500D01*
X118786510Y-115780261D01*
X118786498Y-115780264D01*
X118640827Y-115840602D01*
X118640814Y-115840609D01*
X118509711Y-115928210D01*
X118509707Y-115928213D01*
X118398213Y-116039707D01*
X118398210Y-116039711D01*
X118310609Y-116170814D01*
X118310602Y-116170827D01*
X118250264Y-116316498D01*
X118250261Y-116316510D01*
X118219500Y-116471153D01*
X96460500Y-116471153D01*
X96460500Y-96543713D01*
X96969500Y-96543713D01*
X96969500Y-96756287D01*
X97002754Y-96966243D01*
X97052003Y-97117816D01*
X97068444Y-97168414D01*
X97164951Y-97357820D01*
X97289890Y-97529786D01*
X97440213Y-97680109D01*
X97612182Y-97805050D01*
X97620946Y-97809516D01*
X97671742Y-97857491D01*
X97688536Y-97925312D01*
X97665998Y-97991447D01*
X97620946Y-98030484D01*
X97612182Y-98034949D01*
X97440213Y-98159890D01*
X97289890Y-98310213D01*
X97164951Y-98482179D01*
X97068444Y-98671585D01*
X97002753Y-98873760D01*
X96969500Y-99083713D01*
X96969500Y-99296286D01*
X97002753Y-99506239D01*
X97002753Y-99506241D01*
X97002754Y-99506243D01*
X97052003Y-99657816D01*
X97068444Y-99708414D01*
X97164951Y-99897820D01*
X97289890Y-100069786D01*
X97440213Y-100220109D01*
X97612182Y-100345050D01*
X97620946Y-100349516D01*
X97671742Y-100397491D01*
X97688536Y-100465312D01*
X97665998Y-100531447D01*
X97620946Y-100570484D01*
X97612182Y-100574949D01*
X97440213Y-100699890D01*
X97289890Y-100850213D01*
X97164951Y-101022179D01*
X97068444Y-101211585D01*
X97002753Y-101413760D01*
X96969500Y-101623713D01*
X96969500Y-101836286D01*
X96997567Y-102013497D01*
X97002754Y-102046243D01*
X97058942Y-102219172D01*
X97068444Y-102248414D01*
X97164951Y-102437820D01*
X97289890Y-102609786D01*
X97440213Y-102760109D01*
X97612182Y-102885050D01*
X97620946Y-102889516D01*
X97671742Y-102937491D01*
X97688536Y-103005312D01*
X97665998Y-103071447D01*
X97620946Y-103110484D01*
X97612182Y-103114949D01*
X97440213Y-103239890D01*
X97289890Y-103390213D01*
X97164951Y-103562179D01*
X97068444Y-103751585D01*
X97002753Y-103953760D01*
X96969500Y-104163713D01*
X96969500Y-104376286D01*
X96996459Y-104546503D01*
X97002754Y-104586243D01*
X97052003Y-104737816D01*
X97068444Y-104788414D01*
X97164951Y-104977820D01*
X97289890Y-105149786D01*
X97440213Y-105300109D01*
X97612182Y-105425050D01*
X97620946Y-105429516D01*
X97671742Y-105477491D01*
X97688536Y-105545312D01*
X97665998Y-105611447D01*
X97620946Y-105650484D01*
X97612182Y-105654949D01*
X97440213Y-105779890D01*
X97289890Y-105930213D01*
X97164951Y-106102179D01*
X97068444Y-106291585D01*
X97002753Y-106493760D01*
X96969500Y-106703713D01*
X96969500Y-106916286D01*
X97000707Y-107113324D01*
X97002754Y-107126243D01*
X97056465Y-107291549D01*
X97068444Y-107328414D01*
X97164951Y-107517820D01*
X97289890Y-107689786D01*
X97440213Y-107840109D01*
X97612182Y-107965050D01*
X97620946Y-107969516D01*
X97671742Y-108017491D01*
X97688536Y-108085312D01*
X97665998Y-108151447D01*
X97620946Y-108190484D01*
X97612182Y-108194949D01*
X97440213Y-108319890D01*
X97289890Y-108470213D01*
X97164951Y-108642179D01*
X97068444Y-108831585D01*
X97002753Y-109033760D01*
X96969500Y-109243713D01*
X96969500Y-109456286D01*
X97001004Y-109655199D01*
X97002754Y-109666243D01*
X97053294Y-109821789D01*
X97068444Y-109868414D01*
X97164951Y-110057820D01*
X97289890Y-110229786D01*
X97440213Y-110380109D01*
X97612182Y-110505050D01*
X97620946Y-110509516D01*
X97671742Y-110557491D01*
X97688536Y-110625312D01*
X97665998Y-110691447D01*
X97620946Y-110730484D01*
X97612182Y-110734949D01*
X97440213Y-110859890D01*
X97289890Y-111010213D01*
X97164951Y-111182179D01*
X97068444Y-111371585D01*
X97002753Y-111573760D01*
X96969500Y-111783713D01*
X96969500Y-111996286D01*
X96985743Y-112098844D01*
X97002754Y-112206243D01*
X97052003Y-112357816D01*
X97068444Y-112408414D01*
X97164951Y-112597820D01*
X97289890Y-112769786D01*
X97403818Y-112883714D01*
X97437303Y-112945037D01*
X97432319Y-113014729D01*
X97390447Y-113070662D01*
X97359471Y-113087577D01*
X97227912Y-113136646D01*
X97227906Y-113136649D01*
X97112812Y-113222809D01*
X97112809Y-113222812D01*
X97026649Y-113337906D01*
X97026645Y-113337913D01*
X96976403Y-113472620D01*
X96976401Y-113472627D01*
X96970000Y-113532155D01*
X96970000Y-114180000D01*
X97886988Y-114180000D01*
X97854075Y-114237007D01*
X97820000Y-114364174D01*
X97820000Y-114495826D01*
X97854075Y-114622993D01*
X97886988Y-114680000D01*
X96970000Y-114680000D01*
X96970000Y-115327844D01*
X96976401Y-115387372D01*
X96976403Y-115387379D01*
X97026645Y-115522086D01*
X97026649Y-115522093D01*
X97112809Y-115637187D01*
X97112812Y-115637190D01*
X97227906Y-115723350D01*
X97227913Y-115723354D01*
X97362620Y-115773596D01*
X97362627Y-115773598D01*
X97422155Y-115779999D01*
X97422172Y-115780000D01*
X98070000Y-115780000D01*
X98070000Y-114863012D01*
X98127007Y-114895925D01*
X98254174Y-114930000D01*
X98385826Y-114930000D01*
X98512993Y-114895925D01*
X98570000Y-114863012D01*
X98570000Y-115780000D01*
X99217828Y-115780000D01*
X99217844Y-115779999D01*
X99277372Y-115773598D01*
X99277379Y-115773596D01*
X99412086Y-115723354D01*
X99412093Y-115723350D01*
X99527187Y-115637190D01*
X99527190Y-115637187D01*
X99613350Y-115522093D01*
X99613354Y-115522086D01*
X99663596Y-115387379D01*
X99663598Y-115387372D01*
X99669999Y-115327844D01*
X99670000Y-115327827D01*
X99670000Y-114871153D01*
X105069500Y-114871153D01*
X105069500Y-115028846D01*
X105100261Y-115183489D01*
X105100264Y-115183501D01*
X105160602Y-115329172D01*
X105160609Y-115329185D01*
X105248210Y-115460288D01*
X105248213Y-115460292D01*
X105359707Y-115571786D01*
X105359711Y-115571789D01*
X105490814Y-115659390D01*
X105490827Y-115659397D01*
X105589558Y-115700292D01*
X105636503Y-115719737D01*
X105786131Y-115749500D01*
X105791153Y-115750499D01*
X105791156Y-115750500D01*
X105791158Y-115750500D01*
X105948844Y-115750500D01*
X105948845Y-115750499D01*
X106103497Y-115719737D01*
X106249179Y-115659394D01*
X106380289Y-115571789D01*
X106491789Y-115460289D01*
X106579394Y-115329179D01*
X106639737Y-115183497D01*
X106643423Y-115164964D01*
X106654128Y-115111153D01*
X110799500Y-115111153D01*
X110799500Y-115268846D01*
X110830261Y-115423489D01*
X110830264Y-115423501D01*
X110890602Y-115569172D01*
X110890609Y-115569185D01*
X110978210Y-115700288D01*
X110978213Y-115700292D01*
X111089707Y-115811786D01*
X111089711Y-115811789D01*
X111220814Y-115899390D01*
X111220827Y-115899397D01*
X111295348Y-115930264D01*
X111366503Y-115959737D01*
X111521153Y-115990499D01*
X111521156Y-115990500D01*
X111521158Y-115990500D01*
X111678844Y-115990500D01*
X111678845Y-115990499D01*
X111833497Y-115959737D01*
X111979179Y-115899394D01*
X112110289Y-115811789D01*
X112221789Y-115700289D01*
X112309394Y-115569179D01*
X112369737Y-115423497D01*
X112400500Y-115268842D01*
X112400500Y-115111158D01*
X112400500Y-115111155D01*
X112400499Y-115111153D01*
X112369737Y-114956503D01*
X112344645Y-114895925D01*
X112309397Y-114810827D01*
X112309390Y-114810814D01*
X112221789Y-114679711D01*
X112221786Y-114679707D01*
X112110292Y-114568213D01*
X112110288Y-114568210D01*
X111995843Y-114491740D01*
X111979185Y-114480609D01*
X111979172Y-114480602D01*
X111833501Y-114420264D01*
X111833489Y-114420261D01*
X111678845Y-114389500D01*
X111678842Y-114389500D01*
X111521158Y-114389500D01*
X111521155Y-114389500D01*
X111366510Y-114420261D01*
X111366498Y-114420264D01*
X111220827Y-114480602D01*
X111220814Y-114480609D01*
X111089711Y-114568210D01*
X111089707Y-114568213D01*
X110978213Y-114679707D01*
X110978210Y-114679711D01*
X110890609Y-114810814D01*
X110890602Y-114810827D01*
X110830264Y-114956498D01*
X110830261Y-114956510D01*
X110799500Y-115111153D01*
X106654128Y-115111153D01*
X106660151Y-115080874D01*
X106660151Y-115080873D01*
X106670499Y-115028846D01*
X106670500Y-115028844D01*
X106670500Y-114871155D01*
X106670499Y-114871153D01*
X106658497Y-114810814D01*
X106639737Y-114716503D01*
X106624617Y-114680000D01*
X106579397Y-114570827D01*
X106579390Y-114570814D01*
X106491789Y-114439711D01*
X106491786Y-114439707D01*
X106380292Y-114328213D01*
X106380288Y-114328210D01*
X106249185Y-114240609D01*
X106249172Y-114240602D01*
X106103501Y-114180264D01*
X106103489Y-114180261D01*
X105948845Y-114149500D01*
X105948842Y-114149500D01*
X105791158Y-114149500D01*
X105791155Y-114149500D01*
X105636510Y-114180261D01*
X105636498Y-114180264D01*
X105490827Y-114240602D01*
X105490814Y-114240609D01*
X105359711Y-114328210D01*
X105359707Y-114328213D01*
X105248213Y-114439707D01*
X105248210Y-114439711D01*
X105160609Y-114570814D01*
X105160602Y-114570827D01*
X105100264Y-114716498D01*
X105100261Y-114716510D01*
X105069500Y-114871153D01*
X99670000Y-114871153D01*
X99670000Y-114680000D01*
X98753012Y-114680000D01*
X98785925Y-114622993D01*
X98820000Y-114495826D01*
X98820000Y-114364174D01*
X98785925Y-114237007D01*
X98753012Y-114180000D01*
X99670000Y-114180000D01*
X99670000Y-113532172D01*
X99669999Y-113532155D01*
X99663598Y-113472627D01*
X99663596Y-113472620D01*
X99613354Y-113337913D01*
X99613350Y-113337906D01*
X99527190Y-113222812D01*
X99527187Y-113222809D01*
X99412093Y-113136649D01*
X99412088Y-113136646D01*
X99280528Y-113087577D01*
X99224595Y-113045705D01*
X99200178Y-112980241D01*
X99215030Y-112911968D01*
X99236175Y-112883720D01*
X99350104Y-112769792D01*
X99379453Y-112729397D01*
X99475048Y-112597820D01*
X99475047Y-112597820D01*
X99475051Y-112597816D01*
X99571557Y-112408412D01*
X99637246Y-112206243D01*
X99670500Y-111996287D01*
X99670500Y-111783713D01*
X99637246Y-111573757D01*
X99571557Y-111371588D01*
X99475051Y-111182184D01*
X99475049Y-111182181D01*
X99475048Y-111182179D01*
X99350109Y-111010213D01*
X99199786Y-110859890D01*
X99187760Y-110851153D01*
X122259500Y-110851153D01*
X122259500Y-111008846D01*
X122290261Y-111163489D01*
X122290264Y-111163501D01*
X122350602Y-111309172D01*
X122350609Y-111309185D01*
X122438210Y-111440288D01*
X122438213Y-111440292D01*
X122549707Y-111551786D01*
X122549715Y-111551792D01*
X122643495Y-111614454D01*
X122688301Y-111668066D01*
X122697008Y-111737391D01*
X122689167Y-111765006D01*
X122680263Y-111786502D01*
X122680260Y-111786511D01*
X122649500Y-111941153D01*
X122649500Y-112098846D01*
X122680261Y-112253489D01*
X122680264Y-112253501D01*
X122740602Y-112399172D01*
X122740609Y-112399185D01*
X122828210Y-112530288D01*
X122828213Y-112530292D01*
X122939707Y-112641786D01*
X122939711Y-112641789D01*
X123070814Y-112729390D01*
X123070827Y-112729397D01*
X123168351Y-112769792D01*
X123216503Y-112789737D01*
X123371153Y-112820499D01*
X123371156Y-112820500D01*
X123371158Y-112820500D01*
X123528844Y-112820500D01*
X123528845Y-112820499D01*
X123683497Y-112789737D01*
X123829179Y-112729394D01*
X123960289Y-112641789D01*
X124071789Y-112530289D01*
X124159394Y-112399179D01*
X124219737Y-112253497D01*
X124250500Y-112098842D01*
X124250500Y-111941158D01*
X124250500Y-111941155D01*
X124250499Y-111941153D01*
X124219737Y-111786503D01*
X124207221Y-111756286D01*
X124159397Y-111640827D01*
X124159390Y-111640814D01*
X124071789Y-111509711D01*
X124071786Y-111509707D01*
X123960289Y-111398210D01*
X123866503Y-111335545D01*
X123821698Y-111281933D01*
X123812991Y-111212608D01*
X123820833Y-111184992D01*
X123829737Y-111163497D01*
X123860500Y-111008842D01*
X123860500Y-110851158D01*
X123860500Y-110851155D01*
X123860499Y-110851153D01*
X123837384Y-110734949D01*
X123829737Y-110696503D01*
X123795850Y-110614692D01*
X123769397Y-110550827D01*
X123769390Y-110550814D01*
X123681789Y-110419711D01*
X123681786Y-110419707D01*
X123570292Y-110308213D01*
X123570288Y-110308210D01*
X123439185Y-110220609D01*
X123439172Y-110220602D01*
X123293501Y-110160264D01*
X123293489Y-110160261D01*
X123138845Y-110129500D01*
X123138842Y-110129500D01*
X122981158Y-110129500D01*
X122981155Y-110129500D01*
X122826510Y-110160261D01*
X122826498Y-110160264D01*
X122680827Y-110220602D01*
X122680814Y-110220609D01*
X122549711Y-110308210D01*
X122549707Y-110308213D01*
X122438213Y-110419707D01*
X122438210Y-110419711D01*
X122350609Y-110550814D01*
X122350602Y-110550827D01*
X122290264Y-110696498D01*
X122290261Y-110696510D01*
X122259500Y-110851153D01*
X99187760Y-110851153D01*
X99027820Y-110734951D01*
X99027115Y-110734591D01*
X99019054Y-110730485D01*
X98968259Y-110682512D01*
X98951463Y-110614692D01*
X98973999Y-110548556D01*
X99019054Y-110509515D01*
X99027816Y-110505051D01*
X99101596Y-110451447D01*
X99199786Y-110380109D01*
X99199788Y-110380106D01*
X99199792Y-110380104D01*
X99350104Y-110229792D01*
X99350106Y-110229788D01*
X99350109Y-110229786D01*
X99475048Y-110057820D01*
X99475047Y-110057820D01*
X99475051Y-110057816D01*
X99571557Y-109868412D01*
X99637246Y-109666243D01*
X99670500Y-109456287D01*
X99670500Y-109243713D01*
X99637246Y-109033757D01*
X99571557Y-108831588D01*
X99566240Y-108821153D01*
X101769500Y-108821153D01*
X101769500Y-108978846D01*
X101800261Y-109133489D01*
X101800264Y-109133501D01*
X101860602Y-109279172D01*
X101860609Y-109279185D01*
X101948210Y-109410288D01*
X101948213Y-109410292D01*
X102059707Y-109521786D01*
X102059711Y-109521789D01*
X102190814Y-109609390D01*
X102190827Y-109609397D01*
X102335139Y-109669172D01*
X102336503Y-109669737D01*
X102491153Y-109700499D01*
X102491156Y-109700500D01*
X102491158Y-109700500D01*
X102648844Y-109700500D01*
X102648845Y-109700499D01*
X102803497Y-109669737D01*
X102949179Y-109609394D01*
X103080289Y-109521789D01*
X103191789Y-109410289D01*
X103279394Y-109279179D01*
X103339737Y-109133497D01*
X103370500Y-108978842D01*
X103370500Y-108866958D01*
X110515640Y-108866958D01*
X110515640Y-109024651D01*
X110546401Y-109179294D01*
X110546404Y-109179306D01*
X110606742Y-109324977D01*
X110606749Y-109324990D01*
X110694350Y-109456093D01*
X110694353Y-109456097D01*
X110805847Y-109567591D01*
X110805851Y-109567594D01*
X110936954Y-109655195D01*
X110936967Y-109655202D01*
X111069961Y-109710289D01*
X111082643Y-109715542D01*
X111237293Y-109746304D01*
X111237296Y-109746305D01*
X111237298Y-109746305D01*
X111394984Y-109746305D01*
X111394985Y-109746304D01*
X111549637Y-109715542D01*
X111695319Y-109655199D01*
X111826429Y-109567594D01*
X111937929Y-109456094D01*
X112025534Y-109324984D01*
X112085877Y-109179302D01*
X112115147Y-109032153D01*
X114529500Y-109032153D01*
X114529500Y-109189846D01*
X114560261Y-109344489D01*
X114560264Y-109344501D01*
X114620602Y-109490172D01*
X114620609Y-109490185D01*
X114708210Y-109621288D01*
X114708213Y-109621292D01*
X114819707Y-109732786D01*
X114819711Y-109732789D01*
X114950814Y-109820390D01*
X114950827Y-109820397D01*
X115066752Y-109868414D01*
X115096503Y-109880737D01*
X115240586Y-109909397D01*
X115251153Y-109911499D01*
X115251156Y-109911500D01*
X115251158Y-109911500D01*
X115408844Y-109911500D01*
X115408845Y-109911499D01*
X115563497Y-109880737D01*
X115705811Y-109821789D01*
X115709172Y-109820397D01*
X115709172Y-109820396D01*
X115709179Y-109820394D01*
X115840289Y-109732789D01*
X115951789Y-109621289D01*
X116039394Y-109490179D01*
X116099737Y-109344497D01*
X116130500Y-109189842D01*
X116130500Y-109121153D01*
X117589500Y-109121153D01*
X117589500Y-109278846D01*
X117620261Y-109433489D01*
X117620264Y-109433501D01*
X117680602Y-109579172D01*
X117680609Y-109579185D01*
X117768210Y-109710288D01*
X117768213Y-109710292D01*
X117879707Y-109821786D01*
X117879711Y-109821789D01*
X118010814Y-109909390D01*
X118010827Y-109909397D01*
X118156498Y-109969735D01*
X118156503Y-109969737D01*
X118257326Y-109989792D01*
X118311153Y-110000499D01*
X118311156Y-110000500D01*
X118311158Y-110000500D01*
X118468844Y-110000500D01*
X118468845Y-110000499D01*
X118623497Y-109969737D01*
X118769179Y-109909394D01*
X118900289Y-109821789D01*
X119011789Y-109710289D01*
X119099394Y-109579179D01*
X119159737Y-109433497D01*
X119190500Y-109278842D01*
X119190500Y-109211153D01*
X119549500Y-109211153D01*
X119549500Y-109368846D01*
X119580261Y-109523489D01*
X119580264Y-109523501D01*
X119640602Y-109669172D01*
X119640609Y-109669185D01*
X119728210Y-109800288D01*
X119728213Y-109800292D01*
X119839707Y-109911786D01*
X119839711Y-109911789D01*
X119970814Y-109999390D01*
X119970827Y-109999397D01*
X120111865Y-110057816D01*
X120116503Y-110059737D01*
X120271153Y-110090499D01*
X120271156Y-110090500D01*
X120271158Y-110090500D01*
X120428844Y-110090500D01*
X120428845Y-110090499D01*
X120583497Y-110059737D01*
X120729179Y-109999394D01*
X120860289Y-109911789D01*
X120971789Y-109800289D01*
X121059394Y-109669179D01*
X121119737Y-109523497D01*
X121150500Y-109368842D01*
X121150500Y-109211158D01*
X121150500Y-109211155D01*
X121150499Y-109211153D01*
X121135052Y-109133497D01*
X121119737Y-109056503D01*
X121110316Y-109033759D01*
X121059397Y-108910827D01*
X121059390Y-108910814D01*
X120971789Y-108779711D01*
X120971786Y-108779707D01*
X120860292Y-108668213D01*
X120860288Y-108668210D01*
X120729185Y-108580609D01*
X120729172Y-108580602D01*
X120583501Y-108520264D01*
X120583489Y-108520261D01*
X120428845Y-108489500D01*
X120428842Y-108489500D01*
X120271158Y-108489500D01*
X120271155Y-108489500D01*
X120116510Y-108520261D01*
X120116498Y-108520264D01*
X119970827Y-108580602D01*
X119970814Y-108580609D01*
X119839711Y-108668210D01*
X119839707Y-108668213D01*
X119728213Y-108779707D01*
X119728210Y-108779711D01*
X119640609Y-108910814D01*
X119640602Y-108910827D01*
X119580264Y-109056498D01*
X119580261Y-109056510D01*
X119549500Y-109211153D01*
X119190500Y-109211153D01*
X119190500Y-109121158D01*
X119190500Y-109121155D01*
X119190499Y-109121153D01*
X119159737Y-108966503D01*
X119159735Y-108966498D01*
X119099397Y-108820827D01*
X119099390Y-108820814D01*
X119011789Y-108689711D01*
X119011786Y-108689707D01*
X118900292Y-108578213D01*
X118900288Y-108578210D01*
X118769185Y-108490609D01*
X118769172Y-108490602D01*
X118623501Y-108430264D01*
X118623489Y-108430261D01*
X118468845Y-108399500D01*
X118468842Y-108399500D01*
X118311158Y-108399500D01*
X118311155Y-108399500D01*
X118156510Y-108430261D01*
X118156498Y-108430264D01*
X118010827Y-108490602D01*
X118010814Y-108490609D01*
X117879711Y-108578210D01*
X117879707Y-108578213D01*
X117768213Y-108689707D01*
X117768210Y-108689711D01*
X117680609Y-108820814D01*
X117680602Y-108820827D01*
X117620264Y-108966498D01*
X117620261Y-108966510D01*
X117589500Y-109121153D01*
X116130500Y-109121153D01*
X116130500Y-109032158D01*
X116130500Y-109032155D01*
X116130499Y-109032153D01*
X116124842Y-109003713D01*
X116099737Y-108877503D01*
X116089752Y-108853396D01*
X116039397Y-108731827D01*
X116039390Y-108731814D01*
X115951789Y-108600711D01*
X115951786Y-108600707D01*
X115840292Y-108489213D01*
X115840288Y-108489210D01*
X115709185Y-108401609D01*
X115709172Y-108401602D01*
X115563501Y-108341264D01*
X115563489Y-108341261D01*
X115408845Y-108310500D01*
X115408842Y-108310500D01*
X115251158Y-108310500D01*
X115251155Y-108310500D01*
X115096510Y-108341261D01*
X115096498Y-108341264D01*
X114950827Y-108401602D01*
X114950814Y-108401609D01*
X114819711Y-108489210D01*
X114819707Y-108489213D01*
X114708213Y-108600707D01*
X114708210Y-108600711D01*
X114620609Y-108731814D01*
X114620602Y-108731827D01*
X114560264Y-108877498D01*
X114560261Y-108877510D01*
X114529500Y-109032153D01*
X112115147Y-109032153D01*
X112116640Y-109024647D01*
X112116640Y-108866963D01*
X112116640Y-108866960D01*
X112116639Y-108866958D01*
X112099284Y-108779711D01*
X112085877Y-108712308D01*
X112076517Y-108689711D01*
X112025537Y-108566632D01*
X112025530Y-108566619D01*
X111937929Y-108435516D01*
X111937926Y-108435512D01*
X111826432Y-108324018D01*
X111826428Y-108324015D01*
X111695325Y-108236414D01*
X111695312Y-108236407D01*
X111549641Y-108176069D01*
X111549629Y-108176066D01*
X111394985Y-108145305D01*
X111394982Y-108145305D01*
X111237298Y-108145305D01*
X111237295Y-108145305D01*
X111082650Y-108176066D01*
X111082638Y-108176069D01*
X110936967Y-108236407D01*
X110936956Y-108236413D01*
X110861779Y-108286644D01*
X110861730Y-108286678D01*
X110805851Y-108324016D01*
X110797565Y-108332301D01*
X110797562Y-108332304D01*
X110694350Y-108435516D01*
X110606749Y-108566619D01*
X110606742Y-108566632D01*
X110546404Y-108712303D01*
X110546401Y-108712315D01*
X110515640Y-108866958D01*
X103370500Y-108866958D01*
X103370500Y-108821158D01*
X103370500Y-108821155D01*
X103370499Y-108821153D01*
X103365050Y-108793760D01*
X103339737Y-108666503D01*
X103329662Y-108642179D01*
X103279397Y-108520827D01*
X103279390Y-108520814D01*
X103191789Y-108389711D01*
X103191786Y-108389707D01*
X103080292Y-108278213D01*
X103080288Y-108278210D01*
X102949185Y-108190609D01*
X102949172Y-108190602D01*
X102803501Y-108130264D01*
X102803489Y-108130261D01*
X102648845Y-108099500D01*
X102648842Y-108099500D01*
X102491158Y-108099500D01*
X102491155Y-108099500D01*
X102336510Y-108130261D01*
X102336498Y-108130264D01*
X102190827Y-108190602D01*
X102190814Y-108190609D01*
X102059711Y-108278210D01*
X102059707Y-108278213D01*
X101948213Y-108389707D01*
X101948210Y-108389711D01*
X101860609Y-108520814D01*
X101860602Y-108520827D01*
X101800264Y-108666498D01*
X101800261Y-108666510D01*
X101769500Y-108821153D01*
X99566240Y-108821153D01*
X99475051Y-108642184D01*
X99475049Y-108642181D01*
X99475048Y-108642179D01*
X99350109Y-108470213D01*
X99199786Y-108319890D01*
X99027820Y-108194951D01*
X99027115Y-108194591D01*
X99019054Y-108190485D01*
X98968259Y-108142512D01*
X98951463Y-108074692D01*
X98973999Y-108008556D01*
X99019054Y-107969515D01*
X99027816Y-107965051D01*
X99101596Y-107911447D01*
X99199786Y-107840109D01*
X99199788Y-107840106D01*
X99199792Y-107840104D01*
X99350104Y-107689792D01*
X99350106Y-107689788D01*
X99350109Y-107689786D01*
X99475048Y-107517820D01*
X99475047Y-107517820D01*
X99475051Y-107517816D01*
X99571557Y-107328412D01*
X99637246Y-107126243D01*
X99670500Y-106916287D01*
X99670500Y-106703713D01*
X99637246Y-106493757D01*
X99571557Y-106291588D01*
X99475051Y-106102184D01*
X99475049Y-106102181D01*
X99475048Y-106102179D01*
X99350109Y-105930213D01*
X99199790Y-105779894D01*
X99199785Y-105779890D01*
X99058353Y-105677134D01*
X99058335Y-105677122D01*
X99027816Y-105654949D01*
X99013019Y-105647409D01*
X99007357Y-105643697D01*
X98988932Y-105622036D01*
X98968259Y-105602512D01*
X98966588Y-105595768D01*
X98962087Y-105590476D01*
X98960834Y-105581153D01*
X101779500Y-105581153D01*
X101779500Y-105738846D01*
X101810261Y-105893489D01*
X101810264Y-105893501D01*
X101870602Y-106039172D01*
X101870609Y-106039185D01*
X101958210Y-106170288D01*
X101958213Y-106170292D01*
X102069707Y-106281786D01*
X102069711Y-106281789D01*
X102200814Y-106369390D01*
X102200827Y-106369397D01*
X102251242Y-106390279D01*
X102346503Y-106429737D01*
X102416444Y-106443649D01*
X102478351Y-106476032D01*
X102512926Y-106536747D01*
X102513867Y-106541073D01*
X102530261Y-106623491D01*
X102530264Y-106623501D01*
X102590602Y-106769172D01*
X102590609Y-106769185D01*
X102678210Y-106900288D01*
X102678213Y-106900292D01*
X102789707Y-107011786D01*
X102789711Y-107011789D01*
X102920814Y-107099390D01*
X102920827Y-107099397D01*
X103066498Y-107159735D01*
X103066503Y-107159737D01*
X103221153Y-107190499D01*
X103221156Y-107190500D01*
X103221158Y-107190500D01*
X103378844Y-107190500D01*
X103378845Y-107190499D01*
X103533497Y-107159737D01*
X103679179Y-107099394D01*
X103810289Y-107011789D01*
X103921789Y-106900289D01*
X104009394Y-106769179D01*
X104069737Y-106623497D01*
X104100500Y-106468842D01*
X104100500Y-106311158D01*
X104100500Y-106311155D01*
X104100499Y-106311153D01*
X104094658Y-106281789D01*
X104069737Y-106156503D01*
X104069735Y-106156498D01*
X104009397Y-106010827D01*
X104009390Y-106010814D01*
X103921789Y-105879711D01*
X103921786Y-105879707D01*
X103815139Y-105773060D01*
X103781654Y-105711737D01*
X103786638Y-105642045D01*
X103828510Y-105586112D01*
X103893974Y-105561695D01*
X103927010Y-105563761D01*
X103941289Y-105566602D01*
X104011156Y-105580500D01*
X104011158Y-105580500D01*
X104168844Y-105580500D01*
X104168845Y-105580499D01*
X104323497Y-105549737D01*
X104469179Y-105489394D01*
X104600289Y-105401789D01*
X104613924Y-105388154D01*
X107372409Y-105388154D01*
X107372409Y-105545847D01*
X107403170Y-105700490D01*
X107403173Y-105700502D01*
X107463511Y-105846173D01*
X107463518Y-105846186D01*
X107551119Y-105977289D01*
X107551122Y-105977293D01*
X107662616Y-106088787D01*
X107662620Y-106088790D01*
X107793723Y-106176391D01*
X107793736Y-106176398D01*
X107939407Y-106236736D01*
X107939412Y-106236738D01*
X108046484Y-106258036D01*
X108094062Y-106267500D01*
X108094065Y-106267501D01*
X108094067Y-106267501D01*
X108251753Y-106267501D01*
X108251754Y-106267500D01*
X108406406Y-106236738D01*
X108542687Y-106180289D01*
X108552081Y-106176398D01*
X108552081Y-106176397D01*
X108552088Y-106176395D01*
X108683198Y-106088790D01*
X108794698Y-105977290D01*
X108882303Y-105846180D01*
X108889313Y-105829255D01*
X108894294Y-105823073D01*
X108896121Y-105815344D01*
X108915905Y-105796254D01*
X108933151Y-105774852D01*
X108941966Y-105771107D01*
X108946401Y-105766829D01*
X108979678Y-105755089D01*
X109017720Y-105747522D01*
X109087309Y-105753750D01*
X109142486Y-105796614D01*
X109165730Y-105862504D01*
X109156470Y-105916591D01*
X109104317Y-106042503D01*
X109104315Y-106042510D01*
X109073554Y-106197153D01*
X109073554Y-106354846D01*
X109104314Y-106509485D01*
X109104315Y-106509489D01*
X109104317Y-106509497D01*
X109104318Y-106509499D01*
X109104318Y-106509504D01*
X109105505Y-106515472D01*
X109104373Y-106515697D01*
X109104945Y-106579365D01*
X109067700Y-106638480D01*
X109004408Y-106668074D01*
X108985659Y-106669500D01*
X108962153Y-106669500D01*
X108807508Y-106700261D01*
X108807496Y-106700264D01*
X108661825Y-106760602D01*
X108661812Y-106760609D01*
X108530709Y-106848210D01*
X108530705Y-106848213D01*
X108419211Y-106959707D01*
X108419208Y-106959711D01*
X108331607Y-107090814D01*
X108331602Y-107090823D01*
X108272093Y-107234493D01*
X108228252Y-107288896D01*
X108204986Y-107301601D01*
X108110820Y-107340606D01*
X108110814Y-107340609D01*
X107979711Y-107428210D01*
X107979707Y-107428213D01*
X107868213Y-107539707D01*
X107868210Y-107539711D01*
X107780609Y-107670814D01*
X107780602Y-107670827D01*
X107720264Y-107816498D01*
X107720261Y-107816510D01*
X107689500Y-107971153D01*
X107689500Y-108128846D01*
X107720261Y-108283489D01*
X107720264Y-108283501D01*
X107780602Y-108429172D01*
X107780609Y-108429185D01*
X107868210Y-108560288D01*
X107868213Y-108560292D01*
X107979707Y-108671786D01*
X107979711Y-108671789D01*
X108110814Y-108759390D01*
X108110827Y-108759397D01*
X108193781Y-108793757D01*
X108256503Y-108819737D01*
X108411153Y-108850499D01*
X108411156Y-108850500D01*
X108411158Y-108850500D01*
X108568844Y-108850500D01*
X108568845Y-108850499D01*
X108723497Y-108819737D01*
X108869179Y-108759394D01*
X109000289Y-108671789D01*
X109111789Y-108560289D01*
X109199394Y-108429179D01*
X109199395Y-108429176D01*
X109199397Y-108429173D01*
X109235810Y-108341263D01*
X109258904Y-108285505D01*
X109302744Y-108231103D01*
X109326013Y-108218398D01*
X109420170Y-108179397D01*
X109420170Y-108179396D01*
X109420177Y-108179394D01*
X109543368Y-108097079D01*
X109610045Y-108076202D01*
X109677425Y-108094686D01*
X109681150Y-108097080D01*
X109813314Y-108185390D01*
X109813327Y-108185397D01*
X109958998Y-108245735D01*
X109959003Y-108245737D01*
X110113653Y-108276499D01*
X110113656Y-108276500D01*
X110113658Y-108276500D01*
X110271344Y-108276500D01*
X110271345Y-108276499D01*
X110425997Y-108245737D01*
X110571679Y-108185394D01*
X110702789Y-108097789D01*
X110814289Y-107986289D01*
X110901894Y-107855179D01*
X110962237Y-107709497D01*
X110985631Y-107591888D01*
X112060235Y-107591888D01*
X112060235Y-107749581D01*
X112090996Y-107904224D01*
X112090999Y-107904236D01*
X112151337Y-108049907D01*
X112151344Y-108049920D01*
X112238945Y-108181023D01*
X112238948Y-108181027D01*
X112350442Y-108292521D01*
X112350446Y-108292524D01*
X112481549Y-108380125D01*
X112481562Y-108380132D01*
X112615263Y-108435512D01*
X112627238Y-108440472D01*
X112776730Y-108470208D01*
X112781888Y-108471234D01*
X112781891Y-108471235D01*
X112781893Y-108471235D01*
X112939579Y-108471235D01*
X112939580Y-108471234D01*
X113094232Y-108440472D01*
X113216781Y-108389711D01*
X113239907Y-108380132D01*
X113239907Y-108380131D01*
X113239914Y-108380129D01*
X113371024Y-108292524D01*
X113482524Y-108181024D01*
X113570129Y-108049914D01*
X113630472Y-107904232D01*
X113661235Y-107749577D01*
X113661235Y-107591893D01*
X113661235Y-107591890D01*
X113661234Y-107591888D01*
X113655216Y-107561634D01*
X113630472Y-107437238D01*
X113626733Y-107428210D01*
X113570132Y-107291562D01*
X113570125Y-107291549D01*
X113482524Y-107160446D01*
X113482521Y-107160442D01*
X113371027Y-107048948D01*
X113371023Y-107048945D01*
X113239920Y-106961344D01*
X113239907Y-106961337D01*
X113094236Y-106900999D01*
X113094224Y-106900996D01*
X112939580Y-106870235D01*
X112939577Y-106870235D01*
X112781893Y-106870235D01*
X112781890Y-106870235D01*
X112627245Y-106900996D01*
X112627233Y-106900999D01*
X112481562Y-106961337D01*
X112481549Y-106961344D01*
X112350446Y-107048945D01*
X112350442Y-107048948D01*
X112238948Y-107160442D01*
X112238945Y-107160446D01*
X112151344Y-107291549D01*
X112151337Y-107291562D01*
X112090999Y-107437233D01*
X112090996Y-107437245D01*
X112060235Y-107591888D01*
X110985631Y-107591888D01*
X110993000Y-107554842D01*
X110993000Y-107397158D01*
X110993000Y-107397155D01*
X110992999Y-107397153D01*
X110991598Y-107390111D01*
X110962237Y-107242503D01*
X110940697Y-107190500D01*
X110899563Y-107091192D01*
X110901995Y-107090184D01*
X110890062Y-107032986D01*
X110915035Y-106967732D01*
X110971323Y-106926338D01*
X111041054Y-106921946D01*
X111082557Y-106939782D01*
X111150814Y-106985390D01*
X111150827Y-106985397D01*
X111265719Y-107032986D01*
X111296503Y-107045737D01*
X111451153Y-107076499D01*
X111451156Y-107076500D01*
X111451158Y-107076500D01*
X111608844Y-107076500D01*
X111608845Y-107076499D01*
X111763497Y-107045737D01*
X111909179Y-106985394D01*
X112040289Y-106897789D01*
X112151789Y-106786289D01*
X112239394Y-106655179D01*
X112252520Y-106623491D01*
X112299735Y-106509501D01*
X112299737Y-106509497D01*
X112330500Y-106354842D01*
X112330500Y-106197158D01*
X112330500Y-106197155D01*
X112330499Y-106197153D01*
X112327145Y-106180292D01*
X112299737Y-106042503D01*
X112298357Y-106039172D01*
X112239397Y-105896827D01*
X112239390Y-105896814D01*
X112151789Y-105765711D01*
X112151786Y-105765707D01*
X112040292Y-105654213D01*
X112040288Y-105654210D01*
X111909185Y-105566609D01*
X111909172Y-105566602D01*
X111763501Y-105506264D01*
X111763489Y-105506261D01*
X111608845Y-105475500D01*
X111608842Y-105475500D01*
X111455941Y-105475500D01*
X111388902Y-105455815D01*
X111343147Y-105403011D01*
X111333203Y-105333853D01*
X111362228Y-105270297D01*
X111368260Y-105263819D01*
X111381786Y-105250292D01*
X111381789Y-105250289D01*
X111469394Y-105119179D01*
X111526566Y-104981153D01*
X115049500Y-104981153D01*
X115049500Y-105138846D01*
X115080261Y-105293489D01*
X115080264Y-105293501D01*
X115140602Y-105439172D01*
X115140609Y-105439185D01*
X115228210Y-105570288D01*
X115228213Y-105570292D01*
X115339707Y-105681786D01*
X115339711Y-105681789D01*
X115470814Y-105769390D01*
X115470827Y-105769397D01*
X115613562Y-105828519D01*
X115616503Y-105829737D01*
X115732252Y-105852761D01*
X115771153Y-105860499D01*
X115771156Y-105860500D01*
X115771158Y-105860500D01*
X115928844Y-105860500D01*
X115928845Y-105860499D01*
X116083497Y-105829737D01*
X116085366Y-105828962D01*
X116086422Y-105828849D01*
X116089324Y-105827969D01*
X116089490Y-105828519D01*
X116154833Y-105821490D01*
X116217314Y-105852761D01*
X116245976Y-105898680D01*
X116247932Y-105897870D01*
X116310602Y-106049172D01*
X116310609Y-106049185D01*
X116398210Y-106180288D01*
X116398213Y-106180292D01*
X116509707Y-106291786D01*
X116509711Y-106291789D01*
X116640814Y-106379390D01*
X116640821Y-106379394D01*
X116667102Y-106390279D01*
X116721505Y-106434119D01*
X116743571Y-106500413D01*
X116734212Y-106552292D01*
X116695263Y-106646326D01*
X116695261Y-106646333D01*
X116664500Y-106800976D01*
X116664500Y-106958669D01*
X116695261Y-107113312D01*
X116695264Y-107113324D01*
X116755602Y-107258995D01*
X116755609Y-107259008D01*
X116843210Y-107390111D01*
X116843213Y-107390115D01*
X116954707Y-107501609D01*
X116954711Y-107501612D01*
X117085814Y-107589213D01*
X117085827Y-107589220D01*
X117231498Y-107649558D01*
X117231503Y-107649560D01*
X117338389Y-107670821D01*
X117386153Y-107680322D01*
X117386156Y-107680323D01*
X117386158Y-107680323D01*
X117543844Y-107680323D01*
X117543845Y-107680322D01*
X117698497Y-107649560D01*
X117844179Y-107589217D01*
X117975289Y-107501612D01*
X118086789Y-107390112D01*
X118174394Y-107259002D01*
X118234737Y-107113320D01*
X118265500Y-106958665D01*
X118265500Y-106800981D01*
X118265500Y-106800978D01*
X118265499Y-106800976D01*
X118241828Y-106681977D01*
X118234737Y-106646326D01*
X118195787Y-106552292D01*
X118174397Y-106500650D01*
X118174390Y-106500637D01*
X118086789Y-106369534D01*
X118086786Y-106369530D01*
X117975292Y-106258036D01*
X117975288Y-106258033D01*
X117844185Y-106170432D01*
X117844175Y-106170427D01*
X117817896Y-106159542D01*
X117763493Y-106115701D01*
X117741428Y-106049407D01*
X117750788Y-105997528D01*
X117789737Y-105903497D01*
X117820500Y-105748842D01*
X117820500Y-105591158D01*
X117820500Y-105591155D01*
X117820499Y-105591153D01*
X117815615Y-105566602D01*
X117789737Y-105436503D01*
X117785593Y-105426498D01*
X117729397Y-105290827D01*
X117729390Y-105290814D01*
X117641789Y-105159711D01*
X117641786Y-105159707D01*
X117530292Y-105048213D01*
X117530288Y-105048210D01*
X117399185Y-104960609D01*
X117399172Y-104960602D01*
X117253501Y-104900264D01*
X117253489Y-104900261D01*
X117098845Y-104869500D01*
X117098842Y-104869500D01*
X116941158Y-104869500D01*
X116941155Y-104869500D01*
X116786511Y-104900260D01*
X116786497Y-104900264D01*
X116784624Y-104901041D01*
X116783564Y-104901154D01*
X116780680Y-104902030D01*
X116780513Y-104901482D01*
X116715155Y-104908508D01*
X116652677Y-104877231D01*
X116624031Y-104831317D01*
X116622068Y-104832131D01*
X116616564Y-104818844D01*
X116567816Y-104701153D01*
X116559397Y-104680827D01*
X116559390Y-104680814D01*
X116471789Y-104549711D01*
X116471786Y-104549707D01*
X116360292Y-104438213D01*
X116360288Y-104438210D01*
X116229185Y-104350609D01*
X116229172Y-104350602D01*
X116083501Y-104290264D01*
X116083489Y-104290261D01*
X115928845Y-104259500D01*
X115928842Y-104259500D01*
X115771158Y-104259500D01*
X115771155Y-104259500D01*
X115616510Y-104290261D01*
X115616498Y-104290264D01*
X115470827Y-104350602D01*
X115470814Y-104350609D01*
X115339711Y-104438210D01*
X115339707Y-104438213D01*
X115228213Y-104549707D01*
X115228210Y-104549711D01*
X115140609Y-104680814D01*
X115140602Y-104680827D01*
X115080264Y-104826498D01*
X115080261Y-104826510D01*
X115049500Y-104981153D01*
X111526566Y-104981153D01*
X111529737Y-104973497D01*
X111558977Y-104826498D01*
X111560500Y-104818844D01*
X111560500Y-104661155D01*
X111560499Y-104661153D01*
X111545598Y-104586243D01*
X111529737Y-104506503D01*
X111501450Y-104438211D01*
X111469397Y-104360827D01*
X111469390Y-104360814D01*
X111381789Y-104229711D01*
X111381786Y-104229707D01*
X111270292Y-104118213D01*
X111270288Y-104118210D01*
X111139185Y-104030609D01*
X111139172Y-104030602D01*
X110993501Y-103970264D01*
X110993489Y-103970261D01*
X110838845Y-103939500D01*
X110838842Y-103939500D01*
X110681158Y-103939500D01*
X110681155Y-103939500D01*
X110526510Y-103970261D01*
X110526498Y-103970264D01*
X110380827Y-104030602D01*
X110380814Y-104030609D01*
X110249711Y-104118210D01*
X110249707Y-104118213D01*
X110138213Y-104229707D01*
X110138210Y-104229711D01*
X110050609Y-104360814D01*
X110050602Y-104360827D01*
X109990264Y-104506498D01*
X109990261Y-104506510D01*
X109959500Y-104661153D01*
X109959500Y-104818846D01*
X109990261Y-104973489D01*
X109990264Y-104973501D01*
X110050602Y-105119172D01*
X110050609Y-105119185D01*
X110138210Y-105250288D01*
X110138213Y-105250292D01*
X110176309Y-105288388D01*
X110209794Y-105349711D01*
X110204810Y-105419403D01*
X110162938Y-105475336D01*
X110097474Y-105499753D01*
X110064437Y-105497686D01*
X109952900Y-105475500D01*
X109952896Y-105475500D01*
X109795212Y-105475500D01*
X109729970Y-105488477D01*
X109660379Y-105482248D01*
X109605202Y-105439385D01*
X109581958Y-105373495D01*
X109591219Y-105319407D01*
X109619848Y-105250289D01*
X109643372Y-105193497D01*
X109674135Y-105038842D01*
X109674135Y-104881158D01*
X109674135Y-104881155D01*
X109674134Y-104881153D01*
X109655687Y-104788414D01*
X109643372Y-104726503D01*
X109618519Y-104666501D01*
X109583032Y-104580827D01*
X109583025Y-104580814D01*
X109495424Y-104449711D01*
X109495421Y-104449707D01*
X109383927Y-104338213D01*
X109383923Y-104338210D01*
X109252820Y-104250609D01*
X109252807Y-104250602D01*
X109107136Y-104190264D01*
X109107124Y-104190261D01*
X108952480Y-104159500D01*
X108952477Y-104159500D01*
X108794793Y-104159500D01*
X108794790Y-104159500D01*
X108640145Y-104190261D01*
X108640133Y-104190264D01*
X108494462Y-104250602D01*
X108494449Y-104250609D01*
X108363346Y-104338210D01*
X108363342Y-104338213D01*
X108251848Y-104449707D01*
X108251845Y-104449711D01*
X108164244Y-104580814D01*
X108164238Y-104580826D01*
X108157228Y-104597750D01*
X108113386Y-104652152D01*
X108066860Y-104671912D01*
X107939417Y-104697262D01*
X107939407Y-104697265D01*
X107793736Y-104757603D01*
X107793723Y-104757610D01*
X107662620Y-104845211D01*
X107662616Y-104845214D01*
X107551122Y-104956708D01*
X107551119Y-104956712D01*
X107463518Y-105087815D01*
X107463511Y-105087828D01*
X107403173Y-105233499D01*
X107403170Y-105233511D01*
X107372409Y-105388154D01*
X104613924Y-105388154D01*
X104652367Y-105349711D01*
X104707693Y-105294386D01*
X104711786Y-105290292D01*
X104711789Y-105290289D01*
X104799394Y-105159179D01*
X104859737Y-105013497D01*
X104890500Y-104858842D01*
X104890500Y-104701158D01*
X104890500Y-104701155D01*
X104890499Y-104701153D01*
X104886453Y-104680814D01*
X104859737Y-104546503D01*
X104859735Y-104546498D01*
X104799397Y-104400827D01*
X104799390Y-104400814D01*
X104711789Y-104269711D01*
X104711786Y-104269707D01*
X104600292Y-104158213D01*
X104600288Y-104158210D01*
X104469185Y-104070609D01*
X104469172Y-104070602D01*
X104323501Y-104010264D01*
X104323489Y-104010261D01*
X104168845Y-103979500D01*
X104168842Y-103979500D01*
X104011158Y-103979500D01*
X104011155Y-103979500D01*
X103856510Y-104010261D01*
X103856498Y-104010264D01*
X103710827Y-104070602D01*
X103710814Y-104070609D01*
X103579711Y-104158210D01*
X103579707Y-104158213D01*
X103468213Y-104269707D01*
X103468210Y-104269711D01*
X103380609Y-104400814D01*
X103380602Y-104400827D01*
X103320264Y-104546498D01*
X103320261Y-104546510D01*
X103289500Y-104701153D01*
X103289500Y-104858846D01*
X103303754Y-104930505D01*
X103297527Y-105000096D01*
X103254664Y-105055274D01*
X103188774Y-105078518D01*
X103120777Y-105062450D01*
X103094456Y-105042377D01*
X103090292Y-105038213D01*
X103090288Y-105038210D01*
X102959185Y-104950609D01*
X102959172Y-104950602D01*
X102813501Y-104890264D01*
X102813489Y-104890261D01*
X102658845Y-104859500D01*
X102658842Y-104859500D01*
X102501158Y-104859500D01*
X102501155Y-104859500D01*
X102346510Y-104890261D01*
X102346498Y-104890264D01*
X102200827Y-104950602D01*
X102200814Y-104950609D01*
X102069711Y-105038210D01*
X102069707Y-105038213D01*
X101958213Y-105149707D01*
X101958210Y-105149711D01*
X101870609Y-105280814D01*
X101870602Y-105280827D01*
X101810264Y-105426498D01*
X101810261Y-105426510D01*
X101779500Y-105581153D01*
X98960834Y-105581153D01*
X98958298Y-105562290D01*
X98951463Y-105534692D01*
X98953703Y-105528115D01*
X98952778Y-105521229D01*
X98964827Y-105495471D01*
X98973999Y-105468556D01*
X98979749Y-105463572D01*
X98982384Y-105457942D01*
X98996528Y-105449033D01*
X99019054Y-105429515D01*
X99027816Y-105425051D01*
X99078601Y-105388154D01*
X99199786Y-105300109D01*
X99199788Y-105300106D01*
X99199792Y-105300104D01*
X99350104Y-105149792D01*
X99350106Y-105149788D01*
X99350109Y-105149786D01*
X99472623Y-104981158D01*
X99475051Y-104977816D01*
X99571557Y-104788412D01*
X99637246Y-104586243D01*
X99670500Y-104376287D01*
X99670500Y-104163713D01*
X99637246Y-103953757D01*
X99571557Y-103751588D01*
X99475051Y-103562184D01*
X99475049Y-103562181D01*
X99475048Y-103562179D01*
X99350109Y-103390213D01*
X99199786Y-103239890D01*
X99027820Y-103114951D01*
X99027115Y-103114591D01*
X99019054Y-103110485D01*
X98968259Y-103062512D01*
X98951463Y-102994692D01*
X98973999Y-102928556D01*
X99019054Y-102889515D01*
X99027816Y-102885051D01*
X99101596Y-102831447D01*
X99199786Y-102760109D01*
X99199788Y-102760106D01*
X99199792Y-102760104D01*
X99350104Y-102609792D01*
X99350106Y-102609788D01*
X99350109Y-102609786D01*
X99475048Y-102437820D01*
X99475047Y-102437820D01*
X99475051Y-102437816D01*
X99571557Y-102248412D01*
X99637246Y-102046243D01*
X99670500Y-101836287D01*
X99670500Y-101701153D01*
X114481246Y-101701153D01*
X114481246Y-101858846D01*
X114512007Y-102013489D01*
X114512010Y-102013501D01*
X114572348Y-102159172D01*
X114572355Y-102159185D01*
X114659956Y-102290288D01*
X114659959Y-102290292D01*
X114771453Y-102401786D01*
X114771457Y-102401789D01*
X114902560Y-102489390D01*
X114902573Y-102489397D01*
X114982258Y-102522403D01*
X115048249Y-102549737D01*
X115202899Y-102580499D01*
X115202902Y-102580500D01*
X115202904Y-102580500D01*
X115360590Y-102580500D01*
X115360591Y-102580499D01*
X115515243Y-102549737D01*
X115581233Y-102522402D01*
X115650701Y-102514934D01*
X115697575Y-102533862D01*
X115720818Y-102549392D01*
X115720825Y-102549396D01*
X115795918Y-102580500D01*
X115866503Y-102609737D01*
X116021153Y-102640499D01*
X116021156Y-102640500D01*
X116021158Y-102640500D01*
X116178844Y-102640500D01*
X116178845Y-102640499D01*
X116333497Y-102609737D01*
X116478351Y-102549737D01*
X116479172Y-102549397D01*
X116479172Y-102549396D01*
X116479179Y-102549394D01*
X116610289Y-102461789D01*
X116721789Y-102350289D01*
X116809394Y-102219179D01*
X116869737Y-102073497D01*
X116900500Y-101918842D01*
X116900500Y-101761158D01*
X116900500Y-101761155D01*
X116900499Y-101761153D01*
X116869738Y-101606510D01*
X116869737Y-101606503D01*
X116869735Y-101606498D01*
X116809397Y-101460827D01*
X116809390Y-101460814D01*
X116721789Y-101329711D01*
X116721786Y-101329707D01*
X116610292Y-101218213D01*
X116610288Y-101218210D01*
X116479185Y-101130609D01*
X116479172Y-101130602D01*
X116333501Y-101070264D01*
X116333489Y-101070261D01*
X116178845Y-101039500D01*
X116178842Y-101039500D01*
X116021158Y-101039500D01*
X116021155Y-101039500D01*
X115866505Y-101070261D01*
X115866497Y-101070264D01*
X115800512Y-101097596D01*
X115731043Y-101105065D01*
X115684168Y-101086136D01*
X115660933Y-101070610D01*
X115660918Y-101070602D01*
X115515247Y-101010264D01*
X115515235Y-101010261D01*
X115360591Y-100979500D01*
X115360588Y-100979500D01*
X115202904Y-100979500D01*
X115202901Y-100979500D01*
X115048256Y-101010261D01*
X115048244Y-101010264D01*
X114902573Y-101070602D01*
X114902560Y-101070609D01*
X114771457Y-101158210D01*
X114771453Y-101158213D01*
X114659959Y-101269707D01*
X114659956Y-101269711D01*
X114572355Y-101400814D01*
X114572348Y-101400827D01*
X114512010Y-101546498D01*
X114512007Y-101546510D01*
X114481246Y-101701153D01*
X99670500Y-101701153D01*
X99670500Y-101623713D01*
X99637246Y-101413757D01*
X99571557Y-101211588D01*
X99475051Y-101022184D01*
X99475049Y-101022181D01*
X99475048Y-101022179D01*
X99350109Y-100850213D01*
X99199786Y-100699890D01*
X99027820Y-100574951D01*
X99027115Y-100574591D01*
X99019054Y-100570485D01*
X98968259Y-100522512D01*
X98951463Y-100454692D01*
X98973999Y-100388556D01*
X99019054Y-100349515D01*
X99027816Y-100345051D01*
X99101596Y-100291447D01*
X99199786Y-100220109D01*
X99199788Y-100220106D01*
X99199792Y-100220104D01*
X99350104Y-100069792D01*
X99350106Y-100069788D01*
X99350109Y-100069786D01*
X99475048Y-99897820D01*
X99475047Y-99897820D01*
X99475051Y-99897816D01*
X99571557Y-99708412D01*
X99637246Y-99506243D01*
X99659295Y-99367032D01*
X120274722Y-99367032D01*
X120274722Y-99524725D01*
X120305483Y-99679368D01*
X120305486Y-99679380D01*
X120365824Y-99825051D01*
X120365831Y-99825064D01*
X120453432Y-99956167D01*
X120453435Y-99956171D01*
X120564929Y-100067665D01*
X120564933Y-100067668D01*
X120696036Y-100155269D01*
X120696043Y-100155273D01*
X120782907Y-100191253D01*
X120837309Y-100235092D01*
X120851826Y-100265087D01*
X120852030Y-100265003D01*
X120853483Y-100268513D01*
X120854114Y-100269815D01*
X120854362Y-100270634D01*
X120914700Y-100416305D01*
X120914707Y-100416318D01*
X121002308Y-100547421D01*
X121002311Y-100547425D01*
X121113805Y-100658919D01*
X121113809Y-100658922D01*
X121244912Y-100746523D01*
X121244925Y-100746530D01*
X121330991Y-100782179D01*
X121390601Y-100806870D01*
X121545251Y-100837632D01*
X121545254Y-100837633D01*
X121545256Y-100837633D01*
X121702942Y-100837633D01*
X121702943Y-100837632D01*
X121857595Y-100806870D01*
X122003277Y-100746527D01*
X122134387Y-100658922D01*
X122245887Y-100547422D01*
X122333492Y-100416312D01*
X122393835Y-100270630D01*
X122424598Y-100115975D01*
X122424598Y-99958291D01*
X122424598Y-99958288D01*
X122424597Y-99958286D01*
X122424176Y-99956168D01*
X122393835Y-99803636D01*
X122354393Y-99708414D01*
X122333495Y-99657960D01*
X122333488Y-99657947D01*
X122245887Y-99526844D01*
X122245884Y-99526840D01*
X122134390Y-99415346D01*
X122134386Y-99415343D01*
X122003283Y-99327742D01*
X122003271Y-99327735D01*
X121916413Y-99291759D01*
X121862009Y-99247919D01*
X121847494Y-99217925D01*
X121847290Y-99218010D01*
X121845831Y-99214488D01*
X121845203Y-99213190D01*
X121844960Y-99212389D01*
X121844959Y-99212382D01*
X121791663Y-99083713D01*
X121784619Y-99066706D01*
X121784612Y-99066693D01*
X121697011Y-98935590D01*
X121697008Y-98935586D01*
X121585514Y-98824092D01*
X121585510Y-98824089D01*
X121454407Y-98736488D01*
X121454394Y-98736481D01*
X121308723Y-98676143D01*
X121308711Y-98676140D01*
X121154067Y-98645379D01*
X121154064Y-98645379D01*
X120996380Y-98645379D01*
X120996377Y-98645379D01*
X120841732Y-98676140D01*
X120841720Y-98676143D01*
X120696049Y-98736481D01*
X120696036Y-98736488D01*
X120564933Y-98824089D01*
X120564929Y-98824092D01*
X120453435Y-98935586D01*
X120453432Y-98935590D01*
X120365831Y-99066693D01*
X120365824Y-99066706D01*
X120305486Y-99212377D01*
X120305483Y-99212389D01*
X120274722Y-99367032D01*
X99659295Y-99367032D01*
X99670500Y-99296287D01*
X99670500Y-99083713D01*
X99637246Y-98873757D01*
X99571557Y-98671588D01*
X99475051Y-98482184D01*
X99475049Y-98482181D01*
X99475048Y-98482179D01*
X99350109Y-98310213D01*
X99199786Y-98159890D01*
X99027820Y-98034951D01*
X99027115Y-98034591D01*
X99019054Y-98030485D01*
X99014034Y-98025743D01*
X99007424Y-98023741D01*
X98988961Y-98002064D01*
X98968259Y-97982512D01*
X98966598Y-97975807D01*
X98962120Y-97970549D01*
X98958307Y-97942330D01*
X98951463Y-97914692D01*
X98953690Y-97908154D01*
X98952766Y-97901309D01*
X98952839Y-97901153D01*
X122699500Y-97901153D01*
X122699500Y-98058846D01*
X122730261Y-98213489D01*
X122730264Y-98213501D01*
X122790602Y-98359172D01*
X122790609Y-98359185D01*
X122878210Y-98490288D01*
X122878213Y-98490292D01*
X122989707Y-98601786D01*
X122989711Y-98601789D01*
X123120814Y-98689390D01*
X123120827Y-98689397D01*
X123266498Y-98749735D01*
X123266503Y-98749737D01*
X123421153Y-98780499D01*
X123421156Y-98780500D01*
X123421158Y-98780500D01*
X123578844Y-98780500D01*
X123578845Y-98780499D01*
X123733497Y-98749737D01*
X123879179Y-98689394D01*
X124010289Y-98601789D01*
X124121789Y-98490289D01*
X124209394Y-98359179D01*
X124269737Y-98213497D01*
X124300500Y-98058842D01*
X124300500Y-97901158D01*
X124300500Y-97901155D01*
X124300499Y-97901153D01*
X124287937Y-97838002D01*
X124269737Y-97746503D01*
X124237569Y-97668842D01*
X124209397Y-97600827D01*
X124209391Y-97600816D01*
X124191444Y-97573956D01*
X124191443Y-97573955D01*
X124149480Y-97511153D01*
X126749500Y-97511153D01*
X126749500Y-97668846D01*
X126780261Y-97823489D01*
X126780264Y-97823501D01*
X126840602Y-97969172D01*
X126840609Y-97969185D01*
X126928210Y-98100288D01*
X126928213Y-98100292D01*
X127039707Y-98211786D01*
X127039711Y-98211789D01*
X127170814Y-98299390D01*
X127170827Y-98299397D01*
X127315139Y-98359172D01*
X127316503Y-98359737D01*
X127471153Y-98390499D01*
X127471156Y-98390500D01*
X127471158Y-98390500D01*
X127628844Y-98390500D01*
X127628845Y-98390499D01*
X127783497Y-98359737D01*
X127903059Y-98310213D01*
X127929172Y-98299397D01*
X127929172Y-98299396D01*
X127929179Y-98299394D01*
X128060289Y-98211789D01*
X128171789Y-98100289D01*
X128259394Y-97969179D01*
X128319737Y-97823497D01*
X128350500Y-97668842D01*
X128350500Y-97511158D01*
X128350500Y-97511155D01*
X128350499Y-97511153D01*
X128320077Y-97358213D01*
X128319737Y-97356503D01*
X128284156Y-97270602D01*
X128259397Y-97210827D01*
X128259390Y-97210814D01*
X128171790Y-97079712D01*
X128171784Y-97079705D01*
X128103232Y-97011153D01*
X131109500Y-97011153D01*
X131109500Y-97168846D01*
X131140261Y-97323489D01*
X131140264Y-97323501D01*
X131200602Y-97469172D01*
X131200609Y-97469185D01*
X131288210Y-97600288D01*
X131288213Y-97600292D01*
X131399707Y-97711786D01*
X131399711Y-97711789D01*
X131530814Y-97799390D01*
X131530827Y-97799397D01*
X131676498Y-97859735D01*
X131676503Y-97859737D01*
X131831153Y-97890499D01*
X131831156Y-97890500D01*
X131831158Y-97890500D01*
X131988844Y-97890500D01*
X131988845Y-97890499D01*
X132143497Y-97859737D01*
X132289179Y-97799394D01*
X132420289Y-97711789D01*
X132531789Y-97600289D01*
X132619394Y-97469179D01*
X132679737Y-97323497D01*
X132710500Y-97168842D01*
X132710500Y-97036798D01*
X132730185Y-96969759D01*
X132782989Y-96924004D01*
X132852147Y-96914060D01*
X132915703Y-96943085D01*
X132944983Y-96980501D01*
X132995531Y-97079705D01*
X133014951Y-97117820D01*
X133139890Y-97289786D01*
X133290213Y-97440109D01*
X133462182Y-97565050D01*
X133470946Y-97569516D01*
X133521742Y-97617491D01*
X133538536Y-97685312D01*
X133515998Y-97751447D01*
X133470946Y-97790484D01*
X133462182Y-97794949D01*
X133290213Y-97919890D01*
X133139890Y-98070213D01*
X133014951Y-98242179D01*
X132918444Y-98431585D01*
X132852753Y-98633760D01*
X132819500Y-98843713D01*
X132819500Y-99056286D01*
X132849851Y-99247919D01*
X132852754Y-99266243D01*
X132885502Y-99367032D01*
X132918444Y-99468414D01*
X133014951Y-99657820D01*
X133139890Y-99829786D01*
X133290213Y-99980109D01*
X133462182Y-100105050D01*
X133470946Y-100109516D01*
X133521742Y-100157491D01*
X133538536Y-100225312D01*
X133515998Y-100291447D01*
X133470946Y-100330484D01*
X133462182Y-100334949D01*
X133290213Y-100459890D01*
X133139890Y-100610213D01*
X133014951Y-100782179D01*
X132918444Y-100971585D01*
X132852753Y-101173760D01*
X132819500Y-101383713D01*
X132819500Y-101596286D01*
X132845612Y-101761155D01*
X132852754Y-101806243D01*
X132889340Y-101918844D01*
X132918444Y-102008414D01*
X133014951Y-102197820D01*
X133139890Y-102369786D01*
X133290213Y-102520109D01*
X133462182Y-102645050D01*
X133470946Y-102649516D01*
X133521742Y-102697491D01*
X133538536Y-102765312D01*
X133515998Y-102831447D01*
X133470946Y-102870484D01*
X133462182Y-102874949D01*
X133290213Y-102999890D01*
X133139890Y-103150213D01*
X133014951Y-103322179D01*
X132918444Y-103511585D01*
X132852753Y-103713760D01*
X132846762Y-103751588D01*
X132819500Y-103923713D01*
X132819500Y-104136287D01*
X132822973Y-104158213D01*
X132851481Y-104338210D01*
X132852754Y-104346243D01*
X132904824Y-104506498D01*
X132918444Y-104548414D01*
X133014951Y-104737820D01*
X133139890Y-104909786D01*
X133290213Y-105060109D01*
X133462182Y-105185050D01*
X133470946Y-105189516D01*
X133521742Y-105237491D01*
X133538536Y-105305312D01*
X133515998Y-105371447D01*
X133470946Y-105410484D01*
X133462182Y-105414949D01*
X133290213Y-105539890D01*
X133139890Y-105690213D01*
X133014951Y-105862179D01*
X132918444Y-106051585D01*
X132852753Y-106253760D01*
X132832855Y-106379394D01*
X132819500Y-106463713D01*
X132819500Y-106676287D01*
X132823298Y-106700264D01*
X132850218Y-106870235D01*
X132852754Y-106886243D01*
X132914572Y-107076499D01*
X132918444Y-107088414D01*
X133014951Y-107277820D01*
X133139890Y-107449786D01*
X133290213Y-107600109D01*
X133462182Y-107725050D01*
X133470946Y-107729516D01*
X133521742Y-107777491D01*
X133538536Y-107845312D01*
X133515998Y-107911447D01*
X133470946Y-107950484D01*
X133462182Y-107954949D01*
X133290213Y-108079890D01*
X133139890Y-108230213D01*
X133014951Y-108402179D01*
X132918444Y-108591585D01*
X132852753Y-108793760D01*
X132819500Y-109003713D01*
X132819500Y-109216286D01*
X132850227Y-109410292D01*
X132852754Y-109426243D01*
X132916128Y-109621288D01*
X132918444Y-109628414D01*
X133014951Y-109817820D01*
X133139890Y-109989786D01*
X133290213Y-110140109D01*
X133462182Y-110265050D01*
X133470946Y-110269516D01*
X133521742Y-110317491D01*
X133538536Y-110385312D01*
X133515998Y-110451447D01*
X133470946Y-110490484D01*
X133462182Y-110494949D01*
X133290213Y-110619890D01*
X133139890Y-110770213D01*
X133014951Y-110942179D01*
X132918444Y-111131585D01*
X132852753Y-111333760D01*
X132842545Y-111398211D01*
X132819500Y-111543713D01*
X132819500Y-111756287D01*
X132852754Y-111966243D01*
X132895838Y-112098842D01*
X132918444Y-112168414D01*
X133014951Y-112357820D01*
X133139890Y-112529786D01*
X133253818Y-112643714D01*
X133287303Y-112705037D01*
X133282319Y-112774729D01*
X133240447Y-112830662D01*
X133209471Y-112847577D01*
X133077912Y-112896646D01*
X133077906Y-112896649D01*
X132962812Y-112982809D01*
X132962809Y-112982812D01*
X132876649Y-113097906D01*
X132876645Y-113097913D01*
X132826403Y-113232620D01*
X132826401Y-113232627D01*
X132820000Y-113292155D01*
X132820000Y-113940000D01*
X133736988Y-113940000D01*
X133704075Y-113997007D01*
X133670000Y-114124174D01*
X133670000Y-114255826D01*
X133704075Y-114382993D01*
X133736988Y-114440000D01*
X132820000Y-114440000D01*
X132820000Y-115087844D01*
X132826401Y-115147372D01*
X132826403Y-115147379D01*
X132876645Y-115282086D01*
X132876649Y-115282093D01*
X132962809Y-115397187D01*
X132962812Y-115397190D01*
X133077906Y-115483350D01*
X133077913Y-115483354D01*
X133212620Y-115533596D01*
X133212627Y-115533598D01*
X133272155Y-115539999D01*
X133272172Y-115540000D01*
X133920000Y-115540000D01*
X133920000Y-114623012D01*
X133977007Y-114655925D01*
X134104174Y-114690000D01*
X134235826Y-114690000D01*
X134362993Y-114655925D01*
X134420000Y-114623012D01*
X134420000Y-115540000D01*
X135067828Y-115540000D01*
X135067844Y-115539999D01*
X135127372Y-115533598D01*
X135127379Y-115533596D01*
X135262086Y-115483354D01*
X135262093Y-115483350D01*
X135377187Y-115397190D01*
X135377190Y-115397187D01*
X135463350Y-115282093D01*
X135463354Y-115282086D01*
X135513596Y-115147379D01*
X135513598Y-115147372D01*
X135519999Y-115087844D01*
X135520000Y-115087827D01*
X135520000Y-114440000D01*
X134603012Y-114440000D01*
X134635925Y-114382993D01*
X134670000Y-114255826D01*
X134670000Y-114124174D01*
X134635925Y-113997007D01*
X134603012Y-113940000D01*
X135520000Y-113940000D01*
X135520000Y-113292172D01*
X135519999Y-113292155D01*
X135513598Y-113232627D01*
X135513596Y-113232620D01*
X135463354Y-113097913D01*
X135463350Y-113097906D01*
X135377190Y-112982812D01*
X135377187Y-112982809D01*
X135262093Y-112896649D01*
X135262088Y-112896646D01*
X135130528Y-112847577D01*
X135074595Y-112805705D01*
X135050178Y-112740241D01*
X135065030Y-112671968D01*
X135086175Y-112643720D01*
X135200104Y-112529792D01*
X135325051Y-112357816D01*
X135421557Y-112168412D01*
X135487246Y-111966243D01*
X135520500Y-111756287D01*
X135520500Y-111543713D01*
X135487246Y-111333757D01*
X135421557Y-111131588D01*
X135325051Y-110942184D01*
X135325049Y-110942181D01*
X135325048Y-110942179D01*
X135200109Y-110770213D01*
X135049786Y-110619890D01*
X134877820Y-110494951D01*
X134877115Y-110494591D01*
X134869054Y-110490485D01*
X134818259Y-110442512D01*
X134801463Y-110374692D01*
X134823999Y-110308556D01*
X134869054Y-110269515D01*
X134877816Y-110265051D01*
X134926346Y-110229792D01*
X135049786Y-110140109D01*
X135049788Y-110140106D01*
X135049792Y-110140104D01*
X135200104Y-109989792D01*
X135200106Y-109989788D01*
X135200109Y-109989786D01*
X135325048Y-109817820D01*
X135325047Y-109817820D01*
X135325051Y-109817816D01*
X135421557Y-109628412D01*
X135487246Y-109426243D01*
X135520500Y-109216287D01*
X135520500Y-109003713D01*
X135487246Y-108793757D01*
X135421557Y-108591588D01*
X135325051Y-108402184D01*
X135325049Y-108402181D01*
X135325048Y-108402179D01*
X135200109Y-108230213D01*
X135049786Y-108079890D01*
X134877820Y-107954951D01*
X134877115Y-107954591D01*
X134869054Y-107950485D01*
X134818259Y-107902512D01*
X134801463Y-107834692D01*
X134823999Y-107768556D01*
X134869054Y-107729515D01*
X134877816Y-107725051D01*
X134926346Y-107689792D01*
X135049786Y-107600109D01*
X135049788Y-107600106D01*
X135049792Y-107600104D01*
X135200104Y-107449792D01*
X135200106Y-107449788D01*
X135200109Y-107449786D01*
X135325048Y-107277820D01*
X135325047Y-107277820D01*
X135325051Y-107277816D01*
X135421557Y-107088412D01*
X135487246Y-106886243D01*
X135520500Y-106676287D01*
X135520500Y-106463713D01*
X135487246Y-106253757D01*
X135421557Y-106051588D01*
X135325051Y-105862184D01*
X135325049Y-105862181D01*
X135325048Y-105862179D01*
X135200109Y-105690213D01*
X135049786Y-105539890D01*
X134877820Y-105414951D01*
X134877115Y-105414591D01*
X134869054Y-105410485D01*
X134818259Y-105362512D01*
X134801463Y-105294692D01*
X134823999Y-105228556D01*
X134869054Y-105189515D01*
X134877816Y-105185051D01*
X134926346Y-105149792D01*
X135049786Y-105060109D01*
X135049788Y-105060106D01*
X135049792Y-105060104D01*
X135200104Y-104909792D01*
X135200106Y-104909788D01*
X135200109Y-104909786D01*
X135325048Y-104737820D01*
X135325047Y-104737820D01*
X135325051Y-104737816D01*
X135421557Y-104548412D01*
X135487246Y-104346243D01*
X135520500Y-104136287D01*
X135520500Y-103923713D01*
X135487246Y-103713757D01*
X135421557Y-103511588D01*
X135325051Y-103322184D01*
X135325049Y-103322181D01*
X135325048Y-103322179D01*
X135200109Y-103150213D01*
X135049786Y-102999890D01*
X134877820Y-102874951D01*
X134877115Y-102874591D01*
X134869054Y-102870485D01*
X134818259Y-102822512D01*
X134801463Y-102754692D01*
X134823999Y-102688556D01*
X134869054Y-102649515D01*
X134877816Y-102645051D01*
X134926346Y-102609792D01*
X135049786Y-102520109D01*
X135049788Y-102520106D01*
X135049792Y-102520104D01*
X135200104Y-102369792D01*
X135200106Y-102369788D01*
X135200109Y-102369786D01*
X135325048Y-102197820D01*
X135325047Y-102197820D01*
X135325051Y-102197816D01*
X135421557Y-102008412D01*
X135487246Y-101806243D01*
X135520500Y-101596287D01*
X135520500Y-101383713D01*
X135487246Y-101173757D01*
X135421557Y-100971588D01*
X135325051Y-100782184D01*
X135325049Y-100782181D01*
X135325048Y-100782179D01*
X135200109Y-100610213D01*
X135049786Y-100459890D01*
X134877820Y-100334951D01*
X134877115Y-100334591D01*
X134869054Y-100330485D01*
X134818259Y-100282512D01*
X134801463Y-100214692D01*
X134823999Y-100148556D01*
X134869054Y-100109515D01*
X134877816Y-100105051D01*
X134926346Y-100069792D01*
X135049786Y-99980109D01*
X135049788Y-99980106D01*
X135049792Y-99980104D01*
X135200104Y-99829792D01*
X135200106Y-99829788D01*
X135200109Y-99829786D01*
X135325048Y-99657820D01*
X135325047Y-99657820D01*
X135325051Y-99657816D01*
X135421557Y-99468412D01*
X135487246Y-99266243D01*
X135520500Y-99056287D01*
X135520500Y-98843713D01*
X135487246Y-98633757D01*
X135421557Y-98431588D01*
X135325051Y-98242184D01*
X135325049Y-98242181D01*
X135325048Y-98242179D01*
X135200109Y-98070213D01*
X135049786Y-97919890D01*
X134877820Y-97794951D01*
X134872725Y-97792355D01*
X134869054Y-97790485D01*
X134818259Y-97742512D01*
X134801463Y-97674692D01*
X134823999Y-97608556D01*
X134869054Y-97569515D01*
X134877816Y-97565051D01*
X134926346Y-97529792D01*
X135049786Y-97440109D01*
X135049788Y-97440106D01*
X135049792Y-97440104D01*
X135200104Y-97289792D01*
X135200106Y-97289788D01*
X135200109Y-97289786D01*
X135325048Y-97117820D01*
X135325047Y-97117820D01*
X135325051Y-97117816D01*
X135421557Y-96928412D01*
X135487246Y-96726243D01*
X135520500Y-96516287D01*
X135520500Y-96303713D01*
X135487246Y-96093757D01*
X135421557Y-95891588D01*
X135325051Y-95702184D01*
X135325049Y-95702181D01*
X135325048Y-95702179D01*
X135200109Y-95530213D01*
X135049786Y-95379890D01*
X134877820Y-95254951D01*
X134688414Y-95158444D01*
X134688413Y-95158443D01*
X134688412Y-95158443D01*
X134486243Y-95092754D01*
X134486241Y-95092753D01*
X134486240Y-95092753D01*
X134324957Y-95067208D01*
X134276287Y-95059500D01*
X134063713Y-95059500D01*
X134015042Y-95067208D01*
X133853760Y-95092753D01*
X133651585Y-95158444D01*
X133462179Y-95254951D01*
X133290213Y-95379890D01*
X133139890Y-95530213D01*
X133014951Y-95702179D01*
X132918444Y-95891585D01*
X132852753Y-96093760D01*
X132846762Y-96131588D01*
X132819500Y-96303713D01*
X132819500Y-96516287D01*
X132833643Y-96605581D01*
X132824687Y-96674874D01*
X132779690Y-96728326D01*
X132712939Y-96748965D01*
X132645625Y-96730240D01*
X132608067Y-96693869D01*
X132531789Y-96579710D01*
X132420292Y-96468213D01*
X132420288Y-96468210D01*
X132289185Y-96380609D01*
X132289172Y-96380602D01*
X132143501Y-96320264D01*
X132143489Y-96320261D01*
X131988845Y-96289500D01*
X131988842Y-96289500D01*
X131831158Y-96289500D01*
X131831155Y-96289500D01*
X131676510Y-96320261D01*
X131676498Y-96320264D01*
X131530827Y-96380602D01*
X131530814Y-96380609D01*
X131399711Y-96468210D01*
X131399707Y-96468213D01*
X131288213Y-96579707D01*
X131288210Y-96579711D01*
X131200609Y-96710814D01*
X131200602Y-96710827D01*
X131140264Y-96856498D01*
X131140261Y-96856510D01*
X131109500Y-97011153D01*
X128103232Y-97011153D01*
X128060292Y-96968213D01*
X128060288Y-96968210D01*
X127929185Y-96880609D01*
X127929172Y-96880602D01*
X127783501Y-96820264D01*
X127783489Y-96820261D01*
X127628845Y-96789500D01*
X127628842Y-96789500D01*
X127471158Y-96789500D01*
X127471155Y-96789500D01*
X127316510Y-96820261D01*
X127316498Y-96820264D01*
X127170827Y-96880602D01*
X127170814Y-96880609D01*
X127039711Y-96968210D01*
X127039707Y-96968213D01*
X126928213Y-97079707D01*
X126928210Y-97079711D01*
X126840609Y-97210814D01*
X126840602Y-97210827D01*
X126780264Y-97356498D01*
X126780261Y-97356510D01*
X126749500Y-97511153D01*
X124149480Y-97511153D01*
X124121789Y-97469711D01*
X124121786Y-97469707D01*
X124010292Y-97358213D01*
X124010288Y-97358210D01*
X123879185Y-97270609D01*
X123879172Y-97270602D01*
X123733501Y-97210264D01*
X123733489Y-97210261D01*
X123578845Y-97179500D01*
X123578842Y-97179500D01*
X123421158Y-97179500D01*
X123421155Y-97179500D01*
X123266510Y-97210261D01*
X123266498Y-97210264D01*
X123120827Y-97270602D01*
X123120814Y-97270609D01*
X122989711Y-97358210D01*
X122989707Y-97358213D01*
X122878213Y-97469707D01*
X122878210Y-97469711D01*
X122790609Y-97600814D01*
X122790602Y-97600827D01*
X122730264Y-97746498D01*
X122730261Y-97746510D01*
X122699500Y-97901153D01*
X98952839Y-97901153D01*
X98964814Y-97875510D01*
X98973999Y-97848556D01*
X98980115Y-97842745D01*
X98982331Y-97838002D01*
X98997481Y-97826249D01*
X99009200Y-97815118D01*
X99013999Y-97812090D01*
X99027816Y-97805051D01*
X99047866Y-97790484D01*
X99199786Y-97680109D01*
X99199788Y-97680106D01*
X99199792Y-97680104D01*
X99350104Y-97529792D01*
X99350106Y-97529788D01*
X99350109Y-97529786D01*
X99459086Y-97379789D01*
X99475051Y-97357816D01*
X99571557Y-97168412D01*
X99637246Y-96966243D01*
X99670500Y-96756287D01*
X99670500Y-96543713D01*
X99637246Y-96333757D01*
X99571557Y-96131588D01*
X99475051Y-95942184D01*
X99475049Y-95942181D01*
X99475048Y-95942179D01*
X99350109Y-95770213D01*
X99199786Y-95619890D01*
X99027820Y-95494951D01*
X98838414Y-95398444D01*
X98838413Y-95398443D01*
X98838412Y-95398443D01*
X98636243Y-95332754D01*
X98636241Y-95332753D01*
X98636240Y-95332753D01*
X98474957Y-95307208D01*
X98426287Y-95299500D01*
X98213713Y-95299500D01*
X98165042Y-95307208D01*
X98003760Y-95332753D01*
X97801585Y-95398444D01*
X97612179Y-95494951D01*
X97440213Y-95619890D01*
X97289890Y-95770213D01*
X97164951Y-95942179D01*
X97068444Y-96131585D01*
X97002753Y-96333760D01*
X96981458Y-96468211D01*
X96969500Y-96543713D01*
X96460500Y-96543713D01*
X96460500Y-91461153D01*
X122519500Y-91461153D01*
X122519500Y-91618846D01*
X122550261Y-91773489D01*
X122550264Y-91773501D01*
X122610602Y-91919172D01*
X122610609Y-91919185D01*
X122698210Y-92050288D01*
X122698213Y-92050292D01*
X122809707Y-92161786D01*
X122809711Y-92161789D01*
X122940814Y-92249390D01*
X122940827Y-92249397D01*
X123086498Y-92309735D01*
X123086503Y-92309737D01*
X123241153Y-92340499D01*
X123241156Y-92340500D01*
X123241158Y-92340500D01*
X123398844Y-92340500D01*
X123398845Y-92340499D01*
X123553497Y-92309737D01*
X123699179Y-92249394D01*
X123830289Y-92161789D01*
X123941789Y-92050289D01*
X124029394Y-91919179D01*
X124089737Y-91773497D01*
X124120500Y-91618842D01*
X124120500Y-91461158D01*
X124120500Y-91461155D01*
X124120499Y-91461153D01*
X124089738Y-91306510D01*
X124089737Y-91306503D01*
X124089735Y-91306498D01*
X124029397Y-91160827D01*
X124029390Y-91160814D01*
X123941789Y-91029711D01*
X123941786Y-91029707D01*
X123830292Y-90918213D01*
X123830288Y-90918210D01*
X123699185Y-90830609D01*
X123699172Y-90830602D01*
X123553501Y-90770264D01*
X123553489Y-90770261D01*
X123398845Y-90739500D01*
X123398842Y-90739500D01*
X123241158Y-90739500D01*
X123241155Y-90739500D01*
X123086510Y-90770261D01*
X123086498Y-90770264D01*
X122940827Y-90830602D01*
X122940814Y-90830609D01*
X122809711Y-90918210D01*
X122809707Y-90918213D01*
X122698213Y-91029707D01*
X122698210Y-91029711D01*
X122610609Y-91160814D01*
X122610602Y-91160827D01*
X122550264Y-91306498D01*
X122550261Y-91306510D01*
X122519500Y-91461153D01*
X96460500Y-91461153D01*
X96460500Y-86435845D01*
X115877706Y-86435845D01*
X116006652Y-86489257D01*
X116006656Y-86489258D01*
X116161202Y-86519999D01*
X116161206Y-86520000D01*
X116318794Y-86520000D01*
X116318797Y-86519999D01*
X116473343Y-86489258D01*
X116473347Y-86489257D01*
X116602293Y-86435845D01*
X117077706Y-86435845D01*
X117206652Y-86489257D01*
X117206656Y-86489258D01*
X117361202Y-86519999D01*
X117361206Y-86520000D01*
X117518794Y-86520000D01*
X117518797Y-86519999D01*
X117673343Y-86489258D01*
X117673347Y-86489257D01*
X117802293Y-86435845D01*
X117440001Y-86073553D01*
X117440000Y-86073553D01*
X117077706Y-86435845D01*
X116602293Y-86435845D01*
X116240001Y-86073553D01*
X116240000Y-86073553D01*
X115877706Y-86435845D01*
X96460500Y-86435845D01*
X96460500Y-85641202D01*
X115440000Y-85641202D01*
X115440000Y-85798797D01*
X115470741Y-85953343D01*
X115470743Y-85953351D01*
X115524153Y-86082293D01*
X115886446Y-85720001D01*
X115886446Y-85719999D01*
X115856610Y-85690163D01*
X116090000Y-85690163D01*
X116090000Y-85749837D01*
X116112836Y-85804968D01*
X116155032Y-85847164D01*
X116210163Y-85870000D01*
X116269837Y-85870000D01*
X116324968Y-85847164D01*
X116367164Y-85804968D01*
X116390000Y-85749837D01*
X116390000Y-85719999D01*
X116593553Y-85719999D01*
X116840000Y-85966446D01*
X117086446Y-85720001D01*
X117086446Y-85720000D01*
X117056609Y-85690163D01*
X117290000Y-85690163D01*
X117290000Y-85749837D01*
X117312836Y-85804968D01*
X117355032Y-85847164D01*
X117410163Y-85870000D01*
X117469837Y-85870000D01*
X117524968Y-85847164D01*
X117567164Y-85804968D01*
X117590000Y-85749837D01*
X117590000Y-85719999D01*
X117793553Y-85719999D01*
X117793553Y-85720001D01*
X118155845Y-86082293D01*
X118209257Y-85953347D01*
X118209258Y-85953343D01*
X118239999Y-85798797D01*
X118240000Y-85798794D01*
X118240000Y-85641206D01*
X118239999Y-85641202D01*
X118209258Y-85486656D01*
X118209257Y-85486652D01*
X118155845Y-85357706D01*
X117793553Y-85719999D01*
X117590000Y-85719999D01*
X117590000Y-85690163D01*
X117567164Y-85635032D01*
X117524968Y-85592836D01*
X117469837Y-85570000D01*
X117410163Y-85570000D01*
X117355032Y-85592836D01*
X117312836Y-85635032D01*
X117290000Y-85690163D01*
X117056609Y-85690163D01*
X116840000Y-85473553D01*
X116593553Y-85719999D01*
X116390000Y-85719999D01*
X116390000Y-85690163D01*
X116367164Y-85635032D01*
X116324968Y-85592836D01*
X116269837Y-85570000D01*
X116210163Y-85570000D01*
X116155032Y-85592836D01*
X116112836Y-85635032D01*
X116090000Y-85690163D01*
X115856610Y-85690163D01*
X115524153Y-85357705D01*
X115470743Y-85486648D01*
X115470741Y-85486656D01*
X115440000Y-85641202D01*
X96460500Y-85641202D01*
X96460500Y-85119999D01*
X115993553Y-85119999D01*
X116240000Y-85366446D01*
X116486446Y-85120001D01*
X116486446Y-85120000D01*
X116486445Y-85119999D01*
X117193553Y-85119999D01*
X117440000Y-85366446D01*
X117686446Y-85120001D01*
X117686446Y-85120000D01*
X117440000Y-84873553D01*
X117193553Y-85119999D01*
X116486445Y-85119999D01*
X116240000Y-84873553D01*
X115993553Y-85119999D01*
X96460500Y-85119999D01*
X96460500Y-84441202D01*
X115440000Y-84441202D01*
X115440000Y-84598797D01*
X115470741Y-84753343D01*
X115470743Y-84753351D01*
X115524153Y-84882293D01*
X115886446Y-84520001D01*
X115886446Y-84519999D01*
X115856610Y-84490163D01*
X116090000Y-84490163D01*
X116090000Y-84549837D01*
X116112836Y-84604968D01*
X116155032Y-84647164D01*
X116210163Y-84670000D01*
X116269837Y-84670000D01*
X116324968Y-84647164D01*
X116367164Y-84604968D01*
X116390000Y-84549837D01*
X116390000Y-84519999D01*
X116593553Y-84519999D01*
X116840000Y-84766446D01*
X117086446Y-84520001D01*
X117086446Y-84520000D01*
X117056609Y-84490163D01*
X117290000Y-84490163D01*
X117290000Y-84549837D01*
X117312836Y-84604968D01*
X117355032Y-84647164D01*
X117410163Y-84670000D01*
X117469837Y-84670000D01*
X117524968Y-84647164D01*
X117567164Y-84604968D01*
X117590000Y-84549837D01*
X117590000Y-84519999D01*
X117793553Y-84519999D01*
X117793553Y-84520001D01*
X118155845Y-84882293D01*
X118209257Y-84753347D01*
X118209258Y-84753343D01*
X118239999Y-84598797D01*
X118240000Y-84598794D01*
X118240000Y-84441206D01*
X118239999Y-84441202D01*
X118209258Y-84286656D01*
X118209257Y-84286652D01*
X118155845Y-84157706D01*
X117793553Y-84519999D01*
X117590000Y-84519999D01*
X117590000Y-84490163D01*
X117567164Y-84435032D01*
X117524968Y-84392836D01*
X117469837Y-84370000D01*
X117410163Y-84370000D01*
X117355032Y-84392836D01*
X117312836Y-84435032D01*
X117290000Y-84490163D01*
X117056609Y-84490163D01*
X116840000Y-84273553D01*
X116593553Y-84519999D01*
X116390000Y-84519999D01*
X116390000Y-84490163D01*
X116367164Y-84435032D01*
X116324968Y-84392836D01*
X116269837Y-84370000D01*
X116210163Y-84370000D01*
X116155032Y-84392836D01*
X116112836Y-84435032D01*
X116090000Y-84490163D01*
X115856610Y-84490163D01*
X115524153Y-84157705D01*
X115470743Y-84286648D01*
X115470741Y-84286656D01*
X115440000Y-84441202D01*
X96460500Y-84441202D01*
X96460500Y-83870000D01*
X115943553Y-83870000D01*
X116240000Y-84166446D01*
X116240001Y-84166446D01*
X116536446Y-83870001D01*
X116536446Y-83870000D01*
X117143553Y-83870000D01*
X117440000Y-84166446D01*
X117440001Y-84166446D01*
X117736446Y-83870001D01*
X117736446Y-83869999D01*
X117440001Y-83573553D01*
X117440000Y-83573553D01*
X117143553Y-83870000D01*
X116536446Y-83870000D01*
X116536446Y-83869999D01*
X116240001Y-83573553D01*
X116240000Y-83573553D01*
X115943553Y-83870000D01*
X96460500Y-83870000D01*
X96460500Y-83141202D01*
X115440000Y-83141202D01*
X115440000Y-83298797D01*
X115470741Y-83453343D01*
X115470743Y-83453351D01*
X115524153Y-83582293D01*
X115886446Y-83220001D01*
X115886446Y-83219999D01*
X115856610Y-83190163D01*
X116090000Y-83190163D01*
X116090000Y-83249837D01*
X116112836Y-83304968D01*
X116155032Y-83347164D01*
X116210163Y-83370000D01*
X116269837Y-83370000D01*
X116324968Y-83347164D01*
X116367164Y-83304968D01*
X116390000Y-83249837D01*
X116390000Y-83219999D01*
X116593553Y-83219999D01*
X116840000Y-83466446D01*
X117086446Y-83220001D01*
X117086446Y-83220000D01*
X117056609Y-83190163D01*
X117290000Y-83190163D01*
X117290000Y-83249837D01*
X117312836Y-83304968D01*
X117355032Y-83347164D01*
X117410163Y-83370000D01*
X117469837Y-83370000D01*
X117524968Y-83347164D01*
X117567164Y-83304968D01*
X117590000Y-83249837D01*
X117590000Y-83219999D01*
X117793553Y-83219999D01*
X117793553Y-83220001D01*
X118155845Y-83582293D01*
X118209257Y-83453347D01*
X118209258Y-83453343D01*
X118239999Y-83298797D01*
X118240000Y-83298794D01*
X118240000Y-83141206D01*
X118239999Y-83141202D01*
X118209258Y-82986656D01*
X118209257Y-82986652D01*
X118155845Y-82857706D01*
X117793553Y-83219999D01*
X117590000Y-83219999D01*
X117590000Y-83190163D01*
X117567164Y-83135032D01*
X117524968Y-83092836D01*
X117469837Y-83070000D01*
X117410163Y-83070000D01*
X117355032Y-83092836D01*
X117312836Y-83135032D01*
X117290000Y-83190163D01*
X117056609Y-83190163D01*
X116840000Y-82973553D01*
X116593553Y-83219999D01*
X116390000Y-83219999D01*
X116390000Y-83190163D01*
X116367164Y-83135032D01*
X116324968Y-83092836D01*
X116269837Y-83070000D01*
X116210163Y-83070000D01*
X116155032Y-83092836D01*
X116112836Y-83135032D01*
X116090000Y-83190163D01*
X115856610Y-83190163D01*
X115524153Y-82857705D01*
X115470743Y-82986648D01*
X115470741Y-82986656D01*
X115440000Y-83141202D01*
X96460500Y-83141202D01*
X96460500Y-82669999D01*
X116043553Y-82669999D01*
X116240000Y-82866446D01*
X116436446Y-82670001D01*
X116436446Y-82670000D01*
X116436445Y-82669999D01*
X117243553Y-82669999D01*
X117440000Y-82866446D01*
X117636446Y-82670001D01*
X117636446Y-82670000D01*
X117440000Y-82473553D01*
X117243553Y-82669999D01*
X116436445Y-82669999D01*
X116240000Y-82473553D01*
X116043553Y-82669999D01*
X96460500Y-82669999D01*
X96460500Y-82041202D01*
X115440000Y-82041202D01*
X115440000Y-82198797D01*
X115470741Y-82353343D01*
X115470743Y-82353351D01*
X115524153Y-82482293D01*
X115886446Y-82120001D01*
X115886446Y-82119999D01*
X115856610Y-82090163D01*
X116090000Y-82090163D01*
X116090000Y-82149837D01*
X116112836Y-82204968D01*
X116155032Y-82247164D01*
X116210163Y-82270000D01*
X116269837Y-82270000D01*
X116324968Y-82247164D01*
X116367164Y-82204968D01*
X116390000Y-82149837D01*
X116390000Y-82119999D01*
X116593553Y-82119999D01*
X116840000Y-82366446D01*
X117086446Y-82120001D01*
X117086446Y-82120000D01*
X117056609Y-82090163D01*
X117290000Y-82090163D01*
X117290000Y-82149837D01*
X117312836Y-82204968D01*
X117355032Y-82247164D01*
X117410163Y-82270000D01*
X117469837Y-82270000D01*
X117524968Y-82247164D01*
X117567164Y-82204968D01*
X117590000Y-82149837D01*
X117590000Y-82119999D01*
X117793553Y-82119999D01*
X117793553Y-82120001D01*
X118155845Y-82482293D01*
X118209257Y-82353347D01*
X118209258Y-82353343D01*
X118239999Y-82198797D01*
X118240000Y-82198794D01*
X118240000Y-82041206D01*
X118239999Y-82041202D01*
X118209258Y-81886656D01*
X118209257Y-81886652D01*
X118155845Y-81757706D01*
X117793553Y-82119999D01*
X117590000Y-82119999D01*
X117590000Y-82090163D01*
X117567164Y-82035032D01*
X117524968Y-81992836D01*
X117469837Y-81970000D01*
X117410163Y-81970000D01*
X117355032Y-81992836D01*
X117312836Y-82035032D01*
X117290000Y-82090163D01*
X117056609Y-82090163D01*
X116840000Y-81873553D01*
X116593553Y-82119999D01*
X116390000Y-82119999D01*
X116390000Y-82090163D01*
X116367164Y-82035032D01*
X116324968Y-81992836D01*
X116269837Y-81970000D01*
X116210163Y-81970000D01*
X116155032Y-81992836D01*
X116112836Y-82035032D01*
X116090000Y-82090163D01*
X115856610Y-82090163D01*
X115524153Y-81757705D01*
X115470743Y-81886648D01*
X115470741Y-81886656D01*
X115440000Y-82041202D01*
X96460500Y-82041202D01*
X96460500Y-81404153D01*
X115877705Y-81404153D01*
X116240000Y-81766446D01*
X116240001Y-81766446D01*
X116602293Y-81404153D01*
X117077705Y-81404153D01*
X117440000Y-81766446D01*
X117440001Y-81766446D01*
X117802293Y-81404153D01*
X117673351Y-81350743D01*
X117673343Y-81350741D01*
X117518797Y-81320000D01*
X117361202Y-81320000D01*
X117206656Y-81350741D01*
X117206648Y-81350743D01*
X117077705Y-81404153D01*
X116602293Y-81404153D01*
X116473351Y-81350743D01*
X116473343Y-81350741D01*
X116318797Y-81320000D01*
X116161202Y-81320000D01*
X116006656Y-81350741D01*
X116006648Y-81350743D01*
X115877705Y-81404153D01*
X96460500Y-81404153D01*
X96460500Y-78207155D01*
X101255000Y-78207155D01*
X101255000Y-78830000D01*
X102089252Y-78830000D01*
X102067482Y-78867708D01*
X102030000Y-79007591D01*
X102030000Y-79152409D01*
X102067482Y-79292292D01*
X102089252Y-79330000D01*
X101255000Y-79330000D01*
X101255000Y-79952844D01*
X101261401Y-80012372D01*
X101261403Y-80012379D01*
X101311645Y-80147086D01*
X101311649Y-80147093D01*
X101397809Y-80262187D01*
X101397812Y-80262190D01*
X101512906Y-80348350D01*
X101512913Y-80348354D01*
X101647620Y-80398596D01*
X101647627Y-80398598D01*
X101707155Y-80404999D01*
X101707172Y-80405000D01*
X102330000Y-80405000D01*
X102330000Y-79570747D01*
X102367708Y-79592518D01*
X102507591Y-79630000D01*
X102652409Y-79630000D01*
X102792292Y-79592518D01*
X102830000Y-79570747D01*
X102830000Y-80405000D01*
X103452828Y-80405000D01*
X103452844Y-80404999D01*
X103512372Y-80398598D01*
X103512379Y-80398596D01*
X103647086Y-80348354D01*
X103647093Y-80348350D01*
X103762187Y-80262190D01*
X103762190Y-80262187D01*
X103848350Y-80147093D01*
X103848354Y-80147086D01*
X103898596Y-80012379D01*
X103898598Y-80012372D01*
X103904999Y-79952844D01*
X103905000Y-79952827D01*
X103905000Y-79330000D01*
X103070748Y-79330000D01*
X103092518Y-79292292D01*
X103130000Y-79152409D01*
X103130000Y-79007591D01*
X103121448Y-78975675D01*
X106334500Y-78975675D01*
X106334500Y-79184324D01*
X106367137Y-79390389D01*
X106431612Y-79588820D01*
X106526330Y-79774714D01*
X106648965Y-79943505D01*
X106796495Y-80091035D01*
X106965286Y-80213670D01*
X107053116Y-80258421D01*
X107151179Y-80308387D01*
X107151181Y-80308387D01*
X107151184Y-80308389D01*
X107257545Y-80342948D01*
X107349610Y-80372862D01*
X107555676Y-80405500D01*
X107555681Y-80405500D01*
X107764324Y-80405500D01*
X107970389Y-80372862D01*
X108168816Y-80308389D01*
X108354714Y-80213670D01*
X108523505Y-80091035D01*
X108671035Y-79943505D01*
X108793670Y-79774714D01*
X108888389Y-79588816D01*
X108952862Y-79390389D01*
X108968399Y-79292292D01*
X108985500Y-79184324D01*
X108985500Y-78975675D01*
X108952862Y-78769610D01*
X108888387Y-78571179D01*
X108810939Y-78419179D01*
X108793670Y-78385286D01*
X108671035Y-78216495D01*
X108523505Y-78068965D01*
X108375116Y-77961153D01*
X113489500Y-77961153D01*
X113489500Y-78118846D01*
X113520261Y-78273489D01*
X113520264Y-78273501D01*
X113580602Y-78419172D01*
X113580609Y-78419185D01*
X113668210Y-78550288D01*
X113668213Y-78550292D01*
X113779707Y-78661786D01*
X113779711Y-78661789D01*
X113910814Y-78749390D01*
X113910827Y-78749397D01*
X114056498Y-78809735D01*
X114056503Y-78809737D01*
X114211153Y-78840499D01*
X114211156Y-78840500D01*
X114211158Y-78840500D01*
X114368844Y-78840500D01*
X114368845Y-78840499D01*
X114523497Y-78809737D01*
X114669179Y-78749394D01*
X114800289Y-78661789D01*
X114911789Y-78550289D01*
X114999394Y-78419179D01*
X115059737Y-78273497D01*
X115090500Y-78118842D01*
X115090500Y-77961158D01*
X115090500Y-77961155D01*
X115090499Y-77961153D01*
X115059737Y-77806503D01*
X115051716Y-77787138D01*
X114999397Y-77660827D01*
X114999390Y-77660814D01*
X114911789Y-77529711D01*
X114911786Y-77529707D01*
X114800292Y-77418213D01*
X114800288Y-77418210D01*
X114669185Y-77330609D01*
X114669172Y-77330602D01*
X114523501Y-77270264D01*
X114523489Y-77270261D01*
X114368845Y-77239500D01*
X114368842Y-77239500D01*
X114211158Y-77239500D01*
X114211155Y-77239500D01*
X114056510Y-77270261D01*
X114056498Y-77270264D01*
X113910827Y-77330602D01*
X113910814Y-77330609D01*
X113779711Y-77418210D01*
X113779707Y-77418213D01*
X113668213Y-77529707D01*
X113668210Y-77529711D01*
X113580609Y-77660814D01*
X113580602Y-77660827D01*
X113520264Y-77806498D01*
X113520261Y-77806510D01*
X113489500Y-77961153D01*
X108375116Y-77961153D01*
X108354714Y-77946330D01*
X108168820Y-77851612D01*
X107970389Y-77787137D01*
X107764324Y-77754500D01*
X107764319Y-77754500D01*
X107555681Y-77754500D01*
X107555676Y-77754500D01*
X107349610Y-77787137D01*
X107151179Y-77851612D01*
X106965285Y-77946330D01*
X106796493Y-78068966D01*
X106648966Y-78216493D01*
X106526330Y-78385285D01*
X106431612Y-78571179D01*
X106367137Y-78769610D01*
X106334500Y-78975675D01*
X103121448Y-78975675D01*
X103092518Y-78867708D01*
X103070748Y-78830000D01*
X103905000Y-78830000D01*
X103905000Y-78207172D01*
X103904999Y-78207155D01*
X103898598Y-78147627D01*
X103898596Y-78147620D01*
X103848354Y-78012913D01*
X103848350Y-78012906D01*
X103762190Y-77897812D01*
X103762187Y-77897809D01*
X103647093Y-77811649D01*
X103647086Y-77811645D01*
X103512379Y-77761403D01*
X103512372Y-77761401D01*
X103452844Y-77755000D01*
X102830000Y-77755000D01*
X102830000Y-78589252D01*
X102792292Y-78567482D01*
X102652409Y-78530000D01*
X102507591Y-78530000D01*
X102367708Y-78567482D01*
X102330000Y-78589252D01*
X102330000Y-77755000D01*
X101707155Y-77755000D01*
X101647627Y-77761401D01*
X101647620Y-77761403D01*
X101512913Y-77811645D01*
X101512906Y-77811649D01*
X101397812Y-77897809D01*
X101397809Y-77897812D01*
X101311649Y-78012906D01*
X101311645Y-78012913D01*
X101261403Y-78147620D01*
X101261401Y-78147627D01*
X101255000Y-78207155D01*
X96460500Y-78207155D01*
X96460500Y-74711153D01*
X118519500Y-74711153D01*
X118519500Y-74868846D01*
X118550261Y-75023489D01*
X118550264Y-75023501D01*
X118610602Y-75169172D01*
X118610609Y-75169185D01*
X118698210Y-75300288D01*
X118698213Y-75300292D01*
X118809707Y-75411786D01*
X118809711Y-75411789D01*
X118940814Y-75499390D01*
X118940827Y-75499397D01*
X119086498Y-75559735D01*
X119086503Y-75559737D01*
X119241153Y-75590499D01*
X119241156Y-75590500D01*
X119241158Y-75590500D01*
X119398844Y-75590500D01*
X119398845Y-75590499D01*
X119553497Y-75559737D01*
X119699179Y-75499394D01*
X119830289Y-75411789D01*
X119941789Y-75300289D01*
X120029394Y-75169179D01*
X120089737Y-75023497D01*
X120120500Y-74868842D01*
X120120500Y-74711158D01*
X120120500Y-74711155D01*
X120120499Y-74711153D01*
X120089738Y-74556510D01*
X120089737Y-74556503D01*
X120089735Y-74556498D01*
X120029397Y-74410827D01*
X120029390Y-74410814D01*
X119941789Y-74279711D01*
X119941786Y-74279707D01*
X119830292Y-74168213D01*
X119830288Y-74168210D01*
X119699185Y-74080609D01*
X119699172Y-74080602D01*
X119553501Y-74020264D01*
X119553489Y-74020261D01*
X119398845Y-73989500D01*
X119398842Y-73989500D01*
X119241158Y-73989500D01*
X119241155Y-73989500D01*
X119086510Y-74020261D01*
X119086498Y-74020264D01*
X118940827Y-74080602D01*
X118940814Y-74080609D01*
X118809711Y-74168210D01*
X118809707Y-74168213D01*
X118698213Y-74279707D01*
X118698210Y-74279711D01*
X118610609Y-74410814D01*
X118610602Y-74410827D01*
X118550264Y-74556498D01*
X118550261Y-74556510D01*
X118519500Y-74711153D01*
X96460500Y-74711153D01*
X96460500Y-72113750D01*
X96460726Y-72106263D01*
X96478271Y-71816205D01*
X96480076Y-71801340D01*
X96480077Y-71801338D01*
X96531780Y-71519197D01*
X96535364Y-71504663D01*
X96620698Y-71230818D01*
X96625998Y-71216841D01*
X96743731Y-70955249D01*
X96750676Y-70942016D01*
X96899080Y-70696526D01*
X96907567Y-70684230D01*
X97084480Y-70458417D01*
X97094395Y-70447226D01*
X97297229Y-70244393D01*
X97308417Y-70234480D01*
X97534230Y-70057567D01*
X97546526Y-70049080D01*
X97792016Y-69900676D01*
X97805249Y-69893731D01*
X98066841Y-69775998D01*
X98080822Y-69770696D01*
X98354668Y-69685362D01*
X98369197Y-69681780D01*
X98651344Y-69630075D01*
X98666201Y-69628271D01*
X98956264Y-69610726D01*
X98963751Y-69610500D01*
X99025892Y-69610500D01*
X133938283Y-69610500D01*
X133938287Y-69610501D01*
G37*
%TD.AperFunction*%
%TD*%
M02*
