%TF.GenerationSoftware,KiCad,Pcbnew,9.0.6*%
%TF.CreationDate,2026-01-15T19:42:43+05:30*%
%TF.ProjectId,GPS TRACKER USING STM32,47505320-5452-4414-934b-455220555349,rev?*%
%TF.SameCoordinates,Original*%
%TF.FileFunction,Drillmap*%
%TF.FilePolarity,Positive*%
%FSLAX45Y45*%
G04 Gerber Fmt 4.5, Leading zero omitted, Abs format (unit mm)*
G04 Created by KiCad (PCBNEW 9.0.6) date 2026-01-15 19:42:43*
%MOMM*%
%LPD*%
G01*
G04 APERTURE LIST*
%ADD10C,0.050000*%
%ADD11C,0.200000*%
%ADD12C,0.100000*%
%ADD13C,0.110000*%
%ADD14C,0.250000*%
G04 APERTURE END LIST*
D10*
X9596000Y-7211000D02*
G75*
G02*
X9896000Y-6911000I300000J0D01*
G01*
X13400417Y-6911000D02*
G75*
G02*
X13700420Y-7211000I3J-300000D01*
G01*
X9896000Y-12876000D02*
G75*
G02*
X9596000Y-12576000I0J300000D01*
G01*
X13700417Y-12576000D02*
G75*
G02*
X13400417Y-12875997I-299998J0D01*
G01*
X9596000Y-12576000D02*
X9596000Y-7211000D01*
X13700417Y-7211000D02*
X13700417Y-12576000D01*
X9896000Y-6911000D02*
X13400417Y-6911000D01*
X13400417Y-12876000D02*
X9896000Y-12876000D01*
D11*
D12*
X10242000Y-10875000D02*
X10272000Y-10905000D01*
X10272000Y-10875000D02*
X10242000Y-10905000D01*
X10243000Y-10551000D02*
X10273000Y-10581000D01*
X10273000Y-10551000D02*
X10243000Y-10581000D01*
X10315000Y-10624000D02*
X10345000Y-10654000D01*
X10345000Y-10624000D02*
X10315000Y-10654000D01*
X10394000Y-10463000D02*
X10424000Y-10493000D01*
X10424000Y-10463000D02*
X10394000Y-10493000D01*
X10572000Y-11480000D02*
X10602000Y-11510000D01*
X10602000Y-11480000D02*
X10572000Y-11510000D01*
X10802291Y-10531700D02*
X10832291Y-10561700D01*
X10832291Y-10531700D02*
X10802291Y-10561700D01*
X10834000Y-10790000D02*
X10864000Y-10820000D01*
X10864000Y-10790000D02*
X10834000Y-10820000D01*
X10872364Y-10481000D02*
X10902364Y-10511000D01*
X10902364Y-10481000D02*
X10872364Y-10511000D01*
X10889100Y-10732000D02*
X10919100Y-10762000D01*
X10919100Y-10732000D02*
X10889100Y-10762000D01*
X10972405Y-10612600D02*
X11002405Y-10642600D01*
X11002405Y-10612600D02*
X10972405Y-10642600D01*
X11004250Y-10732600D02*
X11034250Y-10762600D01*
X11034250Y-10732600D02*
X11004250Y-10762600D01*
X11061000Y-10459000D02*
X11091000Y-10489000D01*
X11091000Y-10459000D02*
X11061000Y-10489000D01*
X11116614Y-10879581D02*
X11146614Y-10909581D01*
X11146614Y-10879581D02*
X11116614Y-10909581D01*
X11138000Y-10612600D02*
X11168000Y-10642600D01*
X11168000Y-10612600D02*
X11138000Y-10642600D01*
X11145000Y-11504000D02*
X11175000Y-11534000D01*
X11175000Y-11504000D02*
X11145000Y-11534000D01*
X11271073Y-10752074D02*
X11301073Y-10782074D01*
X11301073Y-10752074D02*
X11271073Y-10782074D01*
X11414000Y-7789000D02*
X11444000Y-7819000D01*
X11444000Y-7789000D02*
X11414000Y-7819000D01*
X11513175Y-10163000D02*
X11543175Y-10193000D01*
X11543175Y-10163000D02*
X11513175Y-10193000D01*
X11518000Y-10896100D02*
X11548000Y-10926100D01*
X11548000Y-10896100D02*
X11518000Y-10926100D01*
X11570000Y-10491000D02*
X11600000Y-10521000D01*
X11600000Y-10491000D02*
X11570000Y-10521000D01*
X11595000Y-10169000D02*
X11625000Y-10199000D01*
X11625000Y-10169000D02*
X11595000Y-10199000D01*
X11687000Y-10552000D02*
X11717000Y-10582000D01*
X11717000Y-10552000D02*
X11687000Y-10582000D01*
X11731500Y-10672982D02*
X11761500Y-10702982D01*
X11761500Y-10672982D02*
X11731500Y-10702982D01*
X11824000Y-10905000D02*
X11854000Y-10935000D01*
X11854000Y-10905000D02*
X11824000Y-10935000D01*
X11887000Y-11640000D02*
X11917000Y-11670000D01*
X11917000Y-11640000D02*
X11887000Y-11670000D01*
X11917000Y-7464000D02*
X11947000Y-7494000D01*
X11947000Y-7464000D02*
X11917000Y-7494000D01*
X12020000Y-10914000D02*
X12050000Y-10944000D01*
X12050000Y-10914000D02*
X12020000Y-10944000D01*
X12092522Y-9929588D02*
X12122522Y-9959588D01*
X12122522Y-9929588D02*
X12092522Y-9959588D01*
X12147410Y-9988713D02*
X12177410Y-10018713D01*
X12177410Y-9988713D02*
X12147410Y-10018713D01*
X12243000Y-11655000D02*
X12273000Y-11685000D01*
X12273000Y-11655000D02*
X12243000Y-11685000D01*
X12291000Y-11078000D02*
X12321000Y-11108000D01*
X12321000Y-11078000D02*
X12291000Y-11108000D01*
X12317000Y-9139000D02*
X12347000Y-9169000D01*
X12347000Y-9139000D02*
X12317000Y-9169000D01*
X12330000Y-11187000D02*
X12360000Y-11217000D01*
X12360000Y-11187000D02*
X12330000Y-11217000D01*
X12335000Y-9783000D02*
X12365000Y-9813000D01*
X12365000Y-9783000D02*
X12335000Y-9813000D01*
X12740000Y-9744000D02*
X12770000Y-9774000D01*
X12770000Y-9744000D02*
X12740000Y-9774000D01*
X13176000Y-9694000D02*
X13206000Y-9724000D01*
X13206000Y-9694000D02*
X13176000Y-9724000D01*
X11639000Y-8212000D02*
G75*
G02*
X11609000Y-8212000I-15000J0D01*
G01*
X11609000Y-8212000D02*
G75*
G02*
X11639000Y-8212000I15000J0D01*
G01*
X11639000Y-8322000D02*
G75*
G02*
X11609000Y-8322000I-15000J0D01*
G01*
X11609000Y-8322000D02*
G75*
G02*
X11639000Y-8322000I15000J0D01*
G01*
X11639000Y-8452000D02*
G75*
G02*
X11609000Y-8452000I-15000J0D01*
G01*
X11609000Y-8452000D02*
G75*
G02*
X11639000Y-8452000I15000J0D01*
G01*
X11639000Y-8572000D02*
G75*
G02*
X11609000Y-8572000I-15000J0D01*
G01*
X11609000Y-8572000D02*
G75*
G02*
X11639000Y-8572000I15000J0D01*
G01*
X11759000Y-8212000D02*
G75*
G02*
X11729000Y-8212000I-15000J0D01*
G01*
X11729000Y-8212000D02*
G75*
G02*
X11759000Y-8212000I15000J0D01*
G01*
X11759000Y-8322000D02*
G75*
G02*
X11729000Y-8322000I-15000J0D01*
G01*
X11729000Y-8322000D02*
G75*
G02*
X11759000Y-8322000I15000J0D01*
G01*
X11759000Y-8452000D02*
G75*
G02*
X11729000Y-8452000I-15000J0D01*
G01*
X11729000Y-8452000D02*
G75*
G02*
X11759000Y-8452000I15000J0D01*
G01*
X11759000Y-8572000D02*
G75*
G02*
X11729000Y-8572000I-15000J0D01*
G01*
X11729000Y-8572000D02*
G75*
G02*
X11759000Y-8572000I15000J0D01*
G01*
X9702083Y-12559417D02*
X9702083Y-12609417D01*
X9677083Y-12584417D02*
X9727083Y-12584417D01*
X9715500Y-7182000D02*
X9715500Y-7232000D01*
X9690500Y-7207000D02*
X9740500Y-7207000D01*
X9757000Y-12426835D02*
X9757000Y-12476835D01*
X9732000Y-12451835D02*
X9782000Y-12451835D01*
X9757000Y-12692000D02*
X9757000Y-12742000D01*
X9732000Y-12717000D02*
X9782000Y-12717000D01*
X9770418Y-7049417D02*
X9770418Y-7099417D01*
X9745418Y-7074417D02*
X9795418Y-7074417D01*
X9770418Y-7314582D02*
X9770418Y-7364582D01*
X9745418Y-7339582D02*
X9795418Y-7339582D01*
X9889583Y-12371917D02*
X9889583Y-12421917D01*
X9864583Y-12396917D02*
X9914583Y-12396917D01*
X9889583Y-12746917D02*
X9889583Y-12796917D01*
X9864583Y-12771917D02*
X9914583Y-12771917D01*
X9903000Y-6994500D02*
X9903000Y-7044500D01*
X9878000Y-7019500D02*
X9928000Y-7019500D01*
X9903000Y-7369500D02*
X9903000Y-7419500D01*
X9878000Y-7394500D02*
X9928000Y-7394500D01*
X10022165Y-12426835D02*
X10022165Y-12476835D01*
X9997165Y-12451835D02*
X10047165Y-12451835D01*
X10022165Y-12692000D02*
X10022165Y-12742000D01*
X9997165Y-12717000D02*
X10047165Y-12717000D01*
X10035583Y-7049417D02*
X10035583Y-7099417D01*
X10010583Y-7074417D02*
X10060583Y-7074417D01*
X10035583Y-7314582D02*
X10035583Y-7364582D01*
X10010583Y-7339582D02*
X10060583Y-7339582D01*
X10077083Y-12559417D02*
X10077083Y-12609417D01*
X10052083Y-12584417D02*
X10102083Y-12584417D01*
X10090500Y-7182000D02*
X10090500Y-7232000D01*
X10065500Y-7207000D02*
X10115500Y-7207000D01*
X13221500Y-12555000D02*
X13221500Y-12605000D01*
X13196500Y-12580000D02*
X13246500Y-12580000D01*
X13223000Y-7176000D02*
X13223000Y-7226000D01*
X13198000Y-7201000D02*
X13248000Y-7201000D01*
X13276417Y-12422417D02*
X13276417Y-12472417D01*
X13251417Y-12447417D02*
X13301417Y-12447417D01*
X13276417Y-12687582D02*
X13276417Y-12737582D01*
X13251417Y-12712582D02*
X13301417Y-12712582D01*
X13277917Y-7043417D02*
X13277917Y-7093417D01*
X13252917Y-7068417D02*
X13302917Y-7068417D01*
X13277917Y-7308582D02*
X13277917Y-7358582D01*
X13252917Y-7333582D02*
X13302917Y-7333582D01*
X13409000Y-12367500D02*
X13409000Y-12417500D01*
X13384000Y-12392500D02*
X13434000Y-12392500D01*
X13409000Y-12742500D02*
X13409000Y-12792500D01*
X13384000Y-12767500D02*
X13434000Y-12767500D01*
X13410500Y-6988500D02*
X13410500Y-7038500D01*
X13385500Y-7013500D02*
X13435500Y-7013500D01*
X13410500Y-7363500D02*
X13410500Y-7413500D01*
X13385500Y-7388500D02*
X13435500Y-7388500D01*
X13541582Y-12422417D02*
X13541582Y-12472417D01*
X13516582Y-12447417D02*
X13566582Y-12447417D01*
X13541582Y-12687582D02*
X13541582Y-12737582D01*
X13516582Y-12712582D02*
X13566582Y-12712582D01*
X13543082Y-7043417D02*
X13543082Y-7093417D01*
X13518082Y-7068417D02*
X13568082Y-7068417D01*
X13543082Y-7308582D02*
X13543082Y-7358582D01*
X13518082Y-7333582D02*
X13568082Y-7333582D01*
X13596500Y-12555000D02*
X13596500Y-12605000D01*
X13571500Y-12580000D02*
X13621500Y-12580000D01*
X13598000Y-7176000D02*
X13598000Y-7226000D01*
X13573000Y-7201000D02*
X13623000Y-7201000D01*
X9867356Y-9700356D02*
X9867356Y-9629644D01*
X9796644Y-9629644D01*
X9796644Y-9700356D01*
X9867356Y-9700356D01*
X9867356Y-9954356D02*
X9867356Y-9883644D01*
X9796644Y-9883644D01*
X9796644Y-9954356D01*
X9867356Y-9954356D01*
X9867356Y-10208356D02*
X9867356Y-10137644D01*
X9796644Y-10137644D01*
X9796644Y-10208356D01*
X9867356Y-10208356D01*
X9867356Y-10462356D02*
X9867356Y-10391644D01*
X9796644Y-10391644D01*
X9796644Y-10462356D01*
X9867356Y-10462356D01*
X9867356Y-10716356D02*
X9867356Y-10645644D01*
X9796644Y-10645644D01*
X9796644Y-10716356D01*
X9867356Y-10716356D01*
X9867356Y-10970356D02*
X9867356Y-10899644D01*
X9796644Y-10899644D01*
X9796644Y-10970356D01*
X9867356Y-10970356D01*
X9867356Y-11224356D02*
X9867356Y-11153644D01*
X9796644Y-11153644D01*
X9796644Y-11224356D01*
X9867356Y-11224356D01*
X9867356Y-11478356D02*
X9867356Y-11407644D01*
X9796644Y-11407644D01*
X9796644Y-11478356D01*
X9867356Y-11478356D01*
X13452356Y-9676356D02*
X13452356Y-9605644D01*
X13381644Y-9605644D01*
X13381644Y-9676356D01*
X13452356Y-9676356D01*
X13452356Y-9930356D02*
X13452356Y-9859644D01*
X13381644Y-9859644D01*
X13381644Y-9930356D01*
X13452356Y-9930356D01*
X13452356Y-10184356D02*
X13452356Y-10113644D01*
X13381644Y-10113644D01*
X13381644Y-10184356D01*
X13452356Y-10184356D01*
X13452356Y-10438356D02*
X13452356Y-10367644D01*
X13381644Y-10367644D01*
X13381644Y-10438356D01*
X13452356Y-10438356D01*
X13452356Y-10692356D02*
X13452356Y-10621644D01*
X13381644Y-10621644D01*
X13381644Y-10692356D01*
X13452356Y-10692356D01*
X13452356Y-10946356D02*
X13452356Y-10875644D01*
X13381644Y-10875644D01*
X13381644Y-10946356D01*
X13452356Y-10946356D01*
X13452356Y-11200356D02*
X13452356Y-11129644D01*
X13381644Y-11129644D01*
X13381644Y-11200356D01*
X13452356Y-11200356D01*
X13452356Y-11454356D02*
X13452356Y-11383644D01*
X13381644Y-11383644D01*
X13381644Y-11454356D01*
X13452356Y-11454356D01*
D13*
X10258000Y-7963000D02*
X10313000Y-7908000D01*
X10258000Y-7853000D01*
X10203000Y-7908000D01*
X10258000Y-7963000D01*
X10766000Y-7963000D02*
X10821000Y-7908000D01*
X10766000Y-7853000D01*
X10711000Y-7908000D01*
X10766000Y-7963000D01*
D14*
X9764583Y-12459417D02*
X10014583Y-12709417D01*
X10014583Y-12459417D02*
X9764583Y-12709417D01*
X10014583Y-12584417D02*
G75*
G02*
X9764583Y-12584417I-125000J0D01*
G01*
X9764583Y-12584417D02*
G75*
G02*
X10014583Y-12584417I125000J0D01*
G01*
X9778000Y-7082000D02*
X10028000Y-7332000D01*
X10028000Y-7082000D02*
X9778000Y-7332000D01*
X10028000Y-7207000D02*
G75*
G02*
X9778000Y-7207000I-125000J0D01*
G01*
X9778000Y-7207000D02*
G75*
G02*
X10028000Y-7207000I125000J0D01*
G01*
X13284000Y-12455000D02*
X13534000Y-12705000D01*
X13534000Y-12455000D02*
X13284000Y-12705000D01*
X13534000Y-12580000D02*
G75*
G02*
X13284000Y-12580000I-125000J0D01*
G01*
X13284000Y-12580000D02*
G75*
G02*
X13534000Y-12580000I125000J0D01*
G01*
X13285500Y-7076000D02*
X13535500Y-7326000D01*
X13535500Y-7076000D02*
X13285500Y-7326000D01*
X13535500Y-7201000D02*
G75*
G02*
X13285500Y-7201000I-125000J0D01*
G01*
X13285500Y-7201000D02*
G75*
G02*
X13535500Y-7201000I125000J0D01*
G01*
D11*
X9854277Y-13189984D02*
X9854277Y-12989984D01*
X9854277Y-12989984D02*
X9901896Y-12989984D01*
X9901896Y-12989984D02*
X9930467Y-12999508D01*
X9930467Y-12999508D02*
X9949515Y-13018555D01*
X9949515Y-13018555D02*
X9959039Y-13037603D01*
X9959039Y-13037603D02*
X9968563Y-13075698D01*
X9968563Y-13075698D02*
X9968563Y-13104269D01*
X9968563Y-13104269D02*
X9959039Y-13142365D01*
X9959039Y-13142365D02*
X9949515Y-13161412D01*
X9949515Y-13161412D02*
X9930467Y-13180460D01*
X9930467Y-13180460D02*
X9901896Y-13189984D01*
X9901896Y-13189984D02*
X9854277Y-13189984D01*
X10054277Y-13189984D02*
X10054277Y-13056650D01*
X10054277Y-13094746D02*
X10063801Y-13075698D01*
X10063801Y-13075698D02*
X10073324Y-13066174D01*
X10073324Y-13066174D02*
X10092372Y-13056650D01*
X10092372Y-13056650D02*
X10111420Y-13056650D01*
X10178086Y-13189984D02*
X10178086Y-13056650D01*
X10178086Y-12989984D02*
X10168563Y-12999508D01*
X10168563Y-12999508D02*
X10178086Y-13009031D01*
X10178086Y-13009031D02*
X10187610Y-12999508D01*
X10187610Y-12999508D02*
X10178086Y-12989984D01*
X10178086Y-12989984D02*
X10178086Y-13009031D01*
X10301896Y-13189984D02*
X10282848Y-13180460D01*
X10282848Y-13180460D02*
X10273324Y-13161412D01*
X10273324Y-13161412D02*
X10273324Y-12989984D01*
X10406658Y-13189984D02*
X10387610Y-13180460D01*
X10387610Y-13180460D02*
X10378086Y-13161412D01*
X10378086Y-13161412D02*
X10378086Y-12989984D01*
X10635229Y-13189984D02*
X10635229Y-12989984D01*
X10635229Y-12989984D02*
X10701896Y-13132841D01*
X10701896Y-13132841D02*
X10768563Y-12989984D01*
X10768563Y-12989984D02*
X10768563Y-13189984D01*
X10949515Y-13189984D02*
X10949515Y-13085222D01*
X10949515Y-13085222D02*
X10939991Y-13066174D01*
X10939991Y-13066174D02*
X10920944Y-13056650D01*
X10920944Y-13056650D02*
X10882848Y-13056650D01*
X10882848Y-13056650D02*
X10863801Y-13066174D01*
X10949515Y-13180460D02*
X10930467Y-13189984D01*
X10930467Y-13189984D02*
X10882848Y-13189984D01*
X10882848Y-13189984D02*
X10863801Y-13180460D01*
X10863801Y-13180460D02*
X10854277Y-13161412D01*
X10854277Y-13161412D02*
X10854277Y-13142365D01*
X10854277Y-13142365D02*
X10863801Y-13123317D01*
X10863801Y-13123317D02*
X10882848Y-13113793D01*
X10882848Y-13113793D02*
X10930467Y-13113793D01*
X10930467Y-13113793D02*
X10949515Y-13104269D01*
X11044753Y-13056650D02*
X11044753Y-13256650D01*
X11044753Y-13066174D02*
X11063801Y-13056650D01*
X11063801Y-13056650D02*
X11101896Y-13056650D01*
X11101896Y-13056650D02*
X11120944Y-13066174D01*
X11120944Y-13066174D02*
X11130467Y-13075698D01*
X11130467Y-13075698D02*
X11139991Y-13094746D01*
X11139991Y-13094746D02*
X11139991Y-13151888D01*
X11139991Y-13151888D02*
X11130467Y-13170936D01*
X11130467Y-13170936D02*
X11120944Y-13180460D01*
X11120944Y-13180460D02*
X11101896Y-13189984D01*
X11101896Y-13189984D02*
X11063801Y-13189984D01*
X11063801Y-13189984D02*
X11044753Y-13180460D01*
X11225705Y-13170936D02*
X11235229Y-13180460D01*
X11235229Y-13180460D02*
X11225705Y-13189984D01*
X11225705Y-13189984D02*
X11216182Y-13180460D01*
X11216182Y-13180460D02*
X11225705Y-13170936D01*
X11225705Y-13170936D02*
X11225705Y-13189984D01*
X11225705Y-13066174D02*
X11235229Y-13075698D01*
X11235229Y-13075698D02*
X11225705Y-13085222D01*
X11225705Y-13085222D02*
X11216182Y-13075698D01*
X11216182Y-13075698D02*
X11225705Y-13066174D01*
X11225705Y-13066174D02*
X11225705Y-13085222D01*
D12*
X9563500Y-13503500D02*
X9593500Y-13533500D01*
X9593500Y-13503500D02*
X9563500Y-13533500D01*
D11*
X9892372Y-13409984D02*
X9911420Y-13409984D01*
X9911420Y-13409984D02*
X9930467Y-13419508D01*
X9930467Y-13419508D02*
X9939991Y-13429031D01*
X9939991Y-13429031D02*
X9949515Y-13448079D01*
X9949515Y-13448079D02*
X9959039Y-13486174D01*
X9959039Y-13486174D02*
X9959039Y-13533793D01*
X9959039Y-13533793D02*
X9949515Y-13571888D01*
X9949515Y-13571888D02*
X9939991Y-13590936D01*
X9939991Y-13590936D02*
X9930467Y-13600460D01*
X9930467Y-13600460D02*
X9911420Y-13609984D01*
X9911420Y-13609984D02*
X9892372Y-13609984D01*
X9892372Y-13609984D02*
X9873324Y-13600460D01*
X9873324Y-13600460D02*
X9863801Y-13590936D01*
X9863801Y-13590936D02*
X9854277Y-13571888D01*
X9854277Y-13571888D02*
X9844753Y-13533793D01*
X9844753Y-13533793D02*
X9844753Y-13486174D01*
X9844753Y-13486174D02*
X9854277Y-13448079D01*
X9854277Y-13448079D02*
X9863801Y-13429031D01*
X9863801Y-13429031D02*
X9873324Y-13419508D01*
X9873324Y-13419508D02*
X9892372Y-13409984D01*
X10044753Y-13590936D02*
X10054277Y-13600460D01*
X10054277Y-13600460D02*
X10044753Y-13609984D01*
X10044753Y-13609984D02*
X10035229Y-13600460D01*
X10035229Y-13600460D02*
X10044753Y-13590936D01*
X10044753Y-13590936D02*
X10044753Y-13609984D01*
X10120944Y-13409984D02*
X10244753Y-13409984D01*
X10244753Y-13409984D02*
X10178086Y-13486174D01*
X10178086Y-13486174D02*
X10206658Y-13486174D01*
X10206658Y-13486174D02*
X10225705Y-13495698D01*
X10225705Y-13495698D02*
X10235229Y-13505222D01*
X10235229Y-13505222D02*
X10244753Y-13524269D01*
X10244753Y-13524269D02*
X10244753Y-13571888D01*
X10244753Y-13571888D02*
X10235229Y-13590936D01*
X10235229Y-13590936D02*
X10225705Y-13600460D01*
X10225705Y-13600460D02*
X10206658Y-13609984D01*
X10206658Y-13609984D02*
X10149515Y-13609984D01*
X10149515Y-13609984D02*
X10130467Y-13600460D01*
X10130467Y-13600460D02*
X10120944Y-13590936D01*
X10368563Y-13409984D02*
X10387610Y-13409984D01*
X10387610Y-13409984D02*
X10406658Y-13419508D01*
X10406658Y-13419508D02*
X10416182Y-13429031D01*
X10416182Y-13429031D02*
X10425705Y-13448079D01*
X10425705Y-13448079D02*
X10435229Y-13486174D01*
X10435229Y-13486174D02*
X10435229Y-13533793D01*
X10435229Y-13533793D02*
X10425705Y-13571888D01*
X10425705Y-13571888D02*
X10416182Y-13590936D01*
X10416182Y-13590936D02*
X10406658Y-13600460D01*
X10406658Y-13600460D02*
X10387610Y-13609984D01*
X10387610Y-13609984D02*
X10368563Y-13609984D01*
X10368563Y-13609984D02*
X10349515Y-13600460D01*
X10349515Y-13600460D02*
X10339991Y-13590936D01*
X10339991Y-13590936D02*
X10330467Y-13571888D01*
X10330467Y-13571888D02*
X10320944Y-13533793D01*
X10320944Y-13533793D02*
X10320944Y-13486174D01*
X10320944Y-13486174D02*
X10330467Y-13448079D01*
X10330467Y-13448079D02*
X10339991Y-13429031D01*
X10339991Y-13429031D02*
X10349515Y-13419508D01*
X10349515Y-13419508D02*
X10368563Y-13409984D01*
X10559039Y-13409984D02*
X10578086Y-13409984D01*
X10578086Y-13409984D02*
X10597134Y-13419508D01*
X10597134Y-13419508D02*
X10606658Y-13429031D01*
X10606658Y-13429031D02*
X10616182Y-13448079D01*
X10616182Y-13448079D02*
X10625705Y-13486174D01*
X10625705Y-13486174D02*
X10625705Y-13533793D01*
X10625705Y-13533793D02*
X10616182Y-13571888D01*
X10616182Y-13571888D02*
X10606658Y-13590936D01*
X10606658Y-13590936D02*
X10597134Y-13600460D01*
X10597134Y-13600460D02*
X10578086Y-13609984D01*
X10578086Y-13609984D02*
X10559039Y-13609984D01*
X10559039Y-13609984D02*
X10539991Y-13600460D01*
X10539991Y-13600460D02*
X10530467Y-13590936D01*
X10530467Y-13590936D02*
X10520944Y-13571888D01*
X10520944Y-13571888D02*
X10511420Y-13533793D01*
X10511420Y-13533793D02*
X10511420Y-13486174D01*
X10511420Y-13486174D02*
X10520944Y-13448079D01*
X10520944Y-13448079D02*
X10530467Y-13429031D01*
X10530467Y-13429031D02*
X10539991Y-13419508D01*
X10539991Y-13419508D02*
X10559039Y-13409984D01*
X10711420Y-13609984D02*
X10711420Y-13476650D01*
X10711420Y-13495698D02*
X10720944Y-13486174D01*
X10720944Y-13486174D02*
X10739991Y-13476650D01*
X10739991Y-13476650D02*
X10768563Y-13476650D01*
X10768563Y-13476650D02*
X10787610Y-13486174D01*
X10787610Y-13486174D02*
X10797134Y-13505222D01*
X10797134Y-13505222D02*
X10797134Y-13609984D01*
X10797134Y-13505222D02*
X10806658Y-13486174D01*
X10806658Y-13486174D02*
X10825705Y-13476650D01*
X10825705Y-13476650D02*
X10854277Y-13476650D01*
X10854277Y-13476650D02*
X10873325Y-13486174D01*
X10873325Y-13486174D02*
X10882848Y-13505222D01*
X10882848Y-13505222D02*
X10882848Y-13609984D01*
X10978086Y-13609984D02*
X10978086Y-13476650D01*
X10978086Y-13495698D02*
X10987610Y-13486174D01*
X10987610Y-13486174D02*
X11006658Y-13476650D01*
X11006658Y-13476650D02*
X11035229Y-13476650D01*
X11035229Y-13476650D02*
X11054277Y-13486174D01*
X11054277Y-13486174D02*
X11063801Y-13505222D01*
X11063801Y-13505222D02*
X11063801Y-13609984D01*
X11063801Y-13505222D02*
X11073325Y-13486174D01*
X11073325Y-13486174D02*
X11092372Y-13476650D01*
X11092372Y-13476650D02*
X11120944Y-13476650D01*
X11120944Y-13476650D02*
X11139991Y-13486174D01*
X11139991Y-13486174D02*
X11149515Y-13505222D01*
X11149515Y-13505222D02*
X11149515Y-13609984D01*
X11539991Y-13400460D02*
X11368563Y-13657603D01*
X11797134Y-13409984D02*
X11816182Y-13409984D01*
X11816182Y-13409984D02*
X11835229Y-13419508D01*
X11835229Y-13419508D02*
X11844753Y-13429031D01*
X11844753Y-13429031D02*
X11854277Y-13448079D01*
X11854277Y-13448079D02*
X11863801Y-13486174D01*
X11863801Y-13486174D02*
X11863801Y-13533793D01*
X11863801Y-13533793D02*
X11854277Y-13571888D01*
X11854277Y-13571888D02*
X11844753Y-13590936D01*
X11844753Y-13590936D02*
X11835229Y-13600460D01*
X11835229Y-13600460D02*
X11816182Y-13609984D01*
X11816182Y-13609984D02*
X11797134Y-13609984D01*
X11797134Y-13609984D02*
X11778086Y-13600460D01*
X11778086Y-13600460D02*
X11768563Y-13590936D01*
X11768563Y-13590936D02*
X11759039Y-13571888D01*
X11759039Y-13571888D02*
X11749515Y-13533793D01*
X11749515Y-13533793D02*
X11749515Y-13486174D01*
X11749515Y-13486174D02*
X11759039Y-13448079D01*
X11759039Y-13448079D02*
X11768563Y-13429031D01*
X11768563Y-13429031D02*
X11778086Y-13419508D01*
X11778086Y-13419508D02*
X11797134Y-13409984D01*
X11949515Y-13590936D02*
X11959039Y-13600460D01*
X11959039Y-13600460D02*
X11949515Y-13609984D01*
X11949515Y-13609984D02*
X11939991Y-13600460D01*
X11939991Y-13600460D02*
X11949515Y-13590936D01*
X11949515Y-13590936D02*
X11949515Y-13609984D01*
X12082848Y-13409984D02*
X12101896Y-13409984D01*
X12101896Y-13409984D02*
X12120944Y-13419508D01*
X12120944Y-13419508D02*
X12130467Y-13429031D01*
X12130467Y-13429031D02*
X12139991Y-13448079D01*
X12139991Y-13448079D02*
X12149515Y-13486174D01*
X12149515Y-13486174D02*
X12149515Y-13533793D01*
X12149515Y-13533793D02*
X12139991Y-13571888D01*
X12139991Y-13571888D02*
X12130467Y-13590936D01*
X12130467Y-13590936D02*
X12120944Y-13600460D01*
X12120944Y-13600460D02*
X12101896Y-13609984D01*
X12101896Y-13609984D02*
X12082848Y-13609984D01*
X12082848Y-13609984D02*
X12063801Y-13600460D01*
X12063801Y-13600460D02*
X12054277Y-13590936D01*
X12054277Y-13590936D02*
X12044753Y-13571888D01*
X12044753Y-13571888D02*
X12035229Y-13533793D01*
X12035229Y-13533793D02*
X12035229Y-13486174D01*
X12035229Y-13486174D02*
X12044753Y-13448079D01*
X12044753Y-13448079D02*
X12054277Y-13429031D01*
X12054277Y-13429031D02*
X12063801Y-13419508D01*
X12063801Y-13419508D02*
X12082848Y-13409984D01*
X12339991Y-13609984D02*
X12225706Y-13609984D01*
X12282848Y-13609984D02*
X12282848Y-13409984D01*
X12282848Y-13409984D02*
X12263801Y-13438555D01*
X12263801Y-13438555D02*
X12244753Y-13457603D01*
X12244753Y-13457603D02*
X12225706Y-13467127D01*
X12530467Y-13609984D02*
X12416182Y-13609984D01*
X12473325Y-13609984D02*
X12473325Y-13409984D01*
X12473325Y-13409984D02*
X12454277Y-13438555D01*
X12454277Y-13438555D02*
X12435229Y-13457603D01*
X12435229Y-13457603D02*
X12416182Y-13467127D01*
X12644753Y-13495698D02*
X12625706Y-13486174D01*
X12625706Y-13486174D02*
X12616182Y-13476650D01*
X12616182Y-13476650D02*
X12606658Y-13457603D01*
X12606658Y-13457603D02*
X12606658Y-13448079D01*
X12606658Y-13448079D02*
X12616182Y-13429031D01*
X12616182Y-13429031D02*
X12625706Y-13419508D01*
X12625706Y-13419508D02*
X12644753Y-13409984D01*
X12644753Y-13409984D02*
X12682848Y-13409984D01*
X12682848Y-13409984D02*
X12701896Y-13419508D01*
X12701896Y-13419508D02*
X12711420Y-13429031D01*
X12711420Y-13429031D02*
X12720944Y-13448079D01*
X12720944Y-13448079D02*
X12720944Y-13457603D01*
X12720944Y-13457603D02*
X12711420Y-13476650D01*
X12711420Y-13476650D02*
X12701896Y-13486174D01*
X12701896Y-13486174D02*
X12682848Y-13495698D01*
X12682848Y-13495698D02*
X12644753Y-13495698D01*
X12644753Y-13495698D02*
X12625706Y-13505222D01*
X12625706Y-13505222D02*
X12616182Y-13514746D01*
X12616182Y-13514746D02*
X12606658Y-13533793D01*
X12606658Y-13533793D02*
X12606658Y-13571888D01*
X12606658Y-13571888D02*
X12616182Y-13590936D01*
X12616182Y-13590936D02*
X12625706Y-13600460D01*
X12625706Y-13600460D02*
X12644753Y-13609984D01*
X12644753Y-13609984D02*
X12682848Y-13609984D01*
X12682848Y-13609984D02*
X12701896Y-13600460D01*
X12701896Y-13600460D02*
X12711420Y-13590936D01*
X12711420Y-13590936D02*
X12720944Y-13571888D01*
X12720944Y-13571888D02*
X12720944Y-13533793D01*
X12720944Y-13533793D02*
X12711420Y-13514746D01*
X12711420Y-13514746D02*
X12701896Y-13505222D01*
X12701896Y-13505222D02*
X12682848Y-13495698D01*
X12797134Y-13409984D02*
X12797134Y-13448079D01*
X12873325Y-13409984D02*
X12873325Y-13448079D01*
X13168563Y-13686174D02*
X13159039Y-13676650D01*
X13159039Y-13676650D02*
X13139991Y-13648079D01*
X13139991Y-13648079D02*
X13130468Y-13629031D01*
X13130468Y-13629031D02*
X13120944Y-13600460D01*
X13120944Y-13600460D02*
X13111420Y-13552841D01*
X13111420Y-13552841D02*
X13111420Y-13514746D01*
X13111420Y-13514746D02*
X13120944Y-13467127D01*
X13120944Y-13467127D02*
X13130468Y-13438555D01*
X13130468Y-13438555D02*
X13139991Y-13419508D01*
X13139991Y-13419508D02*
X13159039Y-13390936D01*
X13159039Y-13390936D02*
X13168563Y-13381412D01*
X13225706Y-13409984D02*
X13349515Y-13409984D01*
X13349515Y-13409984D02*
X13282848Y-13486174D01*
X13282848Y-13486174D02*
X13311420Y-13486174D01*
X13311420Y-13486174D02*
X13330468Y-13495698D01*
X13330468Y-13495698D02*
X13339991Y-13505222D01*
X13339991Y-13505222D02*
X13349515Y-13524269D01*
X13349515Y-13524269D02*
X13349515Y-13571888D01*
X13349515Y-13571888D02*
X13339991Y-13590936D01*
X13339991Y-13590936D02*
X13330468Y-13600460D01*
X13330468Y-13600460D02*
X13311420Y-13609984D01*
X13311420Y-13609984D02*
X13254277Y-13609984D01*
X13254277Y-13609984D02*
X13235229Y-13600460D01*
X13235229Y-13600460D02*
X13225706Y-13590936D01*
X13520944Y-13409984D02*
X13482848Y-13409984D01*
X13482848Y-13409984D02*
X13463801Y-13419508D01*
X13463801Y-13419508D02*
X13454277Y-13429031D01*
X13454277Y-13429031D02*
X13435229Y-13457603D01*
X13435229Y-13457603D02*
X13425706Y-13495698D01*
X13425706Y-13495698D02*
X13425706Y-13571888D01*
X13425706Y-13571888D02*
X13435229Y-13590936D01*
X13435229Y-13590936D02*
X13444753Y-13600460D01*
X13444753Y-13600460D02*
X13463801Y-13609984D01*
X13463801Y-13609984D02*
X13501896Y-13609984D01*
X13501896Y-13609984D02*
X13520944Y-13600460D01*
X13520944Y-13600460D02*
X13530468Y-13590936D01*
X13530468Y-13590936D02*
X13539991Y-13571888D01*
X13539991Y-13571888D02*
X13539991Y-13524269D01*
X13539991Y-13524269D02*
X13530468Y-13505222D01*
X13530468Y-13505222D02*
X13520944Y-13495698D01*
X13520944Y-13495698D02*
X13501896Y-13486174D01*
X13501896Y-13486174D02*
X13463801Y-13486174D01*
X13463801Y-13486174D02*
X13444753Y-13495698D01*
X13444753Y-13495698D02*
X13435229Y-13505222D01*
X13435229Y-13505222D02*
X13425706Y-13524269D01*
X13778087Y-13609984D02*
X13778087Y-13409984D01*
X13863801Y-13609984D02*
X13863801Y-13505222D01*
X13863801Y-13505222D02*
X13854277Y-13486174D01*
X13854277Y-13486174D02*
X13835230Y-13476650D01*
X13835230Y-13476650D02*
X13806658Y-13476650D01*
X13806658Y-13476650D02*
X13787610Y-13486174D01*
X13787610Y-13486174D02*
X13778087Y-13495698D01*
X13987610Y-13609984D02*
X13968563Y-13600460D01*
X13968563Y-13600460D02*
X13959039Y-13590936D01*
X13959039Y-13590936D02*
X13949515Y-13571888D01*
X13949515Y-13571888D02*
X13949515Y-13514746D01*
X13949515Y-13514746D02*
X13959039Y-13495698D01*
X13959039Y-13495698D02*
X13968563Y-13486174D01*
X13968563Y-13486174D02*
X13987610Y-13476650D01*
X13987610Y-13476650D02*
X14016182Y-13476650D01*
X14016182Y-13476650D02*
X14035230Y-13486174D01*
X14035230Y-13486174D02*
X14044753Y-13495698D01*
X14044753Y-13495698D02*
X14054277Y-13514746D01*
X14054277Y-13514746D02*
X14054277Y-13571888D01*
X14054277Y-13571888D02*
X14044753Y-13590936D01*
X14044753Y-13590936D02*
X14035230Y-13600460D01*
X14035230Y-13600460D02*
X14016182Y-13609984D01*
X14016182Y-13609984D02*
X13987610Y-13609984D01*
X14168563Y-13609984D02*
X14149515Y-13600460D01*
X14149515Y-13600460D02*
X14139991Y-13581412D01*
X14139991Y-13581412D02*
X14139991Y-13409984D01*
X14320944Y-13600460D02*
X14301896Y-13609984D01*
X14301896Y-13609984D02*
X14263801Y-13609984D01*
X14263801Y-13609984D02*
X14244753Y-13600460D01*
X14244753Y-13600460D02*
X14235230Y-13581412D01*
X14235230Y-13581412D02*
X14235230Y-13505222D01*
X14235230Y-13505222D02*
X14244753Y-13486174D01*
X14244753Y-13486174D02*
X14263801Y-13476650D01*
X14263801Y-13476650D02*
X14301896Y-13476650D01*
X14301896Y-13476650D02*
X14320944Y-13486174D01*
X14320944Y-13486174D02*
X14330468Y-13505222D01*
X14330468Y-13505222D02*
X14330468Y-13524269D01*
X14330468Y-13524269D02*
X14235230Y-13543317D01*
X14406658Y-13600460D02*
X14425706Y-13609984D01*
X14425706Y-13609984D02*
X14463801Y-13609984D01*
X14463801Y-13609984D02*
X14482849Y-13600460D01*
X14482849Y-13600460D02*
X14492372Y-13581412D01*
X14492372Y-13581412D02*
X14492372Y-13571888D01*
X14492372Y-13571888D02*
X14482849Y-13552841D01*
X14482849Y-13552841D02*
X14463801Y-13543317D01*
X14463801Y-13543317D02*
X14435230Y-13543317D01*
X14435230Y-13543317D02*
X14416182Y-13533793D01*
X14416182Y-13533793D02*
X14406658Y-13514746D01*
X14406658Y-13514746D02*
X14406658Y-13505222D01*
X14406658Y-13505222D02*
X14416182Y-13486174D01*
X14416182Y-13486174D02*
X14435230Y-13476650D01*
X14435230Y-13476650D02*
X14463801Y-13476650D01*
X14463801Y-13476650D02*
X14482849Y-13486174D01*
X14559039Y-13686174D02*
X14568563Y-13676650D01*
X14568563Y-13676650D02*
X14587611Y-13648079D01*
X14587611Y-13648079D02*
X14597134Y-13629031D01*
X14597134Y-13629031D02*
X14606658Y-13600460D01*
X14606658Y-13600460D02*
X14616182Y-13552841D01*
X14616182Y-13552841D02*
X14616182Y-13514746D01*
X14616182Y-13514746D02*
X14606658Y-13467127D01*
X14606658Y-13467127D02*
X14597134Y-13438555D01*
X14597134Y-13438555D02*
X14587611Y-13419508D01*
X14587611Y-13419508D02*
X14568563Y-13390936D01*
X14568563Y-13390936D02*
X14559039Y-13381412D01*
D12*
X9593500Y-13782500D02*
G75*
G02*
X9563500Y-13782500I-15000J0D01*
G01*
X9563500Y-13782500D02*
G75*
G02*
X9593500Y-13782500I15000J0D01*
G01*
D11*
X9892372Y-13673984D02*
X9911420Y-13673984D01*
X9911420Y-13673984D02*
X9930467Y-13683508D01*
X9930467Y-13683508D02*
X9939991Y-13693031D01*
X9939991Y-13693031D02*
X9949515Y-13712079D01*
X9949515Y-13712079D02*
X9959039Y-13750174D01*
X9959039Y-13750174D02*
X9959039Y-13797793D01*
X9959039Y-13797793D02*
X9949515Y-13835888D01*
X9949515Y-13835888D02*
X9939991Y-13854936D01*
X9939991Y-13854936D02*
X9930467Y-13864460D01*
X9930467Y-13864460D02*
X9911420Y-13873984D01*
X9911420Y-13873984D02*
X9892372Y-13873984D01*
X9892372Y-13873984D02*
X9873324Y-13864460D01*
X9873324Y-13864460D02*
X9863801Y-13854936D01*
X9863801Y-13854936D02*
X9854277Y-13835888D01*
X9854277Y-13835888D02*
X9844753Y-13797793D01*
X9844753Y-13797793D02*
X9844753Y-13750174D01*
X9844753Y-13750174D02*
X9854277Y-13712079D01*
X9854277Y-13712079D02*
X9863801Y-13693031D01*
X9863801Y-13693031D02*
X9873324Y-13683508D01*
X9873324Y-13683508D02*
X9892372Y-13673984D01*
X10044753Y-13854936D02*
X10054277Y-13864460D01*
X10054277Y-13864460D02*
X10044753Y-13873984D01*
X10044753Y-13873984D02*
X10035229Y-13864460D01*
X10035229Y-13864460D02*
X10044753Y-13854936D01*
X10044753Y-13854936D02*
X10044753Y-13873984D01*
X10120944Y-13673984D02*
X10244753Y-13673984D01*
X10244753Y-13673984D02*
X10178086Y-13750174D01*
X10178086Y-13750174D02*
X10206658Y-13750174D01*
X10206658Y-13750174D02*
X10225705Y-13759698D01*
X10225705Y-13759698D02*
X10235229Y-13769222D01*
X10235229Y-13769222D02*
X10244753Y-13788269D01*
X10244753Y-13788269D02*
X10244753Y-13835888D01*
X10244753Y-13835888D02*
X10235229Y-13854936D01*
X10235229Y-13854936D02*
X10225705Y-13864460D01*
X10225705Y-13864460D02*
X10206658Y-13873984D01*
X10206658Y-13873984D02*
X10149515Y-13873984D01*
X10149515Y-13873984D02*
X10130467Y-13864460D01*
X10130467Y-13864460D02*
X10120944Y-13854936D01*
X10368563Y-13673984D02*
X10387610Y-13673984D01*
X10387610Y-13673984D02*
X10406658Y-13683508D01*
X10406658Y-13683508D02*
X10416182Y-13693031D01*
X10416182Y-13693031D02*
X10425705Y-13712079D01*
X10425705Y-13712079D02*
X10435229Y-13750174D01*
X10435229Y-13750174D02*
X10435229Y-13797793D01*
X10435229Y-13797793D02*
X10425705Y-13835888D01*
X10425705Y-13835888D02*
X10416182Y-13854936D01*
X10416182Y-13854936D02*
X10406658Y-13864460D01*
X10406658Y-13864460D02*
X10387610Y-13873984D01*
X10387610Y-13873984D02*
X10368563Y-13873984D01*
X10368563Y-13873984D02*
X10349515Y-13864460D01*
X10349515Y-13864460D02*
X10339991Y-13854936D01*
X10339991Y-13854936D02*
X10330467Y-13835888D01*
X10330467Y-13835888D02*
X10320944Y-13797793D01*
X10320944Y-13797793D02*
X10320944Y-13750174D01*
X10320944Y-13750174D02*
X10330467Y-13712079D01*
X10330467Y-13712079D02*
X10339991Y-13693031D01*
X10339991Y-13693031D02*
X10349515Y-13683508D01*
X10349515Y-13683508D02*
X10368563Y-13673984D01*
X10559039Y-13673984D02*
X10578086Y-13673984D01*
X10578086Y-13673984D02*
X10597134Y-13683508D01*
X10597134Y-13683508D02*
X10606658Y-13693031D01*
X10606658Y-13693031D02*
X10616182Y-13712079D01*
X10616182Y-13712079D02*
X10625705Y-13750174D01*
X10625705Y-13750174D02*
X10625705Y-13797793D01*
X10625705Y-13797793D02*
X10616182Y-13835888D01*
X10616182Y-13835888D02*
X10606658Y-13854936D01*
X10606658Y-13854936D02*
X10597134Y-13864460D01*
X10597134Y-13864460D02*
X10578086Y-13873984D01*
X10578086Y-13873984D02*
X10559039Y-13873984D01*
X10559039Y-13873984D02*
X10539991Y-13864460D01*
X10539991Y-13864460D02*
X10530467Y-13854936D01*
X10530467Y-13854936D02*
X10520944Y-13835888D01*
X10520944Y-13835888D02*
X10511420Y-13797793D01*
X10511420Y-13797793D02*
X10511420Y-13750174D01*
X10511420Y-13750174D02*
X10520944Y-13712079D01*
X10520944Y-13712079D02*
X10530467Y-13693031D01*
X10530467Y-13693031D02*
X10539991Y-13683508D01*
X10539991Y-13683508D02*
X10559039Y-13673984D01*
X10711420Y-13873984D02*
X10711420Y-13740650D01*
X10711420Y-13759698D02*
X10720944Y-13750174D01*
X10720944Y-13750174D02*
X10739991Y-13740650D01*
X10739991Y-13740650D02*
X10768563Y-13740650D01*
X10768563Y-13740650D02*
X10787610Y-13750174D01*
X10787610Y-13750174D02*
X10797134Y-13769222D01*
X10797134Y-13769222D02*
X10797134Y-13873984D01*
X10797134Y-13769222D02*
X10806658Y-13750174D01*
X10806658Y-13750174D02*
X10825705Y-13740650D01*
X10825705Y-13740650D02*
X10854277Y-13740650D01*
X10854277Y-13740650D02*
X10873325Y-13750174D01*
X10873325Y-13750174D02*
X10882848Y-13769222D01*
X10882848Y-13769222D02*
X10882848Y-13873984D01*
X10978086Y-13873984D02*
X10978086Y-13740650D01*
X10978086Y-13759698D02*
X10987610Y-13750174D01*
X10987610Y-13750174D02*
X11006658Y-13740650D01*
X11006658Y-13740650D02*
X11035229Y-13740650D01*
X11035229Y-13740650D02*
X11054277Y-13750174D01*
X11054277Y-13750174D02*
X11063801Y-13769222D01*
X11063801Y-13769222D02*
X11063801Y-13873984D01*
X11063801Y-13769222D02*
X11073325Y-13750174D01*
X11073325Y-13750174D02*
X11092372Y-13740650D01*
X11092372Y-13740650D02*
X11120944Y-13740650D01*
X11120944Y-13740650D02*
X11139991Y-13750174D01*
X11139991Y-13750174D02*
X11149515Y-13769222D01*
X11149515Y-13769222D02*
X11149515Y-13873984D01*
X11539991Y-13664460D02*
X11368563Y-13921603D01*
X11797134Y-13673984D02*
X11816182Y-13673984D01*
X11816182Y-13673984D02*
X11835229Y-13683508D01*
X11835229Y-13683508D02*
X11844753Y-13693031D01*
X11844753Y-13693031D02*
X11854277Y-13712079D01*
X11854277Y-13712079D02*
X11863801Y-13750174D01*
X11863801Y-13750174D02*
X11863801Y-13797793D01*
X11863801Y-13797793D02*
X11854277Y-13835888D01*
X11854277Y-13835888D02*
X11844753Y-13854936D01*
X11844753Y-13854936D02*
X11835229Y-13864460D01*
X11835229Y-13864460D02*
X11816182Y-13873984D01*
X11816182Y-13873984D02*
X11797134Y-13873984D01*
X11797134Y-13873984D02*
X11778086Y-13864460D01*
X11778086Y-13864460D02*
X11768563Y-13854936D01*
X11768563Y-13854936D02*
X11759039Y-13835888D01*
X11759039Y-13835888D02*
X11749515Y-13797793D01*
X11749515Y-13797793D02*
X11749515Y-13750174D01*
X11749515Y-13750174D02*
X11759039Y-13712079D01*
X11759039Y-13712079D02*
X11768563Y-13693031D01*
X11768563Y-13693031D02*
X11778086Y-13683508D01*
X11778086Y-13683508D02*
X11797134Y-13673984D01*
X11949515Y-13854936D02*
X11959039Y-13864460D01*
X11959039Y-13864460D02*
X11949515Y-13873984D01*
X11949515Y-13873984D02*
X11939991Y-13864460D01*
X11939991Y-13864460D02*
X11949515Y-13854936D01*
X11949515Y-13854936D02*
X11949515Y-13873984D01*
X12082848Y-13673984D02*
X12101896Y-13673984D01*
X12101896Y-13673984D02*
X12120944Y-13683508D01*
X12120944Y-13683508D02*
X12130467Y-13693031D01*
X12130467Y-13693031D02*
X12139991Y-13712079D01*
X12139991Y-13712079D02*
X12149515Y-13750174D01*
X12149515Y-13750174D02*
X12149515Y-13797793D01*
X12149515Y-13797793D02*
X12139991Y-13835888D01*
X12139991Y-13835888D02*
X12130467Y-13854936D01*
X12130467Y-13854936D02*
X12120944Y-13864460D01*
X12120944Y-13864460D02*
X12101896Y-13873984D01*
X12101896Y-13873984D02*
X12082848Y-13873984D01*
X12082848Y-13873984D02*
X12063801Y-13864460D01*
X12063801Y-13864460D02*
X12054277Y-13854936D01*
X12054277Y-13854936D02*
X12044753Y-13835888D01*
X12044753Y-13835888D02*
X12035229Y-13797793D01*
X12035229Y-13797793D02*
X12035229Y-13750174D01*
X12035229Y-13750174D02*
X12044753Y-13712079D01*
X12044753Y-13712079D02*
X12054277Y-13693031D01*
X12054277Y-13693031D02*
X12063801Y-13683508D01*
X12063801Y-13683508D02*
X12082848Y-13673984D01*
X12339991Y-13873984D02*
X12225706Y-13873984D01*
X12282848Y-13873984D02*
X12282848Y-13673984D01*
X12282848Y-13673984D02*
X12263801Y-13702555D01*
X12263801Y-13702555D02*
X12244753Y-13721603D01*
X12244753Y-13721603D02*
X12225706Y-13731127D01*
X12530467Y-13873984D02*
X12416182Y-13873984D01*
X12473325Y-13873984D02*
X12473325Y-13673984D01*
X12473325Y-13673984D02*
X12454277Y-13702555D01*
X12454277Y-13702555D02*
X12435229Y-13721603D01*
X12435229Y-13721603D02*
X12416182Y-13731127D01*
X12644753Y-13759698D02*
X12625706Y-13750174D01*
X12625706Y-13750174D02*
X12616182Y-13740650D01*
X12616182Y-13740650D02*
X12606658Y-13721603D01*
X12606658Y-13721603D02*
X12606658Y-13712079D01*
X12606658Y-13712079D02*
X12616182Y-13693031D01*
X12616182Y-13693031D02*
X12625706Y-13683508D01*
X12625706Y-13683508D02*
X12644753Y-13673984D01*
X12644753Y-13673984D02*
X12682848Y-13673984D01*
X12682848Y-13673984D02*
X12701896Y-13683508D01*
X12701896Y-13683508D02*
X12711420Y-13693031D01*
X12711420Y-13693031D02*
X12720944Y-13712079D01*
X12720944Y-13712079D02*
X12720944Y-13721603D01*
X12720944Y-13721603D02*
X12711420Y-13740650D01*
X12711420Y-13740650D02*
X12701896Y-13750174D01*
X12701896Y-13750174D02*
X12682848Y-13759698D01*
X12682848Y-13759698D02*
X12644753Y-13759698D01*
X12644753Y-13759698D02*
X12625706Y-13769222D01*
X12625706Y-13769222D02*
X12616182Y-13778746D01*
X12616182Y-13778746D02*
X12606658Y-13797793D01*
X12606658Y-13797793D02*
X12606658Y-13835888D01*
X12606658Y-13835888D02*
X12616182Y-13854936D01*
X12616182Y-13854936D02*
X12625706Y-13864460D01*
X12625706Y-13864460D02*
X12644753Y-13873984D01*
X12644753Y-13873984D02*
X12682848Y-13873984D01*
X12682848Y-13873984D02*
X12701896Y-13864460D01*
X12701896Y-13864460D02*
X12711420Y-13854936D01*
X12711420Y-13854936D02*
X12720944Y-13835888D01*
X12720944Y-13835888D02*
X12720944Y-13797793D01*
X12720944Y-13797793D02*
X12711420Y-13778746D01*
X12711420Y-13778746D02*
X12701896Y-13769222D01*
X12701896Y-13769222D02*
X12682848Y-13759698D01*
X12797134Y-13673984D02*
X12797134Y-13712079D01*
X12873325Y-13673984D02*
X12873325Y-13712079D01*
X13168563Y-13950174D02*
X13159039Y-13940650D01*
X13159039Y-13940650D02*
X13139991Y-13912079D01*
X13139991Y-13912079D02*
X13130468Y-13893031D01*
X13130468Y-13893031D02*
X13120944Y-13864460D01*
X13120944Y-13864460D02*
X13111420Y-13816841D01*
X13111420Y-13816841D02*
X13111420Y-13778746D01*
X13111420Y-13778746D02*
X13120944Y-13731127D01*
X13120944Y-13731127D02*
X13130468Y-13702555D01*
X13130468Y-13702555D02*
X13139991Y-13683508D01*
X13139991Y-13683508D02*
X13159039Y-13654936D01*
X13159039Y-13654936D02*
X13168563Y-13645412D01*
X13273325Y-13759698D02*
X13254277Y-13750174D01*
X13254277Y-13750174D02*
X13244753Y-13740650D01*
X13244753Y-13740650D02*
X13235229Y-13721603D01*
X13235229Y-13721603D02*
X13235229Y-13712079D01*
X13235229Y-13712079D02*
X13244753Y-13693031D01*
X13244753Y-13693031D02*
X13254277Y-13683508D01*
X13254277Y-13683508D02*
X13273325Y-13673984D01*
X13273325Y-13673984D02*
X13311420Y-13673984D01*
X13311420Y-13673984D02*
X13330468Y-13683508D01*
X13330468Y-13683508D02*
X13339991Y-13693031D01*
X13339991Y-13693031D02*
X13349515Y-13712079D01*
X13349515Y-13712079D02*
X13349515Y-13721603D01*
X13349515Y-13721603D02*
X13339991Y-13740650D01*
X13339991Y-13740650D02*
X13330468Y-13750174D01*
X13330468Y-13750174D02*
X13311420Y-13759698D01*
X13311420Y-13759698D02*
X13273325Y-13759698D01*
X13273325Y-13759698D02*
X13254277Y-13769222D01*
X13254277Y-13769222D02*
X13244753Y-13778746D01*
X13244753Y-13778746D02*
X13235229Y-13797793D01*
X13235229Y-13797793D02*
X13235229Y-13835888D01*
X13235229Y-13835888D02*
X13244753Y-13854936D01*
X13244753Y-13854936D02*
X13254277Y-13864460D01*
X13254277Y-13864460D02*
X13273325Y-13873984D01*
X13273325Y-13873984D02*
X13311420Y-13873984D01*
X13311420Y-13873984D02*
X13330468Y-13864460D01*
X13330468Y-13864460D02*
X13339991Y-13854936D01*
X13339991Y-13854936D02*
X13349515Y-13835888D01*
X13349515Y-13835888D02*
X13349515Y-13797793D01*
X13349515Y-13797793D02*
X13339991Y-13778746D01*
X13339991Y-13778746D02*
X13330468Y-13769222D01*
X13330468Y-13769222D02*
X13311420Y-13759698D01*
X13587610Y-13873984D02*
X13587610Y-13673984D01*
X13673325Y-13873984D02*
X13673325Y-13769222D01*
X13673325Y-13769222D02*
X13663801Y-13750174D01*
X13663801Y-13750174D02*
X13644753Y-13740650D01*
X13644753Y-13740650D02*
X13616182Y-13740650D01*
X13616182Y-13740650D02*
X13597134Y-13750174D01*
X13597134Y-13750174D02*
X13587610Y-13759698D01*
X13797134Y-13873984D02*
X13778087Y-13864460D01*
X13778087Y-13864460D02*
X13768563Y-13854936D01*
X13768563Y-13854936D02*
X13759039Y-13835888D01*
X13759039Y-13835888D02*
X13759039Y-13778746D01*
X13759039Y-13778746D02*
X13768563Y-13759698D01*
X13768563Y-13759698D02*
X13778087Y-13750174D01*
X13778087Y-13750174D02*
X13797134Y-13740650D01*
X13797134Y-13740650D02*
X13825706Y-13740650D01*
X13825706Y-13740650D02*
X13844753Y-13750174D01*
X13844753Y-13750174D02*
X13854277Y-13759698D01*
X13854277Y-13759698D02*
X13863801Y-13778746D01*
X13863801Y-13778746D02*
X13863801Y-13835888D01*
X13863801Y-13835888D02*
X13854277Y-13854936D01*
X13854277Y-13854936D02*
X13844753Y-13864460D01*
X13844753Y-13864460D02*
X13825706Y-13873984D01*
X13825706Y-13873984D02*
X13797134Y-13873984D01*
X13978087Y-13873984D02*
X13959039Y-13864460D01*
X13959039Y-13864460D02*
X13949515Y-13845412D01*
X13949515Y-13845412D02*
X13949515Y-13673984D01*
X14130468Y-13864460D02*
X14111420Y-13873984D01*
X14111420Y-13873984D02*
X14073325Y-13873984D01*
X14073325Y-13873984D02*
X14054277Y-13864460D01*
X14054277Y-13864460D02*
X14044753Y-13845412D01*
X14044753Y-13845412D02*
X14044753Y-13769222D01*
X14044753Y-13769222D02*
X14054277Y-13750174D01*
X14054277Y-13750174D02*
X14073325Y-13740650D01*
X14073325Y-13740650D02*
X14111420Y-13740650D01*
X14111420Y-13740650D02*
X14130468Y-13750174D01*
X14130468Y-13750174D02*
X14139991Y-13769222D01*
X14139991Y-13769222D02*
X14139991Y-13788269D01*
X14139991Y-13788269D02*
X14044753Y-13807317D01*
X14216182Y-13864460D02*
X14235230Y-13873984D01*
X14235230Y-13873984D02*
X14273325Y-13873984D01*
X14273325Y-13873984D02*
X14292372Y-13864460D01*
X14292372Y-13864460D02*
X14301896Y-13845412D01*
X14301896Y-13845412D02*
X14301896Y-13835888D01*
X14301896Y-13835888D02*
X14292372Y-13816841D01*
X14292372Y-13816841D02*
X14273325Y-13807317D01*
X14273325Y-13807317D02*
X14244753Y-13807317D01*
X14244753Y-13807317D02*
X14225706Y-13797793D01*
X14225706Y-13797793D02*
X14216182Y-13778746D01*
X14216182Y-13778746D02*
X14216182Y-13769222D01*
X14216182Y-13769222D02*
X14225706Y-13750174D01*
X14225706Y-13750174D02*
X14244753Y-13740650D01*
X14244753Y-13740650D02*
X14273325Y-13740650D01*
X14273325Y-13740650D02*
X14292372Y-13750174D01*
X14368563Y-13950174D02*
X14378087Y-13940650D01*
X14378087Y-13940650D02*
X14397134Y-13912079D01*
X14397134Y-13912079D02*
X14406658Y-13893031D01*
X14406658Y-13893031D02*
X14416182Y-13864460D01*
X14416182Y-13864460D02*
X14425706Y-13816841D01*
X14425706Y-13816841D02*
X14425706Y-13778746D01*
X14425706Y-13778746D02*
X14416182Y-13731127D01*
X14416182Y-13731127D02*
X14406658Y-13702555D01*
X14406658Y-13702555D02*
X14397134Y-13683508D01*
X14397134Y-13683508D02*
X14378087Y-13654936D01*
X14378087Y-13654936D02*
X14368563Y-13645412D01*
D12*
X9568500Y-14021500D02*
X9568500Y-14071500D01*
X9543500Y-14046500D02*
X9593500Y-14046500D01*
D11*
X9892372Y-13937984D02*
X9911420Y-13937984D01*
X9911420Y-13937984D02*
X9930467Y-13947508D01*
X9930467Y-13947508D02*
X9939991Y-13957031D01*
X9939991Y-13957031D02*
X9949515Y-13976079D01*
X9949515Y-13976079D02*
X9959039Y-14014174D01*
X9959039Y-14014174D02*
X9959039Y-14061793D01*
X9959039Y-14061793D02*
X9949515Y-14099888D01*
X9949515Y-14099888D02*
X9939991Y-14118936D01*
X9939991Y-14118936D02*
X9930467Y-14128460D01*
X9930467Y-14128460D02*
X9911420Y-14137984D01*
X9911420Y-14137984D02*
X9892372Y-14137984D01*
X9892372Y-14137984D02*
X9873324Y-14128460D01*
X9873324Y-14128460D02*
X9863801Y-14118936D01*
X9863801Y-14118936D02*
X9854277Y-14099888D01*
X9854277Y-14099888D02*
X9844753Y-14061793D01*
X9844753Y-14061793D02*
X9844753Y-14014174D01*
X9844753Y-14014174D02*
X9854277Y-13976079D01*
X9854277Y-13976079D02*
X9863801Y-13957031D01*
X9863801Y-13957031D02*
X9873324Y-13947508D01*
X9873324Y-13947508D02*
X9892372Y-13937984D01*
X10044753Y-14118936D02*
X10054277Y-14128460D01*
X10054277Y-14128460D02*
X10044753Y-14137984D01*
X10044753Y-14137984D02*
X10035229Y-14128460D01*
X10035229Y-14128460D02*
X10044753Y-14118936D01*
X10044753Y-14118936D02*
X10044753Y-14137984D01*
X10235229Y-13937984D02*
X10139991Y-13937984D01*
X10139991Y-13937984D02*
X10130467Y-14033222D01*
X10130467Y-14033222D02*
X10139991Y-14023698D01*
X10139991Y-14023698D02*
X10159039Y-14014174D01*
X10159039Y-14014174D02*
X10206658Y-14014174D01*
X10206658Y-14014174D02*
X10225705Y-14023698D01*
X10225705Y-14023698D02*
X10235229Y-14033222D01*
X10235229Y-14033222D02*
X10244753Y-14052269D01*
X10244753Y-14052269D02*
X10244753Y-14099888D01*
X10244753Y-14099888D02*
X10235229Y-14118936D01*
X10235229Y-14118936D02*
X10225705Y-14128460D01*
X10225705Y-14128460D02*
X10206658Y-14137984D01*
X10206658Y-14137984D02*
X10159039Y-14137984D01*
X10159039Y-14137984D02*
X10139991Y-14128460D01*
X10139991Y-14128460D02*
X10130467Y-14118936D01*
X10368563Y-13937984D02*
X10387610Y-13937984D01*
X10387610Y-13937984D02*
X10406658Y-13947508D01*
X10406658Y-13947508D02*
X10416182Y-13957031D01*
X10416182Y-13957031D02*
X10425705Y-13976079D01*
X10425705Y-13976079D02*
X10435229Y-14014174D01*
X10435229Y-14014174D02*
X10435229Y-14061793D01*
X10435229Y-14061793D02*
X10425705Y-14099888D01*
X10425705Y-14099888D02*
X10416182Y-14118936D01*
X10416182Y-14118936D02*
X10406658Y-14128460D01*
X10406658Y-14128460D02*
X10387610Y-14137984D01*
X10387610Y-14137984D02*
X10368563Y-14137984D01*
X10368563Y-14137984D02*
X10349515Y-14128460D01*
X10349515Y-14128460D02*
X10339991Y-14118936D01*
X10339991Y-14118936D02*
X10330467Y-14099888D01*
X10330467Y-14099888D02*
X10320944Y-14061793D01*
X10320944Y-14061793D02*
X10320944Y-14014174D01*
X10320944Y-14014174D02*
X10330467Y-13976079D01*
X10330467Y-13976079D02*
X10339991Y-13957031D01*
X10339991Y-13957031D02*
X10349515Y-13947508D01*
X10349515Y-13947508D02*
X10368563Y-13937984D01*
X10559039Y-13937984D02*
X10578086Y-13937984D01*
X10578086Y-13937984D02*
X10597134Y-13947508D01*
X10597134Y-13947508D02*
X10606658Y-13957031D01*
X10606658Y-13957031D02*
X10616182Y-13976079D01*
X10616182Y-13976079D02*
X10625705Y-14014174D01*
X10625705Y-14014174D02*
X10625705Y-14061793D01*
X10625705Y-14061793D02*
X10616182Y-14099888D01*
X10616182Y-14099888D02*
X10606658Y-14118936D01*
X10606658Y-14118936D02*
X10597134Y-14128460D01*
X10597134Y-14128460D02*
X10578086Y-14137984D01*
X10578086Y-14137984D02*
X10559039Y-14137984D01*
X10559039Y-14137984D02*
X10539991Y-14128460D01*
X10539991Y-14128460D02*
X10530467Y-14118936D01*
X10530467Y-14118936D02*
X10520944Y-14099888D01*
X10520944Y-14099888D02*
X10511420Y-14061793D01*
X10511420Y-14061793D02*
X10511420Y-14014174D01*
X10511420Y-14014174D02*
X10520944Y-13976079D01*
X10520944Y-13976079D02*
X10530467Y-13957031D01*
X10530467Y-13957031D02*
X10539991Y-13947508D01*
X10539991Y-13947508D02*
X10559039Y-13937984D01*
X10711420Y-14137984D02*
X10711420Y-14004650D01*
X10711420Y-14023698D02*
X10720944Y-14014174D01*
X10720944Y-14014174D02*
X10739991Y-14004650D01*
X10739991Y-14004650D02*
X10768563Y-14004650D01*
X10768563Y-14004650D02*
X10787610Y-14014174D01*
X10787610Y-14014174D02*
X10797134Y-14033222D01*
X10797134Y-14033222D02*
X10797134Y-14137984D01*
X10797134Y-14033222D02*
X10806658Y-14014174D01*
X10806658Y-14014174D02*
X10825705Y-14004650D01*
X10825705Y-14004650D02*
X10854277Y-14004650D01*
X10854277Y-14004650D02*
X10873325Y-14014174D01*
X10873325Y-14014174D02*
X10882848Y-14033222D01*
X10882848Y-14033222D02*
X10882848Y-14137984D01*
X10978086Y-14137984D02*
X10978086Y-14004650D01*
X10978086Y-14023698D02*
X10987610Y-14014174D01*
X10987610Y-14014174D02*
X11006658Y-14004650D01*
X11006658Y-14004650D02*
X11035229Y-14004650D01*
X11035229Y-14004650D02*
X11054277Y-14014174D01*
X11054277Y-14014174D02*
X11063801Y-14033222D01*
X11063801Y-14033222D02*
X11063801Y-14137984D01*
X11063801Y-14033222D02*
X11073325Y-14014174D01*
X11073325Y-14014174D02*
X11092372Y-14004650D01*
X11092372Y-14004650D02*
X11120944Y-14004650D01*
X11120944Y-14004650D02*
X11139991Y-14014174D01*
X11139991Y-14014174D02*
X11149515Y-14033222D01*
X11149515Y-14033222D02*
X11149515Y-14137984D01*
X11539991Y-13928460D02*
X11368563Y-14185603D01*
X11797134Y-13937984D02*
X11816182Y-13937984D01*
X11816182Y-13937984D02*
X11835229Y-13947508D01*
X11835229Y-13947508D02*
X11844753Y-13957031D01*
X11844753Y-13957031D02*
X11854277Y-13976079D01*
X11854277Y-13976079D02*
X11863801Y-14014174D01*
X11863801Y-14014174D02*
X11863801Y-14061793D01*
X11863801Y-14061793D02*
X11854277Y-14099888D01*
X11854277Y-14099888D02*
X11844753Y-14118936D01*
X11844753Y-14118936D02*
X11835229Y-14128460D01*
X11835229Y-14128460D02*
X11816182Y-14137984D01*
X11816182Y-14137984D02*
X11797134Y-14137984D01*
X11797134Y-14137984D02*
X11778086Y-14128460D01*
X11778086Y-14128460D02*
X11768563Y-14118936D01*
X11768563Y-14118936D02*
X11759039Y-14099888D01*
X11759039Y-14099888D02*
X11749515Y-14061793D01*
X11749515Y-14061793D02*
X11749515Y-14014174D01*
X11749515Y-14014174D02*
X11759039Y-13976079D01*
X11759039Y-13976079D02*
X11768563Y-13957031D01*
X11768563Y-13957031D02*
X11778086Y-13947508D01*
X11778086Y-13947508D02*
X11797134Y-13937984D01*
X11949515Y-14118936D02*
X11959039Y-14128460D01*
X11959039Y-14128460D02*
X11949515Y-14137984D01*
X11949515Y-14137984D02*
X11939991Y-14128460D01*
X11939991Y-14128460D02*
X11949515Y-14118936D01*
X11949515Y-14118936D02*
X11949515Y-14137984D01*
X12082848Y-13937984D02*
X12101896Y-13937984D01*
X12101896Y-13937984D02*
X12120944Y-13947508D01*
X12120944Y-13947508D02*
X12130467Y-13957031D01*
X12130467Y-13957031D02*
X12139991Y-13976079D01*
X12139991Y-13976079D02*
X12149515Y-14014174D01*
X12149515Y-14014174D02*
X12149515Y-14061793D01*
X12149515Y-14061793D02*
X12139991Y-14099888D01*
X12139991Y-14099888D02*
X12130467Y-14118936D01*
X12130467Y-14118936D02*
X12120944Y-14128460D01*
X12120944Y-14128460D02*
X12101896Y-14137984D01*
X12101896Y-14137984D02*
X12082848Y-14137984D01*
X12082848Y-14137984D02*
X12063801Y-14128460D01*
X12063801Y-14128460D02*
X12054277Y-14118936D01*
X12054277Y-14118936D02*
X12044753Y-14099888D01*
X12044753Y-14099888D02*
X12035229Y-14061793D01*
X12035229Y-14061793D02*
X12035229Y-14014174D01*
X12035229Y-14014174D02*
X12044753Y-13976079D01*
X12044753Y-13976079D02*
X12054277Y-13957031D01*
X12054277Y-13957031D02*
X12063801Y-13947508D01*
X12063801Y-13947508D02*
X12082848Y-13937984D01*
X12339991Y-14137984D02*
X12225706Y-14137984D01*
X12282848Y-14137984D02*
X12282848Y-13937984D01*
X12282848Y-13937984D02*
X12263801Y-13966555D01*
X12263801Y-13966555D02*
X12244753Y-13985603D01*
X12244753Y-13985603D02*
X12225706Y-13995127D01*
X12435229Y-14137984D02*
X12473325Y-14137984D01*
X12473325Y-14137984D02*
X12492372Y-14128460D01*
X12492372Y-14128460D02*
X12501896Y-14118936D01*
X12501896Y-14118936D02*
X12520944Y-14090365D01*
X12520944Y-14090365D02*
X12530467Y-14052269D01*
X12530467Y-14052269D02*
X12530467Y-13976079D01*
X12530467Y-13976079D02*
X12520944Y-13957031D01*
X12520944Y-13957031D02*
X12511420Y-13947508D01*
X12511420Y-13947508D02*
X12492372Y-13937984D01*
X12492372Y-13937984D02*
X12454277Y-13937984D01*
X12454277Y-13937984D02*
X12435229Y-13947508D01*
X12435229Y-13947508D02*
X12425706Y-13957031D01*
X12425706Y-13957031D02*
X12416182Y-13976079D01*
X12416182Y-13976079D02*
X12416182Y-14023698D01*
X12416182Y-14023698D02*
X12425706Y-14042746D01*
X12425706Y-14042746D02*
X12435229Y-14052269D01*
X12435229Y-14052269D02*
X12454277Y-14061793D01*
X12454277Y-14061793D02*
X12492372Y-14061793D01*
X12492372Y-14061793D02*
X12511420Y-14052269D01*
X12511420Y-14052269D02*
X12520944Y-14042746D01*
X12520944Y-14042746D02*
X12530467Y-14023698D01*
X12597134Y-13937984D02*
X12730467Y-13937984D01*
X12730467Y-13937984D02*
X12644753Y-14137984D01*
X12797134Y-13937984D02*
X12797134Y-13976079D01*
X12873325Y-13937984D02*
X12873325Y-13976079D01*
X13168563Y-14214174D02*
X13159039Y-14204650D01*
X13159039Y-14204650D02*
X13139991Y-14176079D01*
X13139991Y-14176079D02*
X13130468Y-14157031D01*
X13130468Y-14157031D02*
X13120944Y-14128460D01*
X13120944Y-14128460D02*
X13111420Y-14080841D01*
X13111420Y-14080841D02*
X13111420Y-14042746D01*
X13111420Y-14042746D02*
X13120944Y-13995127D01*
X13120944Y-13995127D02*
X13130468Y-13966555D01*
X13130468Y-13966555D02*
X13139991Y-13947508D01*
X13139991Y-13947508D02*
X13159039Y-13918936D01*
X13159039Y-13918936D02*
X13168563Y-13909412D01*
X13225706Y-13937984D02*
X13349515Y-13937984D01*
X13349515Y-13937984D02*
X13282848Y-14014174D01*
X13282848Y-14014174D02*
X13311420Y-14014174D01*
X13311420Y-14014174D02*
X13330468Y-14023698D01*
X13330468Y-14023698D02*
X13339991Y-14033222D01*
X13339991Y-14033222D02*
X13349515Y-14052269D01*
X13349515Y-14052269D02*
X13349515Y-14099888D01*
X13349515Y-14099888D02*
X13339991Y-14118936D01*
X13339991Y-14118936D02*
X13330468Y-14128460D01*
X13330468Y-14128460D02*
X13311420Y-14137984D01*
X13311420Y-14137984D02*
X13254277Y-14137984D01*
X13254277Y-14137984D02*
X13235229Y-14128460D01*
X13235229Y-14128460D02*
X13225706Y-14118936D01*
X13425706Y-13957031D02*
X13435229Y-13947508D01*
X13435229Y-13947508D02*
X13454277Y-13937984D01*
X13454277Y-13937984D02*
X13501896Y-13937984D01*
X13501896Y-13937984D02*
X13520944Y-13947508D01*
X13520944Y-13947508D02*
X13530468Y-13957031D01*
X13530468Y-13957031D02*
X13539991Y-13976079D01*
X13539991Y-13976079D02*
X13539991Y-13995127D01*
X13539991Y-13995127D02*
X13530468Y-14023698D01*
X13530468Y-14023698D02*
X13416182Y-14137984D01*
X13416182Y-14137984D02*
X13539991Y-14137984D01*
X13778087Y-14137984D02*
X13778087Y-13937984D01*
X13863801Y-14137984D02*
X13863801Y-14033222D01*
X13863801Y-14033222D02*
X13854277Y-14014174D01*
X13854277Y-14014174D02*
X13835230Y-14004650D01*
X13835230Y-14004650D02*
X13806658Y-14004650D01*
X13806658Y-14004650D02*
X13787610Y-14014174D01*
X13787610Y-14014174D02*
X13778087Y-14023698D01*
X13987610Y-14137984D02*
X13968563Y-14128460D01*
X13968563Y-14128460D02*
X13959039Y-14118936D01*
X13959039Y-14118936D02*
X13949515Y-14099888D01*
X13949515Y-14099888D02*
X13949515Y-14042746D01*
X13949515Y-14042746D02*
X13959039Y-14023698D01*
X13959039Y-14023698D02*
X13968563Y-14014174D01*
X13968563Y-14014174D02*
X13987610Y-14004650D01*
X13987610Y-14004650D02*
X14016182Y-14004650D01*
X14016182Y-14004650D02*
X14035230Y-14014174D01*
X14035230Y-14014174D02*
X14044753Y-14023698D01*
X14044753Y-14023698D02*
X14054277Y-14042746D01*
X14054277Y-14042746D02*
X14054277Y-14099888D01*
X14054277Y-14099888D02*
X14044753Y-14118936D01*
X14044753Y-14118936D02*
X14035230Y-14128460D01*
X14035230Y-14128460D02*
X14016182Y-14137984D01*
X14016182Y-14137984D02*
X13987610Y-14137984D01*
X14168563Y-14137984D02*
X14149515Y-14128460D01*
X14149515Y-14128460D02*
X14139991Y-14109412D01*
X14139991Y-14109412D02*
X14139991Y-13937984D01*
X14320944Y-14128460D02*
X14301896Y-14137984D01*
X14301896Y-14137984D02*
X14263801Y-14137984D01*
X14263801Y-14137984D02*
X14244753Y-14128460D01*
X14244753Y-14128460D02*
X14235230Y-14109412D01*
X14235230Y-14109412D02*
X14235230Y-14033222D01*
X14235230Y-14033222D02*
X14244753Y-14014174D01*
X14244753Y-14014174D02*
X14263801Y-14004650D01*
X14263801Y-14004650D02*
X14301896Y-14004650D01*
X14301896Y-14004650D02*
X14320944Y-14014174D01*
X14320944Y-14014174D02*
X14330468Y-14033222D01*
X14330468Y-14033222D02*
X14330468Y-14052269D01*
X14330468Y-14052269D02*
X14235230Y-14071317D01*
X14406658Y-14128460D02*
X14425706Y-14137984D01*
X14425706Y-14137984D02*
X14463801Y-14137984D01*
X14463801Y-14137984D02*
X14482849Y-14128460D01*
X14482849Y-14128460D02*
X14492372Y-14109412D01*
X14492372Y-14109412D02*
X14492372Y-14099888D01*
X14492372Y-14099888D02*
X14482849Y-14080841D01*
X14482849Y-14080841D02*
X14463801Y-14071317D01*
X14463801Y-14071317D02*
X14435230Y-14071317D01*
X14435230Y-14071317D02*
X14416182Y-14061793D01*
X14416182Y-14061793D02*
X14406658Y-14042746D01*
X14406658Y-14042746D02*
X14406658Y-14033222D01*
X14406658Y-14033222D02*
X14416182Y-14014174D01*
X14416182Y-14014174D02*
X14435230Y-14004650D01*
X14435230Y-14004650D02*
X14463801Y-14004650D01*
X14463801Y-14004650D02*
X14482849Y-14014174D01*
X14559039Y-14214174D02*
X14568563Y-14204650D01*
X14568563Y-14204650D02*
X14587611Y-14176079D01*
X14587611Y-14176079D02*
X14597134Y-14157031D01*
X14597134Y-14157031D02*
X14606658Y-14128460D01*
X14606658Y-14128460D02*
X14616182Y-14080841D01*
X14616182Y-14080841D02*
X14616182Y-14042746D01*
X14616182Y-14042746D02*
X14606658Y-13995127D01*
X14606658Y-13995127D02*
X14597134Y-13966555D01*
X14597134Y-13966555D02*
X14587611Y-13947508D01*
X14587611Y-13947508D02*
X14568563Y-13918936D01*
X14568563Y-13918936D02*
X14559039Y-13909412D01*
D12*
X9578856Y-14345856D02*
X9578856Y-14275144D01*
X9508144Y-14275144D01*
X9508144Y-14345856D01*
X9578856Y-14345856D01*
D11*
X9959039Y-14401984D02*
X9844753Y-14401984D01*
X9901896Y-14401984D02*
X9901896Y-14201984D01*
X9901896Y-14201984D02*
X9882848Y-14230555D01*
X9882848Y-14230555D02*
X9863801Y-14249603D01*
X9863801Y-14249603D02*
X9844753Y-14259127D01*
X10044753Y-14382936D02*
X10054277Y-14392460D01*
X10054277Y-14392460D02*
X10044753Y-14401984D01*
X10044753Y-14401984D02*
X10035229Y-14392460D01*
X10035229Y-14392460D02*
X10044753Y-14382936D01*
X10044753Y-14382936D02*
X10044753Y-14401984D01*
X10178086Y-14201984D02*
X10197134Y-14201984D01*
X10197134Y-14201984D02*
X10216182Y-14211508D01*
X10216182Y-14211508D02*
X10225705Y-14221031D01*
X10225705Y-14221031D02*
X10235229Y-14240079D01*
X10235229Y-14240079D02*
X10244753Y-14278174D01*
X10244753Y-14278174D02*
X10244753Y-14325793D01*
X10244753Y-14325793D02*
X10235229Y-14363888D01*
X10235229Y-14363888D02*
X10225705Y-14382936D01*
X10225705Y-14382936D02*
X10216182Y-14392460D01*
X10216182Y-14392460D02*
X10197134Y-14401984D01*
X10197134Y-14401984D02*
X10178086Y-14401984D01*
X10178086Y-14401984D02*
X10159039Y-14392460D01*
X10159039Y-14392460D02*
X10149515Y-14382936D01*
X10149515Y-14382936D02*
X10139991Y-14363888D01*
X10139991Y-14363888D02*
X10130467Y-14325793D01*
X10130467Y-14325793D02*
X10130467Y-14278174D01*
X10130467Y-14278174D02*
X10139991Y-14240079D01*
X10139991Y-14240079D02*
X10149515Y-14221031D01*
X10149515Y-14221031D02*
X10159039Y-14211508D01*
X10159039Y-14211508D02*
X10178086Y-14201984D01*
X10368563Y-14201984D02*
X10387610Y-14201984D01*
X10387610Y-14201984D02*
X10406658Y-14211508D01*
X10406658Y-14211508D02*
X10416182Y-14221031D01*
X10416182Y-14221031D02*
X10425705Y-14240079D01*
X10425705Y-14240079D02*
X10435229Y-14278174D01*
X10435229Y-14278174D02*
X10435229Y-14325793D01*
X10435229Y-14325793D02*
X10425705Y-14363888D01*
X10425705Y-14363888D02*
X10416182Y-14382936D01*
X10416182Y-14382936D02*
X10406658Y-14392460D01*
X10406658Y-14392460D02*
X10387610Y-14401984D01*
X10387610Y-14401984D02*
X10368563Y-14401984D01*
X10368563Y-14401984D02*
X10349515Y-14392460D01*
X10349515Y-14392460D02*
X10339991Y-14382936D01*
X10339991Y-14382936D02*
X10330467Y-14363888D01*
X10330467Y-14363888D02*
X10320944Y-14325793D01*
X10320944Y-14325793D02*
X10320944Y-14278174D01*
X10320944Y-14278174D02*
X10330467Y-14240079D01*
X10330467Y-14240079D02*
X10339991Y-14221031D01*
X10339991Y-14221031D02*
X10349515Y-14211508D01*
X10349515Y-14211508D02*
X10368563Y-14201984D01*
X10559039Y-14201984D02*
X10578086Y-14201984D01*
X10578086Y-14201984D02*
X10597134Y-14211508D01*
X10597134Y-14211508D02*
X10606658Y-14221031D01*
X10606658Y-14221031D02*
X10616182Y-14240079D01*
X10616182Y-14240079D02*
X10625705Y-14278174D01*
X10625705Y-14278174D02*
X10625705Y-14325793D01*
X10625705Y-14325793D02*
X10616182Y-14363888D01*
X10616182Y-14363888D02*
X10606658Y-14382936D01*
X10606658Y-14382936D02*
X10597134Y-14392460D01*
X10597134Y-14392460D02*
X10578086Y-14401984D01*
X10578086Y-14401984D02*
X10559039Y-14401984D01*
X10559039Y-14401984D02*
X10539991Y-14392460D01*
X10539991Y-14392460D02*
X10530467Y-14382936D01*
X10530467Y-14382936D02*
X10520944Y-14363888D01*
X10520944Y-14363888D02*
X10511420Y-14325793D01*
X10511420Y-14325793D02*
X10511420Y-14278174D01*
X10511420Y-14278174D02*
X10520944Y-14240079D01*
X10520944Y-14240079D02*
X10530467Y-14221031D01*
X10530467Y-14221031D02*
X10539991Y-14211508D01*
X10539991Y-14211508D02*
X10559039Y-14201984D01*
X10711420Y-14401984D02*
X10711420Y-14268650D01*
X10711420Y-14287698D02*
X10720944Y-14278174D01*
X10720944Y-14278174D02*
X10739991Y-14268650D01*
X10739991Y-14268650D02*
X10768563Y-14268650D01*
X10768563Y-14268650D02*
X10787610Y-14278174D01*
X10787610Y-14278174D02*
X10797134Y-14297222D01*
X10797134Y-14297222D02*
X10797134Y-14401984D01*
X10797134Y-14297222D02*
X10806658Y-14278174D01*
X10806658Y-14278174D02*
X10825705Y-14268650D01*
X10825705Y-14268650D02*
X10854277Y-14268650D01*
X10854277Y-14268650D02*
X10873325Y-14278174D01*
X10873325Y-14278174D02*
X10882848Y-14297222D01*
X10882848Y-14297222D02*
X10882848Y-14401984D01*
X10978086Y-14401984D02*
X10978086Y-14268650D01*
X10978086Y-14287698D02*
X10987610Y-14278174D01*
X10987610Y-14278174D02*
X11006658Y-14268650D01*
X11006658Y-14268650D02*
X11035229Y-14268650D01*
X11035229Y-14268650D02*
X11054277Y-14278174D01*
X11054277Y-14278174D02*
X11063801Y-14297222D01*
X11063801Y-14297222D02*
X11063801Y-14401984D01*
X11063801Y-14297222D02*
X11073325Y-14278174D01*
X11073325Y-14278174D02*
X11092372Y-14268650D01*
X11092372Y-14268650D02*
X11120944Y-14268650D01*
X11120944Y-14268650D02*
X11139991Y-14278174D01*
X11139991Y-14278174D02*
X11149515Y-14297222D01*
X11149515Y-14297222D02*
X11149515Y-14401984D01*
X11539991Y-14192460D02*
X11368563Y-14449603D01*
X11797134Y-14201984D02*
X11816182Y-14201984D01*
X11816182Y-14201984D02*
X11835229Y-14211508D01*
X11835229Y-14211508D02*
X11844753Y-14221031D01*
X11844753Y-14221031D02*
X11854277Y-14240079D01*
X11854277Y-14240079D02*
X11863801Y-14278174D01*
X11863801Y-14278174D02*
X11863801Y-14325793D01*
X11863801Y-14325793D02*
X11854277Y-14363888D01*
X11854277Y-14363888D02*
X11844753Y-14382936D01*
X11844753Y-14382936D02*
X11835229Y-14392460D01*
X11835229Y-14392460D02*
X11816182Y-14401984D01*
X11816182Y-14401984D02*
X11797134Y-14401984D01*
X11797134Y-14401984D02*
X11778086Y-14392460D01*
X11778086Y-14392460D02*
X11768563Y-14382936D01*
X11768563Y-14382936D02*
X11759039Y-14363888D01*
X11759039Y-14363888D02*
X11749515Y-14325793D01*
X11749515Y-14325793D02*
X11749515Y-14278174D01*
X11749515Y-14278174D02*
X11759039Y-14240079D01*
X11759039Y-14240079D02*
X11768563Y-14221031D01*
X11768563Y-14221031D02*
X11778086Y-14211508D01*
X11778086Y-14211508D02*
X11797134Y-14201984D01*
X11949515Y-14382936D02*
X11959039Y-14392460D01*
X11959039Y-14392460D02*
X11949515Y-14401984D01*
X11949515Y-14401984D02*
X11939991Y-14392460D01*
X11939991Y-14392460D02*
X11949515Y-14382936D01*
X11949515Y-14382936D02*
X11949515Y-14401984D01*
X12082848Y-14201984D02*
X12101896Y-14201984D01*
X12101896Y-14201984D02*
X12120944Y-14211508D01*
X12120944Y-14211508D02*
X12130467Y-14221031D01*
X12130467Y-14221031D02*
X12139991Y-14240079D01*
X12139991Y-14240079D02*
X12149515Y-14278174D01*
X12149515Y-14278174D02*
X12149515Y-14325793D01*
X12149515Y-14325793D02*
X12139991Y-14363888D01*
X12139991Y-14363888D02*
X12130467Y-14382936D01*
X12130467Y-14382936D02*
X12120944Y-14392460D01*
X12120944Y-14392460D02*
X12101896Y-14401984D01*
X12101896Y-14401984D02*
X12082848Y-14401984D01*
X12082848Y-14401984D02*
X12063801Y-14392460D01*
X12063801Y-14392460D02*
X12054277Y-14382936D01*
X12054277Y-14382936D02*
X12044753Y-14363888D01*
X12044753Y-14363888D02*
X12035229Y-14325793D01*
X12035229Y-14325793D02*
X12035229Y-14278174D01*
X12035229Y-14278174D02*
X12044753Y-14240079D01*
X12044753Y-14240079D02*
X12054277Y-14221031D01*
X12054277Y-14221031D02*
X12063801Y-14211508D01*
X12063801Y-14211508D02*
X12082848Y-14201984D01*
X12216182Y-14201984D02*
X12339991Y-14201984D01*
X12339991Y-14201984D02*
X12273325Y-14278174D01*
X12273325Y-14278174D02*
X12301896Y-14278174D01*
X12301896Y-14278174D02*
X12320944Y-14287698D01*
X12320944Y-14287698D02*
X12330467Y-14297222D01*
X12330467Y-14297222D02*
X12339991Y-14316269D01*
X12339991Y-14316269D02*
X12339991Y-14363888D01*
X12339991Y-14363888D02*
X12330467Y-14382936D01*
X12330467Y-14382936D02*
X12320944Y-14392460D01*
X12320944Y-14392460D02*
X12301896Y-14401984D01*
X12301896Y-14401984D02*
X12244753Y-14401984D01*
X12244753Y-14401984D02*
X12225706Y-14392460D01*
X12225706Y-14392460D02*
X12216182Y-14382936D01*
X12435229Y-14401984D02*
X12473325Y-14401984D01*
X12473325Y-14401984D02*
X12492372Y-14392460D01*
X12492372Y-14392460D02*
X12501896Y-14382936D01*
X12501896Y-14382936D02*
X12520944Y-14354365D01*
X12520944Y-14354365D02*
X12530467Y-14316269D01*
X12530467Y-14316269D02*
X12530467Y-14240079D01*
X12530467Y-14240079D02*
X12520944Y-14221031D01*
X12520944Y-14221031D02*
X12511420Y-14211508D01*
X12511420Y-14211508D02*
X12492372Y-14201984D01*
X12492372Y-14201984D02*
X12454277Y-14201984D01*
X12454277Y-14201984D02*
X12435229Y-14211508D01*
X12435229Y-14211508D02*
X12425706Y-14221031D01*
X12425706Y-14221031D02*
X12416182Y-14240079D01*
X12416182Y-14240079D02*
X12416182Y-14287698D01*
X12416182Y-14287698D02*
X12425706Y-14306746D01*
X12425706Y-14306746D02*
X12435229Y-14316269D01*
X12435229Y-14316269D02*
X12454277Y-14325793D01*
X12454277Y-14325793D02*
X12492372Y-14325793D01*
X12492372Y-14325793D02*
X12511420Y-14316269D01*
X12511420Y-14316269D02*
X12520944Y-14306746D01*
X12520944Y-14306746D02*
X12530467Y-14287698D01*
X12701896Y-14268650D02*
X12701896Y-14401984D01*
X12654277Y-14192460D02*
X12606658Y-14335317D01*
X12606658Y-14335317D02*
X12730467Y-14335317D01*
X12797134Y-14201984D02*
X12797134Y-14240079D01*
X12873325Y-14201984D02*
X12873325Y-14240079D01*
X13168563Y-14478174D02*
X13159039Y-14468650D01*
X13159039Y-14468650D02*
X13139991Y-14440079D01*
X13139991Y-14440079D02*
X13130468Y-14421031D01*
X13130468Y-14421031D02*
X13120944Y-14392460D01*
X13120944Y-14392460D02*
X13111420Y-14344841D01*
X13111420Y-14344841D02*
X13111420Y-14306746D01*
X13111420Y-14306746D02*
X13120944Y-14259127D01*
X13120944Y-14259127D02*
X13130468Y-14230555D01*
X13130468Y-14230555D02*
X13139991Y-14211508D01*
X13139991Y-14211508D02*
X13159039Y-14182936D01*
X13159039Y-14182936D02*
X13168563Y-14173412D01*
X13349515Y-14401984D02*
X13235229Y-14401984D01*
X13292372Y-14401984D02*
X13292372Y-14201984D01*
X13292372Y-14201984D02*
X13273325Y-14230555D01*
X13273325Y-14230555D02*
X13254277Y-14249603D01*
X13254277Y-14249603D02*
X13235229Y-14259127D01*
X13520944Y-14201984D02*
X13482848Y-14201984D01*
X13482848Y-14201984D02*
X13463801Y-14211508D01*
X13463801Y-14211508D02*
X13454277Y-14221031D01*
X13454277Y-14221031D02*
X13435229Y-14249603D01*
X13435229Y-14249603D02*
X13425706Y-14287698D01*
X13425706Y-14287698D02*
X13425706Y-14363888D01*
X13425706Y-14363888D02*
X13435229Y-14382936D01*
X13435229Y-14382936D02*
X13444753Y-14392460D01*
X13444753Y-14392460D02*
X13463801Y-14401984D01*
X13463801Y-14401984D02*
X13501896Y-14401984D01*
X13501896Y-14401984D02*
X13520944Y-14392460D01*
X13520944Y-14392460D02*
X13530468Y-14382936D01*
X13530468Y-14382936D02*
X13539991Y-14363888D01*
X13539991Y-14363888D02*
X13539991Y-14316269D01*
X13539991Y-14316269D02*
X13530468Y-14297222D01*
X13530468Y-14297222D02*
X13520944Y-14287698D01*
X13520944Y-14287698D02*
X13501896Y-14278174D01*
X13501896Y-14278174D02*
X13463801Y-14278174D01*
X13463801Y-14278174D02*
X13444753Y-14287698D01*
X13444753Y-14287698D02*
X13435229Y-14297222D01*
X13435229Y-14297222D02*
X13425706Y-14316269D01*
X13778087Y-14401984D02*
X13778087Y-14201984D01*
X13863801Y-14401984D02*
X13863801Y-14297222D01*
X13863801Y-14297222D02*
X13854277Y-14278174D01*
X13854277Y-14278174D02*
X13835230Y-14268650D01*
X13835230Y-14268650D02*
X13806658Y-14268650D01*
X13806658Y-14268650D02*
X13787610Y-14278174D01*
X13787610Y-14278174D02*
X13778087Y-14287698D01*
X13987610Y-14401984D02*
X13968563Y-14392460D01*
X13968563Y-14392460D02*
X13959039Y-14382936D01*
X13959039Y-14382936D02*
X13949515Y-14363888D01*
X13949515Y-14363888D02*
X13949515Y-14306746D01*
X13949515Y-14306746D02*
X13959039Y-14287698D01*
X13959039Y-14287698D02*
X13968563Y-14278174D01*
X13968563Y-14278174D02*
X13987610Y-14268650D01*
X13987610Y-14268650D02*
X14016182Y-14268650D01*
X14016182Y-14268650D02*
X14035230Y-14278174D01*
X14035230Y-14278174D02*
X14044753Y-14287698D01*
X14044753Y-14287698D02*
X14054277Y-14306746D01*
X14054277Y-14306746D02*
X14054277Y-14363888D01*
X14054277Y-14363888D02*
X14044753Y-14382936D01*
X14044753Y-14382936D02*
X14035230Y-14392460D01*
X14035230Y-14392460D02*
X14016182Y-14401984D01*
X14016182Y-14401984D02*
X13987610Y-14401984D01*
X14168563Y-14401984D02*
X14149515Y-14392460D01*
X14149515Y-14392460D02*
X14139991Y-14373412D01*
X14139991Y-14373412D02*
X14139991Y-14201984D01*
X14320944Y-14392460D02*
X14301896Y-14401984D01*
X14301896Y-14401984D02*
X14263801Y-14401984D01*
X14263801Y-14401984D02*
X14244753Y-14392460D01*
X14244753Y-14392460D02*
X14235230Y-14373412D01*
X14235230Y-14373412D02*
X14235230Y-14297222D01*
X14235230Y-14297222D02*
X14244753Y-14278174D01*
X14244753Y-14278174D02*
X14263801Y-14268650D01*
X14263801Y-14268650D02*
X14301896Y-14268650D01*
X14301896Y-14268650D02*
X14320944Y-14278174D01*
X14320944Y-14278174D02*
X14330468Y-14297222D01*
X14330468Y-14297222D02*
X14330468Y-14316269D01*
X14330468Y-14316269D02*
X14235230Y-14335317D01*
X14406658Y-14392460D02*
X14425706Y-14401984D01*
X14425706Y-14401984D02*
X14463801Y-14401984D01*
X14463801Y-14401984D02*
X14482849Y-14392460D01*
X14482849Y-14392460D02*
X14492372Y-14373412D01*
X14492372Y-14373412D02*
X14492372Y-14363888D01*
X14492372Y-14363888D02*
X14482849Y-14344841D01*
X14482849Y-14344841D02*
X14463801Y-14335317D01*
X14463801Y-14335317D02*
X14435230Y-14335317D01*
X14435230Y-14335317D02*
X14416182Y-14325793D01*
X14416182Y-14325793D02*
X14406658Y-14306746D01*
X14406658Y-14306746D02*
X14406658Y-14297222D01*
X14406658Y-14297222D02*
X14416182Y-14278174D01*
X14416182Y-14278174D02*
X14435230Y-14268650D01*
X14435230Y-14268650D02*
X14463801Y-14268650D01*
X14463801Y-14268650D02*
X14482849Y-14278174D01*
X14559039Y-14478174D02*
X14568563Y-14468650D01*
X14568563Y-14468650D02*
X14587611Y-14440079D01*
X14587611Y-14440079D02*
X14597134Y-14421031D01*
X14597134Y-14421031D02*
X14606658Y-14392460D01*
X14606658Y-14392460D02*
X14616182Y-14344841D01*
X14616182Y-14344841D02*
X14616182Y-14306746D01*
X14616182Y-14306746D02*
X14606658Y-14259127D01*
X14606658Y-14259127D02*
X14597134Y-14230555D01*
X14597134Y-14230555D02*
X14587611Y-14211508D01*
X14587611Y-14211508D02*
X14568563Y-14182936D01*
X14568563Y-14182936D02*
X14559039Y-14173412D01*
D13*
X9538500Y-14629500D02*
X9593500Y-14574500D01*
X9538500Y-14519500D01*
X9483500Y-14574500D01*
X9538500Y-14629500D01*
D11*
X9959039Y-14665984D02*
X9844753Y-14665984D01*
X9901896Y-14665984D02*
X9901896Y-14465984D01*
X9901896Y-14465984D02*
X9882848Y-14494555D01*
X9882848Y-14494555D02*
X9863801Y-14513603D01*
X9863801Y-14513603D02*
X9844753Y-14523127D01*
X10044753Y-14646936D02*
X10054277Y-14656460D01*
X10054277Y-14656460D02*
X10044753Y-14665984D01*
X10044753Y-14665984D02*
X10035229Y-14656460D01*
X10035229Y-14656460D02*
X10044753Y-14646936D01*
X10044753Y-14646936D02*
X10044753Y-14665984D01*
X10244753Y-14665984D02*
X10130467Y-14665984D01*
X10187610Y-14665984D02*
X10187610Y-14465984D01*
X10187610Y-14465984D02*
X10168563Y-14494555D01*
X10168563Y-14494555D02*
X10149515Y-14513603D01*
X10149515Y-14513603D02*
X10130467Y-14523127D01*
X10368563Y-14465984D02*
X10387610Y-14465984D01*
X10387610Y-14465984D02*
X10406658Y-14475508D01*
X10406658Y-14475508D02*
X10416182Y-14485031D01*
X10416182Y-14485031D02*
X10425705Y-14504079D01*
X10425705Y-14504079D02*
X10435229Y-14542174D01*
X10435229Y-14542174D02*
X10435229Y-14589793D01*
X10435229Y-14589793D02*
X10425705Y-14627888D01*
X10425705Y-14627888D02*
X10416182Y-14646936D01*
X10416182Y-14646936D02*
X10406658Y-14656460D01*
X10406658Y-14656460D02*
X10387610Y-14665984D01*
X10387610Y-14665984D02*
X10368563Y-14665984D01*
X10368563Y-14665984D02*
X10349515Y-14656460D01*
X10349515Y-14656460D02*
X10339991Y-14646936D01*
X10339991Y-14646936D02*
X10330467Y-14627888D01*
X10330467Y-14627888D02*
X10320944Y-14589793D01*
X10320944Y-14589793D02*
X10320944Y-14542174D01*
X10320944Y-14542174D02*
X10330467Y-14504079D01*
X10330467Y-14504079D02*
X10339991Y-14485031D01*
X10339991Y-14485031D02*
X10349515Y-14475508D01*
X10349515Y-14475508D02*
X10368563Y-14465984D01*
X10559039Y-14465984D02*
X10578086Y-14465984D01*
X10578086Y-14465984D02*
X10597134Y-14475508D01*
X10597134Y-14475508D02*
X10606658Y-14485031D01*
X10606658Y-14485031D02*
X10616182Y-14504079D01*
X10616182Y-14504079D02*
X10625705Y-14542174D01*
X10625705Y-14542174D02*
X10625705Y-14589793D01*
X10625705Y-14589793D02*
X10616182Y-14627888D01*
X10616182Y-14627888D02*
X10606658Y-14646936D01*
X10606658Y-14646936D02*
X10597134Y-14656460D01*
X10597134Y-14656460D02*
X10578086Y-14665984D01*
X10578086Y-14665984D02*
X10559039Y-14665984D01*
X10559039Y-14665984D02*
X10539991Y-14656460D01*
X10539991Y-14656460D02*
X10530467Y-14646936D01*
X10530467Y-14646936D02*
X10520944Y-14627888D01*
X10520944Y-14627888D02*
X10511420Y-14589793D01*
X10511420Y-14589793D02*
X10511420Y-14542174D01*
X10511420Y-14542174D02*
X10520944Y-14504079D01*
X10520944Y-14504079D02*
X10530467Y-14485031D01*
X10530467Y-14485031D02*
X10539991Y-14475508D01*
X10539991Y-14475508D02*
X10559039Y-14465984D01*
X10711420Y-14665984D02*
X10711420Y-14532650D01*
X10711420Y-14551698D02*
X10720944Y-14542174D01*
X10720944Y-14542174D02*
X10739991Y-14532650D01*
X10739991Y-14532650D02*
X10768563Y-14532650D01*
X10768563Y-14532650D02*
X10787610Y-14542174D01*
X10787610Y-14542174D02*
X10797134Y-14561222D01*
X10797134Y-14561222D02*
X10797134Y-14665984D01*
X10797134Y-14561222D02*
X10806658Y-14542174D01*
X10806658Y-14542174D02*
X10825705Y-14532650D01*
X10825705Y-14532650D02*
X10854277Y-14532650D01*
X10854277Y-14532650D02*
X10873325Y-14542174D01*
X10873325Y-14542174D02*
X10882848Y-14561222D01*
X10882848Y-14561222D02*
X10882848Y-14665984D01*
X10978086Y-14665984D02*
X10978086Y-14532650D01*
X10978086Y-14551698D02*
X10987610Y-14542174D01*
X10987610Y-14542174D02*
X11006658Y-14532650D01*
X11006658Y-14532650D02*
X11035229Y-14532650D01*
X11035229Y-14532650D02*
X11054277Y-14542174D01*
X11054277Y-14542174D02*
X11063801Y-14561222D01*
X11063801Y-14561222D02*
X11063801Y-14665984D01*
X11063801Y-14561222D02*
X11073325Y-14542174D01*
X11073325Y-14542174D02*
X11092372Y-14532650D01*
X11092372Y-14532650D02*
X11120944Y-14532650D01*
X11120944Y-14532650D02*
X11139991Y-14542174D01*
X11139991Y-14542174D02*
X11149515Y-14561222D01*
X11149515Y-14561222D02*
X11149515Y-14665984D01*
X11539991Y-14456460D02*
X11368563Y-14713603D01*
X11797134Y-14465984D02*
X11816182Y-14465984D01*
X11816182Y-14465984D02*
X11835229Y-14475508D01*
X11835229Y-14475508D02*
X11844753Y-14485031D01*
X11844753Y-14485031D02*
X11854277Y-14504079D01*
X11854277Y-14504079D02*
X11863801Y-14542174D01*
X11863801Y-14542174D02*
X11863801Y-14589793D01*
X11863801Y-14589793D02*
X11854277Y-14627888D01*
X11854277Y-14627888D02*
X11844753Y-14646936D01*
X11844753Y-14646936D02*
X11835229Y-14656460D01*
X11835229Y-14656460D02*
X11816182Y-14665984D01*
X11816182Y-14665984D02*
X11797134Y-14665984D01*
X11797134Y-14665984D02*
X11778086Y-14656460D01*
X11778086Y-14656460D02*
X11768563Y-14646936D01*
X11768563Y-14646936D02*
X11759039Y-14627888D01*
X11759039Y-14627888D02*
X11749515Y-14589793D01*
X11749515Y-14589793D02*
X11749515Y-14542174D01*
X11749515Y-14542174D02*
X11759039Y-14504079D01*
X11759039Y-14504079D02*
X11768563Y-14485031D01*
X11768563Y-14485031D02*
X11778086Y-14475508D01*
X11778086Y-14475508D02*
X11797134Y-14465984D01*
X11949515Y-14646936D02*
X11959039Y-14656460D01*
X11959039Y-14656460D02*
X11949515Y-14665984D01*
X11949515Y-14665984D02*
X11939991Y-14656460D01*
X11939991Y-14656460D02*
X11949515Y-14646936D01*
X11949515Y-14646936D02*
X11949515Y-14665984D01*
X12082848Y-14465984D02*
X12101896Y-14465984D01*
X12101896Y-14465984D02*
X12120944Y-14475508D01*
X12120944Y-14475508D02*
X12130467Y-14485031D01*
X12130467Y-14485031D02*
X12139991Y-14504079D01*
X12139991Y-14504079D02*
X12149515Y-14542174D01*
X12149515Y-14542174D02*
X12149515Y-14589793D01*
X12149515Y-14589793D02*
X12139991Y-14627888D01*
X12139991Y-14627888D02*
X12130467Y-14646936D01*
X12130467Y-14646936D02*
X12120944Y-14656460D01*
X12120944Y-14656460D02*
X12101896Y-14665984D01*
X12101896Y-14665984D02*
X12082848Y-14665984D01*
X12082848Y-14665984D02*
X12063801Y-14656460D01*
X12063801Y-14656460D02*
X12054277Y-14646936D01*
X12054277Y-14646936D02*
X12044753Y-14627888D01*
X12044753Y-14627888D02*
X12035229Y-14589793D01*
X12035229Y-14589793D02*
X12035229Y-14542174D01*
X12035229Y-14542174D02*
X12044753Y-14504079D01*
X12044753Y-14504079D02*
X12054277Y-14485031D01*
X12054277Y-14485031D02*
X12063801Y-14475508D01*
X12063801Y-14475508D02*
X12082848Y-14465984D01*
X12320944Y-14532650D02*
X12320944Y-14665984D01*
X12273325Y-14456460D02*
X12225706Y-14599317D01*
X12225706Y-14599317D02*
X12349515Y-14599317D01*
X12406658Y-14465984D02*
X12530467Y-14465984D01*
X12530467Y-14465984D02*
X12463801Y-14542174D01*
X12463801Y-14542174D02*
X12492372Y-14542174D01*
X12492372Y-14542174D02*
X12511420Y-14551698D01*
X12511420Y-14551698D02*
X12520944Y-14561222D01*
X12520944Y-14561222D02*
X12530467Y-14580269D01*
X12530467Y-14580269D02*
X12530467Y-14627888D01*
X12530467Y-14627888D02*
X12520944Y-14646936D01*
X12520944Y-14646936D02*
X12511420Y-14656460D01*
X12511420Y-14656460D02*
X12492372Y-14665984D01*
X12492372Y-14665984D02*
X12435229Y-14665984D01*
X12435229Y-14665984D02*
X12416182Y-14656460D01*
X12416182Y-14656460D02*
X12406658Y-14646936D01*
X12597134Y-14465984D02*
X12720944Y-14465984D01*
X12720944Y-14465984D02*
X12654277Y-14542174D01*
X12654277Y-14542174D02*
X12682848Y-14542174D01*
X12682848Y-14542174D02*
X12701896Y-14551698D01*
X12701896Y-14551698D02*
X12711420Y-14561222D01*
X12711420Y-14561222D02*
X12720944Y-14580269D01*
X12720944Y-14580269D02*
X12720944Y-14627888D01*
X12720944Y-14627888D02*
X12711420Y-14646936D01*
X12711420Y-14646936D02*
X12701896Y-14656460D01*
X12701896Y-14656460D02*
X12682848Y-14665984D01*
X12682848Y-14665984D02*
X12625706Y-14665984D01*
X12625706Y-14665984D02*
X12606658Y-14656460D01*
X12606658Y-14656460D02*
X12597134Y-14646936D01*
X12797134Y-14465984D02*
X12797134Y-14504079D01*
X12873325Y-14465984D02*
X12873325Y-14504079D01*
X13168563Y-14742174D02*
X13159039Y-14732650D01*
X13159039Y-14732650D02*
X13139991Y-14704079D01*
X13139991Y-14704079D02*
X13130468Y-14685031D01*
X13130468Y-14685031D02*
X13120944Y-14656460D01*
X13120944Y-14656460D02*
X13111420Y-14608841D01*
X13111420Y-14608841D02*
X13111420Y-14570746D01*
X13111420Y-14570746D02*
X13120944Y-14523127D01*
X13120944Y-14523127D02*
X13130468Y-14494555D01*
X13130468Y-14494555D02*
X13139991Y-14475508D01*
X13139991Y-14475508D02*
X13159039Y-14446936D01*
X13159039Y-14446936D02*
X13168563Y-14437412D01*
X13235229Y-14485031D02*
X13244753Y-14475508D01*
X13244753Y-14475508D02*
X13263801Y-14465984D01*
X13263801Y-14465984D02*
X13311420Y-14465984D01*
X13311420Y-14465984D02*
X13330468Y-14475508D01*
X13330468Y-14475508D02*
X13339991Y-14485031D01*
X13339991Y-14485031D02*
X13349515Y-14504079D01*
X13349515Y-14504079D02*
X13349515Y-14523127D01*
X13349515Y-14523127D02*
X13339991Y-14551698D01*
X13339991Y-14551698D02*
X13225706Y-14665984D01*
X13225706Y-14665984D02*
X13349515Y-14665984D01*
X13587610Y-14665984D02*
X13587610Y-14465984D01*
X13673325Y-14665984D02*
X13673325Y-14561222D01*
X13673325Y-14561222D02*
X13663801Y-14542174D01*
X13663801Y-14542174D02*
X13644753Y-14532650D01*
X13644753Y-14532650D02*
X13616182Y-14532650D01*
X13616182Y-14532650D02*
X13597134Y-14542174D01*
X13597134Y-14542174D02*
X13587610Y-14551698D01*
X13797134Y-14665984D02*
X13778087Y-14656460D01*
X13778087Y-14656460D02*
X13768563Y-14646936D01*
X13768563Y-14646936D02*
X13759039Y-14627888D01*
X13759039Y-14627888D02*
X13759039Y-14570746D01*
X13759039Y-14570746D02*
X13768563Y-14551698D01*
X13768563Y-14551698D02*
X13778087Y-14542174D01*
X13778087Y-14542174D02*
X13797134Y-14532650D01*
X13797134Y-14532650D02*
X13825706Y-14532650D01*
X13825706Y-14532650D02*
X13844753Y-14542174D01*
X13844753Y-14542174D02*
X13854277Y-14551698D01*
X13854277Y-14551698D02*
X13863801Y-14570746D01*
X13863801Y-14570746D02*
X13863801Y-14627888D01*
X13863801Y-14627888D02*
X13854277Y-14646936D01*
X13854277Y-14646936D02*
X13844753Y-14656460D01*
X13844753Y-14656460D02*
X13825706Y-14665984D01*
X13825706Y-14665984D02*
X13797134Y-14665984D01*
X13978087Y-14665984D02*
X13959039Y-14656460D01*
X13959039Y-14656460D02*
X13949515Y-14637412D01*
X13949515Y-14637412D02*
X13949515Y-14465984D01*
X14130468Y-14656460D02*
X14111420Y-14665984D01*
X14111420Y-14665984D02*
X14073325Y-14665984D01*
X14073325Y-14665984D02*
X14054277Y-14656460D01*
X14054277Y-14656460D02*
X14044753Y-14637412D01*
X14044753Y-14637412D02*
X14044753Y-14561222D01*
X14044753Y-14561222D02*
X14054277Y-14542174D01*
X14054277Y-14542174D02*
X14073325Y-14532650D01*
X14073325Y-14532650D02*
X14111420Y-14532650D01*
X14111420Y-14532650D02*
X14130468Y-14542174D01*
X14130468Y-14542174D02*
X14139991Y-14561222D01*
X14139991Y-14561222D02*
X14139991Y-14580269D01*
X14139991Y-14580269D02*
X14044753Y-14599317D01*
X14216182Y-14656460D02*
X14235230Y-14665984D01*
X14235230Y-14665984D02*
X14273325Y-14665984D01*
X14273325Y-14665984D02*
X14292372Y-14656460D01*
X14292372Y-14656460D02*
X14301896Y-14637412D01*
X14301896Y-14637412D02*
X14301896Y-14627888D01*
X14301896Y-14627888D02*
X14292372Y-14608841D01*
X14292372Y-14608841D02*
X14273325Y-14599317D01*
X14273325Y-14599317D02*
X14244753Y-14599317D01*
X14244753Y-14599317D02*
X14225706Y-14589793D01*
X14225706Y-14589793D02*
X14216182Y-14570746D01*
X14216182Y-14570746D02*
X14216182Y-14561222D01*
X14216182Y-14561222D02*
X14225706Y-14542174D01*
X14225706Y-14542174D02*
X14244753Y-14532650D01*
X14244753Y-14532650D02*
X14273325Y-14532650D01*
X14273325Y-14532650D02*
X14292372Y-14542174D01*
X14368563Y-14742174D02*
X14378087Y-14732650D01*
X14378087Y-14732650D02*
X14397134Y-14704079D01*
X14397134Y-14704079D02*
X14406658Y-14685031D01*
X14406658Y-14685031D02*
X14416182Y-14656460D01*
X14416182Y-14656460D02*
X14425706Y-14608841D01*
X14425706Y-14608841D02*
X14425706Y-14570746D01*
X14425706Y-14570746D02*
X14416182Y-14523127D01*
X14416182Y-14523127D02*
X14406658Y-14494555D01*
X14406658Y-14494555D02*
X14397134Y-14475508D01*
X14397134Y-14475508D02*
X14378087Y-14446936D01*
X14378087Y-14446936D02*
X14368563Y-14437412D01*
X9393500Y-14738500D02*
X9593500Y-14938500D01*
X9593500Y-14738500D02*
X9393500Y-14938500D01*
X9593500Y-14838500D02*
G75*
G02*
X9393500Y-14838500I-100000J0D01*
G01*
X9393500Y-14838500D02*
G75*
G02*
X9593500Y-14838500I100000J0D01*
G01*
X9844753Y-14749031D02*
X9854277Y-14739508D01*
X9854277Y-14739508D02*
X9873324Y-14729984D01*
X9873324Y-14729984D02*
X9920944Y-14729984D01*
X9920944Y-14729984D02*
X9939991Y-14739508D01*
X9939991Y-14739508D02*
X9949515Y-14749031D01*
X9949515Y-14749031D02*
X9959039Y-14768079D01*
X9959039Y-14768079D02*
X9959039Y-14787127D01*
X9959039Y-14787127D02*
X9949515Y-14815698D01*
X9949515Y-14815698D02*
X9835229Y-14929984D01*
X9835229Y-14929984D02*
X9959039Y-14929984D01*
X10044753Y-14910936D02*
X10054277Y-14920460D01*
X10054277Y-14920460D02*
X10044753Y-14929984D01*
X10044753Y-14929984D02*
X10035229Y-14920460D01*
X10035229Y-14920460D02*
X10044753Y-14910936D01*
X10044753Y-14910936D02*
X10044753Y-14929984D01*
X10235229Y-14729984D02*
X10139991Y-14729984D01*
X10139991Y-14729984D02*
X10130467Y-14825222D01*
X10130467Y-14825222D02*
X10139991Y-14815698D01*
X10139991Y-14815698D02*
X10159039Y-14806174D01*
X10159039Y-14806174D02*
X10206658Y-14806174D01*
X10206658Y-14806174D02*
X10225705Y-14815698D01*
X10225705Y-14815698D02*
X10235229Y-14825222D01*
X10235229Y-14825222D02*
X10244753Y-14844269D01*
X10244753Y-14844269D02*
X10244753Y-14891888D01*
X10244753Y-14891888D02*
X10235229Y-14910936D01*
X10235229Y-14910936D02*
X10225705Y-14920460D01*
X10225705Y-14920460D02*
X10206658Y-14929984D01*
X10206658Y-14929984D02*
X10159039Y-14929984D01*
X10159039Y-14929984D02*
X10139991Y-14920460D01*
X10139991Y-14920460D02*
X10130467Y-14910936D01*
X10368563Y-14729984D02*
X10387610Y-14729984D01*
X10387610Y-14729984D02*
X10406658Y-14739508D01*
X10406658Y-14739508D02*
X10416182Y-14749031D01*
X10416182Y-14749031D02*
X10425705Y-14768079D01*
X10425705Y-14768079D02*
X10435229Y-14806174D01*
X10435229Y-14806174D02*
X10435229Y-14853793D01*
X10435229Y-14853793D02*
X10425705Y-14891888D01*
X10425705Y-14891888D02*
X10416182Y-14910936D01*
X10416182Y-14910936D02*
X10406658Y-14920460D01*
X10406658Y-14920460D02*
X10387610Y-14929984D01*
X10387610Y-14929984D02*
X10368563Y-14929984D01*
X10368563Y-14929984D02*
X10349515Y-14920460D01*
X10349515Y-14920460D02*
X10339991Y-14910936D01*
X10339991Y-14910936D02*
X10330467Y-14891888D01*
X10330467Y-14891888D02*
X10320944Y-14853793D01*
X10320944Y-14853793D02*
X10320944Y-14806174D01*
X10320944Y-14806174D02*
X10330467Y-14768079D01*
X10330467Y-14768079D02*
X10339991Y-14749031D01*
X10339991Y-14749031D02*
X10349515Y-14739508D01*
X10349515Y-14739508D02*
X10368563Y-14729984D01*
X10559039Y-14729984D02*
X10578086Y-14729984D01*
X10578086Y-14729984D02*
X10597134Y-14739508D01*
X10597134Y-14739508D02*
X10606658Y-14749031D01*
X10606658Y-14749031D02*
X10616182Y-14768079D01*
X10616182Y-14768079D02*
X10625705Y-14806174D01*
X10625705Y-14806174D02*
X10625705Y-14853793D01*
X10625705Y-14853793D02*
X10616182Y-14891888D01*
X10616182Y-14891888D02*
X10606658Y-14910936D01*
X10606658Y-14910936D02*
X10597134Y-14920460D01*
X10597134Y-14920460D02*
X10578086Y-14929984D01*
X10578086Y-14929984D02*
X10559039Y-14929984D01*
X10559039Y-14929984D02*
X10539991Y-14920460D01*
X10539991Y-14920460D02*
X10530467Y-14910936D01*
X10530467Y-14910936D02*
X10520944Y-14891888D01*
X10520944Y-14891888D02*
X10511420Y-14853793D01*
X10511420Y-14853793D02*
X10511420Y-14806174D01*
X10511420Y-14806174D02*
X10520944Y-14768079D01*
X10520944Y-14768079D02*
X10530467Y-14749031D01*
X10530467Y-14749031D02*
X10539991Y-14739508D01*
X10539991Y-14739508D02*
X10559039Y-14729984D01*
X10711420Y-14929984D02*
X10711420Y-14796650D01*
X10711420Y-14815698D02*
X10720944Y-14806174D01*
X10720944Y-14806174D02*
X10739991Y-14796650D01*
X10739991Y-14796650D02*
X10768563Y-14796650D01*
X10768563Y-14796650D02*
X10787610Y-14806174D01*
X10787610Y-14806174D02*
X10797134Y-14825222D01*
X10797134Y-14825222D02*
X10797134Y-14929984D01*
X10797134Y-14825222D02*
X10806658Y-14806174D01*
X10806658Y-14806174D02*
X10825705Y-14796650D01*
X10825705Y-14796650D02*
X10854277Y-14796650D01*
X10854277Y-14796650D02*
X10873325Y-14806174D01*
X10873325Y-14806174D02*
X10882848Y-14825222D01*
X10882848Y-14825222D02*
X10882848Y-14929984D01*
X10978086Y-14929984D02*
X10978086Y-14796650D01*
X10978086Y-14815698D02*
X10987610Y-14806174D01*
X10987610Y-14806174D02*
X11006658Y-14796650D01*
X11006658Y-14796650D02*
X11035229Y-14796650D01*
X11035229Y-14796650D02*
X11054277Y-14806174D01*
X11054277Y-14806174D02*
X11063801Y-14825222D01*
X11063801Y-14825222D02*
X11063801Y-14929984D01*
X11063801Y-14825222D02*
X11073325Y-14806174D01*
X11073325Y-14806174D02*
X11092372Y-14796650D01*
X11092372Y-14796650D02*
X11120944Y-14796650D01*
X11120944Y-14796650D02*
X11139991Y-14806174D01*
X11139991Y-14806174D02*
X11149515Y-14825222D01*
X11149515Y-14825222D02*
X11149515Y-14929984D01*
X11539991Y-14720460D02*
X11368563Y-14977603D01*
X11797134Y-14729984D02*
X11816182Y-14729984D01*
X11816182Y-14729984D02*
X11835229Y-14739508D01*
X11835229Y-14739508D02*
X11844753Y-14749031D01*
X11844753Y-14749031D02*
X11854277Y-14768079D01*
X11854277Y-14768079D02*
X11863801Y-14806174D01*
X11863801Y-14806174D02*
X11863801Y-14853793D01*
X11863801Y-14853793D02*
X11854277Y-14891888D01*
X11854277Y-14891888D02*
X11844753Y-14910936D01*
X11844753Y-14910936D02*
X11835229Y-14920460D01*
X11835229Y-14920460D02*
X11816182Y-14929984D01*
X11816182Y-14929984D02*
X11797134Y-14929984D01*
X11797134Y-14929984D02*
X11778086Y-14920460D01*
X11778086Y-14920460D02*
X11768563Y-14910936D01*
X11768563Y-14910936D02*
X11759039Y-14891888D01*
X11759039Y-14891888D02*
X11749515Y-14853793D01*
X11749515Y-14853793D02*
X11749515Y-14806174D01*
X11749515Y-14806174D02*
X11759039Y-14768079D01*
X11759039Y-14768079D02*
X11768563Y-14749031D01*
X11768563Y-14749031D02*
X11778086Y-14739508D01*
X11778086Y-14739508D02*
X11797134Y-14729984D01*
X11949515Y-14910936D02*
X11959039Y-14920460D01*
X11959039Y-14920460D02*
X11949515Y-14929984D01*
X11949515Y-14929984D02*
X11939991Y-14920460D01*
X11939991Y-14920460D02*
X11949515Y-14910936D01*
X11949515Y-14910936D02*
X11949515Y-14929984D01*
X12082848Y-14729984D02*
X12101896Y-14729984D01*
X12101896Y-14729984D02*
X12120944Y-14739508D01*
X12120944Y-14739508D02*
X12130467Y-14749031D01*
X12130467Y-14749031D02*
X12139991Y-14768079D01*
X12139991Y-14768079D02*
X12149515Y-14806174D01*
X12149515Y-14806174D02*
X12149515Y-14853793D01*
X12149515Y-14853793D02*
X12139991Y-14891888D01*
X12139991Y-14891888D02*
X12130467Y-14910936D01*
X12130467Y-14910936D02*
X12120944Y-14920460D01*
X12120944Y-14920460D02*
X12101896Y-14929984D01*
X12101896Y-14929984D02*
X12082848Y-14929984D01*
X12082848Y-14929984D02*
X12063801Y-14920460D01*
X12063801Y-14920460D02*
X12054277Y-14910936D01*
X12054277Y-14910936D02*
X12044753Y-14891888D01*
X12044753Y-14891888D02*
X12035229Y-14853793D01*
X12035229Y-14853793D02*
X12035229Y-14806174D01*
X12035229Y-14806174D02*
X12044753Y-14768079D01*
X12044753Y-14768079D02*
X12054277Y-14749031D01*
X12054277Y-14749031D02*
X12063801Y-14739508D01*
X12063801Y-14739508D02*
X12082848Y-14729984D01*
X12244753Y-14929984D02*
X12282848Y-14929984D01*
X12282848Y-14929984D02*
X12301896Y-14920460D01*
X12301896Y-14920460D02*
X12311420Y-14910936D01*
X12311420Y-14910936D02*
X12330467Y-14882365D01*
X12330467Y-14882365D02*
X12339991Y-14844269D01*
X12339991Y-14844269D02*
X12339991Y-14768079D01*
X12339991Y-14768079D02*
X12330467Y-14749031D01*
X12330467Y-14749031D02*
X12320944Y-14739508D01*
X12320944Y-14739508D02*
X12301896Y-14729984D01*
X12301896Y-14729984D02*
X12263801Y-14729984D01*
X12263801Y-14729984D02*
X12244753Y-14739508D01*
X12244753Y-14739508D02*
X12235229Y-14749031D01*
X12235229Y-14749031D02*
X12225706Y-14768079D01*
X12225706Y-14768079D02*
X12225706Y-14815698D01*
X12225706Y-14815698D02*
X12235229Y-14834746D01*
X12235229Y-14834746D02*
X12244753Y-14844269D01*
X12244753Y-14844269D02*
X12263801Y-14853793D01*
X12263801Y-14853793D02*
X12301896Y-14853793D01*
X12301896Y-14853793D02*
X12320944Y-14844269D01*
X12320944Y-14844269D02*
X12330467Y-14834746D01*
X12330467Y-14834746D02*
X12339991Y-14815698D01*
X12454277Y-14815698D02*
X12435229Y-14806174D01*
X12435229Y-14806174D02*
X12425706Y-14796650D01*
X12425706Y-14796650D02*
X12416182Y-14777603D01*
X12416182Y-14777603D02*
X12416182Y-14768079D01*
X12416182Y-14768079D02*
X12425706Y-14749031D01*
X12425706Y-14749031D02*
X12435229Y-14739508D01*
X12435229Y-14739508D02*
X12454277Y-14729984D01*
X12454277Y-14729984D02*
X12492372Y-14729984D01*
X12492372Y-14729984D02*
X12511420Y-14739508D01*
X12511420Y-14739508D02*
X12520944Y-14749031D01*
X12520944Y-14749031D02*
X12530467Y-14768079D01*
X12530467Y-14768079D02*
X12530467Y-14777603D01*
X12530467Y-14777603D02*
X12520944Y-14796650D01*
X12520944Y-14796650D02*
X12511420Y-14806174D01*
X12511420Y-14806174D02*
X12492372Y-14815698D01*
X12492372Y-14815698D02*
X12454277Y-14815698D01*
X12454277Y-14815698D02*
X12435229Y-14825222D01*
X12435229Y-14825222D02*
X12425706Y-14834746D01*
X12425706Y-14834746D02*
X12416182Y-14853793D01*
X12416182Y-14853793D02*
X12416182Y-14891888D01*
X12416182Y-14891888D02*
X12425706Y-14910936D01*
X12425706Y-14910936D02*
X12435229Y-14920460D01*
X12435229Y-14920460D02*
X12454277Y-14929984D01*
X12454277Y-14929984D02*
X12492372Y-14929984D01*
X12492372Y-14929984D02*
X12511420Y-14920460D01*
X12511420Y-14920460D02*
X12520944Y-14910936D01*
X12520944Y-14910936D02*
X12530467Y-14891888D01*
X12530467Y-14891888D02*
X12530467Y-14853793D01*
X12530467Y-14853793D02*
X12520944Y-14834746D01*
X12520944Y-14834746D02*
X12511420Y-14825222D01*
X12511420Y-14825222D02*
X12492372Y-14815698D01*
X12701896Y-14796650D02*
X12701896Y-14929984D01*
X12654277Y-14720460D02*
X12606658Y-14863317D01*
X12606658Y-14863317D02*
X12730467Y-14863317D01*
X12797134Y-14729984D02*
X12797134Y-14768079D01*
X12873325Y-14729984D02*
X12873325Y-14768079D01*
X13168563Y-15006174D02*
X13159039Y-14996650D01*
X13159039Y-14996650D02*
X13139991Y-14968079D01*
X13139991Y-14968079D02*
X13130468Y-14949031D01*
X13130468Y-14949031D02*
X13120944Y-14920460D01*
X13120944Y-14920460D02*
X13111420Y-14872841D01*
X13111420Y-14872841D02*
X13111420Y-14834746D01*
X13111420Y-14834746D02*
X13120944Y-14787127D01*
X13120944Y-14787127D02*
X13130468Y-14758555D01*
X13130468Y-14758555D02*
X13139991Y-14739508D01*
X13139991Y-14739508D02*
X13159039Y-14710936D01*
X13159039Y-14710936D02*
X13168563Y-14701412D01*
X13330468Y-14796650D02*
X13330468Y-14929984D01*
X13282848Y-14720460D02*
X13235229Y-14863317D01*
X13235229Y-14863317D02*
X13359039Y-14863317D01*
X13587610Y-14929984D02*
X13587610Y-14729984D01*
X13673325Y-14929984D02*
X13673325Y-14825222D01*
X13673325Y-14825222D02*
X13663801Y-14806174D01*
X13663801Y-14806174D02*
X13644753Y-14796650D01*
X13644753Y-14796650D02*
X13616182Y-14796650D01*
X13616182Y-14796650D02*
X13597134Y-14806174D01*
X13597134Y-14806174D02*
X13587610Y-14815698D01*
X13797134Y-14929984D02*
X13778087Y-14920460D01*
X13778087Y-14920460D02*
X13768563Y-14910936D01*
X13768563Y-14910936D02*
X13759039Y-14891888D01*
X13759039Y-14891888D02*
X13759039Y-14834746D01*
X13759039Y-14834746D02*
X13768563Y-14815698D01*
X13768563Y-14815698D02*
X13778087Y-14806174D01*
X13778087Y-14806174D02*
X13797134Y-14796650D01*
X13797134Y-14796650D02*
X13825706Y-14796650D01*
X13825706Y-14796650D02*
X13844753Y-14806174D01*
X13844753Y-14806174D02*
X13854277Y-14815698D01*
X13854277Y-14815698D02*
X13863801Y-14834746D01*
X13863801Y-14834746D02*
X13863801Y-14891888D01*
X13863801Y-14891888D02*
X13854277Y-14910936D01*
X13854277Y-14910936D02*
X13844753Y-14920460D01*
X13844753Y-14920460D02*
X13825706Y-14929984D01*
X13825706Y-14929984D02*
X13797134Y-14929984D01*
X13978087Y-14929984D02*
X13959039Y-14920460D01*
X13959039Y-14920460D02*
X13949515Y-14901412D01*
X13949515Y-14901412D02*
X13949515Y-14729984D01*
X14130468Y-14920460D02*
X14111420Y-14929984D01*
X14111420Y-14929984D02*
X14073325Y-14929984D01*
X14073325Y-14929984D02*
X14054277Y-14920460D01*
X14054277Y-14920460D02*
X14044753Y-14901412D01*
X14044753Y-14901412D02*
X14044753Y-14825222D01*
X14044753Y-14825222D02*
X14054277Y-14806174D01*
X14054277Y-14806174D02*
X14073325Y-14796650D01*
X14073325Y-14796650D02*
X14111420Y-14796650D01*
X14111420Y-14796650D02*
X14130468Y-14806174D01*
X14130468Y-14806174D02*
X14139991Y-14825222D01*
X14139991Y-14825222D02*
X14139991Y-14844269D01*
X14139991Y-14844269D02*
X14044753Y-14863317D01*
X14216182Y-14920460D02*
X14235230Y-14929984D01*
X14235230Y-14929984D02*
X14273325Y-14929984D01*
X14273325Y-14929984D02*
X14292372Y-14920460D01*
X14292372Y-14920460D02*
X14301896Y-14901412D01*
X14301896Y-14901412D02*
X14301896Y-14891888D01*
X14301896Y-14891888D02*
X14292372Y-14872841D01*
X14292372Y-14872841D02*
X14273325Y-14863317D01*
X14273325Y-14863317D02*
X14244753Y-14863317D01*
X14244753Y-14863317D02*
X14225706Y-14853793D01*
X14225706Y-14853793D02*
X14216182Y-14834746D01*
X14216182Y-14834746D02*
X14216182Y-14825222D01*
X14216182Y-14825222D02*
X14225706Y-14806174D01*
X14225706Y-14806174D02*
X14244753Y-14796650D01*
X14244753Y-14796650D02*
X14273325Y-14796650D01*
X14273325Y-14796650D02*
X14292372Y-14806174D01*
X14368563Y-15006174D02*
X14378087Y-14996650D01*
X14378087Y-14996650D02*
X14397134Y-14968079D01*
X14397134Y-14968079D02*
X14406658Y-14949031D01*
X14406658Y-14949031D02*
X14416182Y-14920460D01*
X14416182Y-14920460D02*
X14425706Y-14872841D01*
X14425706Y-14872841D02*
X14425706Y-14834746D01*
X14425706Y-14834746D02*
X14416182Y-14787127D01*
X14416182Y-14787127D02*
X14406658Y-14758555D01*
X14406658Y-14758555D02*
X14397134Y-14739508D01*
X14397134Y-14739508D02*
X14378087Y-14710936D01*
X14378087Y-14710936D02*
X14368563Y-14701412D01*
M02*
